G04 #@! TF.FileFunction,Soldermask,Top*
%FSLAX46Y46*%
G04 Gerber Fmt 4.6, Leading zero omitted, Abs format (unit mm)*
G04 Created by KiCad (PCBNEW 4.0.2-stable) date Friday, August 05, 2016 'pmt' 09:57:19 pm*
%MOMM*%
G01*
G04 APERTURE LIST*
%ADD10C,0.100000*%
%ADD11R,1.000000X2.400000*%
%ADD12C,1.924000*%
%ADD13R,2.127200X2.432000*%
%ADD14O,2.127200X2.432000*%
%ADD15R,1.797000X1.797000*%
%ADD16R,1.700000X1.700000*%
%ADD17C,1.700000*%
%ADD18R,1.700000X1.100000*%
%ADD19R,2.432000X2.127200*%
%ADD20O,2.432000X2.127200*%
%ADD21R,2.432000X2.432000*%
%ADD22O,2.432000X2.432000*%
%ADD23C,1.797000*%
%ADD24R,1.900000X1.000000*%
G04 APERTURE END LIST*
D10*
D11*
X46355000Y-57341500D03*
X47625000Y-57341500D03*
X48895000Y-57341500D03*
X50165000Y-57341500D03*
X51435000Y-57341500D03*
X52705000Y-57341500D03*
X53975000Y-57341500D03*
X55245000Y-57341500D03*
X56515000Y-57341500D03*
X57785000Y-57341500D03*
X59055000Y-57341500D03*
X60325000Y-57341500D03*
X61595000Y-57341500D03*
X62865000Y-57341500D03*
X62865000Y-47941500D03*
X61595000Y-47941500D03*
X60325000Y-47941500D03*
X59055000Y-47941500D03*
X57785000Y-47941500D03*
X56515000Y-47941500D03*
X55245000Y-47941500D03*
X53975000Y-47941500D03*
X52705000Y-47941500D03*
X51435000Y-47941500D03*
X50165000Y-47941500D03*
X48895000Y-47941500D03*
X47625000Y-47941500D03*
X46355000Y-47941500D03*
D12*
X23520400Y-29146500D03*
X33680400Y-29146500D03*
D13*
X36195000Y-23177500D03*
D14*
X33655000Y-23177500D03*
X31115000Y-23177500D03*
X28575000Y-23177500D03*
X26035000Y-23177500D03*
X23495000Y-23177500D03*
D12*
X43815000Y-38036500D03*
X43815000Y-27876500D03*
D15*
X28600400Y-18986500D03*
X31140400Y-18986500D03*
X33680400Y-18986500D03*
D16*
X31115000Y-34186500D03*
D17*
X31115000Y-31686500D03*
D18*
X33603000Y-49806500D03*
X33603000Y-52006500D03*
X36703000Y-52006500D03*
X36703000Y-49806500D03*
D19*
X19583400Y-22796500D03*
D20*
X19583400Y-25336500D03*
X19583400Y-27876500D03*
X19583400Y-30416500D03*
X19583400Y-32956500D03*
X19583400Y-35496500D03*
X19583400Y-38036500D03*
X19583400Y-40576500D03*
D19*
X19583400Y-43116500D03*
D20*
X19583400Y-45656500D03*
X19583400Y-48196500D03*
X19583400Y-50736500D03*
X19583400Y-53276500D03*
X19583400Y-55816500D03*
X19583400Y-58356500D03*
X19583400Y-60896500D03*
D21*
X24790400Y-18986500D03*
D22*
X24790400Y-16446500D03*
D13*
X41275000Y-24066500D03*
D14*
X43815000Y-24066500D03*
X46355000Y-24066500D03*
X48895000Y-24066500D03*
X51435000Y-24066500D03*
X53975000Y-24066500D03*
X56515000Y-24066500D03*
X59055000Y-24066500D03*
X61595000Y-24066500D03*
D13*
X43815000Y-40576500D03*
D14*
X46355000Y-40576500D03*
X48895000Y-40576500D03*
X51435000Y-40576500D03*
X53975000Y-40576500D03*
X56515000Y-40576500D03*
X59055000Y-40576500D03*
X61595000Y-40576500D03*
D13*
X41275000Y-44386500D03*
D14*
X43815000Y-44386500D03*
X46355000Y-44386500D03*
X48895000Y-44386500D03*
X51435000Y-44386500D03*
X53975000Y-44386500D03*
X56515000Y-44386500D03*
X59055000Y-44386500D03*
X61595000Y-44386500D03*
D13*
X41275000Y-60896500D03*
D14*
X43815000Y-60896500D03*
X46355000Y-60896500D03*
X48895000Y-60896500D03*
X51435000Y-60896500D03*
X53975000Y-60896500D03*
X56515000Y-60896500D03*
X59055000Y-60896500D03*
X61595000Y-60896500D03*
D12*
X41275000Y-46926500D03*
X41275000Y-57086500D03*
X23520400Y-26606500D03*
X33680400Y-26606500D03*
D15*
X41275000Y-40576500D03*
D23*
X41275000Y-38036500D03*
X41275000Y-35496500D03*
X41275000Y-32956500D03*
X41275000Y-30416500D03*
X41275000Y-27876500D03*
D15*
X28600400Y-16446500D03*
D23*
X31140400Y-16446500D03*
X33680400Y-16446500D03*
D24*
X23200400Y-31686500D03*
X23200400Y-32956500D03*
X23200400Y-34226500D03*
X23200400Y-35496500D03*
X23200400Y-36766500D03*
X23200400Y-38036500D03*
X23200400Y-39306500D03*
X23200400Y-40576500D03*
X28600400Y-40576500D03*
X28600400Y-39306500D03*
X28600400Y-38036500D03*
X28600400Y-36766500D03*
X28600400Y-35496500D03*
X28600400Y-34226500D03*
X28600400Y-32956500D03*
X28600400Y-31686500D03*
X23233400Y-43116500D03*
X23233400Y-44386500D03*
X23233400Y-45656500D03*
X23233400Y-46926500D03*
X23233400Y-48196500D03*
X23233400Y-49466500D03*
X23233400Y-50736500D03*
X23233400Y-52006500D03*
X28633400Y-52006500D03*
X28633400Y-50736500D03*
X28633400Y-49466500D03*
X28633400Y-48196500D03*
X28633400Y-46926500D03*
X28633400Y-45656500D03*
X28633400Y-44386500D03*
X28633400Y-43116500D03*
D11*
X46355000Y-37021500D03*
X47625000Y-37021500D03*
X48895000Y-37021500D03*
X50165000Y-37021500D03*
X51435000Y-37021500D03*
X52705000Y-37021500D03*
X53975000Y-37021500D03*
X55245000Y-37021500D03*
X56515000Y-37021500D03*
X57785000Y-37021500D03*
X59055000Y-37021500D03*
X60325000Y-37021500D03*
X61595000Y-37021500D03*
X62865000Y-37021500D03*
X62865000Y-27621500D03*
X61595000Y-27621500D03*
X60325000Y-27621500D03*
X59055000Y-27621500D03*
X57785000Y-27621500D03*
X56515000Y-27621500D03*
X55245000Y-27621500D03*
X53975000Y-27621500D03*
X52705000Y-27621500D03*
X51435000Y-27621500D03*
X50165000Y-27621500D03*
X48895000Y-27621500D03*
X47625000Y-27621500D03*
X46355000Y-27621500D03*
D23*
X54165500Y-16010500D03*
X54165500Y-20510500D03*
X47665500Y-16010500D03*
X47665500Y-20510500D03*
X63055500Y-16010500D03*
X63055500Y-20510500D03*
X56555500Y-16010500D03*
X56555500Y-20510500D03*
X45275500Y-16010500D03*
X45275500Y-20510500D03*
X38775500Y-16010500D03*
X38775500Y-20510500D03*
M02*
