M48
;DRILL file {KiCad 4.0.2-stable} date Friday, August 05, 2016 'pmt' 09:57:26 pm
;FORMAT={-:-/ absolute / metric / decimal}
FMAT,2
METRIC,TZ
T1C0.330
T2C0.800
T3C0.800
T4C0.813
T5C1.016
%
G90
G05
M71
T1
X19.177Y-20.701
X19.177Y-15.748
X19.177Y-18.923
X19.177Y-17.399
X20.955Y-15.748
X20.955Y-17.399
X20.955Y-18.923
X20.955Y-20.701
X21.717Y-22.479
X22.733Y-17.399
X22.733Y-18.923
X22.733Y-20.701
X22.733Y-15.748
X24.384Y-21.209
X24.765Y-44.767
X24.892Y-52.324
X25.019Y-27.94
X25.019Y-30.861
X25.019Y-46.164
X25.4Y-47.879
X25.4Y-49.022
X25.4Y-42.862
X25.527Y-26.543
X25.527Y-37.148
X25.527Y-29.591
X25.781Y-44.45
X25.781Y-52.324
X25.908Y-49.911
X26.162Y-25.273
X26.416Y-41.529
X26.416Y-45.339
X26.416Y-42.862
X26.67Y-27.94
X26.797Y-17.653
X26.797Y-18.923
X26.797Y-20.066
X26.797Y-52.324
X27.051Y-29.591
X27.051Y-40.513
X27.305Y-48.578
X27.432Y-26.543
X27.559Y-41.91
X28.575Y-27.94
X28.575Y-29.591
X28.702Y-41.783
X30.099Y-46.926
X30.734Y-52.324
X30.988Y-29.845
X30.988Y-39.306
X31.115Y-21.018
X31.75Y-50.736
X31.75Y-52.324
X32.258Y-47.117
X32.258Y-48.26
X32.385Y-25.019
X33.401Y-34.099
X34.036Y-31.115
X34.036Y-32.766
X34.544Y-21.336
X34.671Y-25.019
X35.052Y-52.324
X35.179Y-27.94
X35.306Y-15.748
X35.433Y-30.226
X35.56Y-17.78
X35.56Y-19.812
X35.56Y-31.877
X35.941Y-44.133
X36.195Y-25.527
X36.449Y-18.796
X36.449Y-21.082
X36.449Y-27.051
X36.449Y-29.083
X36.576Y-16.51
X36.83Y-30.988
X37.465Y-36.576
X38.1Y-31.75
X38.481Y-36.576
X38.735Y-28.575
X38.735Y-24.765
X38.735Y-26.797
X38.735Y-23.114
X39.243Y-18.415
X39.497Y-36.576
X39.624Y-22.225
X39.624Y-25.908
X39.624Y-27.686
X39.624Y-29.591
X40.259Y-17.399
X40.64Y-15.621
X40.767Y-18.923
X41.021Y-20.447
X41.275Y-21.844
X41.275Y-26.162
X42.164Y-15.621
X42.164Y-17.399
X42.291Y-19.304
X42.672Y-26.67
X42.799Y-29.337
X42.799Y-31.623
X42.799Y-34.163
X42.926Y-22.098
X43.307Y-20.701
X43.561Y-15.621
X43.942Y-17.399
X44.196Y-30.734
X44.323Y-33.147
X44.45Y-18.796
X44.958Y-36.322
X45.085Y-22.225
X45.212Y-29.21
X45.847Y-31.623
X45.974Y-17.907
X46.482Y-21.844
X46.482Y-30.226
X46.482Y-19.304
X47.625Y-22.352
X47.879Y-17.907
X48.006Y-29.718
X48.895Y-19.304
X49.022Y-21.844
X49.403Y-15.748
X50.292Y-16.891
X50.927Y-15.748
X51.435Y-18.288
X51.435Y-20.066
X51.435Y-21.971
X52.324Y-15.748
X53.086Y-17.653
X53.721Y-22.098
X55.372Y-19.177
X55.372Y-21.971
X56.515Y-18.161
X56.896Y-49.911
X57.785Y-22.225
X57.785Y-31.369
X57.785Y-33.147
X57.785Y-34.925
X57.785Y-50.8
X57.912Y-49.911
X58.039Y-19.177
X58.42Y-15.748
X58.42Y-17.145
X59.309Y-29.718
X59.563Y-20.447
X59.69Y-34.925
X59.69Y-55.118
X59.817Y-52.451
X59.944Y-15.748
X59.944Y-18.161
X60.325Y-25.781
X60.325Y-50.038
X60.325Y-22.225
X60.579Y-31.369
X60.579Y-33.147
X61.087Y-51.181
X61.341Y-15.748
X61.341Y-17.145
X61.341Y-53.848
X61.341Y-42.545
X61.595Y-19.177
X61.595Y-25.781
X61.595Y-58.991
X61.722Y-29.718
X61.722Y-34.925
X61.849Y-21.844
X62.103Y-50.038
X62.103Y-52.451
X63.5Y-17.653
X63.5Y-18.796
X63.5Y-22.225
X63.5Y-24.003
X63.5Y-25.781
X63.5Y-29.718
X63.5Y-31.369
X63.5Y-33.147
X63.5Y-34.925
T2
X31.115Y-34.186
T3
X31.115Y-31.686
T4
X23.52Y-26.607
X23.52Y-29.146
X28.6Y-16.447
X31.14Y-16.447
X33.68Y-16.447
X33.68Y-26.607
X33.68Y-29.146
X38.776Y-16.011
X38.776Y-20.511
X41.275Y-27.877
X41.275Y-30.416
X41.275Y-32.956
X41.275Y-35.496
X41.275Y-38.036
X41.275Y-40.576
X41.275Y-46.926
X41.275Y-57.087
X43.815Y-27.877
X43.815Y-38.036
X45.276Y-16.011
X45.276Y-20.511
X47.665Y-16.011
X47.665Y-20.511
X54.165Y-16.011
X54.165Y-20.511
X56.555Y-16.011
X56.555Y-20.511
X63.055Y-16.011
X63.055Y-20.511
T5
X19.583Y-22.796
X19.583Y-25.336
X19.583Y-27.877
X19.583Y-30.416
X19.583Y-32.956
X19.583Y-35.496
X19.583Y-38.036
X19.583Y-40.576
X19.583Y-43.116
X19.583Y-45.657
X19.583Y-48.197
X19.583Y-50.736
X19.583Y-53.276
X19.583Y-55.816
X19.583Y-58.356
X19.583Y-60.896
X23.495Y-23.177
X24.79Y-16.447
X24.79Y-18.986
X26.035Y-23.177
X28.575Y-23.177
X31.115Y-23.177
X33.655Y-23.177
X36.195Y-23.177
X41.275Y-24.066
X41.275Y-44.386
X41.275Y-60.896
X43.815Y-24.066
X43.815Y-40.576
X43.815Y-44.386
X43.815Y-60.896
X46.355Y-24.066
X46.355Y-40.576
X46.355Y-44.386
X46.355Y-60.896
X48.895Y-24.066
X48.895Y-40.576
X48.895Y-44.386
X48.895Y-60.896
X51.435Y-24.066
X51.435Y-40.576
X51.435Y-44.386
X51.435Y-60.896
X53.975Y-24.066
X53.975Y-40.576
X53.975Y-44.386
X53.975Y-60.896
X56.515Y-24.066
X56.515Y-40.576
X56.515Y-44.386
X56.515Y-60.896
X59.055Y-24.066
X59.055Y-40.576
X59.055Y-44.386
X59.055Y-60.896
X61.595Y-24.066
X61.595Y-40.576
X61.595Y-44.386
X61.595Y-60.896
T0
M30
