G04 #@! TF.FileFunction,Copper,L2,Bot,Signal*
%FSLAX46Y46*%
G04 Gerber Fmt 4.6, Leading zero omitted, Abs format (unit mm)*
G04 Created by KiCad (PCBNEW 4.0.2-stable) date Friday, August 05, 2016 'pmt' 09:57:19 pm*
%MOMM*%
G01*
G04 APERTURE LIST*
%ADD10C,0.100000*%
%ADD11C,1.524000*%
%ADD12R,1.727200X2.032000*%
%ADD13O,1.727200X2.032000*%
%ADD14R,1.300000X1.300000*%
%ADD15C,1.300000*%
%ADD16R,2.032000X1.727200*%
%ADD17O,2.032000X1.727200*%
%ADD18R,2.032000X2.032000*%
%ADD19O,2.032000X2.032000*%
%ADD20R,1.397000X1.397000*%
%ADD21C,1.397000*%
%ADD22R,2.501900X1.000760*%
%ADD23R,4.000500X1.998980*%
%ADD24R,2.500000X1.100000*%
%ADD25C,0.685800*%
%ADD26C,0.152400*%
%ADD27C,0.254000*%
G04 APERTURE END LIST*
D10*
D11*
X23520400Y-29146500D03*
X33680400Y-29146500D03*
D12*
X36195000Y-23177500D03*
D13*
X33655000Y-23177500D03*
X31115000Y-23177500D03*
X28575000Y-23177500D03*
X26035000Y-23177500D03*
X23495000Y-23177500D03*
D11*
X43815000Y-38036500D03*
X43815000Y-27876500D03*
D14*
X31115000Y-34186500D03*
D15*
X31115000Y-31686500D03*
D16*
X19583400Y-22796500D03*
D17*
X19583400Y-25336500D03*
X19583400Y-27876500D03*
X19583400Y-30416500D03*
X19583400Y-32956500D03*
X19583400Y-35496500D03*
X19583400Y-38036500D03*
X19583400Y-40576500D03*
D16*
X19583400Y-43116500D03*
D17*
X19583400Y-45656500D03*
X19583400Y-48196500D03*
X19583400Y-50736500D03*
X19583400Y-53276500D03*
X19583400Y-55816500D03*
X19583400Y-58356500D03*
X19583400Y-60896500D03*
D18*
X24790400Y-18986500D03*
D19*
X24790400Y-16446500D03*
D12*
X41275000Y-24066500D03*
D13*
X43815000Y-24066500D03*
X46355000Y-24066500D03*
X48895000Y-24066500D03*
X51435000Y-24066500D03*
X53975000Y-24066500D03*
X56515000Y-24066500D03*
X59055000Y-24066500D03*
X61595000Y-24066500D03*
D12*
X43815000Y-40576500D03*
D13*
X46355000Y-40576500D03*
X48895000Y-40576500D03*
X51435000Y-40576500D03*
X53975000Y-40576500D03*
X56515000Y-40576500D03*
X59055000Y-40576500D03*
X61595000Y-40576500D03*
D12*
X41275000Y-44386500D03*
D13*
X43815000Y-44386500D03*
X46355000Y-44386500D03*
X48895000Y-44386500D03*
X51435000Y-44386500D03*
X53975000Y-44386500D03*
X56515000Y-44386500D03*
X59055000Y-44386500D03*
X61595000Y-44386500D03*
D12*
X41275000Y-60896500D03*
D13*
X43815000Y-60896500D03*
X46355000Y-60896500D03*
X48895000Y-60896500D03*
X51435000Y-60896500D03*
X53975000Y-60896500D03*
X56515000Y-60896500D03*
X59055000Y-60896500D03*
X61595000Y-60896500D03*
D11*
X41275000Y-46926500D03*
X41275000Y-57086500D03*
X23520400Y-26606500D03*
X33680400Y-26606500D03*
D20*
X41275000Y-40576500D03*
D21*
X41275000Y-38036500D03*
X41275000Y-35496500D03*
X41275000Y-32956500D03*
X41275000Y-30416500D03*
X41275000Y-27876500D03*
D20*
X28600400Y-16446500D03*
D21*
X31140400Y-16446500D03*
X33680400Y-16446500D03*
D22*
X27637740Y-31455360D03*
X27637740Y-32956500D03*
X27637740Y-34457640D03*
D23*
X23685500Y-32956500D03*
D10*
G36*
X26409650Y-33456880D02*
X25660350Y-33957260D01*
X25660350Y-31955740D01*
X26409650Y-32456120D01*
X26409650Y-33456880D01*
X26409650Y-33456880D01*
G37*
D24*
X22541000Y-53657500D03*
X22541000Y-51657500D03*
X22541000Y-49657500D03*
X22541000Y-47657500D03*
X22541000Y-45657500D03*
X22541000Y-43657500D03*
X22541000Y-41657500D03*
X22541000Y-39657500D03*
X37941000Y-39657500D03*
X37841000Y-41657500D03*
X37941000Y-43657500D03*
X37941000Y-45657500D03*
X37941000Y-47657500D03*
X37941000Y-49657500D03*
X37941000Y-51657500D03*
X37941000Y-53657500D03*
D21*
X54165500Y-16010500D03*
X54165500Y-20510500D03*
X47665500Y-16010500D03*
X47665500Y-20510500D03*
X63055500Y-16010500D03*
X63055500Y-20510500D03*
X56555500Y-16010500D03*
X56555500Y-20510500D03*
X45275500Y-16010500D03*
X45275500Y-20510500D03*
X38775500Y-16010500D03*
X38775500Y-20510500D03*
D25*
X56896004Y-49911000D03*
X25019000Y-30861000D03*
X27051000Y-29591000D03*
X25527000Y-26543000D03*
X25527010Y-29591000D03*
X28575002Y-29591000D03*
X30734000Y-52324000D03*
X24892000Y-52324000D03*
X25781000Y-52324000D03*
X26797000Y-52324000D03*
X62103000Y-52451000D03*
X61087000Y-51181000D03*
X59817000Y-52451000D03*
X61341000Y-53848000D03*
X62103000Y-50038000D03*
X60325000Y-50038000D03*
X55372002Y-21971000D03*
X60325002Y-22225000D03*
X61849000Y-21844000D03*
X59563000Y-20447000D03*
X44958000Y-36322000D03*
X44196000Y-30734000D03*
X45847000Y-31623000D03*
X44323000Y-33147000D03*
X42799000Y-34163000D03*
X42799000Y-31623000D03*
X42799000Y-29337000D03*
X39624000Y-25908000D03*
X39624000Y-27686000D03*
X39624000Y-22225000D03*
X38735000Y-23114000D03*
X39624000Y-29591000D03*
X38734998Y-24765000D03*
X38734998Y-26797000D03*
X38734996Y-28575000D03*
X41275000Y-26162000D03*
X45085000Y-22225000D03*
X47625000Y-22352000D03*
X40767000Y-18923000D03*
X41021000Y-20447000D03*
X45974000Y-17907000D03*
X39243000Y-18415004D03*
X35560000Y-17780000D03*
X36576000Y-16509998D03*
X35560000Y-19812000D03*
X35306000Y-15748000D03*
X36449000Y-18796000D03*
X36449000Y-21082000D03*
X26797000Y-20066000D03*
X26797000Y-17653000D03*
X26797000Y-18923000D03*
X21717000Y-22478994D03*
X24384000Y-21209000D03*
X22733000Y-20701000D03*
X19176996Y-20701000D03*
X20955000Y-15748000D03*
X20955000Y-20701000D03*
X20955000Y-18923000D03*
X20955000Y-17399000D03*
X35560000Y-31877000D03*
X36830000Y-30988000D03*
X35433000Y-30226000D03*
X36449004Y-29083000D03*
X36195000Y-25527000D03*
X32385000Y-25019008D03*
X34671000Y-25019000D03*
X35179000Y-27940000D03*
X34036000Y-31115000D03*
X34036000Y-32766000D03*
X38100000Y-31750000D03*
X36449000Y-27051000D03*
X30988000Y-29845000D03*
X27432000Y-26542998D03*
X25019000Y-27940000D03*
X26670000Y-27940000D03*
X28575000Y-27940000D03*
X26162000Y-25273000D03*
X57785000Y-50799988D03*
X57912010Y-49911000D03*
X39497000Y-36576000D03*
X38481000Y-36576000D03*
X37465000Y-36576000D03*
X28702000Y-41783000D03*
X27559000Y-41910000D03*
X26416000Y-41529000D03*
X27051000Y-40512998D03*
X26416000Y-45339000D03*
X25400000Y-49022000D03*
X25400000Y-47879000D03*
X25908000Y-49911002D03*
X31750000Y-52324000D03*
X46482000Y-30226000D03*
X45212000Y-29210000D03*
X41275000Y-21844000D03*
X46482000Y-21844000D03*
X43307000Y-20701000D03*
X48895000Y-19304000D03*
X46482004Y-19304000D03*
X43560999Y-15621001D03*
X40259000Y-17399000D03*
X53086000Y-17653000D03*
X50292000Y-16891000D03*
X51435000Y-18288000D03*
X58420004Y-17145000D03*
X56515000Y-18160996D03*
X59944004Y-18161000D03*
X61341000Y-17145008D03*
X55372000Y-19177000D03*
X58039000Y-19177000D03*
X57784998Y-22225000D03*
X59944000Y-15748000D03*
X61340996Y-15748000D03*
X61595000Y-19177000D03*
X60325000Y-25781000D03*
X63500000Y-25781000D03*
X63500000Y-29718000D03*
X25781000Y-44450000D03*
X60579000Y-33147000D03*
X60579000Y-31369000D03*
X42291000Y-19304000D03*
X42164000Y-17399000D03*
X61341004Y-42545000D03*
X42672000Y-26669998D03*
X22733000Y-17399000D03*
X22733000Y-18923000D03*
X19177004Y-17399000D03*
X61722000Y-29718000D03*
X53721000Y-22098000D03*
X63500000Y-31369000D03*
X63500000Y-33147000D03*
X63500000Y-34925000D03*
X61722000Y-34925000D03*
X59690000Y-34925000D03*
X57785000Y-34925000D03*
X57785000Y-33147000D03*
X57785000Y-31369000D03*
X59309000Y-29718000D03*
X61595000Y-25781000D03*
X63500000Y-24003000D03*
X63500000Y-22225000D03*
X63500000Y-18796000D03*
X63500000Y-17653000D03*
X58420000Y-15748000D03*
X52324000Y-15748006D03*
X50927004Y-15748000D03*
X49403000Y-15748000D03*
X51435000Y-20066000D03*
X51435000Y-21971000D03*
X44450000Y-18796000D03*
X42926000Y-22098000D03*
X49022000Y-21844000D03*
X40640000Y-15621000D03*
X42164000Y-15621000D03*
X43942000Y-17399000D03*
X47879000Y-17907000D03*
X22733002Y-15748000D03*
X19177000Y-18923000D03*
X19177000Y-15748000D03*
X48006000Y-29718000D03*
X35052016Y-52324000D03*
X34544000Y-21336000D03*
X31750000Y-50736500D03*
X33401000Y-34099500D03*
X25527000Y-37147500D03*
X26416016Y-42862500D03*
X32258000Y-47117000D03*
X32258004Y-48260000D03*
X30099000Y-46926500D03*
X31115000Y-21018500D03*
X30988008Y-39306500D03*
X35941000Y-44132500D03*
X25400002Y-42862500D03*
X27305000Y-48577508D03*
X24765002Y-44767500D03*
X25019000Y-46164500D03*
X59690000Y-55118000D03*
X61595000Y-58991500D03*
D26*
X26289000Y-29591000D02*
X25019000Y-30861000D01*
X27051000Y-29591000D02*
X26289000Y-29591000D01*
X25527000Y-26797000D02*
X25527000Y-26543000D01*
X25438101Y-26885899D02*
X25527000Y-26797000D01*
X25019000Y-29082990D02*
X25527010Y-29591000D01*
X25400000Y-29718010D02*
X25527010Y-29591000D01*
X25400000Y-29845000D02*
X25400000Y-29718010D01*
X25019000Y-27940000D02*
X25019000Y-29082990D01*
X28130500Y-29400500D02*
X28130500Y-29504433D01*
X28130500Y-29504433D02*
X28217067Y-29591000D01*
X27637740Y-30528262D02*
X28575002Y-29591000D01*
X28217067Y-29591000D02*
X28575002Y-29591000D01*
X27637740Y-31455360D02*
X27637740Y-30528262D01*
X28702000Y-29717998D02*
X28575002Y-29591000D01*
X28702000Y-29972000D02*
X28702000Y-29717998D01*
X28575000Y-29590998D02*
X28575002Y-29591000D01*
X28575000Y-27940000D02*
X28575000Y-29590998D01*
X24892000Y-52324000D02*
X25781000Y-52324000D01*
X26797000Y-52324000D02*
X25781000Y-52324000D01*
X62103000Y-50038000D02*
X62103000Y-52451000D01*
X61341000Y-51435000D02*
X61087000Y-51181000D01*
X61341000Y-53848000D02*
X61341000Y-51435000D01*
X57785000Y-50799988D02*
X59436012Y-52451000D01*
X59436012Y-52451000D02*
X59817000Y-52451000D01*
X59690000Y-52324000D02*
X59817000Y-52451000D01*
X59690000Y-51966067D02*
X59690000Y-52324000D01*
X59690000Y-51688990D02*
X59690000Y-51966067D01*
X59690000Y-50673000D02*
X59690000Y-51966067D01*
X60325000Y-50038000D02*
X59690000Y-50673000D01*
X57912010Y-49911000D02*
X59690000Y-51688990D01*
X55245002Y-22098000D02*
X55372002Y-21971000D01*
X53721000Y-22098000D02*
X55245002Y-22098000D01*
X57784998Y-22225000D02*
X60325002Y-22225000D01*
X61087000Y-20955000D02*
X61087000Y-21082000D01*
X61087000Y-21082000D02*
X61849000Y-21844000D01*
X61595000Y-21590000D02*
X61849000Y-21844000D01*
X61595000Y-19177000D02*
X61595000Y-21590000D01*
X59944004Y-20065996D02*
X59563000Y-20447000D01*
X59944004Y-18161000D02*
X59944004Y-20065996D01*
X44958000Y-36322000D02*
X46355000Y-34925000D01*
X46355000Y-34925000D02*
X57785000Y-34925000D01*
X45847000Y-31623000D02*
X45085000Y-31623000D01*
X45085000Y-31623000D02*
X44196000Y-30734000D01*
X42799000Y-34163000D02*
X43307000Y-34163000D01*
X43307000Y-34163000D02*
X44323000Y-33147000D01*
X42799000Y-29337000D02*
X42799000Y-31623000D01*
X39624000Y-25273000D02*
X39624000Y-25908000D01*
X39370000Y-25019000D02*
X39624000Y-25273000D01*
X39624000Y-27328067D02*
X39624000Y-27686000D01*
X39624000Y-22225002D02*
X39624000Y-22225000D01*
X39408101Y-22440901D02*
X39624000Y-22225002D01*
X39092933Y-22756067D02*
X38735000Y-23114000D01*
X39092933Y-22606000D02*
X39092933Y-22756067D01*
X39624000Y-29464004D02*
X39624000Y-29591000D01*
X38734996Y-28575000D02*
X39624000Y-29464004D01*
X38734998Y-26797000D02*
X38734998Y-24765000D01*
X42164002Y-26162000D02*
X41275000Y-26162000D01*
X42672000Y-26669998D02*
X42164002Y-26162000D01*
X45466000Y-21844000D02*
X45085000Y-22225000D01*
X46482000Y-21844000D02*
X45466000Y-21844000D01*
X48514000Y-22352000D02*
X47625000Y-22352000D01*
X49022000Y-21844000D02*
X48514000Y-22352000D01*
X41021000Y-19177000D02*
X40767000Y-18923000D01*
X41021000Y-20447000D02*
X41021000Y-19177000D01*
X45466000Y-17399000D02*
X45974000Y-17907000D01*
X43942000Y-17399000D02*
X45466000Y-17399000D01*
X38862004Y-18796000D02*
X39243000Y-18415004D01*
X38862000Y-18796000D02*
X38862004Y-18796000D01*
X35560000Y-19812000D02*
X35560000Y-17780000D01*
X36067998Y-16509998D02*
X36576000Y-16509998D01*
X35306000Y-15748000D02*
X36067998Y-16509998D01*
X36449000Y-18796000D02*
X36449000Y-16637000D01*
X34544000Y-21336000D02*
X36195000Y-21336000D01*
X36195000Y-21336000D02*
X36449000Y-21082000D01*
X26797000Y-17653000D02*
X26797000Y-20066000D01*
X24790400Y-18986500D02*
X26733500Y-18986500D01*
X26733500Y-18986500D02*
X26797000Y-18923000D01*
X22986994Y-21209000D02*
X21717000Y-22478994D01*
X23899067Y-21209000D02*
X22986994Y-21209000D01*
X23368000Y-21209000D02*
X23899067Y-21209000D01*
X23241000Y-21082000D02*
X23368000Y-21209000D01*
X23899067Y-21209000D02*
X24384000Y-21209000D01*
X20955000Y-18923000D02*
X22733000Y-20701000D01*
X19177000Y-20700996D02*
X19176996Y-20701000D01*
X19177000Y-18923000D02*
X19177000Y-20700996D01*
X22733002Y-15748000D02*
X20955000Y-15748000D01*
X20955000Y-21717000D02*
X20955000Y-20701000D01*
X21590000Y-22352000D02*
X20955000Y-21717000D01*
X19177004Y-17399000D02*
X20955000Y-17399000D01*
X34671000Y-32766000D02*
X35560000Y-31877000D01*
X34036000Y-32766000D02*
X34671000Y-32766000D01*
X37338000Y-30988000D02*
X36830000Y-30988000D01*
X38100000Y-31750000D02*
X37338000Y-30988000D01*
X34036000Y-31115000D02*
X34925000Y-30226000D01*
X34925000Y-30226000D02*
X35433000Y-30226000D01*
X36449000Y-29082996D02*
X36449004Y-29083000D01*
X36449000Y-27051000D02*
X36449000Y-29082996D01*
X35710067Y-25527000D02*
X36195000Y-25527000D01*
X35560000Y-25273004D02*
X35560000Y-25376933D01*
X35560000Y-25376933D02*
X35710067Y-25527000D01*
X32385008Y-25019000D02*
X32385000Y-25019008D01*
X34671000Y-25019000D02*
X32385008Y-25019000D01*
X36449000Y-26797000D02*
X34671000Y-25019000D01*
X36449000Y-27305000D02*
X36449000Y-26797000D01*
X35179000Y-27940000D02*
X36195000Y-26924000D01*
X36195000Y-26924000D02*
X36195000Y-23177500D01*
X25019000Y-27940000D02*
X25019000Y-27305000D01*
X25400000Y-26924000D02*
X25438101Y-26885899D01*
X25019000Y-27305000D02*
X25438101Y-26885899D01*
X25400000Y-27940000D02*
X25400000Y-26924000D01*
X26504901Y-25615899D02*
X27432000Y-26542998D01*
X26162000Y-25273000D02*
X26504901Y-25615899D01*
X27637740Y-28907740D02*
X26670000Y-27940000D01*
X27637740Y-31455360D02*
X27637740Y-28907740D01*
X61595000Y-46228010D02*
X57912010Y-49911000D01*
X61595000Y-44386500D02*
X61595000Y-46228010D01*
X38481000Y-36576000D02*
X39497000Y-36576000D01*
X35687000Y-39624000D02*
X35687000Y-38354000D01*
X35687000Y-38354000D02*
X37465000Y-36576000D01*
X35720500Y-39657500D02*
X35687000Y-39624000D01*
X37241000Y-39657500D02*
X35720500Y-39657500D01*
X28702000Y-41910000D02*
X28702000Y-41783000D01*
X28702000Y-41910000D02*
X27559000Y-41910000D01*
X26670000Y-41529000D02*
X26416000Y-41529000D01*
X25400000Y-48768000D02*
X25400000Y-49022000D01*
X25400000Y-47879000D02*
X25400000Y-48768000D01*
X25907998Y-49911000D02*
X25908000Y-49911002D01*
X25527000Y-49911000D02*
X25907998Y-49911000D01*
X35052016Y-52324000D02*
X31750000Y-52324000D01*
X45847000Y-30226000D02*
X46482000Y-30226000D01*
X46139101Y-30568899D02*
X46482000Y-30226000D01*
X44704000Y-29718000D02*
X45212000Y-29210000D01*
X44323000Y-29718000D02*
X44704000Y-29718000D01*
X48006000Y-29718000D02*
X45720000Y-29718000D01*
X45720000Y-29718000D02*
X45212000Y-29210000D01*
X45148500Y-29210000D02*
X45212000Y-29210000D01*
X43815000Y-27876500D02*
X45148500Y-29210000D01*
X39370000Y-22479000D02*
X39243000Y-22606000D01*
X39243002Y-22606000D02*
X39092933Y-22606000D01*
X39243000Y-22606000D02*
X39092933Y-22606000D01*
X39408101Y-22440901D02*
X39243002Y-22606000D01*
X39370000Y-22479000D02*
X39408101Y-22440901D01*
X39624000Y-27178004D02*
X39624000Y-27328067D01*
X39751000Y-27305000D02*
X39647067Y-27305000D01*
X39647067Y-27305000D02*
X39624000Y-27328067D01*
X39370000Y-26924004D02*
X39624000Y-27178004D01*
X39497000Y-22352000D02*
X39370000Y-22479000D01*
X42164000Y-21844000D02*
X41275000Y-21844000D01*
X43307000Y-20701000D02*
X42164000Y-21844000D01*
X42418000Y-20701000D02*
X41275000Y-21844000D01*
X43307000Y-20701000D02*
X42418000Y-20701000D01*
X48895000Y-18923000D02*
X48895000Y-19304000D01*
X47879000Y-17907000D02*
X48895000Y-18923000D01*
X44958000Y-19304000D02*
X46482004Y-19304000D01*
X44450000Y-18796000D02*
X44958000Y-19304000D01*
X43076066Y-15621001D02*
X43560999Y-15621001D01*
X42164000Y-15621000D02*
X43076066Y-15621001D01*
X40640000Y-17018000D02*
X40259000Y-17399000D01*
X40640000Y-15621000D02*
X40640000Y-17018000D01*
X52324000Y-16891000D02*
X53086000Y-17653000D01*
X52324000Y-15748006D02*
X52324000Y-16891000D01*
X50292000Y-17145000D02*
X50292000Y-16891000D01*
X51435000Y-18288000D02*
X50292000Y-17145000D01*
X57530996Y-17145000D02*
X58420004Y-17145000D01*
X56515000Y-18160996D02*
X57530996Y-17145000D01*
X60071000Y-18161000D02*
X59944004Y-18161000D01*
X61340996Y-17145004D02*
X61341000Y-17145008D01*
X61340996Y-15748000D02*
X61340996Y-17145004D01*
X55372000Y-19304000D02*
X55372000Y-19177000D01*
X54165500Y-20510500D02*
X55372000Y-19304000D01*
X58420000Y-15748000D02*
X59944000Y-15748000D01*
X61722000Y-27178000D02*
X60325000Y-25781000D01*
X61722000Y-29718000D02*
X61722000Y-27178000D01*
X61595000Y-25781000D02*
X63500000Y-25781000D01*
X63500000Y-31369000D02*
X63500000Y-29718000D01*
X28067000Y-41910000D02*
X28702000Y-41910000D01*
X25654000Y-49784000D02*
X25527000Y-49911000D01*
X26011933Y-49911000D02*
X25527000Y-49911000D01*
X25654000Y-49426067D02*
X25654000Y-49784000D01*
X26035000Y-50038000D02*
X26035000Y-49934067D01*
X26035000Y-49934067D02*
X26011933Y-49911000D01*
X60579000Y-31369000D02*
X60579000Y-33147000D01*
X42164000Y-17399000D02*
X42164000Y-19177000D01*
X42164000Y-19177000D02*
X42291000Y-19304000D01*
X61595000Y-42798996D02*
X61341004Y-42545000D01*
X61595000Y-44386500D02*
X61595000Y-42798996D01*
X39370000Y-22479000D02*
X39370000Y-23875992D01*
X22733000Y-18923000D02*
X22733000Y-17399000D01*
X19177000Y-17398996D02*
X19177004Y-17399000D01*
X19177000Y-15748000D02*
X19177000Y-17398996D01*
X25654000Y-49426067D02*
X26035000Y-49045067D01*
X26035000Y-49045067D02*
X26035000Y-48260000D01*
X26035000Y-48260000D02*
X26543000Y-47752000D01*
X26543000Y-47752000D02*
X26543000Y-45211994D01*
X25654000Y-49022000D02*
X25654000Y-49426067D01*
X25400000Y-48768000D02*
X25654000Y-49022000D01*
X63500000Y-34925000D02*
X63500000Y-33147000D01*
X59690000Y-34925000D02*
X61722000Y-34925000D01*
X57785000Y-33147000D02*
X57785000Y-34925000D01*
X59309000Y-29718000D02*
X57785000Y-31242000D01*
X57785000Y-31242000D02*
X57785000Y-31369000D01*
X63500000Y-22225000D02*
X63500000Y-24003000D01*
X63500000Y-17653000D02*
X63500000Y-18796000D01*
X53213000Y-18137931D02*
X53213000Y-17652998D01*
X52959000Y-18391933D02*
X53213000Y-18137931D01*
X52982067Y-18415000D02*
X52959000Y-18391933D01*
X53086000Y-18415000D02*
X52982067Y-18415000D01*
X54165500Y-20510500D02*
X52959000Y-19304000D01*
X52959000Y-19304000D02*
X52959000Y-18391933D01*
X49403000Y-15748000D02*
X50927004Y-15748000D01*
X51435000Y-21971000D02*
X51435000Y-20066000D01*
X44069000Y-21844000D02*
X43180000Y-21844000D01*
X43180000Y-21844000D02*
X42926000Y-22098000D01*
X42545000Y-26035000D02*
X42545000Y-26606500D01*
X42545000Y-26606500D02*
X43815000Y-27876500D01*
X34544000Y-21336000D02*
X34544000Y-20955000D01*
X34544000Y-20955000D02*
X34925000Y-20574000D01*
X30829000Y-51657500D02*
X31750000Y-50736500D01*
X23241000Y-51657500D02*
X30829000Y-51657500D01*
X41275000Y-40576500D02*
X41275000Y-41846500D01*
X41275000Y-41846500D02*
X41910000Y-42481500D01*
X41910000Y-42481500D02*
X59842400Y-42481500D01*
X59842400Y-42481500D02*
X61595000Y-40728900D01*
X61595000Y-40728900D02*
X61595000Y-40576500D01*
X27637740Y-34457640D02*
X27200860Y-34457640D01*
X28575000Y-34226500D02*
X28575000Y-34226480D01*
X31115000Y-34186500D02*
X27908880Y-34186500D01*
X33314000Y-34186500D02*
X33401000Y-34099500D01*
X31115000Y-34186500D02*
X33314000Y-34186500D01*
X23241000Y-39657500D02*
X23241000Y-39433500D01*
X23241000Y-39433500D02*
X25527000Y-37147500D01*
X23241000Y-39687484D02*
X26416016Y-42862500D01*
X23241000Y-39657500D02*
X23241000Y-39687484D01*
X27908880Y-34186500D02*
X27637740Y-34457640D01*
X36798500Y-51657500D02*
X32258000Y-47117000D01*
X37241000Y-51657500D02*
X36798500Y-51657500D01*
X37241000Y-53242996D02*
X32258004Y-48260000D01*
X37241000Y-53657500D02*
X37241000Y-53242996D01*
X29794189Y-46621689D02*
X30099000Y-46926500D01*
X23685500Y-32956500D02*
X23685500Y-34108390D01*
X29794189Y-40217079D02*
X29794189Y-46621689D01*
X23685500Y-34108390D02*
X29794189Y-40217079D01*
X29845000Y-31813500D02*
X28702000Y-32956500D01*
X28702000Y-32956500D02*
X27637740Y-32956500D01*
X29845000Y-22288500D02*
X29845000Y-31813500D01*
X31115000Y-21018500D02*
X29845000Y-22288500D01*
X27637740Y-32956500D02*
X26035000Y-32956500D01*
X23685500Y-32956500D02*
X26035000Y-32956500D01*
X37241000Y-41657500D02*
X38924000Y-41657500D01*
X43561000Y-38036500D02*
X43815000Y-38036500D01*
X38924000Y-41657500D02*
X39624000Y-40957500D01*
X39624000Y-40957500D02*
X39624000Y-39941500D01*
X40386000Y-39179500D02*
X42418000Y-39179500D01*
X39624000Y-39941500D02*
X40386000Y-39179500D01*
X42418000Y-39179500D02*
X43561000Y-38036500D01*
X33339008Y-41657500D02*
X30988008Y-39306500D01*
X37241000Y-41657500D02*
X33339008Y-41657500D01*
X37241000Y-43657500D02*
X39022000Y-43657500D01*
X39022000Y-43657500D02*
X39751000Y-44386500D01*
X39751000Y-44386500D02*
X39751000Y-46037500D01*
X39751000Y-46037500D02*
X40640000Y-46926500D01*
X40640000Y-46926500D02*
X41275000Y-46926500D01*
X37241000Y-45657500D02*
X36704000Y-45657500D01*
X35941000Y-44894500D02*
X35941000Y-44132500D01*
X36704000Y-45657500D02*
X35941000Y-44894500D01*
X41275000Y-38036500D02*
X50165000Y-29146500D01*
X50165000Y-29146500D02*
X50165000Y-18510000D01*
X50165000Y-18510000D02*
X47665500Y-16010500D01*
X41275000Y-35496500D02*
X33571182Y-35496500D01*
X33571182Y-35496500D02*
X30403811Y-38663871D01*
X30403811Y-38663871D02*
X30403811Y-45961311D01*
X30403811Y-45961311D02*
X30988000Y-46545500D01*
X30988000Y-46545500D02*
X30988000Y-50673000D01*
X30988000Y-50673000D02*
X30353000Y-51308000D01*
X30353000Y-51308000D02*
X24891500Y-51308000D01*
X24891500Y-51308000D02*
X23241000Y-49657500D01*
X23241000Y-47657500D02*
X24384000Y-47657500D01*
X30099000Y-38537615D02*
X35680115Y-32956500D01*
X24384000Y-47657500D02*
X24384000Y-50292000D01*
X24384000Y-50292000D02*
X25082500Y-50990500D01*
X25082500Y-50990500D02*
X30162500Y-50990500D01*
X30162500Y-50990500D02*
X30670501Y-50482499D01*
X30099000Y-46087567D02*
X30099000Y-38537615D01*
X30670501Y-50482499D02*
X30670501Y-46659067D01*
X30670501Y-46659067D02*
X30099000Y-46087567D01*
X35680115Y-32956500D02*
X41275000Y-32956500D01*
X23241000Y-53657500D02*
X21661418Y-53657500D01*
X21661418Y-53657500D02*
X20955000Y-52951082D01*
X20955000Y-48577500D02*
X21875000Y-47657500D01*
X20955000Y-52951082D02*
X20955000Y-48577500D01*
X21875000Y-47657500D02*
X23241000Y-47657500D01*
X38775500Y-16010500D02*
X37592000Y-17194000D01*
X37592000Y-17194000D02*
X37592000Y-29273500D01*
X37592000Y-29273500D02*
X41275000Y-32956500D01*
X27305000Y-48577508D02*
X27305000Y-44767500D01*
X27305000Y-44767500D02*
X25400002Y-42862502D01*
X25400002Y-42862502D02*
X25400002Y-42862500D01*
X24195002Y-41657500D02*
X25400002Y-42862500D01*
X23241000Y-41657500D02*
X24195002Y-41657500D01*
X23241000Y-41657500D02*
X23241000Y-41719500D01*
X23655002Y-43657500D02*
X24765002Y-44767500D01*
X23241000Y-43657500D02*
X23655002Y-43657500D01*
X24512000Y-45657500D02*
X25019000Y-46164500D01*
X23241000Y-45657500D02*
X24512000Y-45657500D01*
X54229500Y-49657500D02*
X59690000Y-55118000D01*
X37241000Y-49657500D02*
X54229500Y-49657500D01*
X54312822Y-48704500D02*
X38288000Y-48704500D01*
X61595000Y-55986678D02*
X54312822Y-48704500D01*
X61595000Y-58991500D02*
X61595000Y-55986678D01*
X38288000Y-48704500D02*
X37241000Y-47657500D01*
D27*
G36*
X53035673Y-15254147D02*
X52832232Y-15744087D01*
X52831769Y-16274586D01*
X53034354Y-16764880D01*
X53409147Y-17140327D01*
X53899087Y-17343768D01*
X54429586Y-17344231D01*
X54919880Y-17141646D01*
X55295327Y-16766853D01*
X55360408Y-16610120D01*
X55424354Y-16764880D01*
X55799147Y-17140327D01*
X56289087Y-17343768D01*
X56819586Y-17344231D01*
X57309880Y-17141646D01*
X57685327Y-16766853D01*
X57888768Y-16276913D01*
X57889231Y-15746414D01*
X57686646Y-15256120D01*
X57675545Y-15245000D01*
X61934836Y-15245000D01*
X61925673Y-15254147D01*
X61722232Y-15744087D01*
X61721769Y-16274586D01*
X61924354Y-16764880D01*
X62299147Y-17140327D01*
X62789087Y-17343768D01*
X63319586Y-17344231D01*
X63809880Y-17141646D01*
X63939500Y-17012252D01*
X63939500Y-19475218D01*
X63925337Y-19461055D01*
X63810082Y-19576310D01*
X63748429Y-19340700D01*
X63248020Y-19164573D01*
X62718301Y-19193352D01*
X62362571Y-19340700D01*
X62300917Y-19576312D01*
X63055500Y-20330895D01*
X63069643Y-20316753D01*
X63249248Y-20496358D01*
X63235105Y-20510500D01*
X63249248Y-20524643D01*
X63069643Y-20704248D01*
X63055500Y-20690105D01*
X62300917Y-21444688D01*
X62362571Y-21680300D01*
X62862980Y-21856427D01*
X63392699Y-21827648D01*
X63748429Y-21680300D01*
X63810082Y-21444690D01*
X63925337Y-21559945D01*
X63939500Y-21545782D01*
X63939500Y-61780500D01*
X62895492Y-61780500D01*
X62979526Y-61654734D01*
X63093600Y-61081245D01*
X63093600Y-60711755D01*
X62979526Y-60138266D01*
X62654670Y-59652085D01*
X62439308Y-59508185D01*
X62572730Y-59186870D01*
X62573069Y-58797837D01*
X62424507Y-58438288D01*
X62306200Y-58319774D01*
X62306200Y-55986678D01*
X62252063Y-55714514D01*
X62252063Y-55714513D01*
X62097894Y-55483784D01*
X54815716Y-48201606D01*
X54584987Y-48047437D01*
X54312822Y-47993300D01*
X42183720Y-47993300D01*
X42458629Y-47718870D01*
X42671757Y-47205600D01*
X42672242Y-46649839D01*
X42460010Y-46136197D01*
X42336694Y-46012666D01*
X42373917Y-46005662D01*
X42590041Y-45866590D01*
X42735031Y-45654390D01*
X42743400Y-45613061D01*
X42755330Y-45630915D01*
X43241511Y-45955771D01*
X43815000Y-46069845D01*
X44388489Y-45955771D01*
X44874670Y-45630915D01*
X45085000Y-45316134D01*
X45295330Y-45630915D01*
X45781511Y-45955771D01*
X46355000Y-46069845D01*
X46928489Y-45955771D01*
X47414670Y-45630915D01*
X47625000Y-45316134D01*
X47835330Y-45630915D01*
X48321511Y-45955771D01*
X48895000Y-46069845D01*
X49468489Y-45955771D01*
X49954670Y-45630915D01*
X50165000Y-45316134D01*
X50375330Y-45630915D01*
X50861511Y-45955771D01*
X51435000Y-46069845D01*
X52008489Y-45955771D01*
X52494670Y-45630915D01*
X52705000Y-45316134D01*
X52915330Y-45630915D01*
X53401511Y-45955771D01*
X53975000Y-46069845D01*
X54548489Y-45955771D01*
X55034670Y-45630915D01*
X55245000Y-45316134D01*
X55455330Y-45630915D01*
X55941511Y-45955771D01*
X56515000Y-46069845D01*
X57088489Y-45955771D01*
X57574670Y-45630915D01*
X57785000Y-45316134D01*
X57995330Y-45630915D01*
X58481511Y-45955771D01*
X59055000Y-46069845D01*
X59628489Y-45955771D01*
X60114670Y-45630915D01*
X60321461Y-45321431D01*
X60692964Y-45737232D01*
X61220209Y-45991209D01*
X61235974Y-45993858D01*
X61468000Y-45872717D01*
X61468000Y-44513500D01*
X61722000Y-44513500D01*
X61722000Y-45872717D01*
X61954026Y-45993858D01*
X61969791Y-45991209D01*
X62497036Y-45737232D01*
X62886954Y-45300820D01*
X63080184Y-44748413D01*
X62935924Y-44513500D01*
X61722000Y-44513500D01*
X61468000Y-44513500D01*
X61448000Y-44513500D01*
X61448000Y-44259500D01*
X61468000Y-44259500D01*
X61468000Y-42900283D01*
X61722000Y-42900283D01*
X61722000Y-44259500D01*
X62935924Y-44259500D01*
X63080184Y-44024587D01*
X62886954Y-43472180D01*
X62497036Y-43035768D01*
X61969791Y-42781791D01*
X61954026Y-42779142D01*
X61722000Y-42900283D01*
X61468000Y-42900283D01*
X61235974Y-42779142D01*
X61220209Y-42781791D01*
X60692964Y-43035768D01*
X60321461Y-43451569D01*
X60114670Y-43142085D01*
X60110584Y-43139355D01*
X60114565Y-43138563D01*
X60345294Y-42984394D01*
X61156973Y-42172716D01*
X61595000Y-42259845D01*
X62168489Y-42145771D01*
X62654670Y-41820915D01*
X62979526Y-41334734D01*
X63093600Y-40761245D01*
X63093600Y-40391755D01*
X62979526Y-39818266D01*
X62654670Y-39332085D01*
X62168489Y-39007229D01*
X61595000Y-38893155D01*
X61021511Y-39007229D01*
X60535330Y-39332085D01*
X60325000Y-39646866D01*
X60114670Y-39332085D01*
X59628489Y-39007229D01*
X59055000Y-38893155D01*
X58481511Y-39007229D01*
X57995330Y-39332085D01*
X57785000Y-39646866D01*
X57574670Y-39332085D01*
X57088489Y-39007229D01*
X56515000Y-38893155D01*
X55941511Y-39007229D01*
X55455330Y-39332085D01*
X55245000Y-39646866D01*
X55034670Y-39332085D01*
X54548489Y-39007229D01*
X53975000Y-38893155D01*
X53401511Y-39007229D01*
X52915330Y-39332085D01*
X52705000Y-39646866D01*
X52494670Y-39332085D01*
X52008489Y-39007229D01*
X51435000Y-38893155D01*
X50861511Y-39007229D01*
X50375330Y-39332085D01*
X50165000Y-39646866D01*
X49954670Y-39332085D01*
X49468489Y-39007229D01*
X48895000Y-38893155D01*
X48321511Y-39007229D01*
X47835330Y-39332085D01*
X47625000Y-39646866D01*
X47414670Y-39332085D01*
X46928489Y-39007229D01*
X46355000Y-38893155D01*
X45781511Y-39007229D01*
X45295330Y-39332085D01*
X45285757Y-39346413D01*
X45281762Y-39325183D01*
X45142690Y-39109059D01*
X44930490Y-38964069D01*
X44874543Y-38952739D01*
X44998629Y-38828870D01*
X45211757Y-38315600D01*
X45212242Y-37759839D01*
X45000010Y-37246197D01*
X44607370Y-36852871D01*
X44094100Y-36639743D01*
X43677908Y-36639380D01*
X50667895Y-29649394D01*
X50822063Y-29418664D01*
X50876200Y-29146500D01*
X50876200Y-25638693D01*
X51435000Y-25749845D01*
X52008489Y-25635771D01*
X52494670Y-25310915D01*
X52705000Y-24996134D01*
X52915330Y-25310915D01*
X53401511Y-25635771D01*
X53975000Y-25749845D01*
X54548489Y-25635771D01*
X55034670Y-25310915D01*
X55245000Y-24996134D01*
X55455330Y-25310915D01*
X55941511Y-25635771D01*
X56515000Y-25749845D01*
X57088489Y-25635771D01*
X57574670Y-25310915D01*
X57785000Y-24996134D01*
X57995330Y-25310915D01*
X58481511Y-25635771D01*
X59055000Y-25749845D01*
X59628489Y-25635771D01*
X60114670Y-25310915D01*
X60321461Y-25001431D01*
X60692964Y-25417232D01*
X61220209Y-25671209D01*
X61235974Y-25673858D01*
X61468000Y-25552717D01*
X61468000Y-24193500D01*
X61722000Y-24193500D01*
X61722000Y-25552717D01*
X61954026Y-25673858D01*
X61969791Y-25671209D01*
X62497036Y-25417232D01*
X62886954Y-24980820D01*
X63080184Y-24428413D01*
X62935924Y-24193500D01*
X61722000Y-24193500D01*
X61468000Y-24193500D01*
X61448000Y-24193500D01*
X61448000Y-23939500D01*
X61468000Y-23939500D01*
X61468000Y-22580283D01*
X61722000Y-22580283D01*
X61722000Y-23939500D01*
X62935924Y-23939500D01*
X63080184Y-23704587D01*
X62886954Y-23152180D01*
X62497036Y-22715768D01*
X61969791Y-22461791D01*
X61954026Y-22459142D01*
X61722000Y-22580283D01*
X61468000Y-22580283D01*
X61235974Y-22459142D01*
X61220209Y-22461791D01*
X60692964Y-22715768D01*
X60321461Y-23131569D01*
X60114670Y-22822085D01*
X59628489Y-22497229D01*
X59055000Y-22383155D01*
X58481511Y-22497229D01*
X57995330Y-22822085D01*
X57785000Y-23136866D01*
X57574670Y-22822085D01*
X57088489Y-22497229D01*
X56515000Y-22383155D01*
X55941511Y-22497229D01*
X55455330Y-22822085D01*
X55245000Y-23136866D01*
X55034670Y-22822085D01*
X54548489Y-22497229D01*
X53975000Y-22383155D01*
X53401511Y-22497229D01*
X52915330Y-22822085D01*
X52705000Y-23136866D01*
X52494670Y-22822085D01*
X52008489Y-22497229D01*
X51435000Y-22383155D01*
X50876200Y-22494307D01*
X50876200Y-21444688D01*
X53410917Y-21444688D01*
X53472571Y-21680300D01*
X53972980Y-21856427D01*
X54502699Y-21827648D01*
X54858429Y-21680300D01*
X54920083Y-21444688D01*
X55800917Y-21444688D01*
X55862571Y-21680300D01*
X56362980Y-21856427D01*
X56892699Y-21827648D01*
X57248429Y-21680300D01*
X57310083Y-21444688D01*
X56555500Y-20690105D01*
X55800917Y-21444688D01*
X54920083Y-21444688D01*
X54165500Y-20690105D01*
X53410917Y-21444688D01*
X50876200Y-21444688D01*
X50876200Y-20317980D01*
X52819573Y-20317980D01*
X52848352Y-20847699D01*
X52995700Y-21203429D01*
X53231312Y-21265083D01*
X53985895Y-20510500D01*
X54345105Y-20510500D01*
X55099688Y-21265083D01*
X55335300Y-21203429D01*
X55358453Y-21137648D01*
X55385700Y-21203429D01*
X55621312Y-21265083D01*
X56375895Y-20510500D01*
X56735105Y-20510500D01*
X57489688Y-21265083D01*
X57725300Y-21203429D01*
X57901427Y-20703020D01*
X57880509Y-20317980D01*
X61709573Y-20317980D01*
X61738352Y-20847699D01*
X61885700Y-21203429D01*
X62121312Y-21265083D01*
X62875895Y-20510500D01*
X62121312Y-19755917D01*
X61885700Y-19817571D01*
X61709573Y-20317980D01*
X57880509Y-20317980D01*
X57872648Y-20173301D01*
X57725300Y-19817571D01*
X57489688Y-19755917D01*
X56735105Y-20510500D01*
X56375895Y-20510500D01*
X55621312Y-19755917D01*
X55385700Y-19817571D01*
X55362547Y-19883352D01*
X55335300Y-19817571D01*
X55099688Y-19755917D01*
X54345105Y-20510500D01*
X53985895Y-20510500D01*
X53231312Y-19755917D01*
X52995700Y-19817571D01*
X52819573Y-20317980D01*
X50876200Y-20317980D01*
X50876200Y-19576312D01*
X53410917Y-19576312D01*
X54165500Y-20330895D01*
X54920083Y-19576312D01*
X55800917Y-19576312D01*
X56555500Y-20330895D01*
X57310083Y-19576312D01*
X57248429Y-19340700D01*
X56748020Y-19164573D01*
X56218301Y-19193352D01*
X55862571Y-19340700D01*
X55800917Y-19576312D01*
X54920083Y-19576312D01*
X54858429Y-19340700D01*
X54358020Y-19164573D01*
X53828301Y-19193352D01*
X53472571Y-19340700D01*
X53410917Y-19576312D01*
X50876200Y-19576312D01*
X50876200Y-18510000D01*
X50822063Y-18237836D01*
X50822063Y-18237835D01*
X50667894Y-18007106D01*
X48980851Y-16320063D01*
X48998768Y-16276913D01*
X48999231Y-15746414D01*
X48796646Y-15256120D01*
X48785545Y-15245000D01*
X53044836Y-15245000D01*
X53035673Y-15254147D01*
X53035673Y-15254147D01*
G37*
X53035673Y-15254147D02*
X52832232Y-15744087D01*
X52831769Y-16274586D01*
X53034354Y-16764880D01*
X53409147Y-17140327D01*
X53899087Y-17343768D01*
X54429586Y-17344231D01*
X54919880Y-17141646D01*
X55295327Y-16766853D01*
X55360408Y-16610120D01*
X55424354Y-16764880D01*
X55799147Y-17140327D01*
X56289087Y-17343768D01*
X56819586Y-17344231D01*
X57309880Y-17141646D01*
X57685327Y-16766853D01*
X57888768Y-16276913D01*
X57889231Y-15746414D01*
X57686646Y-15256120D01*
X57675545Y-15245000D01*
X61934836Y-15245000D01*
X61925673Y-15254147D01*
X61722232Y-15744087D01*
X61721769Y-16274586D01*
X61924354Y-16764880D01*
X62299147Y-17140327D01*
X62789087Y-17343768D01*
X63319586Y-17344231D01*
X63809880Y-17141646D01*
X63939500Y-17012252D01*
X63939500Y-19475218D01*
X63925337Y-19461055D01*
X63810082Y-19576310D01*
X63748429Y-19340700D01*
X63248020Y-19164573D01*
X62718301Y-19193352D01*
X62362571Y-19340700D01*
X62300917Y-19576312D01*
X63055500Y-20330895D01*
X63069643Y-20316753D01*
X63249248Y-20496358D01*
X63235105Y-20510500D01*
X63249248Y-20524643D01*
X63069643Y-20704248D01*
X63055500Y-20690105D01*
X62300917Y-21444688D01*
X62362571Y-21680300D01*
X62862980Y-21856427D01*
X63392699Y-21827648D01*
X63748429Y-21680300D01*
X63810082Y-21444690D01*
X63925337Y-21559945D01*
X63939500Y-21545782D01*
X63939500Y-61780500D01*
X62895492Y-61780500D01*
X62979526Y-61654734D01*
X63093600Y-61081245D01*
X63093600Y-60711755D01*
X62979526Y-60138266D01*
X62654670Y-59652085D01*
X62439308Y-59508185D01*
X62572730Y-59186870D01*
X62573069Y-58797837D01*
X62424507Y-58438288D01*
X62306200Y-58319774D01*
X62306200Y-55986678D01*
X62252063Y-55714514D01*
X62252063Y-55714513D01*
X62097894Y-55483784D01*
X54815716Y-48201606D01*
X54584987Y-48047437D01*
X54312822Y-47993300D01*
X42183720Y-47993300D01*
X42458629Y-47718870D01*
X42671757Y-47205600D01*
X42672242Y-46649839D01*
X42460010Y-46136197D01*
X42336694Y-46012666D01*
X42373917Y-46005662D01*
X42590041Y-45866590D01*
X42735031Y-45654390D01*
X42743400Y-45613061D01*
X42755330Y-45630915D01*
X43241511Y-45955771D01*
X43815000Y-46069845D01*
X44388489Y-45955771D01*
X44874670Y-45630915D01*
X45085000Y-45316134D01*
X45295330Y-45630915D01*
X45781511Y-45955771D01*
X46355000Y-46069845D01*
X46928489Y-45955771D01*
X47414670Y-45630915D01*
X47625000Y-45316134D01*
X47835330Y-45630915D01*
X48321511Y-45955771D01*
X48895000Y-46069845D01*
X49468489Y-45955771D01*
X49954670Y-45630915D01*
X50165000Y-45316134D01*
X50375330Y-45630915D01*
X50861511Y-45955771D01*
X51435000Y-46069845D01*
X52008489Y-45955771D01*
X52494670Y-45630915D01*
X52705000Y-45316134D01*
X52915330Y-45630915D01*
X53401511Y-45955771D01*
X53975000Y-46069845D01*
X54548489Y-45955771D01*
X55034670Y-45630915D01*
X55245000Y-45316134D01*
X55455330Y-45630915D01*
X55941511Y-45955771D01*
X56515000Y-46069845D01*
X57088489Y-45955771D01*
X57574670Y-45630915D01*
X57785000Y-45316134D01*
X57995330Y-45630915D01*
X58481511Y-45955771D01*
X59055000Y-46069845D01*
X59628489Y-45955771D01*
X60114670Y-45630915D01*
X60321461Y-45321431D01*
X60692964Y-45737232D01*
X61220209Y-45991209D01*
X61235974Y-45993858D01*
X61468000Y-45872717D01*
X61468000Y-44513500D01*
X61722000Y-44513500D01*
X61722000Y-45872717D01*
X61954026Y-45993858D01*
X61969791Y-45991209D01*
X62497036Y-45737232D01*
X62886954Y-45300820D01*
X63080184Y-44748413D01*
X62935924Y-44513500D01*
X61722000Y-44513500D01*
X61468000Y-44513500D01*
X61448000Y-44513500D01*
X61448000Y-44259500D01*
X61468000Y-44259500D01*
X61468000Y-42900283D01*
X61722000Y-42900283D01*
X61722000Y-44259500D01*
X62935924Y-44259500D01*
X63080184Y-44024587D01*
X62886954Y-43472180D01*
X62497036Y-43035768D01*
X61969791Y-42781791D01*
X61954026Y-42779142D01*
X61722000Y-42900283D01*
X61468000Y-42900283D01*
X61235974Y-42779142D01*
X61220209Y-42781791D01*
X60692964Y-43035768D01*
X60321461Y-43451569D01*
X60114670Y-43142085D01*
X60110584Y-43139355D01*
X60114565Y-43138563D01*
X60345294Y-42984394D01*
X61156973Y-42172716D01*
X61595000Y-42259845D01*
X62168489Y-42145771D01*
X62654670Y-41820915D01*
X62979526Y-41334734D01*
X63093600Y-40761245D01*
X63093600Y-40391755D01*
X62979526Y-39818266D01*
X62654670Y-39332085D01*
X62168489Y-39007229D01*
X61595000Y-38893155D01*
X61021511Y-39007229D01*
X60535330Y-39332085D01*
X60325000Y-39646866D01*
X60114670Y-39332085D01*
X59628489Y-39007229D01*
X59055000Y-38893155D01*
X58481511Y-39007229D01*
X57995330Y-39332085D01*
X57785000Y-39646866D01*
X57574670Y-39332085D01*
X57088489Y-39007229D01*
X56515000Y-38893155D01*
X55941511Y-39007229D01*
X55455330Y-39332085D01*
X55245000Y-39646866D01*
X55034670Y-39332085D01*
X54548489Y-39007229D01*
X53975000Y-38893155D01*
X53401511Y-39007229D01*
X52915330Y-39332085D01*
X52705000Y-39646866D01*
X52494670Y-39332085D01*
X52008489Y-39007229D01*
X51435000Y-38893155D01*
X50861511Y-39007229D01*
X50375330Y-39332085D01*
X50165000Y-39646866D01*
X49954670Y-39332085D01*
X49468489Y-39007229D01*
X48895000Y-38893155D01*
X48321511Y-39007229D01*
X47835330Y-39332085D01*
X47625000Y-39646866D01*
X47414670Y-39332085D01*
X46928489Y-39007229D01*
X46355000Y-38893155D01*
X45781511Y-39007229D01*
X45295330Y-39332085D01*
X45285757Y-39346413D01*
X45281762Y-39325183D01*
X45142690Y-39109059D01*
X44930490Y-38964069D01*
X44874543Y-38952739D01*
X44998629Y-38828870D01*
X45211757Y-38315600D01*
X45212242Y-37759839D01*
X45000010Y-37246197D01*
X44607370Y-36852871D01*
X44094100Y-36639743D01*
X43677908Y-36639380D01*
X50667895Y-29649394D01*
X50822063Y-29418664D01*
X50876200Y-29146500D01*
X50876200Y-25638693D01*
X51435000Y-25749845D01*
X52008489Y-25635771D01*
X52494670Y-25310915D01*
X52705000Y-24996134D01*
X52915330Y-25310915D01*
X53401511Y-25635771D01*
X53975000Y-25749845D01*
X54548489Y-25635771D01*
X55034670Y-25310915D01*
X55245000Y-24996134D01*
X55455330Y-25310915D01*
X55941511Y-25635771D01*
X56515000Y-25749845D01*
X57088489Y-25635771D01*
X57574670Y-25310915D01*
X57785000Y-24996134D01*
X57995330Y-25310915D01*
X58481511Y-25635771D01*
X59055000Y-25749845D01*
X59628489Y-25635771D01*
X60114670Y-25310915D01*
X60321461Y-25001431D01*
X60692964Y-25417232D01*
X61220209Y-25671209D01*
X61235974Y-25673858D01*
X61468000Y-25552717D01*
X61468000Y-24193500D01*
X61722000Y-24193500D01*
X61722000Y-25552717D01*
X61954026Y-25673858D01*
X61969791Y-25671209D01*
X62497036Y-25417232D01*
X62886954Y-24980820D01*
X63080184Y-24428413D01*
X62935924Y-24193500D01*
X61722000Y-24193500D01*
X61468000Y-24193500D01*
X61448000Y-24193500D01*
X61448000Y-23939500D01*
X61468000Y-23939500D01*
X61468000Y-22580283D01*
X61722000Y-22580283D01*
X61722000Y-23939500D01*
X62935924Y-23939500D01*
X63080184Y-23704587D01*
X62886954Y-23152180D01*
X62497036Y-22715768D01*
X61969791Y-22461791D01*
X61954026Y-22459142D01*
X61722000Y-22580283D01*
X61468000Y-22580283D01*
X61235974Y-22459142D01*
X61220209Y-22461791D01*
X60692964Y-22715768D01*
X60321461Y-23131569D01*
X60114670Y-22822085D01*
X59628489Y-22497229D01*
X59055000Y-22383155D01*
X58481511Y-22497229D01*
X57995330Y-22822085D01*
X57785000Y-23136866D01*
X57574670Y-22822085D01*
X57088489Y-22497229D01*
X56515000Y-22383155D01*
X55941511Y-22497229D01*
X55455330Y-22822085D01*
X55245000Y-23136866D01*
X55034670Y-22822085D01*
X54548489Y-22497229D01*
X53975000Y-22383155D01*
X53401511Y-22497229D01*
X52915330Y-22822085D01*
X52705000Y-23136866D01*
X52494670Y-22822085D01*
X52008489Y-22497229D01*
X51435000Y-22383155D01*
X50876200Y-22494307D01*
X50876200Y-21444688D01*
X53410917Y-21444688D01*
X53472571Y-21680300D01*
X53972980Y-21856427D01*
X54502699Y-21827648D01*
X54858429Y-21680300D01*
X54920083Y-21444688D01*
X55800917Y-21444688D01*
X55862571Y-21680300D01*
X56362980Y-21856427D01*
X56892699Y-21827648D01*
X57248429Y-21680300D01*
X57310083Y-21444688D01*
X56555500Y-20690105D01*
X55800917Y-21444688D01*
X54920083Y-21444688D01*
X54165500Y-20690105D01*
X53410917Y-21444688D01*
X50876200Y-21444688D01*
X50876200Y-20317980D01*
X52819573Y-20317980D01*
X52848352Y-20847699D01*
X52995700Y-21203429D01*
X53231312Y-21265083D01*
X53985895Y-20510500D01*
X54345105Y-20510500D01*
X55099688Y-21265083D01*
X55335300Y-21203429D01*
X55358453Y-21137648D01*
X55385700Y-21203429D01*
X55621312Y-21265083D01*
X56375895Y-20510500D01*
X56735105Y-20510500D01*
X57489688Y-21265083D01*
X57725300Y-21203429D01*
X57901427Y-20703020D01*
X57880509Y-20317980D01*
X61709573Y-20317980D01*
X61738352Y-20847699D01*
X61885700Y-21203429D01*
X62121312Y-21265083D01*
X62875895Y-20510500D01*
X62121312Y-19755917D01*
X61885700Y-19817571D01*
X61709573Y-20317980D01*
X57880509Y-20317980D01*
X57872648Y-20173301D01*
X57725300Y-19817571D01*
X57489688Y-19755917D01*
X56735105Y-20510500D01*
X56375895Y-20510500D01*
X55621312Y-19755917D01*
X55385700Y-19817571D01*
X55362547Y-19883352D01*
X55335300Y-19817571D01*
X55099688Y-19755917D01*
X54345105Y-20510500D01*
X53985895Y-20510500D01*
X53231312Y-19755917D01*
X52995700Y-19817571D01*
X52819573Y-20317980D01*
X50876200Y-20317980D01*
X50876200Y-19576312D01*
X53410917Y-19576312D01*
X54165500Y-20330895D01*
X54920083Y-19576312D01*
X55800917Y-19576312D01*
X56555500Y-20330895D01*
X57310083Y-19576312D01*
X57248429Y-19340700D01*
X56748020Y-19164573D01*
X56218301Y-19193352D01*
X55862571Y-19340700D01*
X55800917Y-19576312D01*
X54920083Y-19576312D01*
X54858429Y-19340700D01*
X54358020Y-19164573D01*
X53828301Y-19193352D01*
X53472571Y-19340700D01*
X53410917Y-19576312D01*
X50876200Y-19576312D01*
X50876200Y-18510000D01*
X50822063Y-18237836D01*
X50822063Y-18237835D01*
X50667894Y-18007106D01*
X48980851Y-16320063D01*
X48998768Y-16276913D01*
X48999231Y-15746414D01*
X48796646Y-15256120D01*
X48785545Y-15245000D01*
X53044836Y-15245000D01*
X53035673Y-15254147D01*
G36*
X31703345Y-49088540D02*
X32062634Y-49237730D01*
X32230092Y-49237876D01*
X35570215Y-52578000D01*
X24306388Y-52578000D01*
X24387431Y-52459390D01*
X24405796Y-52368700D01*
X30829000Y-52368700D01*
X31101165Y-52314563D01*
X31331894Y-52160394D01*
X31777864Y-51714425D01*
X31943663Y-51714569D01*
X32303212Y-51566007D01*
X32578540Y-51291159D01*
X32727730Y-50931870D01*
X32728069Y-50542837D01*
X32579507Y-50183288D01*
X32304659Y-49907960D01*
X31945370Y-49758770D01*
X31699200Y-49758555D01*
X31699200Y-49084388D01*
X31703345Y-49088540D01*
X31703345Y-49088540D01*
G37*
X31703345Y-49088540D02*
X32062634Y-49237730D01*
X32230092Y-49237876D01*
X35570215Y-52578000D01*
X24306388Y-52578000D01*
X24387431Y-52459390D01*
X24405796Y-52368700D01*
X30829000Y-52368700D01*
X31101165Y-52314563D01*
X31331894Y-52160394D01*
X31777864Y-51714425D01*
X31943663Y-51714569D01*
X32303212Y-51566007D01*
X32578540Y-51291159D01*
X32727730Y-50931870D01*
X32728069Y-50542837D01*
X32579507Y-50183288D01*
X32304659Y-49907960D01*
X31945370Y-49758770D01*
X31699200Y-49758555D01*
X31699200Y-49084388D01*
X31703345Y-49088540D01*
G36*
X29082989Y-40511667D02*
X29082989Y-46621689D01*
X29121198Y-46813778D01*
X29120931Y-47120163D01*
X29269493Y-47479712D01*
X29544341Y-47755040D01*
X29903630Y-47904230D01*
X29959301Y-47904279D01*
X29959301Y-50187911D01*
X29867912Y-50279300D01*
X25377088Y-50279300D01*
X25095200Y-49997412D01*
X25095200Y-47657500D01*
X25041063Y-47385336D01*
X24886894Y-47154606D01*
X24868430Y-47142269D01*
X25212663Y-47142569D01*
X25572212Y-46994007D01*
X25847540Y-46719159D01*
X25996730Y-46359870D01*
X25997069Y-45970837D01*
X25848507Y-45611288D01*
X25576683Y-45338989D01*
X25593542Y-45322159D01*
X25742732Y-44962870D01*
X25743071Y-44573837D01*
X25594509Y-44214288D01*
X25319661Y-43938960D01*
X24960372Y-43789770D01*
X24792914Y-43789624D01*
X24438440Y-43435150D01*
X24438440Y-43107500D01*
X24434506Y-43086592D01*
X24570495Y-43415712D01*
X24845343Y-43691040D01*
X25204632Y-43840230D01*
X25372088Y-43840376D01*
X26593800Y-45062088D01*
X26593800Y-47905714D01*
X26476460Y-48022849D01*
X26327270Y-48382138D01*
X26326931Y-48771171D01*
X26475493Y-49130720D01*
X26750341Y-49406048D01*
X27109630Y-49555238D01*
X27498663Y-49555577D01*
X27858212Y-49407015D01*
X28133540Y-49132167D01*
X28282730Y-48772878D01*
X28283069Y-48383845D01*
X28134507Y-48024296D01*
X28016200Y-47905782D01*
X28016200Y-44767500D01*
X27987325Y-44622335D01*
X27962063Y-44495335D01*
X27807894Y-44264606D01*
X27102378Y-43559090D01*
X27244556Y-43417159D01*
X27393746Y-43057870D01*
X27394085Y-42668837D01*
X27245523Y-42309288D01*
X26970675Y-42033960D01*
X26611386Y-41884770D01*
X26443929Y-41884624D01*
X24438440Y-39879136D01*
X24438440Y-39241848D01*
X25554863Y-38125425D01*
X25720663Y-38125569D01*
X26080212Y-37977007D01*
X26314475Y-37743153D01*
X29082989Y-40511667D01*
X29082989Y-40511667D01*
G37*
X29082989Y-40511667D02*
X29082989Y-46621689D01*
X29121198Y-46813778D01*
X29120931Y-47120163D01*
X29269493Y-47479712D01*
X29544341Y-47755040D01*
X29903630Y-47904230D01*
X29959301Y-47904279D01*
X29959301Y-50187911D01*
X29867912Y-50279300D01*
X25377088Y-50279300D01*
X25095200Y-49997412D01*
X25095200Y-47657500D01*
X25041063Y-47385336D01*
X24886894Y-47154606D01*
X24868430Y-47142269D01*
X25212663Y-47142569D01*
X25572212Y-46994007D01*
X25847540Y-46719159D01*
X25996730Y-46359870D01*
X25997069Y-45970837D01*
X25848507Y-45611288D01*
X25576683Y-45338989D01*
X25593542Y-45322159D01*
X25742732Y-44962870D01*
X25743071Y-44573837D01*
X25594509Y-44214288D01*
X25319661Y-43938960D01*
X24960372Y-43789770D01*
X24792914Y-43789624D01*
X24438440Y-43435150D01*
X24438440Y-43107500D01*
X24434506Y-43086592D01*
X24570495Y-43415712D01*
X24845343Y-43691040D01*
X25204632Y-43840230D01*
X25372088Y-43840376D01*
X26593800Y-45062088D01*
X26593800Y-47905714D01*
X26476460Y-48022849D01*
X26327270Y-48382138D01*
X26326931Y-48771171D01*
X26475493Y-49130720D01*
X26750341Y-49406048D01*
X27109630Y-49555238D01*
X27498663Y-49555577D01*
X27858212Y-49407015D01*
X28133540Y-49132167D01*
X28282730Y-48772878D01*
X28283069Y-48383845D01*
X28134507Y-48024296D01*
X28016200Y-47905782D01*
X28016200Y-44767500D01*
X27987325Y-44622335D01*
X27962063Y-44495335D01*
X27807894Y-44264606D01*
X27102378Y-43559090D01*
X27244556Y-43417159D01*
X27393746Y-43057870D01*
X27394085Y-42668837D01*
X27245523Y-42309288D01*
X26970675Y-42033960D01*
X26611386Y-41884770D01*
X26443929Y-41884624D01*
X24438440Y-39879136D01*
X24438440Y-39241848D01*
X25554863Y-38125425D01*
X25720663Y-38125569D01*
X26080212Y-37977007D01*
X26314475Y-37743153D01*
X29082989Y-40511667D01*
G36*
X40143854Y-36250880D02*
X40518647Y-36626327D01*
X40856446Y-36766594D01*
X40520620Y-36905354D01*
X40145173Y-37280147D01*
X39941732Y-37770087D01*
X39941269Y-38300586D01*
X40050439Y-38564797D01*
X39883106Y-38676605D01*
X39753515Y-38806196D01*
X39729327Y-38747801D01*
X39550698Y-38569173D01*
X39317309Y-38472500D01*
X38226750Y-38472500D01*
X38068000Y-38631250D01*
X38068000Y-39530500D01*
X38088000Y-39530500D01*
X38088000Y-39784500D01*
X38068000Y-39784500D01*
X38068000Y-39804500D01*
X37814000Y-39804500D01*
X37814000Y-39784500D01*
X36214750Y-39784500D01*
X36056000Y-39943250D01*
X36056000Y-40333810D01*
X36152673Y-40567199D01*
X36193910Y-40608436D01*
X36139559Y-40643410D01*
X35994569Y-40855610D01*
X35976204Y-40946300D01*
X33633596Y-40946300D01*
X31965933Y-39278637D01*
X31966077Y-39112837D01*
X31911682Y-38981190D01*
X36056000Y-38981190D01*
X36056000Y-39371750D01*
X36214750Y-39530500D01*
X37814000Y-39530500D01*
X37814000Y-38631250D01*
X37655250Y-38472500D01*
X36564691Y-38472500D01*
X36331302Y-38569173D01*
X36152673Y-38747801D01*
X36056000Y-38981190D01*
X31911682Y-38981190D01*
X31817515Y-38753288D01*
X31569065Y-38504405D01*
X33865770Y-36207700D01*
X40126012Y-36207700D01*
X40143854Y-36250880D01*
X40143854Y-36250880D01*
G37*
X40143854Y-36250880D02*
X40518647Y-36626327D01*
X40856446Y-36766594D01*
X40520620Y-36905354D01*
X40145173Y-37280147D01*
X39941732Y-37770087D01*
X39941269Y-38300586D01*
X40050439Y-38564797D01*
X39883106Y-38676605D01*
X39753515Y-38806196D01*
X39729327Y-38747801D01*
X39550698Y-38569173D01*
X39317309Y-38472500D01*
X38226750Y-38472500D01*
X38068000Y-38631250D01*
X38068000Y-39530500D01*
X38088000Y-39530500D01*
X38088000Y-39784500D01*
X38068000Y-39784500D01*
X38068000Y-39804500D01*
X37814000Y-39804500D01*
X37814000Y-39784500D01*
X36214750Y-39784500D01*
X36056000Y-39943250D01*
X36056000Y-40333810D01*
X36152673Y-40567199D01*
X36193910Y-40608436D01*
X36139559Y-40643410D01*
X35994569Y-40855610D01*
X35976204Y-40946300D01*
X33633596Y-40946300D01*
X31965933Y-39278637D01*
X31966077Y-39112837D01*
X31911682Y-38981190D01*
X36056000Y-38981190D01*
X36056000Y-39371750D01*
X36214750Y-39530500D01*
X37814000Y-39530500D01*
X37814000Y-38631250D01*
X37655250Y-38472500D01*
X36564691Y-38472500D01*
X36331302Y-38569173D01*
X36152673Y-38747801D01*
X36056000Y-38981190D01*
X31911682Y-38981190D01*
X31817515Y-38753288D01*
X31569065Y-38504405D01*
X33865770Y-36207700D01*
X40126012Y-36207700D01*
X40143854Y-36250880D01*
G36*
X44145673Y-15254147D02*
X43942232Y-15744087D01*
X43941769Y-16274586D01*
X44144354Y-16764880D01*
X44519147Y-17140327D01*
X45009087Y-17343768D01*
X45539586Y-17344231D01*
X46029880Y-17141646D01*
X46405327Y-16766853D01*
X46470408Y-16610120D01*
X46534354Y-16764880D01*
X46909147Y-17140327D01*
X47399087Y-17343768D01*
X47929586Y-17344231D01*
X47974772Y-17325560D01*
X49453800Y-18804588D01*
X49453800Y-22494307D01*
X48895000Y-22383155D01*
X48321511Y-22497229D01*
X47835330Y-22822085D01*
X47625000Y-23136866D01*
X47414670Y-22822085D01*
X46928489Y-22497229D01*
X46355000Y-22383155D01*
X45781511Y-22497229D01*
X45295330Y-22822085D01*
X45085000Y-23136866D01*
X44874670Y-22822085D01*
X44388489Y-22497229D01*
X43815000Y-22383155D01*
X43241511Y-22497229D01*
X42755330Y-22822085D01*
X42745757Y-22836413D01*
X42741762Y-22815183D01*
X42602690Y-22599059D01*
X42390490Y-22454069D01*
X42138600Y-22403060D01*
X40411400Y-22403060D01*
X40176083Y-22447338D01*
X39959959Y-22586410D01*
X39814969Y-22798610D01*
X39763960Y-23050500D01*
X39763960Y-25082500D01*
X39808238Y-25317817D01*
X39947310Y-25533941D01*
X40159510Y-25678931D01*
X40411400Y-25729940D01*
X42138600Y-25729940D01*
X42373917Y-25685662D01*
X42590041Y-25546590D01*
X42735031Y-25334390D01*
X42743400Y-25293061D01*
X42755330Y-25310915D01*
X43241511Y-25635771D01*
X43815000Y-25749845D01*
X44388489Y-25635771D01*
X44874670Y-25310915D01*
X45085000Y-24996134D01*
X45295330Y-25310915D01*
X45781511Y-25635771D01*
X46355000Y-25749845D01*
X46928489Y-25635771D01*
X47414670Y-25310915D01*
X47625000Y-24996134D01*
X47835330Y-25310915D01*
X48321511Y-25635771D01*
X48895000Y-25749845D01*
X49453800Y-25638693D01*
X49453800Y-28851911D01*
X42608325Y-35697387D01*
X42608731Y-35232414D01*
X42406146Y-34742120D01*
X42031353Y-34366673D01*
X41693554Y-34226406D01*
X42029380Y-34087646D01*
X42404827Y-33712853D01*
X42608268Y-33222913D01*
X42608731Y-32692414D01*
X42406146Y-32202120D01*
X42031353Y-31826673D01*
X41693554Y-31686406D01*
X42029380Y-31547646D01*
X42404827Y-31172853D01*
X42608268Y-30682913D01*
X42608731Y-30152414D01*
X42406146Y-29662120D01*
X42031353Y-29286673D01*
X41693554Y-29146406D01*
X42029380Y-29007646D01*
X42180576Y-28856713D01*
X43014392Y-28856713D01*
X43083857Y-29098897D01*
X43607302Y-29285644D01*
X44162368Y-29257862D01*
X44546143Y-29098897D01*
X44615608Y-28856713D01*
X43815000Y-28056105D01*
X43014392Y-28856713D01*
X42180576Y-28856713D01*
X42404827Y-28632853D01*
X42504058Y-28393878D01*
X42592603Y-28607643D01*
X42834787Y-28677108D01*
X43635395Y-27876500D01*
X43994605Y-27876500D01*
X44795213Y-28677108D01*
X45037397Y-28607643D01*
X45224144Y-28084198D01*
X45196362Y-27529132D01*
X45037397Y-27145357D01*
X44795213Y-27075892D01*
X43994605Y-27876500D01*
X43635395Y-27876500D01*
X42834787Y-27075892D01*
X42592603Y-27145357D01*
X42510656Y-27375053D01*
X42406146Y-27122120D01*
X42180707Y-26896287D01*
X43014392Y-26896287D01*
X43815000Y-27696895D01*
X44615608Y-26896287D01*
X44546143Y-26654103D01*
X44022698Y-26467356D01*
X43467632Y-26495138D01*
X43083857Y-26654103D01*
X43014392Y-26896287D01*
X42180707Y-26896287D01*
X42031353Y-26746673D01*
X41541413Y-26543232D01*
X41010914Y-26542769D01*
X40520620Y-26745354D01*
X40145173Y-27120147D01*
X39941732Y-27610087D01*
X39941269Y-28140586D01*
X40143854Y-28630880D01*
X40518647Y-29006327D01*
X40856446Y-29146594D01*
X40520620Y-29285354D01*
X40145173Y-29660147D01*
X39941732Y-30150087D01*
X39941324Y-30617036D01*
X38303200Y-28978912D01*
X38303200Y-21757954D01*
X38582980Y-21856427D01*
X39112699Y-21827648D01*
X39468429Y-21680300D01*
X39530083Y-21444688D01*
X44520917Y-21444688D01*
X44582571Y-21680300D01*
X45082980Y-21856427D01*
X45612699Y-21827648D01*
X45968429Y-21680300D01*
X46030083Y-21444688D01*
X46910917Y-21444688D01*
X46972571Y-21680300D01*
X47472980Y-21856427D01*
X48002699Y-21827648D01*
X48358429Y-21680300D01*
X48420083Y-21444688D01*
X47665500Y-20690105D01*
X46910917Y-21444688D01*
X46030083Y-21444688D01*
X45275500Y-20690105D01*
X44520917Y-21444688D01*
X39530083Y-21444688D01*
X38775500Y-20690105D01*
X38761358Y-20704248D01*
X38581753Y-20524643D01*
X38595895Y-20510500D01*
X38955105Y-20510500D01*
X39709688Y-21265083D01*
X39945300Y-21203429D01*
X40121427Y-20703020D01*
X40100509Y-20317980D01*
X43929573Y-20317980D01*
X43958352Y-20847699D01*
X44105700Y-21203429D01*
X44341312Y-21265083D01*
X45095895Y-20510500D01*
X45455105Y-20510500D01*
X46209688Y-21265083D01*
X46445300Y-21203429D01*
X46468453Y-21137648D01*
X46495700Y-21203429D01*
X46731312Y-21265083D01*
X47485895Y-20510500D01*
X47845105Y-20510500D01*
X48599688Y-21265083D01*
X48835300Y-21203429D01*
X49011427Y-20703020D01*
X48982648Y-20173301D01*
X48835300Y-19817571D01*
X48599688Y-19755917D01*
X47845105Y-20510500D01*
X47485895Y-20510500D01*
X46731312Y-19755917D01*
X46495700Y-19817571D01*
X46472547Y-19883352D01*
X46445300Y-19817571D01*
X46209688Y-19755917D01*
X45455105Y-20510500D01*
X45095895Y-20510500D01*
X44341312Y-19755917D01*
X44105700Y-19817571D01*
X43929573Y-20317980D01*
X40100509Y-20317980D01*
X40092648Y-20173301D01*
X39945300Y-19817571D01*
X39709688Y-19755917D01*
X38955105Y-20510500D01*
X38595895Y-20510500D01*
X38581753Y-20496358D01*
X38761358Y-20316753D01*
X38775500Y-20330895D01*
X39530083Y-19576312D01*
X44520917Y-19576312D01*
X45275500Y-20330895D01*
X46030083Y-19576312D01*
X46910917Y-19576312D01*
X47665500Y-20330895D01*
X48420083Y-19576312D01*
X48358429Y-19340700D01*
X47858020Y-19164573D01*
X47328301Y-19193352D01*
X46972571Y-19340700D01*
X46910917Y-19576312D01*
X46030083Y-19576312D01*
X45968429Y-19340700D01*
X45468020Y-19164573D01*
X44938301Y-19193352D01*
X44582571Y-19340700D01*
X44520917Y-19576312D01*
X39530083Y-19576312D01*
X39468429Y-19340700D01*
X38968020Y-19164573D01*
X38438301Y-19193352D01*
X38303200Y-19249313D01*
X38303200Y-17488588D01*
X38465938Y-17325851D01*
X38509087Y-17343768D01*
X39039586Y-17344231D01*
X39529880Y-17141646D01*
X39905327Y-16766853D01*
X40108768Y-16276913D01*
X40109231Y-15746414D01*
X39906646Y-15256120D01*
X39895545Y-15245000D01*
X44154836Y-15245000D01*
X44145673Y-15254147D01*
X44145673Y-15254147D01*
G37*
X44145673Y-15254147D02*
X43942232Y-15744087D01*
X43941769Y-16274586D01*
X44144354Y-16764880D01*
X44519147Y-17140327D01*
X45009087Y-17343768D01*
X45539586Y-17344231D01*
X46029880Y-17141646D01*
X46405327Y-16766853D01*
X46470408Y-16610120D01*
X46534354Y-16764880D01*
X46909147Y-17140327D01*
X47399087Y-17343768D01*
X47929586Y-17344231D01*
X47974772Y-17325560D01*
X49453800Y-18804588D01*
X49453800Y-22494307D01*
X48895000Y-22383155D01*
X48321511Y-22497229D01*
X47835330Y-22822085D01*
X47625000Y-23136866D01*
X47414670Y-22822085D01*
X46928489Y-22497229D01*
X46355000Y-22383155D01*
X45781511Y-22497229D01*
X45295330Y-22822085D01*
X45085000Y-23136866D01*
X44874670Y-22822085D01*
X44388489Y-22497229D01*
X43815000Y-22383155D01*
X43241511Y-22497229D01*
X42755330Y-22822085D01*
X42745757Y-22836413D01*
X42741762Y-22815183D01*
X42602690Y-22599059D01*
X42390490Y-22454069D01*
X42138600Y-22403060D01*
X40411400Y-22403060D01*
X40176083Y-22447338D01*
X39959959Y-22586410D01*
X39814969Y-22798610D01*
X39763960Y-23050500D01*
X39763960Y-25082500D01*
X39808238Y-25317817D01*
X39947310Y-25533941D01*
X40159510Y-25678931D01*
X40411400Y-25729940D01*
X42138600Y-25729940D01*
X42373917Y-25685662D01*
X42590041Y-25546590D01*
X42735031Y-25334390D01*
X42743400Y-25293061D01*
X42755330Y-25310915D01*
X43241511Y-25635771D01*
X43815000Y-25749845D01*
X44388489Y-25635771D01*
X44874670Y-25310915D01*
X45085000Y-24996134D01*
X45295330Y-25310915D01*
X45781511Y-25635771D01*
X46355000Y-25749845D01*
X46928489Y-25635771D01*
X47414670Y-25310915D01*
X47625000Y-24996134D01*
X47835330Y-25310915D01*
X48321511Y-25635771D01*
X48895000Y-25749845D01*
X49453800Y-25638693D01*
X49453800Y-28851911D01*
X42608325Y-35697387D01*
X42608731Y-35232414D01*
X42406146Y-34742120D01*
X42031353Y-34366673D01*
X41693554Y-34226406D01*
X42029380Y-34087646D01*
X42404827Y-33712853D01*
X42608268Y-33222913D01*
X42608731Y-32692414D01*
X42406146Y-32202120D01*
X42031353Y-31826673D01*
X41693554Y-31686406D01*
X42029380Y-31547646D01*
X42404827Y-31172853D01*
X42608268Y-30682913D01*
X42608731Y-30152414D01*
X42406146Y-29662120D01*
X42031353Y-29286673D01*
X41693554Y-29146406D01*
X42029380Y-29007646D01*
X42180576Y-28856713D01*
X43014392Y-28856713D01*
X43083857Y-29098897D01*
X43607302Y-29285644D01*
X44162368Y-29257862D01*
X44546143Y-29098897D01*
X44615608Y-28856713D01*
X43815000Y-28056105D01*
X43014392Y-28856713D01*
X42180576Y-28856713D01*
X42404827Y-28632853D01*
X42504058Y-28393878D01*
X42592603Y-28607643D01*
X42834787Y-28677108D01*
X43635395Y-27876500D01*
X43994605Y-27876500D01*
X44795213Y-28677108D01*
X45037397Y-28607643D01*
X45224144Y-28084198D01*
X45196362Y-27529132D01*
X45037397Y-27145357D01*
X44795213Y-27075892D01*
X43994605Y-27876500D01*
X43635395Y-27876500D01*
X42834787Y-27075892D01*
X42592603Y-27145357D01*
X42510656Y-27375053D01*
X42406146Y-27122120D01*
X42180707Y-26896287D01*
X43014392Y-26896287D01*
X43815000Y-27696895D01*
X44615608Y-26896287D01*
X44546143Y-26654103D01*
X44022698Y-26467356D01*
X43467632Y-26495138D01*
X43083857Y-26654103D01*
X43014392Y-26896287D01*
X42180707Y-26896287D01*
X42031353Y-26746673D01*
X41541413Y-26543232D01*
X41010914Y-26542769D01*
X40520620Y-26745354D01*
X40145173Y-27120147D01*
X39941732Y-27610087D01*
X39941269Y-28140586D01*
X40143854Y-28630880D01*
X40518647Y-29006327D01*
X40856446Y-29146594D01*
X40520620Y-29285354D01*
X40145173Y-29660147D01*
X39941732Y-30150087D01*
X39941324Y-30617036D01*
X38303200Y-28978912D01*
X38303200Y-21757954D01*
X38582980Y-21856427D01*
X39112699Y-21827648D01*
X39468429Y-21680300D01*
X39530083Y-21444688D01*
X44520917Y-21444688D01*
X44582571Y-21680300D01*
X45082980Y-21856427D01*
X45612699Y-21827648D01*
X45968429Y-21680300D01*
X46030083Y-21444688D01*
X46910917Y-21444688D01*
X46972571Y-21680300D01*
X47472980Y-21856427D01*
X48002699Y-21827648D01*
X48358429Y-21680300D01*
X48420083Y-21444688D01*
X47665500Y-20690105D01*
X46910917Y-21444688D01*
X46030083Y-21444688D01*
X45275500Y-20690105D01*
X44520917Y-21444688D01*
X39530083Y-21444688D01*
X38775500Y-20690105D01*
X38761358Y-20704248D01*
X38581753Y-20524643D01*
X38595895Y-20510500D01*
X38955105Y-20510500D01*
X39709688Y-21265083D01*
X39945300Y-21203429D01*
X40121427Y-20703020D01*
X40100509Y-20317980D01*
X43929573Y-20317980D01*
X43958352Y-20847699D01*
X44105700Y-21203429D01*
X44341312Y-21265083D01*
X45095895Y-20510500D01*
X45455105Y-20510500D01*
X46209688Y-21265083D01*
X46445300Y-21203429D01*
X46468453Y-21137648D01*
X46495700Y-21203429D01*
X46731312Y-21265083D01*
X47485895Y-20510500D01*
X47845105Y-20510500D01*
X48599688Y-21265083D01*
X48835300Y-21203429D01*
X49011427Y-20703020D01*
X48982648Y-20173301D01*
X48835300Y-19817571D01*
X48599688Y-19755917D01*
X47845105Y-20510500D01*
X47485895Y-20510500D01*
X46731312Y-19755917D01*
X46495700Y-19817571D01*
X46472547Y-19883352D01*
X46445300Y-19817571D01*
X46209688Y-19755917D01*
X45455105Y-20510500D01*
X45095895Y-20510500D01*
X44341312Y-19755917D01*
X44105700Y-19817571D01*
X43929573Y-20317980D01*
X40100509Y-20317980D01*
X40092648Y-20173301D01*
X39945300Y-19817571D01*
X39709688Y-19755917D01*
X38955105Y-20510500D01*
X38595895Y-20510500D01*
X38581753Y-20496358D01*
X38761358Y-20316753D01*
X38775500Y-20330895D01*
X39530083Y-19576312D01*
X44520917Y-19576312D01*
X45275500Y-20330895D01*
X46030083Y-19576312D01*
X46910917Y-19576312D01*
X47665500Y-20330895D01*
X48420083Y-19576312D01*
X48358429Y-19340700D01*
X47858020Y-19164573D01*
X47328301Y-19193352D01*
X46972571Y-19340700D01*
X46910917Y-19576312D01*
X46030083Y-19576312D01*
X45968429Y-19340700D01*
X45468020Y-19164573D01*
X44938301Y-19193352D01*
X44582571Y-19340700D01*
X44520917Y-19576312D01*
X39530083Y-19576312D01*
X39468429Y-19340700D01*
X38968020Y-19164573D01*
X38438301Y-19193352D01*
X38303200Y-19249313D01*
X38303200Y-17488588D01*
X38465938Y-17325851D01*
X38509087Y-17343768D01*
X39039586Y-17344231D01*
X39529880Y-17141646D01*
X39905327Y-16766853D01*
X40108768Y-16276913D01*
X40109231Y-15746414D01*
X39906646Y-15256120D01*
X39895545Y-15245000D01*
X44154836Y-15245000D01*
X44145673Y-15254147D01*
G36*
X23622967Y-15246722D02*
X23265075Y-15782345D01*
X23139400Y-16414155D01*
X23139400Y-16478845D01*
X23265075Y-17110655D01*
X23465772Y-17411019D01*
X23414701Y-17432173D01*
X23236073Y-17610802D01*
X23139400Y-17844191D01*
X23139400Y-18700750D01*
X23298150Y-18859500D01*
X24663400Y-18859500D01*
X24663400Y-18839500D01*
X24917400Y-18839500D01*
X24917400Y-18859500D01*
X26282650Y-18859500D01*
X26441400Y-18700750D01*
X26441400Y-17844191D01*
X26344727Y-17610802D01*
X26166099Y-17432173D01*
X26115028Y-17411019D01*
X26315725Y-17110655D01*
X26441400Y-16478845D01*
X26441400Y-16414155D01*
X26315725Y-15782345D01*
X25957833Y-15246722D01*
X25955256Y-15245000D01*
X27510927Y-15245000D01*
X27450459Y-15283910D01*
X27305469Y-15496110D01*
X27254460Y-15748000D01*
X27254460Y-17145000D01*
X27298738Y-17380317D01*
X27437810Y-17596441D01*
X27650010Y-17741431D01*
X27901900Y-17792440D01*
X29298900Y-17792440D01*
X29534217Y-17748162D01*
X29750341Y-17609090D01*
X29895331Y-17396890D01*
X29946340Y-17145000D01*
X29946340Y-17048616D01*
X30009254Y-17200880D01*
X30384047Y-17576327D01*
X30873987Y-17779768D01*
X31404486Y-17780231D01*
X31894780Y-17577646D01*
X32270227Y-17202853D01*
X32410494Y-16865054D01*
X32549254Y-17200880D01*
X32924047Y-17576327D01*
X33413987Y-17779768D01*
X33944486Y-17780231D01*
X34434780Y-17577646D01*
X34810227Y-17202853D01*
X35013668Y-16712913D01*
X35014131Y-16182414D01*
X34811546Y-15692120D01*
X34436753Y-15316673D01*
X34264145Y-15245000D01*
X37654836Y-15245000D01*
X37645673Y-15254147D01*
X37442232Y-15744087D01*
X37441769Y-16274586D01*
X37460440Y-16319772D01*
X37089106Y-16691106D01*
X36934937Y-16921835D01*
X36934937Y-16921836D01*
X36880800Y-17194000D01*
X36880800Y-21526500D01*
X36480750Y-21526500D01*
X36322000Y-21685250D01*
X36322000Y-23050500D01*
X36342000Y-23050500D01*
X36342000Y-23304500D01*
X36322000Y-23304500D01*
X36322000Y-24669750D01*
X36480750Y-24828500D01*
X36880800Y-24828500D01*
X36880800Y-29273500D01*
X36934937Y-29545665D01*
X37089106Y-29776394D01*
X39558011Y-32245300D01*
X35680115Y-32245300D01*
X35407951Y-32299437D01*
X35177221Y-32453605D01*
X34157586Y-33473240D01*
X33955659Y-33270960D01*
X33596370Y-33121770D01*
X33207337Y-33121431D01*
X32847788Y-33269993D01*
X32642122Y-33475300D01*
X32400924Y-33475300D01*
X32368162Y-33301183D01*
X32229090Y-33085059D01*
X32016890Y-32940069D01*
X31765000Y-32889060D01*
X31602615Y-32889060D01*
X31778729Y-32816111D01*
X31834410Y-32585516D01*
X31115000Y-31866105D01*
X30395590Y-32585516D01*
X30451271Y-32816111D01*
X30660902Y-32889060D01*
X30465000Y-32889060D01*
X30229683Y-32933338D01*
X30013559Y-33072410D01*
X29868569Y-33284610D01*
X29829953Y-33475300D01*
X29532400Y-33475300D01*
X29536130Y-33456880D01*
X29536130Y-33128158D01*
X30347894Y-32316394D01*
X30433262Y-32188632D01*
X30935395Y-31686500D01*
X31294605Y-31686500D01*
X32014016Y-32405910D01*
X32244611Y-32350229D01*
X32412622Y-31867422D01*
X32383083Y-31357072D01*
X32244611Y-31022771D01*
X32014016Y-30967090D01*
X31294605Y-31686500D01*
X30935395Y-31686500D01*
X30921252Y-31672358D01*
X31100858Y-31492752D01*
X31115000Y-31506895D01*
X31834410Y-30787484D01*
X31778729Y-30556889D01*
X31295922Y-30388878D01*
X30785572Y-30418417D01*
X30556200Y-30513426D01*
X30556200Y-26883161D01*
X32283158Y-26883161D01*
X32495390Y-27396803D01*
X32888030Y-27790129D01*
X33095912Y-27876449D01*
X32890097Y-27961490D01*
X32496771Y-28354130D01*
X32283643Y-28867400D01*
X32283158Y-29423161D01*
X32495390Y-29936803D01*
X32888030Y-30330129D01*
X33401300Y-30543257D01*
X33957061Y-30543742D01*
X34470703Y-30331510D01*
X34864029Y-29938870D01*
X35077157Y-29425600D01*
X35077642Y-28869839D01*
X34865410Y-28356197D01*
X34472770Y-27962871D01*
X34264888Y-27876551D01*
X34470703Y-27791510D01*
X34864029Y-27398870D01*
X35077157Y-26885600D01*
X35077642Y-26329839D01*
X34865410Y-25816197D01*
X34472770Y-25422871D01*
X33959500Y-25209743D01*
X33403739Y-25209258D01*
X32890097Y-25421490D01*
X32496771Y-25814130D01*
X32283643Y-26327400D01*
X32283158Y-26883161D01*
X30556200Y-26883161D01*
X30556200Y-24749693D01*
X31115000Y-24860845D01*
X31688489Y-24746771D01*
X32174670Y-24421915D01*
X32385000Y-24107134D01*
X32595330Y-24421915D01*
X33081511Y-24746771D01*
X33655000Y-24860845D01*
X34228489Y-24746771D01*
X34714670Y-24421915D01*
X34729500Y-24399720D01*
X34793073Y-24553198D01*
X34971701Y-24731827D01*
X35205090Y-24828500D01*
X35909250Y-24828500D01*
X36068000Y-24669750D01*
X36068000Y-23304500D01*
X36048000Y-23304500D01*
X36048000Y-23050500D01*
X36068000Y-23050500D01*
X36068000Y-21685250D01*
X35909250Y-21526500D01*
X35205090Y-21526500D01*
X34971701Y-21623173D01*
X34793073Y-21801802D01*
X34729500Y-21955280D01*
X34714670Y-21933085D01*
X34228489Y-21608229D01*
X33655000Y-21494155D01*
X33081511Y-21608229D01*
X32595330Y-21933085D01*
X32385000Y-22247866D01*
X32174670Y-21933085D01*
X31820229Y-21696255D01*
X31943540Y-21573159D01*
X32092730Y-21213870D01*
X32093069Y-20824837D01*
X31944507Y-20465288D01*
X31669659Y-20189960D01*
X31310370Y-20040770D01*
X30921337Y-20040431D01*
X30561788Y-20188993D01*
X30286460Y-20463841D01*
X30137270Y-20823130D01*
X30137124Y-20990587D01*
X29370884Y-21756828D01*
X29148489Y-21608229D01*
X28575000Y-21494155D01*
X28001511Y-21608229D01*
X27515330Y-21933085D01*
X27305000Y-22247866D01*
X27094670Y-21933085D01*
X26608489Y-21608229D01*
X26035000Y-21494155D01*
X25461511Y-21608229D01*
X24975330Y-21933085D01*
X24765000Y-22247866D01*
X24554670Y-21933085D01*
X24068489Y-21608229D01*
X23495000Y-21494155D01*
X22921511Y-21608229D01*
X22435330Y-21933085D01*
X22110474Y-22419266D01*
X21996400Y-22992755D01*
X21996400Y-23362245D01*
X22110474Y-23935734D01*
X22435330Y-24421915D01*
X22921511Y-24746771D01*
X23495000Y-24860845D01*
X24068489Y-24746771D01*
X24554670Y-24421915D01*
X24765000Y-24107134D01*
X24975330Y-24421915D01*
X25461511Y-24746771D01*
X26035000Y-24860845D01*
X26608489Y-24746771D01*
X27094670Y-24421915D01*
X27305000Y-24107134D01*
X27515330Y-24421915D01*
X28001511Y-24746771D01*
X28575000Y-24860845D01*
X29133800Y-24749693D01*
X29133800Y-30369189D01*
X29015000Y-30319980D01*
X27923490Y-30319980D01*
X27764740Y-30478730D01*
X27764740Y-31328360D01*
X27784740Y-31328360D01*
X27784740Y-31582360D01*
X27764740Y-31582360D01*
X27764740Y-31602360D01*
X27510740Y-31602360D01*
X27510740Y-31582360D01*
X27490740Y-31582360D01*
X27490740Y-31328360D01*
X27510740Y-31328360D01*
X27510740Y-30478730D01*
X27351990Y-30319980D01*
X26260480Y-30319980D01*
X26027091Y-30416653D01*
X25848463Y-30595282D01*
X25751790Y-30828671D01*
X25751790Y-31169610D01*
X25910538Y-31328358D01*
X25778528Y-31328358D01*
X25685750Y-31309570D01*
X25681450Y-31309570D01*
X25678237Y-31308547D01*
X25672354Y-31309570D01*
X21685250Y-31309570D01*
X21449933Y-31353848D01*
X21233809Y-31492920D01*
X21088819Y-31705120D01*
X21037810Y-31957010D01*
X21037810Y-32211109D01*
X20827815Y-31896830D01*
X20513034Y-31686500D01*
X20827815Y-31476170D01*
X21152671Y-30989989D01*
X21266745Y-30416500D01*
X21209103Y-30126713D01*
X22719792Y-30126713D01*
X22789257Y-30368897D01*
X23312702Y-30555644D01*
X23867768Y-30527862D01*
X24251543Y-30368897D01*
X24321008Y-30126713D01*
X23520400Y-29326105D01*
X22719792Y-30126713D01*
X21209103Y-30126713D01*
X21152671Y-29843011D01*
X20827815Y-29356830D01*
X20513034Y-29146500D01*
X20823875Y-28938802D01*
X22111256Y-28938802D01*
X22139038Y-29493868D01*
X22298003Y-29877643D01*
X22540187Y-29947108D01*
X23340795Y-29146500D01*
X23700005Y-29146500D01*
X24500613Y-29947108D01*
X24742797Y-29877643D01*
X24929544Y-29354198D01*
X24901762Y-28799132D01*
X24742797Y-28415357D01*
X24500613Y-28345892D01*
X23700005Y-29146500D01*
X23340795Y-29146500D01*
X22540187Y-28345892D01*
X22298003Y-28415357D01*
X22111256Y-28938802D01*
X20823875Y-28938802D01*
X20827815Y-28936170D01*
X21152671Y-28449989D01*
X21266745Y-27876500D01*
X21152671Y-27303011D01*
X20872136Y-26883161D01*
X22123158Y-26883161D01*
X22335390Y-27396803D01*
X22728030Y-27790129D01*
X22920127Y-27869895D01*
X22789257Y-27924103D01*
X22719792Y-28166287D01*
X23520400Y-28966895D01*
X24321008Y-28166287D01*
X24251543Y-27924103D01*
X24111082Y-27873991D01*
X24310703Y-27791510D01*
X24704029Y-27398870D01*
X24917157Y-26885600D01*
X24917642Y-26329839D01*
X24705410Y-25816197D01*
X24312770Y-25422871D01*
X23799500Y-25209743D01*
X23243739Y-25209258D01*
X22730097Y-25421490D01*
X22336771Y-25814130D01*
X22123643Y-26327400D01*
X22123158Y-26883161D01*
X20872136Y-26883161D01*
X20827815Y-26816830D01*
X20513034Y-26606500D01*
X20827815Y-26396170D01*
X21152671Y-25909989D01*
X21266745Y-25336500D01*
X21152671Y-24763011D01*
X20827815Y-24276830D01*
X20813487Y-24267257D01*
X20834717Y-24263262D01*
X21050841Y-24124190D01*
X21195831Y-23911990D01*
X21246840Y-23660100D01*
X21246840Y-21932900D01*
X21202562Y-21697583D01*
X21063490Y-21481459D01*
X20851290Y-21336469D01*
X20599400Y-21285460D01*
X18674000Y-21285460D01*
X18674000Y-19272250D01*
X23139400Y-19272250D01*
X23139400Y-20128809D01*
X23236073Y-20362198D01*
X23414701Y-20540827D01*
X23648090Y-20637500D01*
X24504650Y-20637500D01*
X24663400Y-20478750D01*
X24663400Y-19113500D01*
X24917400Y-19113500D01*
X24917400Y-20478750D01*
X25076150Y-20637500D01*
X25932710Y-20637500D01*
X26166099Y-20540827D01*
X26344727Y-20362198D01*
X26441400Y-20128809D01*
X26441400Y-19272250D01*
X26282650Y-19113500D01*
X24917400Y-19113500D01*
X24663400Y-19113500D01*
X23298150Y-19113500D01*
X23139400Y-19272250D01*
X18674000Y-19272250D01*
X18674000Y-15245000D01*
X23625544Y-15245000D01*
X23622967Y-15246722D01*
X23622967Y-15246722D01*
G37*
X23622967Y-15246722D02*
X23265075Y-15782345D01*
X23139400Y-16414155D01*
X23139400Y-16478845D01*
X23265075Y-17110655D01*
X23465772Y-17411019D01*
X23414701Y-17432173D01*
X23236073Y-17610802D01*
X23139400Y-17844191D01*
X23139400Y-18700750D01*
X23298150Y-18859500D01*
X24663400Y-18859500D01*
X24663400Y-18839500D01*
X24917400Y-18839500D01*
X24917400Y-18859500D01*
X26282650Y-18859500D01*
X26441400Y-18700750D01*
X26441400Y-17844191D01*
X26344727Y-17610802D01*
X26166099Y-17432173D01*
X26115028Y-17411019D01*
X26315725Y-17110655D01*
X26441400Y-16478845D01*
X26441400Y-16414155D01*
X26315725Y-15782345D01*
X25957833Y-15246722D01*
X25955256Y-15245000D01*
X27510927Y-15245000D01*
X27450459Y-15283910D01*
X27305469Y-15496110D01*
X27254460Y-15748000D01*
X27254460Y-17145000D01*
X27298738Y-17380317D01*
X27437810Y-17596441D01*
X27650010Y-17741431D01*
X27901900Y-17792440D01*
X29298900Y-17792440D01*
X29534217Y-17748162D01*
X29750341Y-17609090D01*
X29895331Y-17396890D01*
X29946340Y-17145000D01*
X29946340Y-17048616D01*
X30009254Y-17200880D01*
X30384047Y-17576327D01*
X30873987Y-17779768D01*
X31404486Y-17780231D01*
X31894780Y-17577646D01*
X32270227Y-17202853D01*
X32410494Y-16865054D01*
X32549254Y-17200880D01*
X32924047Y-17576327D01*
X33413987Y-17779768D01*
X33944486Y-17780231D01*
X34434780Y-17577646D01*
X34810227Y-17202853D01*
X35013668Y-16712913D01*
X35014131Y-16182414D01*
X34811546Y-15692120D01*
X34436753Y-15316673D01*
X34264145Y-15245000D01*
X37654836Y-15245000D01*
X37645673Y-15254147D01*
X37442232Y-15744087D01*
X37441769Y-16274586D01*
X37460440Y-16319772D01*
X37089106Y-16691106D01*
X36934937Y-16921835D01*
X36934937Y-16921836D01*
X36880800Y-17194000D01*
X36880800Y-21526500D01*
X36480750Y-21526500D01*
X36322000Y-21685250D01*
X36322000Y-23050500D01*
X36342000Y-23050500D01*
X36342000Y-23304500D01*
X36322000Y-23304500D01*
X36322000Y-24669750D01*
X36480750Y-24828500D01*
X36880800Y-24828500D01*
X36880800Y-29273500D01*
X36934937Y-29545665D01*
X37089106Y-29776394D01*
X39558011Y-32245300D01*
X35680115Y-32245300D01*
X35407951Y-32299437D01*
X35177221Y-32453605D01*
X34157586Y-33473240D01*
X33955659Y-33270960D01*
X33596370Y-33121770D01*
X33207337Y-33121431D01*
X32847788Y-33269993D01*
X32642122Y-33475300D01*
X32400924Y-33475300D01*
X32368162Y-33301183D01*
X32229090Y-33085059D01*
X32016890Y-32940069D01*
X31765000Y-32889060D01*
X31602615Y-32889060D01*
X31778729Y-32816111D01*
X31834410Y-32585516D01*
X31115000Y-31866105D01*
X30395590Y-32585516D01*
X30451271Y-32816111D01*
X30660902Y-32889060D01*
X30465000Y-32889060D01*
X30229683Y-32933338D01*
X30013559Y-33072410D01*
X29868569Y-33284610D01*
X29829953Y-33475300D01*
X29532400Y-33475300D01*
X29536130Y-33456880D01*
X29536130Y-33128158D01*
X30347894Y-32316394D01*
X30433262Y-32188632D01*
X30935395Y-31686500D01*
X31294605Y-31686500D01*
X32014016Y-32405910D01*
X32244611Y-32350229D01*
X32412622Y-31867422D01*
X32383083Y-31357072D01*
X32244611Y-31022771D01*
X32014016Y-30967090D01*
X31294605Y-31686500D01*
X30935395Y-31686500D01*
X30921252Y-31672358D01*
X31100858Y-31492752D01*
X31115000Y-31506895D01*
X31834410Y-30787484D01*
X31778729Y-30556889D01*
X31295922Y-30388878D01*
X30785572Y-30418417D01*
X30556200Y-30513426D01*
X30556200Y-26883161D01*
X32283158Y-26883161D01*
X32495390Y-27396803D01*
X32888030Y-27790129D01*
X33095912Y-27876449D01*
X32890097Y-27961490D01*
X32496771Y-28354130D01*
X32283643Y-28867400D01*
X32283158Y-29423161D01*
X32495390Y-29936803D01*
X32888030Y-30330129D01*
X33401300Y-30543257D01*
X33957061Y-30543742D01*
X34470703Y-30331510D01*
X34864029Y-29938870D01*
X35077157Y-29425600D01*
X35077642Y-28869839D01*
X34865410Y-28356197D01*
X34472770Y-27962871D01*
X34264888Y-27876551D01*
X34470703Y-27791510D01*
X34864029Y-27398870D01*
X35077157Y-26885600D01*
X35077642Y-26329839D01*
X34865410Y-25816197D01*
X34472770Y-25422871D01*
X33959500Y-25209743D01*
X33403739Y-25209258D01*
X32890097Y-25421490D01*
X32496771Y-25814130D01*
X32283643Y-26327400D01*
X32283158Y-26883161D01*
X30556200Y-26883161D01*
X30556200Y-24749693D01*
X31115000Y-24860845D01*
X31688489Y-24746771D01*
X32174670Y-24421915D01*
X32385000Y-24107134D01*
X32595330Y-24421915D01*
X33081511Y-24746771D01*
X33655000Y-24860845D01*
X34228489Y-24746771D01*
X34714670Y-24421915D01*
X34729500Y-24399720D01*
X34793073Y-24553198D01*
X34971701Y-24731827D01*
X35205090Y-24828500D01*
X35909250Y-24828500D01*
X36068000Y-24669750D01*
X36068000Y-23304500D01*
X36048000Y-23304500D01*
X36048000Y-23050500D01*
X36068000Y-23050500D01*
X36068000Y-21685250D01*
X35909250Y-21526500D01*
X35205090Y-21526500D01*
X34971701Y-21623173D01*
X34793073Y-21801802D01*
X34729500Y-21955280D01*
X34714670Y-21933085D01*
X34228489Y-21608229D01*
X33655000Y-21494155D01*
X33081511Y-21608229D01*
X32595330Y-21933085D01*
X32385000Y-22247866D01*
X32174670Y-21933085D01*
X31820229Y-21696255D01*
X31943540Y-21573159D01*
X32092730Y-21213870D01*
X32093069Y-20824837D01*
X31944507Y-20465288D01*
X31669659Y-20189960D01*
X31310370Y-20040770D01*
X30921337Y-20040431D01*
X30561788Y-20188993D01*
X30286460Y-20463841D01*
X30137270Y-20823130D01*
X30137124Y-20990587D01*
X29370884Y-21756828D01*
X29148489Y-21608229D01*
X28575000Y-21494155D01*
X28001511Y-21608229D01*
X27515330Y-21933085D01*
X27305000Y-22247866D01*
X27094670Y-21933085D01*
X26608489Y-21608229D01*
X26035000Y-21494155D01*
X25461511Y-21608229D01*
X24975330Y-21933085D01*
X24765000Y-22247866D01*
X24554670Y-21933085D01*
X24068489Y-21608229D01*
X23495000Y-21494155D01*
X22921511Y-21608229D01*
X22435330Y-21933085D01*
X22110474Y-22419266D01*
X21996400Y-22992755D01*
X21996400Y-23362245D01*
X22110474Y-23935734D01*
X22435330Y-24421915D01*
X22921511Y-24746771D01*
X23495000Y-24860845D01*
X24068489Y-24746771D01*
X24554670Y-24421915D01*
X24765000Y-24107134D01*
X24975330Y-24421915D01*
X25461511Y-24746771D01*
X26035000Y-24860845D01*
X26608489Y-24746771D01*
X27094670Y-24421915D01*
X27305000Y-24107134D01*
X27515330Y-24421915D01*
X28001511Y-24746771D01*
X28575000Y-24860845D01*
X29133800Y-24749693D01*
X29133800Y-30369189D01*
X29015000Y-30319980D01*
X27923490Y-30319980D01*
X27764740Y-30478730D01*
X27764740Y-31328360D01*
X27784740Y-31328360D01*
X27784740Y-31582360D01*
X27764740Y-31582360D01*
X27764740Y-31602360D01*
X27510740Y-31602360D01*
X27510740Y-31582360D01*
X27490740Y-31582360D01*
X27490740Y-31328360D01*
X27510740Y-31328360D01*
X27510740Y-30478730D01*
X27351990Y-30319980D01*
X26260480Y-30319980D01*
X26027091Y-30416653D01*
X25848463Y-30595282D01*
X25751790Y-30828671D01*
X25751790Y-31169610D01*
X25910538Y-31328358D01*
X25778528Y-31328358D01*
X25685750Y-31309570D01*
X25681450Y-31309570D01*
X25678237Y-31308547D01*
X25672354Y-31309570D01*
X21685250Y-31309570D01*
X21449933Y-31353848D01*
X21233809Y-31492920D01*
X21088819Y-31705120D01*
X21037810Y-31957010D01*
X21037810Y-32211109D01*
X20827815Y-31896830D01*
X20513034Y-31686500D01*
X20827815Y-31476170D01*
X21152671Y-30989989D01*
X21266745Y-30416500D01*
X21209103Y-30126713D01*
X22719792Y-30126713D01*
X22789257Y-30368897D01*
X23312702Y-30555644D01*
X23867768Y-30527862D01*
X24251543Y-30368897D01*
X24321008Y-30126713D01*
X23520400Y-29326105D01*
X22719792Y-30126713D01*
X21209103Y-30126713D01*
X21152671Y-29843011D01*
X20827815Y-29356830D01*
X20513034Y-29146500D01*
X20823875Y-28938802D01*
X22111256Y-28938802D01*
X22139038Y-29493868D01*
X22298003Y-29877643D01*
X22540187Y-29947108D01*
X23340795Y-29146500D01*
X23700005Y-29146500D01*
X24500613Y-29947108D01*
X24742797Y-29877643D01*
X24929544Y-29354198D01*
X24901762Y-28799132D01*
X24742797Y-28415357D01*
X24500613Y-28345892D01*
X23700005Y-29146500D01*
X23340795Y-29146500D01*
X22540187Y-28345892D01*
X22298003Y-28415357D01*
X22111256Y-28938802D01*
X20823875Y-28938802D01*
X20827815Y-28936170D01*
X21152671Y-28449989D01*
X21266745Y-27876500D01*
X21152671Y-27303011D01*
X20872136Y-26883161D01*
X22123158Y-26883161D01*
X22335390Y-27396803D01*
X22728030Y-27790129D01*
X22920127Y-27869895D01*
X22789257Y-27924103D01*
X22719792Y-28166287D01*
X23520400Y-28966895D01*
X24321008Y-28166287D01*
X24251543Y-27924103D01*
X24111082Y-27873991D01*
X24310703Y-27791510D01*
X24704029Y-27398870D01*
X24917157Y-26885600D01*
X24917642Y-26329839D01*
X24705410Y-25816197D01*
X24312770Y-25422871D01*
X23799500Y-25209743D01*
X23243739Y-25209258D01*
X22730097Y-25421490D01*
X22336771Y-25814130D01*
X22123643Y-26327400D01*
X22123158Y-26883161D01*
X20872136Y-26883161D01*
X20827815Y-26816830D01*
X20513034Y-26606500D01*
X20827815Y-26396170D01*
X21152671Y-25909989D01*
X21266745Y-25336500D01*
X21152671Y-24763011D01*
X20827815Y-24276830D01*
X20813487Y-24267257D01*
X20834717Y-24263262D01*
X21050841Y-24124190D01*
X21195831Y-23911990D01*
X21246840Y-23660100D01*
X21246840Y-21932900D01*
X21202562Y-21697583D01*
X21063490Y-21481459D01*
X20851290Y-21336469D01*
X20599400Y-21285460D01*
X18674000Y-21285460D01*
X18674000Y-19272250D01*
X23139400Y-19272250D01*
X23139400Y-20128809D01*
X23236073Y-20362198D01*
X23414701Y-20540827D01*
X23648090Y-20637500D01*
X24504650Y-20637500D01*
X24663400Y-20478750D01*
X24663400Y-19113500D01*
X24917400Y-19113500D01*
X24917400Y-20478750D01*
X25076150Y-20637500D01*
X25932710Y-20637500D01*
X26166099Y-20540827D01*
X26344727Y-20362198D01*
X26441400Y-20128809D01*
X26441400Y-19272250D01*
X26282650Y-19113500D01*
X24917400Y-19113500D01*
X24663400Y-19113500D01*
X23298150Y-19113500D01*
X23139400Y-19272250D01*
X18674000Y-19272250D01*
X18674000Y-15245000D01*
X23625544Y-15245000D01*
X23622967Y-15246722D01*
M02*
