M48
METRIC,TZ
T1C0.330
T2C0.800
T3C0.800
T4C0.813
T5C1.016
%
G90
G05
T1
X15113Y-20066
X15113Y-68566
X15113Y-15113
X15113Y-18288
X15113Y-63613
X15113Y-66788
X15113Y-16764
X15113Y-65264
X16891Y-15113
X16891Y-16764
X16891Y-18288
X16891Y-20066
X16891Y-63613
X16891Y-65264
X16891Y-66788
X16891Y-68566
X17653Y-21844
X17653Y-70344
X18669Y-16764
X18669Y-18288
X18669Y-20066
X18669Y-65264
X18669Y-66788
X18669Y-68566
X18669Y-15113
X18669Y-63613
X20320Y-20574
X20320Y-69074
X20611Y-45547
X20611Y-94047
X20701Y-41275
X20701Y-89775
X20701Y-44133
X20701Y-92633
X20828Y-37846
X20828Y-47117
X20828Y-51689
X20828Y-86346
X20828Y-95617
X20828Y-100189
X20828Y-35560
X20828Y-84060
X21209Y-48387
X21209Y-96887
X21336Y-26670
X21336Y-30353
X21336Y-75170
X21336Y-78853
X21336Y-28575
X21336Y-77075
X21844Y-51689
X21844Y-100189
X21844Y-43942
X21844Y-92442
X21971Y-49403
X21971Y-97903
X21971Y-36703
X21971Y-85203
X22352Y-45212
X22352Y-93712
X22502Y-42522
X22502Y-91022
X22606Y-40767
X22606Y-89267
X22733Y-17018
X22733Y-18288
X22733Y-19431
X22733Y-39497
X22733Y-65518
X22733Y-66788
X22733Y-67931
X22733Y-87997
X22860Y-24892
X22860Y-26670
X22860Y-51689
X22860Y-73392
X22860Y-75170
X22860Y-100189
X22860Y-28575
X22860Y-77075
X23114Y-35560
X23114Y-84060
X23143Y-48133
X23143Y-96633
X23749Y-41275
X23749Y-89775
X24511Y-26670
X24511Y-28575
X24511Y-75170
X24511Y-77075
X25019Y-41275
X25019Y-89775
X26035Y-46292
X26035Y-94792
X26543Y-51689
X26543Y-100189
X26924Y-41656
X26924Y-42926
X26924Y-90156
X26924Y-91426
X26924Y-29337
X26924Y-77837
X26924Y-38672
X26924Y-40386
X26924Y-87172
X26924Y-88886
X27051Y-20384
X27051Y-68884
X27559Y-49022
X27559Y-97522
X27813Y-51689
X27813Y-100189
X28003Y-46482
X28003Y-94982
X28003Y-47625
X28003Y-96125
X28194Y-24511
X28194Y-73011
X29591Y-36576
X29591Y-39878
X29591Y-42291
X29591Y-44069
X29591Y-45974
X29591Y-85076
X29591Y-88378
X29591Y-90791
X29591Y-92569
X29591Y-94474
X29591Y-30607
X29591Y-79107
X29591Y-32385
X29591Y-38227
X29591Y-80885
X29591Y-86727
X30480Y-20701
X30480Y-69201
X30480Y-24511
X30480Y-73011
X30861Y-36576
X30861Y-38227
X30861Y-39878
X30861Y-85076
X30861Y-86727
X30861Y-88378
X30988Y-51689
X30988Y-100189
X31115Y-42291
X31115Y-45974
X31115Y-47752
X31115Y-90791
X31115Y-94474
X31115Y-96252
X31877Y-43498
X31877Y-91998
X32004Y-18288
X32004Y-66788
X32004Y-15240
X32004Y-16764
X32004Y-19812
X32004Y-25400
X32004Y-27178
X32004Y-29083
X32004Y-63740
X32004Y-65264
X32004Y-68312
X32004Y-73900
X32004Y-75678
X32004Y-77583
X33528Y-35941
X33528Y-84441
X33528Y-31115
X33528Y-33020
X33528Y-79615
X33528Y-81520
X34925Y-22225
X34925Y-24130
X34925Y-26035
X34925Y-28194
X34925Y-32131
X34925Y-70725
X34925Y-72630
X34925Y-74535
X34925Y-76694
X34925Y-80631
X35052Y-17526
X35052Y-66026
X35179Y-35941
X35179Y-84441
X35814Y-41402
X35814Y-89902
X37084Y-15621
X37084Y-64121
X37084Y-19431
X37084Y-67931
X37084Y-17526
X37084Y-21209
X37084Y-25527
X37084Y-66026
X37084Y-69709
X37084Y-74027
X37465Y-48641
X37465Y-97141
X38735Y-30988
X38735Y-79488
X38735Y-29083
X38735Y-77583
X38862Y-33782
X38862Y-82282
X39243Y-21209
X39243Y-69709
X39243Y-15621
X39243Y-19431
X39243Y-64121
X39243Y-67931
X39243Y-17526
X39243Y-66026
X39370Y-47371
X39370Y-49657
X39370Y-51816
X39370Y-53975
X39370Y-56134
X39370Y-95871
X39370Y-98157
X39370Y-100316
X39370Y-102475
X39370Y-104634
X40386Y-32385
X40386Y-80885
X40513Y-29083
X40513Y-30734
X40513Y-77583
X40513Y-79234
X40640Y-35687
X40640Y-84187
X41021Y-42037
X41021Y-90537
X41402Y-17526
X41402Y-66026
X42291Y-29083
X42291Y-77583
X42291Y-21336
X42291Y-30734
X42291Y-49657
X42291Y-51816
X42291Y-53975
X42291Y-69836
X42291Y-79234
X42291Y-98157
X42291Y-100316
X42291Y-102475
X43561Y-17526
X43561Y-33655
X43561Y-66026
X43561Y-82155
X44069Y-29083
X44069Y-77583
X44831Y-21336
X44831Y-69836
X45212Y-49657
X45212Y-51816
X45212Y-53975
X45212Y-98157
X45212Y-100316
X45212Y-102475
X45847Y-15621
X45847Y-64121
X45974Y-31496
X45974Y-33655
X45974Y-79996
X45974Y-82155
X46101Y-42037
X46101Y-90537
X47371Y-19431
X47371Y-21336
X47371Y-67931
X47371Y-69836
X47879Y-15621
X47879Y-17526
X47879Y-49657
X47879Y-51816
X47879Y-53975
X47879Y-64121
X47879Y-66026
X47879Y-98157
X47879Y-100316
X47879Y-102475
X48387Y-29591
X48387Y-31496
X48387Y-33655
X48387Y-78091
X48387Y-79996
X48387Y-82155
X50546Y-29591
X50546Y-31496
X50546Y-33655
X50546Y-49657
X50546Y-51816
X50546Y-53975
X50546Y-78091
X50546Y-79996
X50546Y-82155
X50546Y-98157
X50546Y-100316
X50546Y-102475
X51181Y-42037
X51181Y-90537
X51308Y-21590
X51308Y-70090
X51308Y-18542
X51308Y-67042
X52705Y-17399
X52705Y-65899
X52959Y-49657
X52959Y-98157
X53975Y-53975
X53975Y-102475
X54737Y-15621
X54737Y-17399
X54737Y-19177
X54737Y-21082
X54737Y-29591
X54737Y-31496
X54737Y-33655
X54737Y-64121
X54737Y-65899
X54737Y-67677
X54737Y-69582
X54737Y-78091
X54737Y-79996
X54737Y-82155
X56261Y-53975
X56261Y-102475
X56261Y-25019
X56261Y-49657
X56261Y-51816
X56261Y-58420
X56261Y-73519
X56261Y-98157
X56261Y-100316
X56261Y-106920
X56769Y-15621
X56769Y-17399
X56769Y-19177
X56769Y-21082
X56769Y-29591
X56769Y-31496
X56769Y-33655
X56769Y-64121
X56769Y-65899
X56769Y-67677
X56769Y-69582
X56769Y-78091
X56769Y-79996
X56769Y-82155
X57404Y-42037
X57404Y-90537
X57531Y-58357
X57531Y-106857
X58166Y-51816
X58166Y-100316
X58166Y-49657
X58166Y-98157
X58801Y-29591
X58801Y-31496
X58801Y-33655
X58801Y-78091
X58801Y-79996
X58801Y-82155
X58801Y-17399
X58801Y-65899
X59436Y-21971
X59436Y-25019
X59436Y-70471
X59436Y-73519
X59436Y-23495
X59436Y-71995
X62113Y-20066
X62113Y-68566
X62113Y-15113
X62113Y-18288
X62113Y-63613
X62113Y-66788
X62113Y-16764
X62113Y-65264
X63891Y-15113
X63891Y-16764
X63891Y-18288
X63891Y-20066
X63891Y-63613
X63891Y-65264
X63891Y-66788
X63891Y-68566
X64653Y-21844
X64653Y-70344
X65669Y-16764
X65669Y-18288
X65669Y-20066
X65669Y-65264
X65669Y-66788
X65669Y-68566
X65669Y-15113
X65669Y-63613
X67320Y-20574
X67320Y-69074
X67611Y-45547
X67611Y-94047
X67701Y-41275
X67701Y-89775
X67701Y-44133
X67701Y-92633
X67828Y-37846
X67828Y-47117
X67828Y-51689
X67828Y-86346
X67828Y-95617
X67828Y-100189
X67828Y-35560
X67828Y-84060
X68209Y-48387
X68209Y-96887
X68336Y-26670
X68336Y-30353
X68336Y-75170
X68336Y-78853
X68336Y-28575
X68336Y-77075
X68844Y-51689
X68844Y-100189
X68844Y-43942
X68844Y-92442
X68971Y-49403
X68971Y-97903
X68971Y-36703
X68971Y-85203
X69352Y-45212
X69352Y-93712
X69502Y-42522
X69502Y-91022
X69606Y-40767
X69606Y-89267
X69733Y-17018
X69733Y-18288
X69733Y-19431
X69733Y-39497
X69733Y-65518
X69733Y-66788
X69733Y-67931
X69733Y-87997
X69860Y-24892
X69860Y-26670
X69860Y-51689
X69860Y-73392
X69860Y-75170
X69860Y-100189
X69860Y-28575
X69860Y-77075
X70114Y-35560
X70114Y-84060
X70143Y-48133
X70143Y-96633
X70749Y-41275
X70749Y-89775
X71511Y-26670
X71511Y-28575
X71511Y-75170
X71511Y-77075
X72019Y-41275
X72019Y-89775
X73035Y-46292
X73035Y-94792
X73543Y-51689
X73543Y-100189
X73924Y-41656
X73924Y-42926
X73924Y-90156
X73924Y-91426
X73924Y-29337
X73924Y-77837
X73924Y-38672
X73924Y-40386
X73924Y-87172
X73924Y-88886
X74051Y-20384
X74051Y-68884
X74559Y-49022
X74559Y-97522
X74813Y-51689
X74813Y-100189
X75003Y-46482
X75003Y-94982
X75003Y-47625
X75003Y-96125
X75194Y-24511
X75194Y-73011
X76591Y-36576
X76591Y-39878
X76591Y-42291
X76591Y-44069
X76591Y-45974
X76591Y-85076
X76591Y-88378
X76591Y-90791
X76591Y-92569
X76591Y-94474
X76591Y-30607
X76591Y-79107
X76591Y-32385
X76591Y-38227
X76591Y-80885
X76591Y-86727
X77480Y-20701
X77480Y-69201
X77480Y-24511
X77480Y-73011
X77861Y-36576
X77861Y-38227
X77861Y-39878
X77861Y-85076
X77861Y-86727
X77861Y-88378
X77988Y-51689
X77988Y-100189
X78115Y-42291
X78115Y-45974
X78115Y-47752
X78115Y-90791
X78115Y-94474
X78115Y-96252
X78877Y-43498
X78877Y-91998
X79004Y-18288
X79004Y-66788
X79004Y-15240
X79004Y-16764
X79004Y-19812
X79004Y-25400
X79004Y-27178
X79004Y-29083
X79004Y-63740
X79004Y-65264
X79004Y-68312
X79004Y-73900
X79004Y-75678
X79004Y-77583
X80528Y-35941
X80528Y-84441
X80528Y-31115
X80528Y-33020
X80528Y-79615
X80528Y-81520
X81925Y-22225
X81925Y-24130
X81925Y-26035
X81925Y-28194
X81925Y-32131
X81925Y-70725
X81925Y-72630
X81925Y-74535
X81925Y-76694
X81925Y-80631
X82052Y-17526
X82052Y-66026
X82179Y-35941
X82179Y-84441
X82814Y-41402
X82814Y-89902
X84084Y-15621
X84084Y-64121
X84084Y-19431
X84084Y-67931
X84084Y-17526
X84084Y-21209
X84084Y-25527
X84084Y-66026
X84084Y-69709
X84084Y-74027
X84465Y-48641
X84465Y-97141
X85735Y-30988
X85735Y-79488
X85735Y-29083
X85735Y-77583
X85862Y-33782
X85862Y-82282
X86243Y-21209
X86243Y-69709
X86243Y-15621
X86243Y-19431
X86243Y-64121
X86243Y-67931
X86243Y-17526
X86243Y-66026
X86370Y-47371
X86370Y-49657
X86370Y-51816
X86370Y-53975
X86370Y-56134
X86370Y-95871
X86370Y-98157
X86370Y-100316
X86370Y-102475
X86370Y-104634
X87386Y-32385
X87386Y-80885
X87513Y-29083
X87513Y-30734
X87513Y-77583
X87513Y-79234
X87640Y-35687
X87640Y-84187
X88021Y-42037
X88021Y-90537
X88402Y-17526
X88402Y-66026
X89291Y-29083
X89291Y-77583
X89291Y-21336
X89291Y-30734
X89291Y-49657
X89291Y-51816
X89291Y-53975
X89291Y-69836
X89291Y-79234
X89291Y-98157
X89291Y-100316
X89291Y-102475
X90561Y-17526
X90561Y-33655
X90561Y-66026
X90561Y-82155
X91069Y-29083
X91069Y-77583
X91831Y-21336
X91831Y-69836
X92212Y-49657
X92212Y-51816
X92212Y-53975
X92212Y-98157
X92212Y-100316
X92212Y-102475
X92847Y-15621
X92847Y-64121
X92974Y-31496
X92974Y-33655
X92974Y-79996
X92974Y-82155
X93101Y-42037
X93101Y-90537
X94371Y-19431
X94371Y-21336
X94371Y-67931
X94371Y-69836
X94879Y-15621
X94879Y-17526
X94879Y-49657
X94879Y-51816
X94879Y-53975
X94879Y-64121
X94879Y-66026
X94879Y-98157
X94879Y-100316
X94879Y-102475
X95387Y-29591
X95387Y-31496
X95387Y-33655
X95387Y-78091
X95387Y-79996
X95387Y-82155
X97546Y-29591
X97546Y-31496
X97546Y-33655
X97546Y-49657
X97546Y-51816
X97546Y-53975
X97546Y-78091
X97546Y-79996
X97546Y-82155
X97546Y-98157
X97546Y-100316
X97546Y-102475
X98181Y-42037
X98181Y-90537
X98308Y-21590
X98308Y-70090
X98308Y-18542
X98308Y-67042
X99705Y-17399
X99705Y-65899
X99959Y-49657
X99959Y-98157
X100975Y-53975
X100975Y-102475
X101737Y-15621
X101737Y-17399
X101737Y-19177
X101737Y-21082
X101737Y-29591
X101737Y-31496
X101737Y-33655
X101737Y-64121
X101737Y-65899
X101737Y-67677
X101737Y-69582
X101737Y-78091
X101737Y-79996
X101737Y-82155
X103261Y-53975
X103261Y-102475
X103261Y-25019
X103261Y-49657
X103261Y-51816
X103261Y-58420
X103261Y-73519
X103261Y-98157
X103261Y-100316
X103261Y-106920
X103769Y-15621
X103769Y-17399
X103769Y-19177
X103769Y-21082
X103769Y-29591
X103769Y-31496
X103769Y-33655
X103769Y-64121
X103769Y-65899
X103769Y-67677
X103769Y-69582
X103769Y-78091
X103769Y-79996
X103769Y-82155
X104404Y-42037
X104404Y-90537
X104531Y-58357
X104531Y-106857
X105166Y-51816
X105166Y-100316
X105166Y-49657
X105166Y-98157
X105801Y-29591
X105801Y-31496
X105801Y-33655
X105801Y-78091
X105801Y-79996
X105801Y-82155
X105801Y-17399
X105801Y-65899
X106436Y-21971
X106436Y-25019
X106436Y-70471
X106436Y-73519
X106436Y-23495
X106436Y-71995
T2
X27000Y-33615
X27000Y-82115
X31369Y-30988
X31369Y-33488
X31369Y-79488
X31369Y-81988
X74000Y-33615
X74000Y-82115
X78369Y-30988
X78369Y-33488
X78369Y-79488
X78369Y-81988
T3
X27000Y-31115
X27000Y-79615
X74000Y-31115
X74000Y-79615
T4
X19406Y-26035
X19406Y-28575
X19406Y-74535
X19406Y-77075
X24486Y-15875
X24486Y-64375
X27026Y-15875
X27026Y-64375
X29566Y-15875
X29566Y-26035
X29566Y-28575
X29566Y-64375
X29566Y-74535
X29566Y-77075
X34661Y-15439
X34661Y-19939
X34661Y-63939
X34661Y-68439
X37160Y-27305
X37160Y-29845
X37160Y-32385
X37160Y-34925
X37160Y-37465
X37160Y-40005
X37160Y-46355
X37160Y-56515
X37160Y-75805
X37160Y-78345
X37160Y-80885
X37160Y-83425
X37160Y-85965
X37160Y-88505
X37160Y-94855
X37160Y-105015
X39700Y-27305
X39700Y-37465
X39700Y-75805
X39700Y-85965
X41161Y-15439
X41161Y-19939
X41161Y-63939
X41161Y-68439
X43551Y-15439
X43551Y-19939
X43551Y-63939
X43551Y-68439
X50051Y-15439
X50051Y-19939
X50051Y-63939
X50051Y-68439
X52441Y-15439
X52441Y-19939
X52441Y-63939
X52441Y-68439
X58941Y-15439
X58941Y-19939
X58941Y-63939
X58941Y-68439
X66406Y-26035
X66406Y-28575
X66406Y-74535
X66406Y-77075
X71486Y-15875
X71486Y-64375
X74026Y-15875
X74026Y-64375
X76566Y-15875
X76566Y-26035
X76566Y-28575
X76566Y-64375
X76566Y-74535
X76566Y-77075
X81661Y-15439
X81661Y-19939
X81661Y-63939
X81661Y-68439
X84160Y-27305
X84160Y-29845
X84160Y-32385
X84160Y-34925
X84160Y-37465
X84160Y-40005
X84160Y-46355
X84160Y-56515
X84160Y-75805
X84160Y-78345
X84160Y-80885
X84160Y-83425
X84160Y-85965
X84160Y-88505
X84160Y-94855
X84160Y-105015
X86700Y-27305
X86700Y-37465
X86700Y-75805
X86700Y-85965
X88161Y-15439
X88161Y-19939
X88161Y-63939
X88161Y-68439
X90551Y-15439
X90551Y-19939
X90551Y-63939
X90551Y-68439
X97051Y-15439
X97051Y-19939
X97051Y-63939
X97051Y-68439
X99441Y-15439
X99441Y-19939
X99441Y-63939
X99441Y-68439
X105941Y-15439
X105941Y-19939
X105941Y-63939
X105941Y-68439
T5
X15469Y-22225
X15469Y-24765
X15469Y-27305
X15469Y-29845
X15469Y-32385
X15469Y-34925
X15469Y-37465
X15469Y-40005
X15469Y-42545
X15469Y-45085
X15469Y-47625
X15469Y-50165
X15469Y-52705
X15469Y-55245
X15469Y-57785
X15469Y-60325
X15469Y-70725
X15469Y-73265
X15469Y-75805
X15469Y-78345
X15469Y-80885
X15469Y-83425
X15469Y-85965
X15469Y-88505
X15469Y-91045
X15469Y-93585
X15469Y-96125
X15469Y-98665
X15469Y-101205
X15469Y-103745
X15469Y-106285
X15469Y-108825
X19380Y-22606
X19380Y-71106
X20676Y-15875
X20676Y-18415
X20676Y-64375
X20676Y-66915
X21920Y-22606
X21920Y-71106
X24460Y-22606
X24460Y-71106
X27000Y-22606
X27000Y-71106
X29540Y-22606
X29540Y-71106
X32080Y-22606
X32080Y-71106
X37160Y-23495
X37160Y-43815
X37160Y-60325
X37160Y-71995
X37160Y-92315
X37160Y-108825
X39700Y-23495
X39700Y-40005
X39700Y-43815
X39700Y-60325
X39700Y-71995
X39700Y-88505
X39700Y-92315
X39700Y-108825
X42240Y-23495
X42240Y-40005
X42240Y-43815
X42240Y-60325
X42240Y-71995
X42240Y-88505
X42240Y-92315
X42240Y-108825
X44780Y-23495
X44780Y-40005
X44780Y-43815
X44780Y-60325
X44780Y-71995
X44780Y-88505
X44780Y-92315
X44780Y-108825
X47320Y-23495
X47320Y-40005
X47320Y-43815
X47320Y-60325
X47320Y-71995
X47320Y-88505
X47320Y-92315
X47320Y-108825
X49860Y-23495
X49860Y-40005
X49860Y-43815
X49860Y-60325
X49860Y-71995
X49860Y-88505
X49860Y-92315
X49860Y-108825
X52400Y-23495
X52400Y-40005
X52400Y-43815
X52400Y-60325
X52400Y-71995
X52400Y-88505
X52400Y-92315
X52400Y-108825
X54940Y-23495
X54940Y-40005
X54940Y-43815
X54940Y-60325
X54940Y-71995
X54940Y-88505
X54940Y-92315
X54940Y-108825
X57480Y-23495
X57480Y-40005
X57480Y-43815
X57480Y-60325
X57480Y-71995
X57480Y-88505
X57480Y-92315
X57480Y-108825
X62469Y-22225
X62469Y-24765
X62469Y-27305
X62469Y-29845
X62469Y-32385
X62469Y-34925
X62469Y-37465
X62469Y-40005
X62469Y-42545
X62469Y-45085
X62469Y-47625
X62469Y-50165
X62469Y-52705
X62469Y-55245
X62469Y-57785
X62469Y-60325
X62469Y-70725
X62469Y-73265
X62469Y-75805
X62469Y-78345
X62469Y-80885
X62469Y-83425
X62469Y-85965
X62469Y-88505
X62469Y-91045
X62469Y-93585
X62469Y-96125
X62469Y-98665
X62469Y-101205
X62469Y-103745
X62469Y-106285
X62469Y-108825
X66380Y-22606
X66380Y-71106
X67676Y-15875
X67676Y-18415
X67676Y-64375
X67676Y-66915
X68920Y-22606
X68920Y-71106
X71460Y-22606
X71460Y-71106
X74000Y-22606
X74000Y-71106
X76540Y-22606
X76540Y-71106
X79080Y-22606
X79080Y-71106
X84160Y-23495
X84160Y-43815
X84160Y-60325
X84160Y-71995
X84160Y-92315
X84160Y-108825
X86700Y-23495
X86700Y-40005
X86700Y-43815
X86700Y-60325
X86700Y-71995
X86700Y-88505
X86700Y-92315
X86700Y-108825
X89240Y-23495
X89240Y-40005
X89240Y-43815
X89240Y-60325
X89240Y-71995
X89240Y-88505
X89240Y-92315
X89240Y-108825
X91780Y-23495
X91780Y-40005
X91780Y-43815
X91780Y-60325
X91780Y-71995
X91780Y-88505
X91780Y-92315
X91780Y-108825
X94320Y-23495
X94320Y-40005
X94320Y-43815
X94320Y-60325
X94320Y-71995
X94320Y-88505
X94320Y-92315
X94320Y-108825
X96860Y-23495
X96860Y-40005
X96860Y-43815
X96860Y-60325
X96860Y-71995
X96860Y-88505
X96860Y-92315
X96860Y-108825
X99400Y-23495
X99400Y-40005
X99400Y-43815
X99400Y-60325
X99400Y-71995
X99400Y-88505
X99400Y-92315
X99400Y-108825
X101940Y-23495
X101940Y-40005
X101940Y-43815
X101940Y-60325
X101940Y-71995
X101940Y-88505
X101940Y-92315
X101940Y-108825
X104480Y-23495
X104480Y-40005
X104480Y-43815
X104480Y-60325
X104480Y-71995
X104480Y-88505
X104480Y-92315
X104480Y-108825
T0
M30
