G04 #@! TF.FileFunction,Soldermask,Bot*
%FSLAX46Y46*%
G04 Gerber Fmt 4.6, Leading zero omitted, Abs format (unit mm)*
G04 Created by KiCad (PCBNEW 4.0.2-stable) date Thursday, August 11, 2016 'pmt' 07:15:48 pm*
%MOMM*%
G01*
G04 APERTURE LIST*
%ADD10C,0.100000*%
%ADD11R,2.901900X1.400760*%
%ADD12R,4.400500X2.398980*%
%ADD13R,2.900000X1.500000*%
%ADD14R,2.127200X2.432000*%
%ADD15O,2.127200X2.432000*%
%ADD16R,1.797000X1.797000*%
%ADD17C,1.797000*%
%ADD18R,2.432000X2.432000*%
%ADD19O,2.432000X2.432000*%
%ADD20C,1.924000*%
%ADD21R,1.700000X1.700000*%
%ADD22C,1.700000*%
%ADD23R,2.432000X2.127200*%
%ADD24O,2.432000X2.127200*%
G04 APERTURE END LIST*
D10*
D11*
X70522940Y-79383860D03*
X70522940Y-80885000D03*
X70522940Y-82386140D03*
D12*
X66570700Y-80885000D03*
D10*
G36*
X69494850Y-81585380D02*
X68345550Y-82085760D01*
X68345550Y-79684240D01*
X69494850Y-80184620D01*
X69494850Y-81585380D01*
X69494850Y-81585380D01*
G37*
D11*
X23522940Y-79383860D03*
X23522940Y-80885000D03*
X23522940Y-82386140D03*
D12*
X19570700Y-80885000D03*
D10*
G36*
X22494850Y-81585380D02*
X21345550Y-82085760D01*
X21345550Y-79684240D01*
X22494850Y-80184620D01*
X22494850Y-81585380D01*
X22494850Y-81585380D01*
G37*
D11*
X70522940Y-30883860D03*
X70522940Y-32385000D03*
X70522940Y-33886140D03*
D12*
X66570700Y-32385000D03*
D10*
G36*
X69494850Y-33085380D02*
X68345550Y-33585760D01*
X68345550Y-31184240D01*
X69494850Y-31684620D01*
X69494850Y-33085380D01*
X69494850Y-33085380D01*
G37*
D13*
X65426200Y-101586000D03*
X65426200Y-99586000D03*
X65426200Y-97586000D03*
X65426200Y-95586000D03*
X65426200Y-93586000D03*
X65426200Y-91586000D03*
X65426200Y-89586000D03*
X65426200Y-87586000D03*
X80826200Y-87586000D03*
X80726200Y-89586000D03*
X80826200Y-91586000D03*
X80826200Y-93586000D03*
X80826200Y-95586000D03*
X80826200Y-97586000D03*
X80826200Y-99586000D03*
X80826200Y-101586000D03*
X18426200Y-101586000D03*
X18426200Y-99586000D03*
X18426200Y-97586000D03*
X18426200Y-95586000D03*
X18426200Y-93586000D03*
X18426200Y-91586000D03*
X18426200Y-89586000D03*
X18426200Y-87586000D03*
X33826200Y-87586000D03*
X33726200Y-89586000D03*
X33826200Y-91586000D03*
X33826200Y-93586000D03*
X33826200Y-95586000D03*
X33826200Y-97586000D03*
X33826200Y-99586000D03*
X33826200Y-101586000D03*
X65426200Y-53086000D03*
X65426200Y-51086000D03*
X65426200Y-49086000D03*
X65426200Y-47086000D03*
X65426200Y-45086000D03*
X65426200Y-43086000D03*
X65426200Y-41086000D03*
X65426200Y-39086000D03*
X80826200Y-39086000D03*
X80726200Y-41086000D03*
X80826200Y-43086000D03*
X80826200Y-45086000D03*
X80826200Y-47086000D03*
X80826200Y-49086000D03*
X80826200Y-51086000D03*
X80826200Y-53086000D03*
D14*
X79080200Y-71106000D03*
D15*
X76540200Y-71106000D03*
X74000200Y-71106000D03*
X71460200Y-71106000D03*
X68920200Y-71106000D03*
X66380200Y-71106000D03*
D14*
X32080200Y-71106000D03*
D15*
X29540200Y-71106000D03*
X27000200Y-71106000D03*
X24460200Y-71106000D03*
X21920200Y-71106000D03*
X19380200Y-71106000D03*
D14*
X79080200Y-22606000D03*
D15*
X76540200Y-22606000D03*
X74000200Y-22606000D03*
X71460200Y-22606000D03*
X68920200Y-22606000D03*
X66380200Y-22606000D03*
D16*
X71485600Y-64375000D03*
D17*
X74025600Y-64375000D03*
X76565600Y-64375000D03*
D16*
X24485600Y-64375000D03*
D17*
X27025600Y-64375000D03*
X29565600Y-64375000D03*
D16*
X71485600Y-15875000D03*
D17*
X74025600Y-15875000D03*
X76565600Y-15875000D03*
D18*
X67675600Y-66915000D03*
D19*
X67675600Y-64375000D03*
D18*
X20675600Y-66915000D03*
D19*
X20675600Y-64375000D03*
D18*
X67675600Y-18415000D03*
D19*
X67675600Y-15875000D03*
D17*
X105940700Y-63939000D03*
X105940700Y-68439000D03*
X99440700Y-63939000D03*
X99440700Y-68439000D03*
X58940700Y-63939000D03*
X58940700Y-68439000D03*
X52440700Y-63939000D03*
X52440700Y-68439000D03*
X105940700Y-15439000D03*
X105940700Y-19939000D03*
X99440700Y-15439000D03*
X99440700Y-19939000D03*
X97050700Y-63939000D03*
X97050700Y-68439000D03*
X90550700Y-63939000D03*
X90550700Y-68439000D03*
X50050700Y-63939000D03*
X50050700Y-68439000D03*
X43550700Y-63939000D03*
X43550700Y-68439000D03*
X97050700Y-15439000D03*
X97050700Y-19939000D03*
X90550700Y-15439000D03*
X90550700Y-19939000D03*
D14*
X84160200Y-71995000D03*
D15*
X86700200Y-71995000D03*
X89240200Y-71995000D03*
X91780200Y-71995000D03*
X94320200Y-71995000D03*
X96860200Y-71995000D03*
X99400200Y-71995000D03*
X101940200Y-71995000D03*
X104480200Y-71995000D03*
D14*
X37160200Y-71995000D03*
D15*
X39700200Y-71995000D03*
X42240200Y-71995000D03*
X44780200Y-71995000D03*
X47320200Y-71995000D03*
X49860200Y-71995000D03*
X52400200Y-71995000D03*
X54940200Y-71995000D03*
X57480200Y-71995000D03*
D14*
X84160200Y-23495000D03*
D15*
X86700200Y-23495000D03*
X89240200Y-23495000D03*
X91780200Y-23495000D03*
X94320200Y-23495000D03*
X96860200Y-23495000D03*
X99400200Y-23495000D03*
X101940200Y-23495000D03*
X104480200Y-23495000D03*
D17*
X88160700Y-63939000D03*
X88160700Y-68439000D03*
X81660700Y-63939000D03*
X81660700Y-68439000D03*
X41160700Y-63939000D03*
X41160700Y-68439000D03*
X34660700Y-63939000D03*
X34660700Y-68439000D03*
X88160700Y-15439000D03*
X88160700Y-19939000D03*
X81660700Y-15439000D03*
X81660700Y-19939000D03*
D20*
X66405600Y-77075000D03*
X76565600Y-77075000D03*
X19405600Y-77075000D03*
X29565600Y-77075000D03*
X66405600Y-28575000D03*
X76565600Y-28575000D03*
D21*
X74000200Y-82115000D03*
D22*
X74000200Y-79615000D03*
D21*
X27000200Y-82115000D03*
D22*
X27000200Y-79615000D03*
D21*
X74000200Y-33615000D03*
D22*
X74000200Y-31115000D03*
D20*
X66405600Y-74535000D03*
X76565600Y-74535000D03*
X19405600Y-74535000D03*
X29565600Y-74535000D03*
X66405600Y-26035000D03*
X76565600Y-26035000D03*
D23*
X62468600Y-70725000D03*
D24*
X62468600Y-73265000D03*
X62468600Y-75805000D03*
X62468600Y-78345000D03*
X62468600Y-80885000D03*
X62468600Y-83425000D03*
X62468600Y-85965000D03*
X62468600Y-88505000D03*
D23*
X15468600Y-70725000D03*
D24*
X15468600Y-73265000D03*
X15468600Y-75805000D03*
X15468600Y-78345000D03*
X15468600Y-80885000D03*
X15468600Y-83425000D03*
X15468600Y-85965000D03*
X15468600Y-88505000D03*
D23*
X62468600Y-22225000D03*
D24*
X62468600Y-24765000D03*
X62468600Y-27305000D03*
X62468600Y-29845000D03*
X62468600Y-32385000D03*
X62468600Y-34925000D03*
X62468600Y-37465000D03*
X62468600Y-40005000D03*
D21*
X78369000Y-81988000D03*
D22*
X78369000Y-79488000D03*
D21*
X31369000Y-81988000D03*
D22*
X31369000Y-79488000D03*
D21*
X78369000Y-33488000D03*
D22*
X78369000Y-30988000D03*
D23*
X62468600Y-91045000D03*
D24*
X62468600Y-93585000D03*
X62468600Y-96125000D03*
X62468600Y-98665000D03*
X62468600Y-101205000D03*
X62468600Y-103745000D03*
X62468600Y-106285000D03*
X62468600Y-108825000D03*
D23*
X15468600Y-91045000D03*
D24*
X15468600Y-93585000D03*
X15468600Y-96125000D03*
X15468600Y-98665000D03*
X15468600Y-101205000D03*
X15468600Y-103745000D03*
X15468600Y-106285000D03*
X15468600Y-108825000D03*
D23*
X62468600Y-42545000D03*
D24*
X62468600Y-45085000D03*
X62468600Y-47625000D03*
X62468600Y-50165000D03*
X62468600Y-52705000D03*
X62468600Y-55245000D03*
X62468600Y-57785000D03*
X62468600Y-60325000D03*
D14*
X84160200Y-108825000D03*
D15*
X86700200Y-108825000D03*
X89240200Y-108825000D03*
X91780200Y-108825000D03*
X94320200Y-108825000D03*
X96860200Y-108825000D03*
X99400200Y-108825000D03*
X101940200Y-108825000D03*
X104480200Y-108825000D03*
D14*
X37160200Y-108825000D03*
D15*
X39700200Y-108825000D03*
X42240200Y-108825000D03*
X44780200Y-108825000D03*
X47320200Y-108825000D03*
X49860200Y-108825000D03*
X52400200Y-108825000D03*
X54940200Y-108825000D03*
X57480200Y-108825000D03*
D14*
X84160200Y-60325000D03*
D15*
X86700200Y-60325000D03*
X89240200Y-60325000D03*
X91780200Y-60325000D03*
X94320200Y-60325000D03*
X96860200Y-60325000D03*
X99400200Y-60325000D03*
X101940200Y-60325000D03*
X104480200Y-60325000D03*
D20*
X84160200Y-94855000D03*
X84160200Y-105015000D03*
X37160200Y-94855000D03*
X37160200Y-105015000D03*
X84160200Y-46355000D03*
X84160200Y-56515000D03*
D14*
X86700200Y-88505000D03*
D15*
X89240200Y-88505000D03*
X91780200Y-88505000D03*
X94320200Y-88505000D03*
X96860200Y-88505000D03*
X99400200Y-88505000D03*
X101940200Y-88505000D03*
X104480200Y-88505000D03*
D14*
X39700200Y-88505000D03*
D15*
X42240200Y-88505000D03*
X44780200Y-88505000D03*
X47320200Y-88505000D03*
X49860200Y-88505000D03*
X52400200Y-88505000D03*
X54940200Y-88505000D03*
X57480200Y-88505000D03*
D14*
X86700200Y-40005000D03*
D15*
X89240200Y-40005000D03*
X91780200Y-40005000D03*
X94320200Y-40005000D03*
X96860200Y-40005000D03*
X99400200Y-40005000D03*
X101940200Y-40005000D03*
X104480200Y-40005000D03*
D20*
X86700200Y-85965000D03*
X86700200Y-75805000D03*
X39700200Y-85965000D03*
X39700200Y-75805000D03*
X86700200Y-37465000D03*
X86700200Y-27305000D03*
D14*
X84160200Y-92315000D03*
D15*
X86700200Y-92315000D03*
X89240200Y-92315000D03*
X91780200Y-92315000D03*
X94320200Y-92315000D03*
X96860200Y-92315000D03*
X99400200Y-92315000D03*
X101940200Y-92315000D03*
X104480200Y-92315000D03*
D14*
X37160200Y-92315000D03*
D15*
X39700200Y-92315000D03*
X42240200Y-92315000D03*
X44780200Y-92315000D03*
X47320200Y-92315000D03*
X49860200Y-92315000D03*
X52400200Y-92315000D03*
X54940200Y-92315000D03*
X57480200Y-92315000D03*
D14*
X84160200Y-43815000D03*
D15*
X86700200Y-43815000D03*
X89240200Y-43815000D03*
X91780200Y-43815000D03*
X94320200Y-43815000D03*
X96860200Y-43815000D03*
X99400200Y-43815000D03*
X101940200Y-43815000D03*
X104480200Y-43815000D03*
D16*
X84160200Y-88505000D03*
D17*
X84160200Y-85965000D03*
X84160200Y-83425000D03*
X84160200Y-80885000D03*
X84160200Y-78345000D03*
X84160200Y-75805000D03*
D16*
X37160200Y-88505000D03*
D17*
X37160200Y-85965000D03*
X37160200Y-83425000D03*
X37160200Y-80885000D03*
X37160200Y-78345000D03*
X37160200Y-75805000D03*
D16*
X84160200Y-40005000D03*
D17*
X84160200Y-37465000D03*
X84160200Y-34925000D03*
X84160200Y-32385000D03*
X84160200Y-29845000D03*
X84160200Y-27305000D03*
X58940700Y-15439000D03*
X58940700Y-19939000D03*
X52440700Y-15439000D03*
X52440700Y-19939000D03*
X50050700Y-15439000D03*
X50050700Y-19939000D03*
X43550700Y-15439000D03*
X43550700Y-19939000D03*
D11*
X23522940Y-30883860D03*
X23522940Y-32385000D03*
X23522940Y-33886140D03*
D12*
X19570700Y-32385000D03*
D10*
G36*
X22494850Y-33085380D02*
X21345550Y-33585760D01*
X21345550Y-31184240D01*
X22494850Y-31684620D01*
X22494850Y-33085380D01*
X22494850Y-33085380D01*
G37*
D16*
X24485600Y-15875000D03*
D17*
X27025600Y-15875000D03*
X29565600Y-15875000D03*
D16*
X37160200Y-40005000D03*
D17*
X37160200Y-37465000D03*
X37160200Y-34925000D03*
X37160200Y-32385000D03*
X37160200Y-29845000D03*
X37160200Y-27305000D03*
D20*
X19405600Y-26035000D03*
X29565600Y-26035000D03*
X37160200Y-46355000D03*
X37160200Y-56515000D03*
D14*
X37160200Y-60325000D03*
D15*
X39700200Y-60325000D03*
X42240200Y-60325000D03*
X44780200Y-60325000D03*
X47320200Y-60325000D03*
X49860200Y-60325000D03*
X52400200Y-60325000D03*
X54940200Y-60325000D03*
X57480200Y-60325000D03*
D14*
X37160200Y-43815000D03*
D15*
X39700200Y-43815000D03*
X42240200Y-43815000D03*
X44780200Y-43815000D03*
X47320200Y-43815000D03*
X49860200Y-43815000D03*
X52400200Y-43815000D03*
X54940200Y-43815000D03*
X57480200Y-43815000D03*
D14*
X39700200Y-40005000D03*
D15*
X42240200Y-40005000D03*
X44780200Y-40005000D03*
X47320200Y-40005000D03*
X49860200Y-40005000D03*
X52400200Y-40005000D03*
X54940200Y-40005000D03*
X57480200Y-40005000D03*
D14*
X37160200Y-23495000D03*
D15*
X39700200Y-23495000D03*
X42240200Y-23495000D03*
X44780200Y-23495000D03*
X47320200Y-23495000D03*
X49860200Y-23495000D03*
X52400200Y-23495000D03*
X54940200Y-23495000D03*
X57480200Y-23495000D03*
D23*
X15468600Y-42545000D03*
D24*
X15468600Y-45085000D03*
X15468600Y-47625000D03*
X15468600Y-50165000D03*
X15468600Y-52705000D03*
X15468600Y-55245000D03*
X15468600Y-57785000D03*
X15468600Y-60325000D03*
D23*
X15468600Y-22225000D03*
D24*
X15468600Y-24765000D03*
X15468600Y-27305000D03*
X15468600Y-29845000D03*
X15468600Y-32385000D03*
X15468600Y-34925000D03*
X15468600Y-37465000D03*
X15468600Y-40005000D03*
D20*
X39700200Y-37465000D03*
X39700200Y-27305000D03*
D14*
X32080200Y-22606000D03*
D15*
X29540200Y-22606000D03*
X27000200Y-22606000D03*
X24460200Y-22606000D03*
X21920200Y-22606000D03*
X19380200Y-22606000D03*
D20*
X19405600Y-28575000D03*
X29565600Y-28575000D03*
D21*
X27000200Y-33615000D03*
D22*
X27000200Y-31115000D03*
D17*
X41160700Y-15439000D03*
X41160700Y-19939000D03*
X34660700Y-15439000D03*
X34660700Y-19939000D03*
D21*
X31369000Y-33488000D03*
D22*
X31369000Y-30988000D03*
D13*
X18426200Y-53086000D03*
X18426200Y-51086000D03*
X18426200Y-49086000D03*
X18426200Y-47086000D03*
X18426200Y-45086000D03*
X18426200Y-43086000D03*
X18426200Y-41086000D03*
X18426200Y-39086000D03*
X33826200Y-39086000D03*
X33726200Y-41086000D03*
X33826200Y-43086000D03*
X33826200Y-45086000D03*
X33826200Y-47086000D03*
X33826200Y-49086000D03*
X33826200Y-51086000D03*
X33826200Y-53086000D03*
D18*
X20675600Y-18415000D03*
D19*
X20675600Y-15875000D03*
M02*
