M48
METRIC,TZ
T1C0.330
T2C0.800
T3C0.800
T4C0.813
T5C1.016
%
G90
G05
T1
X1143Y-6096
X1143Y-1143
X1143Y-4318
X1143Y-2794
X2921Y-1143
X2921Y-2794
X2921Y-4318
X2921Y-6096
X3683Y-7874
X4699Y-2794
X4699Y-4318
X4699Y-6096
X4699Y-1143
X6350Y-6604
X6641Y-31577
X6731Y-27305
X6731Y-30163
X6858Y-23876
X6858Y-33147
X6858Y-37719
X6858Y-21590
X7239Y-34417
X7366Y-12700
X7366Y-16383
X7366Y-14605
X7874Y-37719
X7874Y-29972
X8001Y-35433
X8001Y-22733
X8382Y-31242
X8532Y-28552
X8636Y-26797
X8763Y-3048
X8763Y-4318
X8763Y-5461
X8763Y-25527
X8890Y-10922
X8890Y-12700
X8890Y-37719
X8890Y-14605
X9144Y-21590
X9173Y-34163
X9779Y-27305
X10541Y-12700
X10541Y-14605
X11049Y-27305
X12065Y-32322
X12573Y-37719
X12954Y-27686
X12954Y-28956
X12954Y-15367
X12954Y-24701
X12954Y-26416
X13081Y-6414
X13589Y-35052
X13843Y-37719
X14033Y-32512
X14033Y-33655
X14224Y-10541
X15621Y-22606
X15621Y-25908
X15621Y-28321
X15621Y-30099
X15621Y-32004
X15621Y-16637
X15621Y-18415
X15621Y-24257
X16510Y-6731
X16510Y-10541
X16891Y-22606
X16891Y-24257
X16891Y-25908
X17018Y-37719
X17145Y-28321
X17145Y-32004
X17145Y-33782
X17907Y-29528
X18034Y-4318
X18034Y-1270
X18034Y-2794
X18034Y-5842
X18034Y-11430
X18034Y-13208
X18034Y-15113
X19558Y-21971
X19558Y-17145
X19558Y-19050
X20955Y-8255
X20955Y-10160
X20955Y-12065
X20955Y-14224
X20955Y-18161
X21082Y-3556
X21209Y-21971
X21844Y-27432
X23114Y-1651
X23114Y-5461
X23114Y-3556
X23114Y-7239
X23114Y-11557
X23495Y-34671
X24765Y-17018
X24765Y-15113
X24892Y-19812
X25273Y-7239
X25273Y-1651
X25273Y-5461
X25273Y-3556
X25400Y-33401
X25400Y-35687
X25400Y-37846
X25400Y-40005
X25400Y-42164
X26416Y-18415
X26543Y-15113
X26543Y-16764
X26670Y-21717
X27051Y-28067
X27432Y-3556
X28321Y-15113
X28321Y-7366
X28321Y-16764
X28321Y-35687
X28321Y-37846
X28321Y-40005
X29591Y-3556
X29591Y-19685
X30099Y-15113
X30861Y-7366
X31242Y-35687
X31242Y-37846
X31242Y-40005
X31877Y-1651
X32004Y-17526
X32004Y-19685
X32131Y-28067
X33401Y-5461
X33401Y-7366
X33909Y-1651
X33909Y-3556
X33909Y-35687
X33909Y-37846
X33909Y-40005
X34417Y-15621
X34417Y-17526
X34417Y-19685
X36576Y-15621
X36576Y-17526
X36576Y-19685
X36576Y-35687
X36576Y-37846
X36576Y-40005
X37211Y-28067
X37338Y-7620
X37338Y-4572
X38735Y-3429
X38989Y-35687
X40005Y-40005
X40767Y-1651
X40767Y-3429
X40767Y-5207
X40767Y-7112
X40767Y-15621
X40767Y-17526
X40767Y-19685
X42291Y-40005
X42291Y-11049
X42291Y-35687
X42291Y-37846
X42291Y-44450
X42799Y-1651
X42799Y-3429
X42799Y-5207
X42799Y-7112
X42799Y-15621
X42799Y-17526
X42799Y-19685
X43434Y-28067
X43561Y-44387
X44196Y-37846
X44196Y-35687
X44831Y-15621
X44831Y-17526
X44831Y-19685
X44831Y-3429
X45466Y-8001
X45466Y-11049
X45466Y-9525
T2
X13030Y-19645
X17399Y-17018
X17399Y-19518
T3
X13030Y-17145
T4
X5436Y-12065
X5436Y-14605
X10516Y-1905
X13056Y-1905
X15596Y-1905
X15596Y-12065
X15596Y-14605
X20691Y-1469
X20691Y-5969
X23190Y-13335
X23190Y-15875
X23190Y-18415
X23190Y-20955
X23190Y-23495
X23190Y-26035
X23190Y-32385
X23190Y-42545
X25730Y-13335
X25730Y-23495
X27191Y-1469
X27191Y-5969
X29581Y-1469
X29581Y-5969
X36081Y-1469
X36081Y-5969
X38471Y-1469
X38471Y-5969
X44971Y-1469
X44971Y-5969
T5
X1499Y-8255
X1499Y-10795
X1499Y-13335
X1499Y-15875
X1499Y-18415
X1499Y-20955
X1499Y-23495
X1499Y-26035
X1499Y-28575
X1499Y-31115
X1499Y-33655
X1499Y-36195
X1499Y-38735
X1499Y-41275
X1499Y-43815
X1499Y-46355
X5410Y-8636
X6706Y-1905
X6706Y-4445
X7950Y-8636
X10490Y-8636
X13030Y-8636
X15570Y-8636
X18110Y-8636
X23190Y-9525
X23190Y-29845
X23190Y-46355
X25730Y-9525
X25730Y-26035
X25730Y-29845
X25730Y-46355
X28270Y-9525
X28270Y-26035
X28270Y-29845
X28270Y-46355
X30810Y-9525
X30810Y-26035
X30810Y-29845
X30810Y-46355
X33350Y-9525
X33350Y-26035
X33350Y-29845
X33350Y-46355
X35890Y-9525
X35890Y-26035
X35890Y-29845
X35890Y-46355
X38430Y-9525
X38430Y-26035
X38430Y-29845
X38430Y-46355
X40970Y-9525
X40970Y-26035
X40970Y-29845
X40970Y-46355
X43510Y-9525
X43510Y-26035
X43510Y-29845
X43510Y-46355
T0
M30
