G04 #@! TF.FileFunction,Soldermask,Top*
%FSLAX46Y46*%
G04 Gerber Fmt 4.6, Leading zero omitted, Abs format (unit mm)*
G04 Created by KiCad (PCBNEW 4.0.2-stable) date Thursday, August 11, 2016 'amt' 12:54:17 am*
%MOMM*%
G01*
G04 APERTURE LIST*
%ADD10C,0.100000*%
%ADD11R,2.432000X2.432000*%
%ADD12O,2.432000X2.432000*%
%ADD13R,1.000000X2.400000*%
%ADD14R,1.700000X1.700000*%
%ADD15C,1.700000*%
%ADD16C,1.797000*%
%ADD17C,1.924000*%
%ADD18R,2.127200X2.432000*%
%ADD19O,2.127200X2.432000*%
%ADD20R,1.797000X1.797000*%
%ADD21R,1.700000X1.100000*%
%ADD22R,2.432000X2.127200*%
%ADD23O,2.432000X2.127200*%
%ADD24R,1.900000X1.000000*%
G04 APERTURE END LIST*
D10*
D11*
X6705600Y-4445000D03*
D12*
X6705600Y-1905000D03*
D13*
X28270200Y-22480000D03*
X29540200Y-22480000D03*
X30810200Y-22480000D03*
X32080200Y-22480000D03*
X33350200Y-22480000D03*
X34620200Y-22480000D03*
X35890200Y-22480000D03*
X37160200Y-22480000D03*
X38430200Y-22480000D03*
X39700200Y-22480000D03*
X40970200Y-22480000D03*
X42240200Y-22480000D03*
X43510200Y-22480000D03*
X44780200Y-22480000D03*
X44780200Y-13080000D03*
X43510200Y-13080000D03*
X42240200Y-13080000D03*
X40970200Y-13080000D03*
X39700200Y-13080000D03*
X38430200Y-13080000D03*
X37160200Y-13080000D03*
X35890200Y-13080000D03*
X34620200Y-13080000D03*
X33350200Y-13080000D03*
X32080200Y-13080000D03*
X30810200Y-13080000D03*
X29540200Y-13080000D03*
X28270200Y-13080000D03*
D14*
X17399000Y-19518000D03*
D15*
X17399000Y-17018000D03*
D16*
X27190700Y-1469000D03*
X27190700Y-5969000D03*
X20690700Y-1469000D03*
X20690700Y-5969000D03*
D14*
X13030200Y-19645000D03*
D15*
X13030200Y-17145000D03*
D13*
X28270200Y-42800000D03*
X29540200Y-42800000D03*
X30810200Y-42800000D03*
X32080200Y-42800000D03*
X33350200Y-42800000D03*
X34620200Y-42800000D03*
X35890200Y-42800000D03*
X37160200Y-42800000D03*
X38430200Y-42800000D03*
X39700200Y-42800000D03*
X40970200Y-42800000D03*
X42240200Y-42800000D03*
X43510200Y-42800000D03*
X44780200Y-42800000D03*
X44780200Y-33400000D03*
X43510200Y-33400000D03*
X42240200Y-33400000D03*
X40970200Y-33400000D03*
X39700200Y-33400000D03*
X38430200Y-33400000D03*
X37160200Y-33400000D03*
X35890200Y-33400000D03*
X34620200Y-33400000D03*
X33350200Y-33400000D03*
X32080200Y-33400000D03*
X30810200Y-33400000D03*
X29540200Y-33400000D03*
X28270200Y-33400000D03*
D17*
X5435600Y-14605000D03*
X15595600Y-14605000D03*
D18*
X18110200Y-8636000D03*
D19*
X15570200Y-8636000D03*
X13030200Y-8636000D03*
X10490200Y-8636000D03*
X7950200Y-8636000D03*
X5410200Y-8636000D03*
D17*
X25730200Y-23495000D03*
X25730200Y-13335000D03*
D20*
X10515600Y-4445000D03*
X13055600Y-4445000D03*
X15595600Y-4445000D03*
D21*
X15518200Y-35265000D03*
X15518200Y-37465000D03*
X18618200Y-37465000D03*
X18618200Y-35265000D03*
D22*
X1498600Y-8255000D03*
D23*
X1498600Y-10795000D03*
X1498600Y-13335000D03*
X1498600Y-15875000D03*
X1498600Y-18415000D03*
X1498600Y-20955000D03*
X1498600Y-23495000D03*
X1498600Y-26035000D03*
D22*
X1498600Y-28575000D03*
D23*
X1498600Y-31115000D03*
X1498600Y-33655000D03*
X1498600Y-36195000D03*
X1498600Y-38735000D03*
X1498600Y-41275000D03*
X1498600Y-43815000D03*
X1498600Y-46355000D03*
D18*
X23190200Y-9525000D03*
D19*
X25730200Y-9525000D03*
X28270200Y-9525000D03*
X30810200Y-9525000D03*
X33350200Y-9525000D03*
X35890200Y-9525000D03*
X38430200Y-9525000D03*
X40970200Y-9525000D03*
X43510200Y-9525000D03*
D18*
X25730200Y-26035000D03*
D19*
X28270200Y-26035000D03*
X30810200Y-26035000D03*
X33350200Y-26035000D03*
X35890200Y-26035000D03*
X38430200Y-26035000D03*
X40970200Y-26035000D03*
X43510200Y-26035000D03*
D18*
X23190200Y-29845000D03*
D19*
X25730200Y-29845000D03*
X28270200Y-29845000D03*
X30810200Y-29845000D03*
X33350200Y-29845000D03*
X35890200Y-29845000D03*
X38430200Y-29845000D03*
X40970200Y-29845000D03*
X43510200Y-29845000D03*
D18*
X23190200Y-46355000D03*
D19*
X25730200Y-46355000D03*
X28270200Y-46355000D03*
X30810200Y-46355000D03*
X33350200Y-46355000D03*
X35890200Y-46355000D03*
X38430200Y-46355000D03*
X40970200Y-46355000D03*
X43510200Y-46355000D03*
D17*
X23190200Y-32385000D03*
X23190200Y-42545000D03*
X5435600Y-12065000D03*
X15595600Y-12065000D03*
D20*
X23190200Y-26035000D03*
D16*
X23190200Y-23495000D03*
X23190200Y-20955000D03*
X23190200Y-18415000D03*
X23190200Y-15875000D03*
X23190200Y-13335000D03*
D20*
X10515600Y-1905000D03*
D16*
X13055600Y-1905000D03*
X15595600Y-1905000D03*
D24*
X5115600Y-17145000D03*
X5115600Y-18415000D03*
X5115600Y-19685000D03*
X5115600Y-20955000D03*
X5115600Y-22225000D03*
X5115600Y-23495000D03*
X5115600Y-24765000D03*
X5115600Y-26035000D03*
X10515600Y-26035000D03*
X10515600Y-24765000D03*
X10515600Y-23495000D03*
X10515600Y-22225000D03*
X10515600Y-20955000D03*
X10515600Y-19685000D03*
X10515600Y-18415000D03*
X10515600Y-17145000D03*
X5148600Y-28575000D03*
X5148600Y-29845000D03*
X5148600Y-31115000D03*
X5148600Y-32385000D03*
X5148600Y-33655000D03*
X5148600Y-34925000D03*
X5148600Y-36195000D03*
X5148600Y-37465000D03*
X10548600Y-37465000D03*
X10548600Y-36195000D03*
X10548600Y-34925000D03*
X10548600Y-33655000D03*
X10548600Y-32385000D03*
X10548600Y-31115000D03*
X10548600Y-29845000D03*
X10548600Y-28575000D03*
D16*
X36080700Y-1469000D03*
X36080700Y-5969000D03*
X29580700Y-1469000D03*
X29580700Y-5969000D03*
X44970700Y-1469000D03*
X44970700Y-5969000D03*
X38470700Y-1469000D03*
X38470700Y-5969000D03*
M02*
