G04 #@! TF.FileFunction,Legend,Bot*
%FSLAX46Y46*%
G04 Gerber Fmt 4.6, Leading zero omitted, Abs format (unit mm)*
G04 Created by KiCad (PCBNEW 4.0.2-stable) date Thursday, August 11, 2016 'amt' 01:11:01 am*
%MOMM*%
G01*
G04 APERTURE LIST*
%ADD10C,0.100000*%
%ADD11C,0.152400*%
%ADD12C,0.150000*%
%ADD13R,2.432000X2.432000*%
%ADD14O,2.432000X2.432000*%
%ADD15R,2.900000X1.500000*%
%ADD16R,1.700000X1.700000*%
%ADD17C,1.700000*%
%ADD18C,1.797000*%
%ADD19C,1.924000*%
%ADD20R,2.127200X2.432000*%
%ADD21O,2.127200X2.432000*%
%ADD22R,2.432000X2.127200*%
%ADD23O,2.432000X2.127200*%
%ADD24R,1.797000X1.797000*%
%ADD25R,2.901900X1.400760*%
%ADD26R,4.400500X2.398980*%
G04 APERTURE END LIST*
D10*
D11*
X4140200Y-24257000D02*
X4140200Y-23495000D01*
X4140200Y-23495000D02*
X20142200Y-23495000D01*
X20142200Y-23495000D02*
X20142200Y-24257000D01*
D12*
X7401560Y-16515080D02*
X7101840Y-16764000D01*
X7101840Y-16764000D02*
X6951980Y-16865600D01*
X6951980Y-16865600D02*
X7800340Y-16865600D01*
X5900420Y-16164560D02*
X7701280Y-16164560D01*
X5900420Y-16164560D02*
X5900420Y-16814800D01*
X5900420Y-20665440D02*
X7701280Y-20665440D01*
X5900420Y-20665440D02*
X5900420Y-20015200D01*
X19888105Y-21931381D02*
X19888105Y-22740905D01*
X19840486Y-22836143D01*
X19792867Y-22883762D01*
X19697629Y-22931381D01*
X19507152Y-22931381D01*
X19411914Y-22883762D01*
X19364295Y-22836143D01*
X19316676Y-22740905D01*
X19316676Y-21931381D01*
X18935724Y-21931381D02*
X18316676Y-21931381D01*
X18650010Y-22312333D01*
X18507152Y-22312333D01*
X18411914Y-22359952D01*
X18364295Y-22407571D01*
X18316676Y-22502810D01*
X18316676Y-22740905D01*
X18364295Y-22836143D01*
X18411914Y-22883762D01*
X18507152Y-22931381D01*
X18792867Y-22931381D01*
X18888105Y-22883762D01*
X18935724Y-22836143D01*
X5156105Y-20153381D02*
X5156105Y-20962905D01*
X5108486Y-21058143D01*
X5060867Y-21105762D01*
X4965629Y-21153381D01*
X4775152Y-21153381D01*
X4679914Y-21105762D01*
X4632295Y-21058143D01*
X4584676Y-20962905D01*
X4584676Y-20153381D01*
X3679914Y-20486714D02*
X3679914Y-21153381D01*
X3918010Y-20105762D02*
X4156105Y-20820048D01*
X3537057Y-20820048D01*
%LPC*%
D13*
X6705600Y-4445000D03*
D14*
X6705600Y-1905000D03*
D15*
X4456200Y-39116000D03*
X4456200Y-37116000D03*
X4456200Y-35116000D03*
X4456200Y-33116000D03*
X4456200Y-31116000D03*
X4456200Y-29116000D03*
X4456200Y-27116000D03*
X4456200Y-25116000D03*
X19856200Y-25116000D03*
X19756200Y-27116000D03*
X19856200Y-29116000D03*
X19856200Y-31116000D03*
X19856200Y-33116000D03*
X19856200Y-35116000D03*
X19856200Y-37116000D03*
X19856200Y-39116000D03*
D16*
X17399000Y-19518000D03*
D17*
X17399000Y-17018000D03*
D18*
X27190700Y-1469000D03*
X27190700Y-5969000D03*
X20690700Y-1469000D03*
X20690700Y-5969000D03*
D16*
X13030200Y-19645000D03*
D17*
X13030200Y-17145000D03*
D19*
X5435600Y-14605000D03*
X15595600Y-14605000D03*
D20*
X18110200Y-8636000D03*
D21*
X15570200Y-8636000D03*
X13030200Y-8636000D03*
X10490200Y-8636000D03*
X7950200Y-8636000D03*
X5410200Y-8636000D03*
D19*
X25730200Y-23495000D03*
X25730200Y-13335000D03*
D22*
X1498600Y-8255000D03*
D23*
X1498600Y-10795000D03*
X1498600Y-13335000D03*
X1498600Y-15875000D03*
X1498600Y-18415000D03*
X1498600Y-20955000D03*
X1498600Y-23495000D03*
X1498600Y-26035000D03*
D22*
X1498600Y-28575000D03*
D23*
X1498600Y-31115000D03*
X1498600Y-33655000D03*
X1498600Y-36195000D03*
X1498600Y-38735000D03*
X1498600Y-41275000D03*
X1498600Y-43815000D03*
X1498600Y-46355000D03*
D20*
X23190200Y-9525000D03*
D21*
X25730200Y-9525000D03*
X28270200Y-9525000D03*
X30810200Y-9525000D03*
X33350200Y-9525000D03*
X35890200Y-9525000D03*
X38430200Y-9525000D03*
X40970200Y-9525000D03*
X43510200Y-9525000D03*
D20*
X25730200Y-26035000D03*
D21*
X28270200Y-26035000D03*
X30810200Y-26035000D03*
X33350200Y-26035000D03*
X35890200Y-26035000D03*
X38430200Y-26035000D03*
X40970200Y-26035000D03*
X43510200Y-26035000D03*
D20*
X23190200Y-29845000D03*
D21*
X25730200Y-29845000D03*
X28270200Y-29845000D03*
X30810200Y-29845000D03*
X33350200Y-29845000D03*
X35890200Y-29845000D03*
X38430200Y-29845000D03*
X40970200Y-29845000D03*
X43510200Y-29845000D03*
D20*
X23190200Y-46355000D03*
D21*
X25730200Y-46355000D03*
X28270200Y-46355000D03*
X30810200Y-46355000D03*
X33350200Y-46355000D03*
X35890200Y-46355000D03*
X38430200Y-46355000D03*
X40970200Y-46355000D03*
X43510200Y-46355000D03*
D19*
X23190200Y-32385000D03*
X23190200Y-42545000D03*
X5435600Y-12065000D03*
X15595600Y-12065000D03*
D24*
X23190200Y-26035000D03*
D18*
X23190200Y-23495000D03*
X23190200Y-20955000D03*
X23190200Y-18415000D03*
X23190200Y-15875000D03*
X23190200Y-13335000D03*
D24*
X10515600Y-1905000D03*
D18*
X13055600Y-1905000D03*
X15595600Y-1905000D03*
D25*
X9552940Y-16913860D03*
X9552940Y-18415000D03*
X9552940Y-19916140D03*
D26*
X5600700Y-18415000D03*
D10*
G36*
X8524850Y-19115380D02*
X7375550Y-19615760D01*
X7375550Y-17214240D01*
X8524850Y-17714620D01*
X8524850Y-19115380D01*
X8524850Y-19115380D01*
G37*
D18*
X36080700Y-1469000D03*
X36080700Y-5969000D03*
X29580700Y-1469000D03*
X29580700Y-5969000D03*
X44970700Y-1469000D03*
X44970700Y-5969000D03*
X38470700Y-1469000D03*
X38470700Y-5969000D03*
M02*
