G04 #@! TF.FileFunction,Copper,L2,Bot,Signal*
%FSLAX46Y46*%
G04 Gerber Fmt 4.6, Leading zero omitted, Abs format (unit mm)*
G04 Created by KiCad (PCBNEW 4.0.2-stable) date Thursday, August 11, 2016 'amt' 12:54:17 am*
%MOMM*%
G01*
G04 APERTURE LIST*
%ADD10C,0.100000*%
%ADD11R,2.032000X2.032000*%
%ADD12O,2.032000X2.032000*%
%ADD13R,2.500000X1.100000*%
%ADD14R,1.300000X1.300000*%
%ADD15C,1.300000*%
%ADD16C,1.397000*%
%ADD17C,1.524000*%
%ADD18R,1.727200X2.032000*%
%ADD19O,1.727200X2.032000*%
%ADD20R,2.032000X1.727200*%
%ADD21O,2.032000X1.727200*%
%ADD22R,1.397000X1.397000*%
%ADD23R,2.501900X1.000760*%
%ADD24R,4.000500X1.998980*%
%ADD25C,0.685800*%
%ADD26C,0.152400*%
%ADD27C,0.254000*%
G04 APERTURE END LIST*
D10*
D11*
X6705600Y-4445000D03*
D12*
X6705600Y-1905000D03*
D13*
X4456200Y-39116000D03*
X4456200Y-37116000D03*
X4456200Y-35116000D03*
X4456200Y-33116000D03*
X4456200Y-31116000D03*
X4456200Y-29116000D03*
X4456200Y-27116000D03*
X4456200Y-25116000D03*
X19856200Y-25116000D03*
X19756200Y-27116000D03*
X19856200Y-29116000D03*
X19856200Y-31116000D03*
X19856200Y-33116000D03*
X19856200Y-35116000D03*
X19856200Y-37116000D03*
X19856200Y-39116000D03*
D14*
X17399000Y-19518000D03*
D15*
X17399000Y-17018000D03*
D16*
X27190700Y-1469000D03*
X27190700Y-5969000D03*
X20690700Y-1469000D03*
X20690700Y-5969000D03*
D14*
X13030200Y-19645000D03*
D15*
X13030200Y-17145000D03*
D17*
X5435600Y-14605000D03*
X15595600Y-14605000D03*
D18*
X18110200Y-8636000D03*
D19*
X15570200Y-8636000D03*
X13030200Y-8636000D03*
X10490200Y-8636000D03*
X7950200Y-8636000D03*
X5410200Y-8636000D03*
D17*
X25730200Y-23495000D03*
X25730200Y-13335000D03*
D20*
X1498600Y-8255000D03*
D21*
X1498600Y-10795000D03*
X1498600Y-13335000D03*
X1498600Y-15875000D03*
X1498600Y-18415000D03*
X1498600Y-20955000D03*
X1498600Y-23495000D03*
X1498600Y-26035000D03*
D20*
X1498600Y-28575000D03*
D21*
X1498600Y-31115000D03*
X1498600Y-33655000D03*
X1498600Y-36195000D03*
X1498600Y-38735000D03*
X1498600Y-41275000D03*
X1498600Y-43815000D03*
X1498600Y-46355000D03*
D18*
X23190200Y-9525000D03*
D19*
X25730200Y-9525000D03*
X28270200Y-9525000D03*
X30810200Y-9525000D03*
X33350200Y-9525000D03*
X35890200Y-9525000D03*
X38430200Y-9525000D03*
X40970200Y-9525000D03*
X43510200Y-9525000D03*
D18*
X25730200Y-26035000D03*
D19*
X28270200Y-26035000D03*
X30810200Y-26035000D03*
X33350200Y-26035000D03*
X35890200Y-26035000D03*
X38430200Y-26035000D03*
X40970200Y-26035000D03*
X43510200Y-26035000D03*
D18*
X23190200Y-29845000D03*
D19*
X25730200Y-29845000D03*
X28270200Y-29845000D03*
X30810200Y-29845000D03*
X33350200Y-29845000D03*
X35890200Y-29845000D03*
X38430200Y-29845000D03*
X40970200Y-29845000D03*
X43510200Y-29845000D03*
D18*
X23190200Y-46355000D03*
D19*
X25730200Y-46355000D03*
X28270200Y-46355000D03*
X30810200Y-46355000D03*
X33350200Y-46355000D03*
X35890200Y-46355000D03*
X38430200Y-46355000D03*
X40970200Y-46355000D03*
X43510200Y-46355000D03*
D17*
X23190200Y-32385000D03*
X23190200Y-42545000D03*
X5435600Y-12065000D03*
X15595600Y-12065000D03*
D22*
X23190200Y-26035000D03*
D16*
X23190200Y-23495000D03*
X23190200Y-20955000D03*
X23190200Y-18415000D03*
X23190200Y-15875000D03*
X23190200Y-13335000D03*
D22*
X10515600Y-1905000D03*
D16*
X13055600Y-1905000D03*
X15595600Y-1905000D03*
D23*
X9552940Y-16913860D03*
X9552940Y-18415000D03*
X9552940Y-19916140D03*
D24*
X5600700Y-18415000D03*
D10*
G36*
X8324850Y-18915380D02*
X7575550Y-19415760D01*
X7575550Y-17414240D01*
X8324850Y-17914620D01*
X8324850Y-18915380D01*
X8324850Y-18915380D01*
G37*
D16*
X36080700Y-1469000D03*
X36080700Y-5969000D03*
X29580700Y-1469000D03*
X29580700Y-5969000D03*
X44970700Y-1469000D03*
X44970700Y-5969000D03*
X38470700Y-1469000D03*
X38470700Y-5969000D03*
D25*
X8763000Y-5461000D03*
X8763000Y-3048000D03*
X8763000Y-4318000D03*
X32131000Y-28067000D03*
X37211000Y-28067000D03*
X27051000Y-28067000D03*
X21844000Y-27432000D03*
X8000996Y-35433000D03*
X6858000Y-33147004D03*
X7238992Y-34417000D03*
X8763000Y-25527000D03*
X7874004Y-29972000D03*
X8382000Y-31241998D03*
X8636001Y-26797000D03*
X15621000Y-30099000D03*
X17145000Y-28321000D03*
X17145000Y-33782000D03*
X17145000Y-32004000D03*
X15621000Y-32004000D03*
X40005000Y-40005000D03*
X38989000Y-35687000D03*
X36576000Y-40005000D03*
X36576000Y-37846000D03*
X33909000Y-37846002D03*
X31242000Y-37846000D03*
X28321000Y-37846000D03*
X25400000Y-42164000D03*
X25400000Y-40005000D03*
X28321000Y-40005000D03*
X31242000Y-40005000D03*
X33909000Y-40005000D03*
X25400000Y-37846000D03*
X23495000Y-34671000D03*
X25400000Y-33401000D03*
X25400000Y-35687000D03*
X28321000Y-35687000D03*
X31242000Y-35687000D03*
X33909000Y-35687000D03*
X36576000Y-35687000D03*
X44196000Y-37846000D03*
X42291000Y-37846000D03*
X42290998Y-40005000D03*
X42291000Y-35687000D03*
X44196002Y-35687000D03*
X43433998Y-28067000D03*
X26670000Y-21717002D03*
X29591000Y-19685000D03*
X32004000Y-17526000D03*
X32004000Y-19685000D03*
X34417000Y-19685000D03*
X34417000Y-17526000D03*
X34417000Y-15621000D03*
X36576000Y-15621000D03*
X36576000Y-17526000D03*
X36576000Y-19685000D03*
X40767000Y-19685000D03*
X42799000Y-19685000D03*
X44831000Y-19685000D03*
X44831000Y-17526000D03*
X42799000Y-17526000D03*
X40767000Y-17526000D03*
X40767000Y-15621000D03*
X42799000Y-15621000D03*
X44831000Y-15621000D03*
X42291000Y-11049000D03*
X45465998Y-8001000D03*
X45465998Y-11049000D03*
X37338004Y-4572000D03*
X37338000Y-7620000D03*
X30861000Y-7366000D03*
X28321000Y-7366000D03*
X45466000Y-9524994D03*
X42799000Y-7112000D03*
X40767000Y-7112002D03*
X44831004Y-3429000D03*
X42799000Y-5207000D03*
X40767000Y-5207000D03*
X38735000Y-3429000D03*
X40767000Y-1651000D03*
X40767000Y-3429000D03*
X42799000Y-3429000D03*
X42799000Y-1651000D03*
X33909000Y-1651000D03*
X33909000Y-3556000D03*
X31877000Y-1651000D03*
X24892000Y-19812000D03*
X24765000Y-17017996D03*
X26543000Y-16764000D03*
X26416000Y-18415000D03*
X28321000Y-16764000D03*
X30099000Y-15113000D03*
X28320996Y-15113000D03*
X26543000Y-15113002D03*
X24765002Y-15113000D03*
X15621000Y-28321000D03*
X16891000Y-25908000D03*
X15621000Y-25908000D03*
X15621004Y-24257000D03*
X16891000Y-24257002D03*
X16891000Y-22606000D03*
X15621000Y-22606000D03*
X8001000Y-22733000D03*
X6858000Y-23875994D03*
X6858002Y-21590000D03*
X8890000Y-10922000D03*
X7366000Y-16383000D03*
X7366002Y-14605000D03*
X8890002Y-14605000D03*
X10541000Y-14605000D03*
X10541000Y-12700000D03*
X8890000Y-12700000D03*
X7366000Y-12699996D03*
X15621004Y-18415000D03*
X15621002Y-16637000D03*
X19558000Y-19050000D03*
X20955000Y-18160998D03*
X19558000Y-17145000D03*
X21209000Y-21971000D03*
X19557998Y-21971000D03*
X18034000Y-13208000D03*
X18034000Y-15113000D03*
X18034000Y-11430000D03*
X14224000Y-10541000D03*
X16510004Y-10541000D03*
X29591000Y-3556000D03*
X27432012Y-3556000D03*
X21082000Y-3556000D03*
X25273002Y-3556000D03*
X23114000Y-3556000D03*
X23114000Y-7239002D03*
X25272992Y-7239000D03*
X23113998Y-5461000D03*
X25273000Y-5461004D03*
X23113996Y-1651000D03*
X25273000Y-1651004D03*
X20955000Y-10160000D03*
X20955000Y-12064996D03*
X23114000Y-11557000D03*
X20955000Y-14224000D03*
X20955000Y-8255000D03*
X18034000Y-1270000D03*
X18034000Y-2794000D03*
X18033992Y-4318000D03*
X18034000Y-5842000D03*
X12954002Y-15367000D03*
X13843000Y-37719000D03*
X12573012Y-37719000D03*
X8890000Y-37719000D03*
X7874000Y-37719000D03*
X9779000Y-27305000D03*
X11049000Y-27305000D03*
X12954000Y-27686002D03*
X12954008Y-26416000D03*
X12954000Y-28956000D03*
X6858000Y-37719000D03*
X3683000Y-7873994D03*
X6350000Y-6604000D03*
X4699000Y-6096000D03*
X1142996Y-6096000D03*
X2921000Y-1143000D03*
X2921000Y-6096000D03*
X2921000Y-4318000D03*
X2921000Y-2794000D03*
X4699000Y-2794000D03*
X4699000Y-4318000D03*
X1143004Y-2794000D03*
X33401000Y-5461000D03*
X33401000Y-7366000D03*
X4699002Y-1143000D03*
X1143000Y-4318000D03*
X1143000Y-1143000D03*
X17018016Y-37719000D03*
X16510000Y-6731000D03*
X13589000Y-35052000D03*
X8532122Y-28551884D03*
X9143996Y-21590000D03*
X14033488Y-32512000D03*
X14033490Y-33655000D03*
X12065000Y-32321500D03*
X13081000Y-6413500D03*
X12954008Y-24701500D03*
X17907000Y-29527500D03*
X6731000Y-27305000D03*
X9173478Y-34163010D03*
X6731002Y-30162500D03*
X6640848Y-31576848D03*
X42291000Y-44450000D03*
X43561000Y-44386500D03*
D26*
X8763000Y-3048000D02*
X8763000Y-5461000D01*
X6756400Y-4381500D02*
X8699500Y-4381500D01*
X8699500Y-4381500D02*
X8763000Y-4318000D01*
X32131000Y-28067000D02*
X30099000Y-28067000D01*
X37211000Y-28067000D02*
X32131000Y-28067000D01*
X43433998Y-28067000D02*
X37211000Y-28067000D01*
X30099000Y-28067000D02*
X23749000Y-28067000D01*
X30099000Y-28067000D02*
X27051000Y-28067000D01*
X23749000Y-28067000D02*
X22479000Y-28067000D01*
X22479000Y-28067000D02*
X21844000Y-27432000D01*
X29580700Y-5969000D02*
X30734000Y-4815700D01*
X30734000Y-4815700D02*
X30734000Y-4699000D01*
X30734000Y-4699000D02*
X29591000Y-3556000D01*
X17399000Y-17018000D02*
X16510000Y-17907000D01*
X16510000Y-17907000D02*
X16129000Y-17907000D01*
X16129000Y-17907000D02*
X15621002Y-17399002D01*
X15621002Y-17399002D02*
X15621002Y-16637000D01*
X19207000Y-25052500D02*
X19240500Y-25019000D01*
X19812000Y-25019000D02*
X19812000Y-22910800D01*
X19240500Y-25019000D02*
X19812000Y-25019000D01*
X19812000Y-22910800D02*
X19215099Y-22313899D01*
X12954000Y-27686002D02*
X14859002Y-27686002D01*
X14859002Y-27686002D02*
X15113000Y-27940000D01*
X15113000Y-27940000D02*
X15494000Y-27940000D01*
X15494000Y-27940000D02*
X15532101Y-27978101D01*
X12954008Y-26416000D02*
X13462000Y-26416000D01*
X13462000Y-26416000D02*
X15024101Y-27978101D01*
X15024101Y-27978101D02*
X15532101Y-27978101D01*
X7516063Y-35433000D02*
X8000996Y-35433000D01*
X7493000Y-35409937D02*
X7516063Y-35433000D01*
X7493000Y-35306000D02*
X7493000Y-35409937D01*
X7581891Y-34759899D02*
X7238992Y-34417000D01*
X7620000Y-34821067D02*
X7620000Y-34798008D01*
X7620000Y-34798008D02*
X7581891Y-34759899D01*
X8636000Y-26924000D02*
X8636000Y-26797001D01*
X8636000Y-26797001D02*
X8636001Y-26797000D01*
X15621000Y-31115000D02*
X15621000Y-30099000D01*
X15621000Y-28321000D02*
X17145000Y-28321000D01*
X12954000Y-29591000D02*
X17145000Y-33782000D01*
X12954000Y-28956000D02*
X12954000Y-29591000D01*
X15621000Y-32004000D02*
X17145000Y-32004000D01*
X41021000Y-40005000D02*
X40005000Y-40005000D01*
X41148000Y-39878000D02*
X41021000Y-40005000D01*
X42291000Y-35687000D02*
X38989000Y-35687000D01*
X33909000Y-40005000D02*
X36576000Y-40005000D01*
X36575998Y-37846002D02*
X36576000Y-37846000D01*
X33909000Y-37846002D02*
X36575998Y-37846002D01*
X34036000Y-37846000D02*
X36576000Y-37846000D01*
X28194000Y-37846000D02*
X31115000Y-37846000D01*
X25400000Y-41679067D02*
X25400000Y-42164000D01*
X25273000Y-40132000D02*
X25400000Y-40259000D01*
X31115000Y-40005000D02*
X28194000Y-40005000D01*
X23495000Y-34671000D02*
X25400000Y-36576000D01*
X25400000Y-36576000D02*
X25400000Y-38227000D01*
X25400000Y-35687000D02*
X25400000Y-33401000D01*
X31115000Y-35687000D02*
X28194000Y-35687000D01*
X36576000Y-35687000D02*
X33909000Y-35687000D01*
X41783000Y-37846000D02*
X44196000Y-37846000D01*
X41783000Y-37846000D02*
X42291000Y-37846000D01*
X41275000Y-40005000D02*
X42290998Y-40005000D01*
X41148000Y-39878000D02*
X41275000Y-40005000D01*
X41275000Y-39751000D02*
X41275000Y-38735000D01*
X41148000Y-39878000D02*
X41275000Y-39751000D01*
X44196002Y-35687000D02*
X42291000Y-35687000D01*
X43433998Y-31750012D02*
X43433998Y-28067000D01*
X39878010Y-35306000D02*
X43433998Y-31750012D01*
X28067002Y-20320000D02*
X26670000Y-21717002D01*
X39751000Y-20320000D02*
X28067002Y-20320000D01*
X32004000Y-17526000D02*
X29845000Y-19685000D01*
X29845000Y-19685000D02*
X29591000Y-19685000D01*
X34417000Y-19685000D02*
X32004000Y-19685000D01*
X34417000Y-15621000D02*
X34417000Y-17526000D01*
X36576000Y-17526000D02*
X36576000Y-15621000D01*
X40767000Y-19685000D02*
X36576000Y-19685000D01*
X44831000Y-19685000D02*
X42799000Y-19685000D01*
X42799000Y-17526000D02*
X44831000Y-17526000D01*
X40767000Y-15621000D02*
X40767000Y-17526000D01*
X44831000Y-15621000D02*
X42799000Y-15621000D01*
X43688000Y-12446000D02*
X42291000Y-11049000D01*
X43688000Y-15113000D02*
X43688000Y-12446000D01*
X45466000Y-8001002D02*
X45465998Y-8001000D01*
X45466000Y-9524994D02*
X45466000Y-8001002D01*
X43688000Y-11049000D02*
X45465998Y-11049000D01*
X43561000Y-11176000D02*
X43688000Y-11049000D01*
X35814000Y-7620000D02*
X37338000Y-7620000D01*
X35687000Y-7493000D02*
X35814000Y-7620000D01*
X35814000Y-4572000D02*
X37338004Y-4572000D01*
X35052000Y-3810000D02*
X35814000Y-4572000D01*
X37338004Y-4698996D02*
X37338004Y-4572000D01*
X37338000Y-4699000D02*
X37338004Y-4698996D01*
X29580700Y-5969000D02*
X30861000Y-7249300D01*
X30861000Y-7249300D02*
X30861000Y-7366000D01*
X28321000Y-7366000D02*
X29580700Y-6106300D01*
X29580700Y-6106300D02*
X29580700Y-5969000D01*
X43815000Y-7239000D02*
X42926000Y-7239000D01*
X42799000Y-6223000D02*
X43599101Y-7023101D01*
X42799000Y-5207000D02*
X42799000Y-6223000D01*
X42926000Y-7239000D02*
X42799000Y-7112000D01*
X43053000Y-6477000D02*
X43599101Y-7023101D01*
X43053000Y-6350000D02*
X43053000Y-6477000D01*
X43599101Y-7023101D02*
X43815000Y-7239000D01*
X40258996Y-7112002D02*
X40767000Y-7112002D01*
X39750998Y-7620000D02*
X40258996Y-7112002D01*
X45466000Y-3048000D02*
X45212004Y-3048000D01*
X45212004Y-3048000D02*
X44831004Y-3429000D01*
X41021000Y-5207000D02*
X40767000Y-5207000D01*
X42799000Y-3429000D02*
X41021000Y-5207000D01*
X38989000Y-3429000D02*
X38735000Y-3429000D01*
X40767000Y-1651000D02*
X38989000Y-3429000D01*
X42164000Y-3429000D02*
X42799000Y-3429000D01*
X42037000Y-3556000D02*
X42164000Y-3429000D01*
X43306996Y-1143004D02*
X42799000Y-1651000D01*
X43306996Y-1143000D02*
X43306996Y-1143004D01*
X31877000Y-1651000D02*
X33909000Y-1651000D01*
X33401000Y-7366000D02*
X33401000Y-5461000D01*
X33147000Y-2794000D02*
X33909000Y-3556000D01*
X32893000Y-2794000D02*
X33147000Y-2794000D01*
X25946101Y-18757899D02*
X24892000Y-19812000D01*
X26200101Y-18757899D02*
X25946101Y-18757899D01*
X24765002Y-17017994D02*
X24765000Y-17017996D01*
X24765002Y-15113000D02*
X24765002Y-17017994D01*
X28067000Y-16764000D02*
X26543000Y-16764000D01*
X28321000Y-16764000D02*
X26543000Y-16764000D01*
X28321000Y-17018000D02*
X28067000Y-16764000D01*
X26200101Y-18630899D02*
X26416000Y-18415000D01*
X26200101Y-18757899D02*
X26200101Y-18630899D01*
X25309522Y-19521478D02*
X25436522Y-19521478D01*
X25436522Y-19521478D02*
X26200101Y-18757899D01*
X30098998Y-15367002D02*
X30099000Y-15367000D01*
X26543000Y-15113002D02*
X30098998Y-15113002D01*
X28320996Y-15748004D02*
X28320996Y-15113000D01*
X28105101Y-15963899D02*
X28320996Y-15748004D01*
X27813000Y-15620996D02*
X28320996Y-15113000D01*
X27813000Y-15621000D02*
X27813000Y-15620996D01*
X25781000Y-13271500D02*
X26543000Y-14033500D01*
X26543000Y-14033500D02*
X26543000Y-15113002D01*
X15621000Y-28067000D02*
X15621000Y-28321000D01*
X15532101Y-27978101D02*
X15621000Y-28067000D01*
X14732000Y-28321000D02*
X15621000Y-28321000D01*
X17780000Y-25116000D02*
X17683000Y-25116000D01*
X17683000Y-25116000D02*
X16891000Y-25908000D01*
X15621004Y-25907996D02*
X15621000Y-25908000D01*
X15621004Y-24257000D02*
X15621004Y-25907996D01*
X15621000Y-24510996D02*
X15621000Y-25908000D01*
X15748000Y-24383996D02*
X15621000Y-24510996D01*
X17749998Y-25116000D02*
X16891000Y-24257002D01*
X17780000Y-25116000D02*
X17749998Y-25116000D01*
X15748000Y-22606000D02*
X16891000Y-22606000D01*
X15621000Y-22606000D02*
X16891000Y-22606000D01*
X6858000Y-23875994D02*
X8000994Y-22733000D01*
X6985000Y-23749000D02*
X8001000Y-22733000D01*
X8000994Y-22733000D02*
X8001000Y-22733000D01*
X6858000Y-23749000D02*
X6985000Y-23749000D01*
X6858002Y-22732998D02*
X6858002Y-21590000D01*
X6858000Y-22733000D02*
X6858002Y-22732998D01*
X8890000Y-12700000D02*
X8890000Y-10922000D01*
X8890000Y-11533933D02*
X8890000Y-10922000D01*
X7366000Y-16129002D02*
X7366000Y-16383000D01*
X8890002Y-14605000D02*
X7366000Y-16129002D01*
X7366000Y-14604998D02*
X7366002Y-14605000D01*
X7366000Y-12699996D02*
X7366000Y-14604998D01*
X7366002Y-15239998D02*
X7366002Y-14605000D01*
X7366000Y-15240000D02*
X7366002Y-15239998D01*
X10096500Y-14795500D02*
X10350500Y-14795500D01*
X10541000Y-15240000D02*
X10541000Y-14605000D01*
X10668000Y-15367000D02*
X10541000Y-15240000D01*
X10350500Y-14795500D02*
X10541000Y-14605000D01*
X9613899Y-13677899D02*
X10541000Y-14605000D01*
X9232897Y-13677899D02*
X9613899Y-13677899D01*
X10541000Y-12700000D02*
X10541000Y-14605000D01*
X8890000Y-13335002D02*
X8890000Y-12700000D01*
X9232897Y-13677899D02*
X8890000Y-13335002D01*
X7404101Y-12280899D02*
X7366000Y-12319000D01*
X7366000Y-12319000D02*
X7366000Y-12699996D01*
X16002000Y-18415000D02*
X15621004Y-18415000D01*
X17399000Y-17018000D02*
X16002000Y-18415000D01*
X14224000Y-16637000D02*
X15621002Y-16637000D01*
X13970000Y-16383000D02*
X14224000Y-16637000D01*
X19558000Y-19050000D02*
X19558000Y-17145000D01*
X18541998Y-18160998D02*
X20955000Y-18160998D01*
X20320000Y-21971000D02*
X21209000Y-21971000D01*
X17779998Y-23749000D02*
X19215099Y-22313899D01*
X17653000Y-23749000D02*
X17779998Y-23749000D01*
X19215099Y-22313899D02*
X19557998Y-21971000D01*
X17399000Y-17018000D02*
X18541998Y-18160998D01*
X19558000Y-17780000D02*
X19558000Y-17145000D01*
X18034000Y-13843004D02*
X18034000Y-13208000D01*
X18034000Y-8699500D02*
X18034000Y-15113000D01*
X18161000Y-8572500D02*
X18034000Y-8699500D01*
X17526000Y-10922000D02*
X18034000Y-11430000D01*
X17526000Y-10668004D02*
X17526000Y-10922000D01*
X15748000Y-10541000D02*
X14224000Y-10541000D01*
X16510000Y-9779000D02*
X15748000Y-10541000D01*
X16510004Y-9779004D02*
X16510004Y-10541000D01*
X16510000Y-9779000D02*
X16510004Y-9779004D01*
X18415000Y-12700000D02*
X18415000Y-11684000D01*
X18415000Y-11684000D02*
X16510000Y-9779000D01*
X25273002Y-3556000D02*
X27432012Y-3556000D01*
X21208996Y-3556000D02*
X21082000Y-3556000D01*
X23113996Y-1651000D02*
X21208996Y-3556000D01*
X23114000Y-3556000D02*
X21082000Y-3556000D01*
X25273000Y-1651004D02*
X25273000Y-3555998D01*
X25273000Y-3555998D02*
X25273002Y-3556000D01*
X23113998Y-5461000D02*
X23113998Y-3556002D01*
X23113998Y-3556002D02*
X23114000Y-3556000D01*
X21970998Y-7239002D02*
X23114000Y-7239002D01*
X20955000Y-8255000D02*
X21970998Y-7239002D01*
X25273000Y-7238992D02*
X25272992Y-7239000D01*
X25273000Y-5461004D02*
X25273000Y-7238992D01*
X23113998Y-3937004D02*
X23113998Y-5461000D01*
X23241000Y-3810002D02*
X23113998Y-3937004D01*
X20955000Y-12064996D02*
X20955000Y-10160000D01*
X20955000Y-13208000D02*
X22606000Y-11557000D01*
X22606000Y-11557000D02*
X23114000Y-11557000D01*
X20955000Y-14224000D02*
X20955000Y-13208000D01*
X18034000Y-2794000D02*
X18034000Y-1270000D01*
X18034000Y-4318008D02*
X18033992Y-4318000D01*
X18034000Y-5842000D02*
X18034000Y-4318008D01*
X7404101Y-12103101D02*
X7239000Y-11938000D01*
X7404101Y-12280899D02*
X7404101Y-12103101D01*
X13970000Y-16383000D02*
X13296901Y-15709899D01*
X13296901Y-15709899D02*
X12954002Y-15367000D01*
X10160000Y-14859000D02*
X10160000Y-14605002D01*
X10160000Y-14605002D02*
X9232897Y-13677899D01*
X17018016Y-37719000D02*
X13843000Y-37719000D01*
X7874000Y-37719000D02*
X8890000Y-37719000D01*
X6858000Y-37719000D02*
X7874000Y-37719000D01*
X10668000Y-27305000D02*
X9779000Y-27305000D01*
X10668000Y-27305000D02*
X11049000Y-27305000D01*
X19156200Y-25116000D02*
X17780000Y-25116000D01*
X12954000Y-28956000D02*
X12954000Y-27686002D01*
X13857999Y-16495001D02*
X13970000Y-16383000D01*
X13030200Y-17145000D02*
X13680199Y-16495001D01*
X13680199Y-16495001D02*
X13857999Y-16495001D01*
X39751000Y-36194988D02*
X41402012Y-37846000D01*
X41402012Y-37846000D02*
X41783000Y-37846000D01*
X41656000Y-37719000D02*
X41783000Y-37846000D01*
X41656000Y-37361067D02*
X41656000Y-37719000D01*
X41656000Y-37083990D02*
X41656000Y-37361067D01*
X41656000Y-36068000D02*
X41656000Y-37361067D01*
X42291000Y-35433000D02*
X41656000Y-36068000D01*
X39878010Y-35306000D02*
X41656000Y-37083990D01*
X4952994Y-6604000D02*
X3683000Y-7873994D01*
X5865067Y-6604000D02*
X4952994Y-6604000D01*
X5334000Y-6604000D02*
X5865067Y-6604000D01*
X5207000Y-6477000D02*
X5334000Y-6604000D01*
X5865067Y-6604000D02*
X6350000Y-6604000D01*
X2921000Y-4318000D02*
X4699000Y-6096000D01*
X1143000Y-6095996D02*
X1142996Y-6096000D01*
X1143000Y-4318000D02*
X1143000Y-6095996D01*
X4699002Y-1143000D02*
X2921000Y-1143000D01*
X2921000Y-7112000D02*
X2921000Y-6096000D01*
X3556000Y-7747000D02*
X2921000Y-7112000D01*
X1143004Y-2794000D02*
X2921000Y-2794000D01*
X7366000Y-13335000D02*
X7366000Y-12319000D01*
X10033000Y-27305000D02*
X10668000Y-27305000D01*
X7620000Y-35179000D02*
X7493000Y-35306000D01*
X7977933Y-35306000D02*
X7493000Y-35306000D01*
X7620000Y-34821067D02*
X7620000Y-35179000D01*
X8001000Y-35433000D02*
X8001000Y-35329067D01*
X8001000Y-35329067D02*
X7977933Y-35306000D01*
X4699000Y-4318000D02*
X4699000Y-2794000D01*
X1143000Y-2793996D02*
X1143004Y-2794000D01*
X1143000Y-1143000D02*
X1143000Y-2793996D01*
X7620000Y-34821067D02*
X8001000Y-34440067D01*
X8001000Y-34440067D02*
X8001000Y-33655000D01*
X8001000Y-33655000D02*
X8509000Y-33147000D01*
X8509000Y-33147000D02*
X8509000Y-30606994D01*
X16510000Y-6731000D02*
X16510000Y-6350000D01*
X16510000Y-6350000D02*
X16891000Y-5969000D01*
X5207000Y-37052500D02*
X5239001Y-37020499D01*
X5239001Y-37020499D02*
X12486434Y-37020499D01*
X12486434Y-37020499D02*
X13589000Y-35917933D01*
X13589000Y-35917933D02*
X13589000Y-35052000D01*
X23241000Y-25971500D02*
X23241000Y-26543000D01*
X23241000Y-26543000D02*
X24130000Y-27432000D01*
X24130000Y-27432000D02*
X42252900Y-27432000D01*
X42252900Y-27432000D02*
X43561000Y-26123900D01*
X43561000Y-26123900D02*
X43561000Y-25971500D01*
X8532122Y-28066951D02*
X8532122Y-28551884D01*
X5156200Y-25116000D02*
X5581171Y-25116000D01*
X5581171Y-25116000D02*
X8532122Y-28066951D01*
X9552940Y-19916140D02*
X9552940Y-20093940D01*
X9552940Y-20093940D02*
X11811000Y-22352000D01*
X11811000Y-22352000D02*
X13208000Y-22352000D01*
X13208000Y-22352000D02*
X13970000Y-21590000D01*
X13970000Y-21590000D02*
X13970000Y-20701000D01*
X13970000Y-20701000D02*
X13030200Y-19761200D01*
X13030200Y-19761200D02*
X13030200Y-19645000D01*
X17399000Y-19518000D02*
X16851000Y-20066000D01*
X16851000Y-20066000D02*
X13451200Y-20066000D01*
X13451200Y-20066000D02*
X13030200Y-19645000D01*
X9143996Y-21590000D02*
X8458933Y-21590000D01*
X8458933Y-21590000D02*
X6680933Y-19812000D01*
X6680933Y-19812000D02*
X4191000Y-19812000D01*
X4191000Y-19812000D02*
X3302000Y-20701000D01*
X3302000Y-20701000D02*
X3302000Y-24765000D01*
X3302000Y-24765000D02*
X3653000Y-25116000D01*
X3653000Y-25116000D02*
X5156200Y-25116000D01*
X18573988Y-37052500D02*
X14033488Y-32512000D01*
X19207000Y-37052500D02*
X18573988Y-37052500D01*
X19207000Y-39052500D02*
X19207000Y-38828510D01*
X19207000Y-38828510D02*
X14033490Y-33655000D01*
X13081000Y-6413500D02*
X11811000Y-7683500D01*
X11811000Y-7683500D02*
X11811000Y-17208500D01*
X11811000Y-17208500D02*
X10668000Y-18351500D01*
X11645877Y-22694877D02*
X11645877Y-31902377D01*
X10668000Y-18351500D02*
X5651500Y-18351500D01*
X5651500Y-18351500D02*
X8001000Y-20701000D01*
X8001000Y-20701000D02*
X9652000Y-20701000D01*
X9652000Y-20701000D02*
X11645877Y-22694877D01*
X11645877Y-31902377D02*
X12065000Y-32321500D01*
X9552940Y-18415000D02*
X7950200Y-18415000D01*
X15305008Y-27052500D02*
X12954008Y-24701500D01*
X19207000Y-27052500D02*
X15305008Y-27052500D01*
X21590000Y-26352500D02*
X21590000Y-25336500D01*
X25527000Y-23431500D02*
X25781000Y-23431500D01*
X21590000Y-25336500D02*
X22352000Y-24574500D01*
X20890000Y-27052500D02*
X21590000Y-26352500D01*
X22352000Y-24574500D02*
X24384000Y-24574500D01*
X24384000Y-24574500D02*
X25527000Y-23431500D01*
X19207000Y-27052500D02*
X20890000Y-27052500D01*
X19207000Y-29052500D02*
X20988000Y-29052500D01*
X20988000Y-29052500D02*
X21717000Y-29781500D01*
X21717000Y-29781500D02*
X21717000Y-31432500D01*
X21717000Y-31432500D02*
X22606000Y-32321500D01*
X22606000Y-32321500D02*
X23241000Y-32321500D01*
X19207000Y-31052500D02*
X18670000Y-31052500D01*
X17907000Y-30289500D02*
X17907000Y-29527500D01*
X18670000Y-31052500D02*
X17907000Y-30289500D01*
X23241000Y-23431500D02*
X32131000Y-14541500D01*
X32131000Y-14541500D02*
X32131000Y-3905000D01*
X32131000Y-3905000D02*
X29631500Y-1405500D01*
X23241000Y-20891500D02*
X23177500Y-20828000D01*
X23177500Y-20828000D02*
X15621000Y-20828000D01*
X15621000Y-20828000D02*
X13462000Y-22987000D01*
X13462000Y-22987000D02*
X12700000Y-22987000D01*
X12700000Y-22987000D02*
X12255499Y-23431501D01*
X12255499Y-23431501D02*
X12255499Y-31241999D01*
X12319000Y-36703000D02*
X6857500Y-36703000D01*
X12255499Y-31241999D02*
X12954000Y-31940500D01*
X12954000Y-31940500D02*
X12954000Y-36068000D01*
X12954000Y-36068000D02*
X12319000Y-36703000D01*
X6857500Y-36703000D02*
X5207000Y-35052500D01*
X5156200Y-33116000D02*
X6096000Y-34055800D01*
X23241000Y-18415000D02*
X23241000Y-18351500D01*
X6096000Y-34055800D02*
X6096000Y-35433000D01*
X19558000Y-2589000D02*
X20741500Y-1405500D01*
X23241000Y-18351500D02*
X19558000Y-14668500D01*
X6096000Y-35433000D02*
X7048500Y-36385500D01*
X19558000Y-14668500D02*
X19558000Y-2589000D01*
X7048500Y-36385500D02*
X12128500Y-36385500D01*
X12522189Y-22656811D02*
X13340804Y-22656811D01*
X11950688Y-23228312D02*
X12522189Y-22656811D01*
X12636501Y-32054067D02*
X11950688Y-31368254D01*
X13340804Y-22656811D02*
X15550615Y-20447000D01*
X12128500Y-36385500D02*
X12636501Y-35877499D01*
X12636501Y-35877499D02*
X12636501Y-32054067D01*
X11950688Y-31368254D02*
X11950688Y-23228312D01*
X15550615Y-20447000D02*
X21209000Y-20447000D01*
X21209000Y-20447000D02*
X23241000Y-18415000D01*
X5156200Y-33116000D02*
X3714000Y-33116000D01*
X3714000Y-33116000D02*
X2921000Y-33909000D01*
X2921000Y-33909000D02*
X2921000Y-38346082D01*
X2921000Y-38346082D02*
X3627418Y-39052500D01*
X3627418Y-39052500D02*
X5207000Y-39052500D01*
X6246067Y-27305000D02*
X6731000Y-27305000D01*
X5397500Y-27305000D02*
X6246067Y-27305000D01*
X5207000Y-27114500D02*
X5397500Y-27305000D01*
X9173478Y-30001484D02*
X7073899Y-27901905D01*
X7073899Y-27647899D02*
X6731000Y-27305000D01*
X9173478Y-34163010D02*
X9173478Y-30001484D01*
X7073899Y-27901905D02*
X7073899Y-27647899D01*
X5621002Y-29052500D02*
X6731002Y-30162500D01*
X5207000Y-29052500D02*
X5621002Y-29052500D01*
X6116500Y-31052500D02*
X6297949Y-31233949D01*
X5207000Y-31052500D02*
X6116500Y-31052500D01*
X6297949Y-31233949D02*
X6640848Y-31576848D01*
X42291000Y-44450000D02*
X42037000Y-44704000D01*
X42037000Y-44704000D02*
X22606000Y-44704000D01*
X22606000Y-44704000D02*
X21844000Y-43942000D01*
X21844000Y-43942000D02*
X21844000Y-36322000D01*
X20638000Y-35116000D02*
X19156200Y-35116000D01*
X21844000Y-36322000D02*
X20638000Y-35116000D01*
X43561000Y-44386500D02*
X42862500Y-45085000D01*
X42862500Y-45085000D02*
X22479000Y-45085000D01*
X22479000Y-45085000D02*
X21463000Y-44069000D01*
X21463000Y-44069000D02*
X21463000Y-36511318D01*
X21463000Y-36511318D02*
X21019682Y-36068000D01*
X21019682Y-36068000D02*
X18596718Y-36068000D01*
X19207000Y-33117000D02*
X19207000Y-33052500D01*
X18596718Y-36068000D02*
X18161000Y-35632282D01*
X18161000Y-34163000D02*
X19207000Y-33117000D01*
X18161000Y-35632282D02*
X18161000Y-34163000D01*
D27*
G36*
X34950873Y-712647D02*
X34747432Y-1202587D01*
X34746969Y-1733086D01*
X34949554Y-2223380D01*
X35324347Y-2598827D01*
X35814287Y-2802268D01*
X36344786Y-2802731D01*
X36835080Y-2600146D01*
X37210527Y-2225353D01*
X37275608Y-2068620D01*
X37339554Y-2223380D01*
X37714347Y-2598827D01*
X38204287Y-2802268D01*
X38734786Y-2802731D01*
X39225080Y-2600146D01*
X39600527Y-2225353D01*
X39803968Y-1735413D01*
X39804431Y-1204914D01*
X39601846Y-714620D01*
X39527356Y-640000D01*
X43913647Y-640000D01*
X43840873Y-712647D01*
X43637432Y-1202587D01*
X43636969Y-1733086D01*
X43839554Y-2223380D01*
X44214347Y-2598827D01*
X44704287Y-2802268D01*
X45234786Y-2802731D01*
X45725080Y-2600146D01*
X45905500Y-2420040D01*
X45905500Y-4984518D01*
X45840537Y-4919555D01*
X45725282Y-5034810D01*
X45663629Y-4799200D01*
X45163220Y-4623073D01*
X44633501Y-4651852D01*
X44277771Y-4799200D01*
X44216117Y-5034812D01*
X44970700Y-5789395D01*
X44984843Y-5775253D01*
X45164448Y-5954858D01*
X45150305Y-5969000D01*
X45164448Y-5983143D01*
X44984843Y-6162748D01*
X44970700Y-6148605D01*
X44216117Y-6903188D01*
X44277771Y-7138800D01*
X44778180Y-7314927D01*
X45307899Y-7286148D01*
X45663629Y-7138800D01*
X45725282Y-6903190D01*
X45840537Y-7018445D01*
X45905500Y-6953482D01*
X45905500Y-47175500D01*
X44853121Y-47175500D01*
X44894726Y-47113234D01*
X45008800Y-46539745D01*
X45008800Y-46170255D01*
X44894726Y-45596766D01*
X44569870Y-45110585D01*
X44360176Y-44970472D01*
X44389540Y-44941159D01*
X44538730Y-44581870D01*
X44539069Y-44192837D01*
X44390507Y-43833288D01*
X44115659Y-43557960D01*
X43756370Y-43408770D01*
X43367337Y-43408431D01*
X43007788Y-43556993D01*
X42894349Y-43670235D01*
X42845659Y-43621460D01*
X42486370Y-43472270D01*
X42097337Y-43471931D01*
X41737788Y-43620493D01*
X41462460Y-43895341D01*
X41421991Y-43992800D01*
X22900589Y-43992800D01*
X22805836Y-43898048D01*
X22911100Y-43941757D01*
X23466861Y-43942242D01*
X23980503Y-43730010D01*
X24373829Y-43337370D01*
X24586957Y-42824100D01*
X24587442Y-42268339D01*
X24375210Y-41754697D01*
X23982570Y-41361371D01*
X23469300Y-41148243D01*
X22913539Y-41147758D01*
X22555200Y-41295820D01*
X22555200Y-36322000D01*
X22501063Y-36049836D01*
X22487629Y-36029730D01*
X22346895Y-35819106D01*
X21753640Y-35225851D01*
X21753640Y-34566000D01*
X21709362Y-34330683D01*
X21570290Y-34114559D01*
X21568901Y-34113610D01*
X21702631Y-33917890D01*
X21753640Y-33666000D01*
X21753640Y-32566000D01*
X21732532Y-32453820D01*
X21793087Y-32514375D01*
X21792958Y-32661661D01*
X22005190Y-33175303D01*
X22397830Y-33568629D01*
X22911100Y-33781757D01*
X23466861Y-33782242D01*
X23980503Y-33570010D01*
X24373829Y-33177370D01*
X24586957Y-32664100D01*
X24587442Y-32108339D01*
X24375210Y-31594697D01*
X24251894Y-31471166D01*
X24289117Y-31464162D01*
X24505241Y-31325090D01*
X24650231Y-31112890D01*
X24658600Y-31071561D01*
X24670530Y-31089415D01*
X25156711Y-31414271D01*
X25730200Y-31528345D01*
X26303689Y-31414271D01*
X26789870Y-31089415D01*
X27000200Y-30774634D01*
X27210530Y-31089415D01*
X27696711Y-31414271D01*
X28270200Y-31528345D01*
X28843689Y-31414271D01*
X29329870Y-31089415D01*
X29540200Y-30774634D01*
X29750530Y-31089415D01*
X30236711Y-31414271D01*
X30810200Y-31528345D01*
X31383689Y-31414271D01*
X31869870Y-31089415D01*
X32080200Y-30774634D01*
X32290530Y-31089415D01*
X32776711Y-31414271D01*
X33350200Y-31528345D01*
X33923689Y-31414271D01*
X34409870Y-31089415D01*
X34620200Y-30774634D01*
X34830530Y-31089415D01*
X35316711Y-31414271D01*
X35890200Y-31528345D01*
X36463689Y-31414271D01*
X36949870Y-31089415D01*
X37160200Y-30774634D01*
X37370530Y-31089415D01*
X37856711Y-31414271D01*
X38430200Y-31528345D01*
X39003689Y-31414271D01*
X39489870Y-31089415D01*
X39700200Y-30774634D01*
X39910530Y-31089415D01*
X40396711Y-31414271D01*
X40970200Y-31528345D01*
X41543689Y-31414271D01*
X42029870Y-31089415D01*
X42236661Y-30779931D01*
X42608164Y-31195732D01*
X43135409Y-31449709D01*
X43151174Y-31452358D01*
X43383200Y-31331217D01*
X43383200Y-29972000D01*
X43637200Y-29972000D01*
X43637200Y-31331217D01*
X43869226Y-31452358D01*
X43884991Y-31449709D01*
X44412236Y-31195732D01*
X44802154Y-30759320D01*
X44995384Y-30206913D01*
X44851124Y-29972000D01*
X43637200Y-29972000D01*
X43383200Y-29972000D01*
X43363200Y-29972000D01*
X43363200Y-29718000D01*
X43383200Y-29718000D01*
X43383200Y-28358783D01*
X43637200Y-28358783D01*
X43637200Y-29718000D01*
X44851124Y-29718000D01*
X44995384Y-29483087D01*
X44802154Y-28930680D01*
X44412236Y-28494268D01*
X43884991Y-28240291D01*
X43869226Y-28237642D01*
X43637200Y-28358783D01*
X43383200Y-28358783D01*
X43151174Y-28237642D01*
X43135409Y-28240291D01*
X42608164Y-28494268D01*
X42236661Y-28910069D01*
X42029870Y-28600585D01*
X41543689Y-28275729D01*
X40970200Y-28161655D01*
X40396711Y-28275729D01*
X39910530Y-28600585D01*
X39700200Y-28915366D01*
X39489870Y-28600585D01*
X39003689Y-28275729D01*
X38430200Y-28161655D01*
X37856711Y-28275729D01*
X37370530Y-28600585D01*
X37160200Y-28915366D01*
X36949870Y-28600585D01*
X36463689Y-28275729D01*
X35890200Y-28161655D01*
X35316711Y-28275729D01*
X34830530Y-28600585D01*
X34620200Y-28915366D01*
X34409870Y-28600585D01*
X33923689Y-28275729D01*
X33350200Y-28161655D01*
X32776711Y-28275729D01*
X32290530Y-28600585D01*
X32080200Y-28915366D01*
X31869870Y-28600585D01*
X31383689Y-28275729D01*
X30810200Y-28161655D01*
X30236711Y-28275729D01*
X29750530Y-28600585D01*
X29540200Y-28915366D01*
X29329870Y-28600585D01*
X28843689Y-28275729D01*
X28270200Y-28161655D01*
X27696711Y-28275729D01*
X27210530Y-28600585D01*
X27000200Y-28915366D01*
X26789870Y-28600585D01*
X26303689Y-28275729D01*
X25730200Y-28161655D01*
X25156711Y-28275729D01*
X24670530Y-28600585D01*
X24660957Y-28614913D01*
X24656962Y-28593683D01*
X24517890Y-28377559D01*
X24305690Y-28232569D01*
X24053800Y-28181560D01*
X22326600Y-28181560D01*
X22091283Y-28225838D01*
X21875159Y-28364910D01*
X21750211Y-28547777D01*
X21709362Y-28330683D01*
X21570290Y-28114559D01*
X21500728Y-28067030D01*
X21602631Y-27917890D01*
X21653640Y-27666000D01*
X21653640Y-27294648D01*
X21924142Y-27024147D01*
X22027610Y-27184941D01*
X22239810Y-27329931D01*
X22491700Y-27380940D01*
X23073152Y-27380940D01*
X23627106Y-27934894D01*
X23857835Y-28089063D01*
X24130000Y-28143200D01*
X42252900Y-28143200D01*
X42525065Y-28089063D01*
X42755794Y-27934894D01*
X43061579Y-27629109D01*
X43510200Y-27718345D01*
X44083689Y-27604271D01*
X44569870Y-27279415D01*
X44894726Y-26793234D01*
X45008800Y-26219745D01*
X45008800Y-25850255D01*
X44894726Y-25276766D01*
X44569870Y-24790585D01*
X44083689Y-24465729D01*
X43510200Y-24351655D01*
X42936711Y-24465729D01*
X42450530Y-24790585D01*
X42240200Y-25105366D01*
X42029870Y-24790585D01*
X41543689Y-24465729D01*
X40970200Y-24351655D01*
X40396711Y-24465729D01*
X39910530Y-24790585D01*
X39700200Y-25105366D01*
X39489870Y-24790585D01*
X39003689Y-24465729D01*
X38430200Y-24351655D01*
X37856711Y-24465729D01*
X37370530Y-24790585D01*
X37160200Y-25105366D01*
X36949870Y-24790585D01*
X36463689Y-24465729D01*
X35890200Y-24351655D01*
X35316711Y-24465729D01*
X34830530Y-24790585D01*
X34620200Y-25105366D01*
X34409870Y-24790585D01*
X33923689Y-24465729D01*
X33350200Y-24351655D01*
X32776711Y-24465729D01*
X32290530Y-24790585D01*
X32080200Y-25105366D01*
X31869870Y-24790585D01*
X31383689Y-24465729D01*
X30810200Y-24351655D01*
X30236711Y-24465729D01*
X29750530Y-24790585D01*
X29540200Y-25105366D01*
X29329870Y-24790585D01*
X28843689Y-24465729D01*
X28270200Y-24351655D01*
X27696711Y-24465729D01*
X27210530Y-24790585D01*
X27200957Y-24804913D01*
X27196962Y-24783683D01*
X27057890Y-24567559D01*
X26845690Y-24422569D01*
X26789743Y-24411239D01*
X26913829Y-24287370D01*
X27126957Y-23774100D01*
X27127442Y-23218339D01*
X26915210Y-22704697D01*
X26522570Y-22311371D01*
X26009300Y-22098243D01*
X25580419Y-22097869D01*
X32633895Y-15044394D01*
X32788063Y-14813664D01*
X32842200Y-14541500D01*
X32842200Y-11107298D01*
X33350200Y-11208345D01*
X33923689Y-11094271D01*
X34409870Y-10769415D01*
X34620200Y-10454634D01*
X34830530Y-10769415D01*
X35316711Y-11094271D01*
X35890200Y-11208345D01*
X36463689Y-11094271D01*
X36949870Y-10769415D01*
X37160200Y-10454634D01*
X37370530Y-10769415D01*
X37856711Y-11094271D01*
X38430200Y-11208345D01*
X39003689Y-11094271D01*
X39489870Y-10769415D01*
X39700200Y-10454634D01*
X39910530Y-10769415D01*
X40396711Y-11094271D01*
X40970200Y-11208345D01*
X41543689Y-11094271D01*
X42029870Y-10769415D01*
X42236661Y-10459931D01*
X42608164Y-10875732D01*
X43135409Y-11129709D01*
X43151174Y-11132358D01*
X43383200Y-11011217D01*
X43383200Y-9652000D01*
X43637200Y-9652000D01*
X43637200Y-11011217D01*
X43869226Y-11132358D01*
X43884991Y-11129709D01*
X44412236Y-10875732D01*
X44802154Y-10439320D01*
X44995384Y-9886913D01*
X44851124Y-9652000D01*
X43637200Y-9652000D01*
X43383200Y-9652000D01*
X43363200Y-9652000D01*
X43363200Y-9398000D01*
X43383200Y-9398000D01*
X43383200Y-8038783D01*
X43637200Y-8038783D01*
X43637200Y-9398000D01*
X44851124Y-9398000D01*
X44995384Y-9163087D01*
X44802154Y-8610680D01*
X44412236Y-8174268D01*
X43884991Y-7920291D01*
X43869226Y-7917642D01*
X43637200Y-8038783D01*
X43383200Y-8038783D01*
X43151174Y-7917642D01*
X43135409Y-7920291D01*
X42608164Y-8174268D01*
X42236661Y-8590069D01*
X42029870Y-8280585D01*
X41543689Y-7955729D01*
X40970200Y-7841655D01*
X40396711Y-7955729D01*
X39910530Y-8280585D01*
X39700200Y-8595366D01*
X39489870Y-8280585D01*
X39003689Y-7955729D01*
X38430200Y-7841655D01*
X37856711Y-7955729D01*
X37370530Y-8280585D01*
X37160200Y-8595366D01*
X36949870Y-8280585D01*
X36463689Y-7955729D01*
X35890200Y-7841655D01*
X35316711Y-7955729D01*
X34830530Y-8280585D01*
X34620200Y-8595366D01*
X34409870Y-8280585D01*
X33923689Y-7955729D01*
X33350200Y-7841655D01*
X32842200Y-7942702D01*
X32842200Y-6903188D01*
X35326117Y-6903188D01*
X35387771Y-7138800D01*
X35888180Y-7314927D01*
X36417899Y-7286148D01*
X36773629Y-7138800D01*
X36835283Y-6903188D01*
X37716117Y-6903188D01*
X37777771Y-7138800D01*
X38278180Y-7314927D01*
X38807899Y-7286148D01*
X39163629Y-7138800D01*
X39225283Y-6903188D01*
X38470700Y-6148605D01*
X37716117Y-6903188D01*
X36835283Y-6903188D01*
X36080700Y-6148605D01*
X35326117Y-6903188D01*
X32842200Y-6903188D01*
X32842200Y-5776480D01*
X34734773Y-5776480D01*
X34763552Y-6306199D01*
X34910900Y-6661929D01*
X35146512Y-6723583D01*
X35901095Y-5969000D01*
X36260305Y-5969000D01*
X37014888Y-6723583D01*
X37250500Y-6661929D01*
X37273653Y-6596148D01*
X37300900Y-6661929D01*
X37536512Y-6723583D01*
X38291095Y-5969000D01*
X38650305Y-5969000D01*
X39404888Y-6723583D01*
X39640500Y-6661929D01*
X39816627Y-6161520D01*
X39795709Y-5776480D01*
X43624773Y-5776480D01*
X43653552Y-6306199D01*
X43800900Y-6661929D01*
X44036512Y-6723583D01*
X44791095Y-5969000D01*
X44036512Y-5214417D01*
X43800900Y-5276071D01*
X43624773Y-5776480D01*
X39795709Y-5776480D01*
X39787848Y-5631801D01*
X39640500Y-5276071D01*
X39404888Y-5214417D01*
X38650305Y-5969000D01*
X38291095Y-5969000D01*
X37536512Y-5214417D01*
X37300900Y-5276071D01*
X37277747Y-5341852D01*
X37250500Y-5276071D01*
X37014888Y-5214417D01*
X36260305Y-5969000D01*
X35901095Y-5969000D01*
X35146512Y-5214417D01*
X34910900Y-5276071D01*
X34734773Y-5776480D01*
X32842200Y-5776480D01*
X32842200Y-5034812D01*
X35326117Y-5034812D01*
X36080700Y-5789395D01*
X36835283Y-5034812D01*
X37716117Y-5034812D01*
X38470700Y-5789395D01*
X39225283Y-5034812D01*
X39163629Y-4799200D01*
X38663220Y-4623073D01*
X38133501Y-4651852D01*
X37777771Y-4799200D01*
X37716117Y-5034812D01*
X36835283Y-5034812D01*
X36773629Y-4799200D01*
X36273220Y-4623073D01*
X35743501Y-4651852D01*
X35387771Y-4799200D01*
X35326117Y-5034812D01*
X32842200Y-5034812D01*
X32842200Y-3905000D01*
X32788063Y-3632836D01*
X32788063Y-3632835D01*
X32633894Y-3402106D01*
X30914014Y-1682226D01*
X30914431Y-1204914D01*
X30711846Y-714620D01*
X30637356Y-640000D01*
X35023647Y-640000D01*
X34950873Y-712647D01*
X34950873Y-712647D01*
G37*
X34950873Y-712647D02*
X34747432Y-1202587D01*
X34746969Y-1733086D01*
X34949554Y-2223380D01*
X35324347Y-2598827D01*
X35814287Y-2802268D01*
X36344786Y-2802731D01*
X36835080Y-2600146D01*
X37210527Y-2225353D01*
X37275608Y-2068620D01*
X37339554Y-2223380D01*
X37714347Y-2598827D01*
X38204287Y-2802268D01*
X38734786Y-2802731D01*
X39225080Y-2600146D01*
X39600527Y-2225353D01*
X39803968Y-1735413D01*
X39804431Y-1204914D01*
X39601846Y-714620D01*
X39527356Y-640000D01*
X43913647Y-640000D01*
X43840873Y-712647D01*
X43637432Y-1202587D01*
X43636969Y-1733086D01*
X43839554Y-2223380D01*
X44214347Y-2598827D01*
X44704287Y-2802268D01*
X45234786Y-2802731D01*
X45725080Y-2600146D01*
X45905500Y-2420040D01*
X45905500Y-4984518D01*
X45840537Y-4919555D01*
X45725282Y-5034810D01*
X45663629Y-4799200D01*
X45163220Y-4623073D01*
X44633501Y-4651852D01*
X44277771Y-4799200D01*
X44216117Y-5034812D01*
X44970700Y-5789395D01*
X44984843Y-5775253D01*
X45164448Y-5954858D01*
X45150305Y-5969000D01*
X45164448Y-5983143D01*
X44984843Y-6162748D01*
X44970700Y-6148605D01*
X44216117Y-6903188D01*
X44277771Y-7138800D01*
X44778180Y-7314927D01*
X45307899Y-7286148D01*
X45663629Y-7138800D01*
X45725282Y-6903190D01*
X45840537Y-7018445D01*
X45905500Y-6953482D01*
X45905500Y-47175500D01*
X44853121Y-47175500D01*
X44894726Y-47113234D01*
X45008800Y-46539745D01*
X45008800Y-46170255D01*
X44894726Y-45596766D01*
X44569870Y-45110585D01*
X44360176Y-44970472D01*
X44389540Y-44941159D01*
X44538730Y-44581870D01*
X44539069Y-44192837D01*
X44390507Y-43833288D01*
X44115659Y-43557960D01*
X43756370Y-43408770D01*
X43367337Y-43408431D01*
X43007788Y-43556993D01*
X42894349Y-43670235D01*
X42845659Y-43621460D01*
X42486370Y-43472270D01*
X42097337Y-43471931D01*
X41737788Y-43620493D01*
X41462460Y-43895341D01*
X41421991Y-43992800D01*
X22900589Y-43992800D01*
X22805836Y-43898048D01*
X22911100Y-43941757D01*
X23466861Y-43942242D01*
X23980503Y-43730010D01*
X24373829Y-43337370D01*
X24586957Y-42824100D01*
X24587442Y-42268339D01*
X24375210Y-41754697D01*
X23982570Y-41361371D01*
X23469300Y-41148243D01*
X22913539Y-41147758D01*
X22555200Y-41295820D01*
X22555200Y-36322000D01*
X22501063Y-36049836D01*
X22487629Y-36029730D01*
X22346895Y-35819106D01*
X21753640Y-35225851D01*
X21753640Y-34566000D01*
X21709362Y-34330683D01*
X21570290Y-34114559D01*
X21568901Y-34113610D01*
X21702631Y-33917890D01*
X21753640Y-33666000D01*
X21753640Y-32566000D01*
X21732532Y-32453820D01*
X21793087Y-32514375D01*
X21792958Y-32661661D01*
X22005190Y-33175303D01*
X22397830Y-33568629D01*
X22911100Y-33781757D01*
X23466861Y-33782242D01*
X23980503Y-33570010D01*
X24373829Y-33177370D01*
X24586957Y-32664100D01*
X24587442Y-32108339D01*
X24375210Y-31594697D01*
X24251894Y-31471166D01*
X24289117Y-31464162D01*
X24505241Y-31325090D01*
X24650231Y-31112890D01*
X24658600Y-31071561D01*
X24670530Y-31089415D01*
X25156711Y-31414271D01*
X25730200Y-31528345D01*
X26303689Y-31414271D01*
X26789870Y-31089415D01*
X27000200Y-30774634D01*
X27210530Y-31089415D01*
X27696711Y-31414271D01*
X28270200Y-31528345D01*
X28843689Y-31414271D01*
X29329870Y-31089415D01*
X29540200Y-30774634D01*
X29750530Y-31089415D01*
X30236711Y-31414271D01*
X30810200Y-31528345D01*
X31383689Y-31414271D01*
X31869870Y-31089415D01*
X32080200Y-30774634D01*
X32290530Y-31089415D01*
X32776711Y-31414271D01*
X33350200Y-31528345D01*
X33923689Y-31414271D01*
X34409870Y-31089415D01*
X34620200Y-30774634D01*
X34830530Y-31089415D01*
X35316711Y-31414271D01*
X35890200Y-31528345D01*
X36463689Y-31414271D01*
X36949870Y-31089415D01*
X37160200Y-30774634D01*
X37370530Y-31089415D01*
X37856711Y-31414271D01*
X38430200Y-31528345D01*
X39003689Y-31414271D01*
X39489870Y-31089415D01*
X39700200Y-30774634D01*
X39910530Y-31089415D01*
X40396711Y-31414271D01*
X40970200Y-31528345D01*
X41543689Y-31414271D01*
X42029870Y-31089415D01*
X42236661Y-30779931D01*
X42608164Y-31195732D01*
X43135409Y-31449709D01*
X43151174Y-31452358D01*
X43383200Y-31331217D01*
X43383200Y-29972000D01*
X43637200Y-29972000D01*
X43637200Y-31331217D01*
X43869226Y-31452358D01*
X43884991Y-31449709D01*
X44412236Y-31195732D01*
X44802154Y-30759320D01*
X44995384Y-30206913D01*
X44851124Y-29972000D01*
X43637200Y-29972000D01*
X43383200Y-29972000D01*
X43363200Y-29972000D01*
X43363200Y-29718000D01*
X43383200Y-29718000D01*
X43383200Y-28358783D01*
X43637200Y-28358783D01*
X43637200Y-29718000D01*
X44851124Y-29718000D01*
X44995384Y-29483087D01*
X44802154Y-28930680D01*
X44412236Y-28494268D01*
X43884991Y-28240291D01*
X43869226Y-28237642D01*
X43637200Y-28358783D01*
X43383200Y-28358783D01*
X43151174Y-28237642D01*
X43135409Y-28240291D01*
X42608164Y-28494268D01*
X42236661Y-28910069D01*
X42029870Y-28600585D01*
X41543689Y-28275729D01*
X40970200Y-28161655D01*
X40396711Y-28275729D01*
X39910530Y-28600585D01*
X39700200Y-28915366D01*
X39489870Y-28600585D01*
X39003689Y-28275729D01*
X38430200Y-28161655D01*
X37856711Y-28275729D01*
X37370530Y-28600585D01*
X37160200Y-28915366D01*
X36949870Y-28600585D01*
X36463689Y-28275729D01*
X35890200Y-28161655D01*
X35316711Y-28275729D01*
X34830530Y-28600585D01*
X34620200Y-28915366D01*
X34409870Y-28600585D01*
X33923689Y-28275729D01*
X33350200Y-28161655D01*
X32776711Y-28275729D01*
X32290530Y-28600585D01*
X32080200Y-28915366D01*
X31869870Y-28600585D01*
X31383689Y-28275729D01*
X30810200Y-28161655D01*
X30236711Y-28275729D01*
X29750530Y-28600585D01*
X29540200Y-28915366D01*
X29329870Y-28600585D01*
X28843689Y-28275729D01*
X28270200Y-28161655D01*
X27696711Y-28275729D01*
X27210530Y-28600585D01*
X27000200Y-28915366D01*
X26789870Y-28600585D01*
X26303689Y-28275729D01*
X25730200Y-28161655D01*
X25156711Y-28275729D01*
X24670530Y-28600585D01*
X24660957Y-28614913D01*
X24656962Y-28593683D01*
X24517890Y-28377559D01*
X24305690Y-28232569D01*
X24053800Y-28181560D01*
X22326600Y-28181560D01*
X22091283Y-28225838D01*
X21875159Y-28364910D01*
X21750211Y-28547777D01*
X21709362Y-28330683D01*
X21570290Y-28114559D01*
X21500728Y-28067030D01*
X21602631Y-27917890D01*
X21653640Y-27666000D01*
X21653640Y-27294648D01*
X21924142Y-27024147D01*
X22027610Y-27184941D01*
X22239810Y-27329931D01*
X22491700Y-27380940D01*
X23073152Y-27380940D01*
X23627106Y-27934894D01*
X23857835Y-28089063D01*
X24130000Y-28143200D01*
X42252900Y-28143200D01*
X42525065Y-28089063D01*
X42755794Y-27934894D01*
X43061579Y-27629109D01*
X43510200Y-27718345D01*
X44083689Y-27604271D01*
X44569870Y-27279415D01*
X44894726Y-26793234D01*
X45008800Y-26219745D01*
X45008800Y-25850255D01*
X44894726Y-25276766D01*
X44569870Y-24790585D01*
X44083689Y-24465729D01*
X43510200Y-24351655D01*
X42936711Y-24465729D01*
X42450530Y-24790585D01*
X42240200Y-25105366D01*
X42029870Y-24790585D01*
X41543689Y-24465729D01*
X40970200Y-24351655D01*
X40396711Y-24465729D01*
X39910530Y-24790585D01*
X39700200Y-25105366D01*
X39489870Y-24790585D01*
X39003689Y-24465729D01*
X38430200Y-24351655D01*
X37856711Y-24465729D01*
X37370530Y-24790585D01*
X37160200Y-25105366D01*
X36949870Y-24790585D01*
X36463689Y-24465729D01*
X35890200Y-24351655D01*
X35316711Y-24465729D01*
X34830530Y-24790585D01*
X34620200Y-25105366D01*
X34409870Y-24790585D01*
X33923689Y-24465729D01*
X33350200Y-24351655D01*
X32776711Y-24465729D01*
X32290530Y-24790585D01*
X32080200Y-25105366D01*
X31869870Y-24790585D01*
X31383689Y-24465729D01*
X30810200Y-24351655D01*
X30236711Y-24465729D01*
X29750530Y-24790585D01*
X29540200Y-25105366D01*
X29329870Y-24790585D01*
X28843689Y-24465729D01*
X28270200Y-24351655D01*
X27696711Y-24465729D01*
X27210530Y-24790585D01*
X27200957Y-24804913D01*
X27196962Y-24783683D01*
X27057890Y-24567559D01*
X26845690Y-24422569D01*
X26789743Y-24411239D01*
X26913829Y-24287370D01*
X27126957Y-23774100D01*
X27127442Y-23218339D01*
X26915210Y-22704697D01*
X26522570Y-22311371D01*
X26009300Y-22098243D01*
X25580419Y-22097869D01*
X32633895Y-15044394D01*
X32788063Y-14813664D01*
X32842200Y-14541500D01*
X32842200Y-11107298D01*
X33350200Y-11208345D01*
X33923689Y-11094271D01*
X34409870Y-10769415D01*
X34620200Y-10454634D01*
X34830530Y-10769415D01*
X35316711Y-11094271D01*
X35890200Y-11208345D01*
X36463689Y-11094271D01*
X36949870Y-10769415D01*
X37160200Y-10454634D01*
X37370530Y-10769415D01*
X37856711Y-11094271D01*
X38430200Y-11208345D01*
X39003689Y-11094271D01*
X39489870Y-10769415D01*
X39700200Y-10454634D01*
X39910530Y-10769415D01*
X40396711Y-11094271D01*
X40970200Y-11208345D01*
X41543689Y-11094271D01*
X42029870Y-10769415D01*
X42236661Y-10459931D01*
X42608164Y-10875732D01*
X43135409Y-11129709D01*
X43151174Y-11132358D01*
X43383200Y-11011217D01*
X43383200Y-9652000D01*
X43637200Y-9652000D01*
X43637200Y-11011217D01*
X43869226Y-11132358D01*
X43884991Y-11129709D01*
X44412236Y-10875732D01*
X44802154Y-10439320D01*
X44995384Y-9886913D01*
X44851124Y-9652000D01*
X43637200Y-9652000D01*
X43383200Y-9652000D01*
X43363200Y-9652000D01*
X43363200Y-9398000D01*
X43383200Y-9398000D01*
X43383200Y-8038783D01*
X43637200Y-8038783D01*
X43637200Y-9398000D01*
X44851124Y-9398000D01*
X44995384Y-9163087D01*
X44802154Y-8610680D01*
X44412236Y-8174268D01*
X43884991Y-7920291D01*
X43869226Y-7917642D01*
X43637200Y-8038783D01*
X43383200Y-8038783D01*
X43151174Y-7917642D01*
X43135409Y-7920291D01*
X42608164Y-8174268D01*
X42236661Y-8590069D01*
X42029870Y-8280585D01*
X41543689Y-7955729D01*
X40970200Y-7841655D01*
X40396711Y-7955729D01*
X39910530Y-8280585D01*
X39700200Y-8595366D01*
X39489870Y-8280585D01*
X39003689Y-7955729D01*
X38430200Y-7841655D01*
X37856711Y-7955729D01*
X37370530Y-8280585D01*
X37160200Y-8595366D01*
X36949870Y-8280585D01*
X36463689Y-7955729D01*
X35890200Y-7841655D01*
X35316711Y-7955729D01*
X34830530Y-8280585D01*
X34620200Y-8595366D01*
X34409870Y-8280585D01*
X33923689Y-7955729D01*
X33350200Y-7841655D01*
X32842200Y-7942702D01*
X32842200Y-6903188D01*
X35326117Y-6903188D01*
X35387771Y-7138800D01*
X35888180Y-7314927D01*
X36417899Y-7286148D01*
X36773629Y-7138800D01*
X36835283Y-6903188D01*
X37716117Y-6903188D01*
X37777771Y-7138800D01*
X38278180Y-7314927D01*
X38807899Y-7286148D01*
X39163629Y-7138800D01*
X39225283Y-6903188D01*
X38470700Y-6148605D01*
X37716117Y-6903188D01*
X36835283Y-6903188D01*
X36080700Y-6148605D01*
X35326117Y-6903188D01*
X32842200Y-6903188D01*
X32842200Y-5776480D01*
X34734773Y-5776480D01*
X34763552Y-6306199D01*
X34910900Y-6661929D01*
X35146512Y-6723583D01*
X35901095Y-5969000D01*
X36260305Y-5969000D01*
X37014888Y-6723583D01*
X37250500Y-6661929D01*
X37273653Y-6596148D01*
X37300900Y-6661929D01*
X37536512Y-6723583D01*
X38291095Y-5969000D01*
X38650305Y-5969000D01*
X39404888Y-6723583D01*
X39640500Y-6661929D01*
X39816627Y-6161520D01*
X39795709Y-5776480D01*
X43624773Y-5776480D01*
X43653552Y-6306199D01*
X43800900Y-6661929D01*
X44036512Y-6723583D01*
X44791095Y-5969000D01*
X44036512Y-5214417D01*
X43800900Y-5276071D01*
X43624773Y-5776480D01*
X39795709Y-5776480D01*
X39787848Y-5631801D01*
X39640500Y-5276071D01*
X39404888Y-5214417D01*
X38650305Y-5969000D01*
X38291095Y-5969000D01*
X37536512Y-5214417D01*
X37300900Y-5276071D01*
X37277747Y-5341852D01*
X37250500Y-5276071D01*
X37014888Y-5214417D01*
X36260305Y-5969000D01*
X35901095Y-5969000D01*
X35146512Y-5214417D01*
X34910900Y-5276071D01*
X34734773Y-5776480D01*
X32842200Y-5776480D01*
X32842200Y-5034812D01*
X35326117Y-5034812D01*
X36080700Y-5789395D01*
X36835283Y-5034812D01*
X37716117Y-5034812D01*
X38470700Y-5789395D01*
X39225283Y-5034812D01*
X39163629Y-4799200D01*
X38663220Y-4623073D01*
X38133501Y-4651852D01*
X37777771Y-4799200D01*
X37716117Y-5034812D01*
X36835283Y-5034812D01*
X36773629Y-4799200D01*
X36273220Y-4623073D01*
X35743501Y-4651852D01*
X35387771Y-4799200D01*
X35326117Y-5034812D01*
X32842200Y-5034812D01*
X32842200Y-3905000D01*
X32788063Y-3632836D01*
X32788063Y-3632835D01*
X32633894Y-3402106D01*
X30914014Y-1682226D01*
X30914431Y-1204914D01*
X30711846Y-714620D01*
X30637356Y-640000D01*
X35023647Y-640000D01*
X34950873Y-712647D01*
G36*
X17345702Y-37973000D02*
X6264976Y-37973000D01*
X6302631Y-37917890D01*
X6340336Y-37731699D01*
X12486434Y-37731699D01*
X12758599Y-37677562D01*
X12989328Y-37523393D01*
X14091894Y-36420827D01*
X14246063Y-36190098D01*
X14300200Y-35917933D01*
X14300200Y-35723794D01*
X14417540Y-35606659D01*
X14566730Y-35247370D01*
X14566776Y-35194074D01*
X17345702Y-37973000D01*
X17345702Y-37973000D01*
G37*
X17345702Y-37973000D02*
X6264976Y-37973000D01*
X6302631Y-37917890D01*
X6340336Y-37731699D01*
X12486434Y-37731699D01*
X12758599Y-37677562D01*
X12989328Y-37523393D01*
X14091894Y-36420827D01*
X14246063Y-36190098D01*
X14300200Y-35917933D01*
X14300200Y-35723794D01*
X14417540Y-35606659D01*
X14566730Y-35247370D01*
X14566776Y-35194074D01*
X17345702Y-37973000D01*
G36*
X7956039Y-22092895D02*
X8186769Y-22247063D01*
X8458933Y-22301200D01*
X8472202Y-22301200D01*
X8589337Y-22418540D01*
X8948626Y-22567730D01*
X9337659Y-22568069D01*
X9697208Y-22419507D01*
X9972536Y-22144659D01*
X10006963Y-22061751D01*
X10934677Y-22989465D01*
X10934677Y-31902377D01*
X10988814Y-32174542D01*
X11087100Y-32321636D01*
X11086931Y-32515163D01*
X11235493Y-32874712D01*
X11510341Y-33150040D01*
X11869630Y-33299230D01*
X11925301Y-33299279D01*
X11925301Y-35582911D01*
X11833912Y-35674300D01*
X7343089Y-35674300D01*
X6807200Y-35138412D01*
X6807200Y-34055800D01*
X6776471Y-33901317D01*
X6753063Y-33783635D01*
X6598894Y-33552906D01*
X6353640Y-33307652D01*
X6353640Y-32566000D01*
X6343525Y-32512243D01*
X6445478Y-32554578D01*
X6834511Y-32554917D01*
X7194060Y-32406355D01*
X7469388Y-32131507D01*
X7618578Y-31772218D01*
X7618917Y-31383185D01*
X7470355Y-31023636D01*
X7361632Y-30914724D01*
X7559542Y-30717159D01*
X7708732Y-30357870D01*
X7709071Y-29968837D01*
X7560509Y-29609288D01*
X7285661Y-29333960D01*
X6926372Y-29184770D01*
X6758914Y-29184624D01*
X6353640Y-28779350D01*
X6353640Y-28566000D01*
X6309362Y-28330683D01*
X6184751Y-28137032D01*
X6471704Y-28256186D01*
X6571005Y-28404799D01*
X8462278Y-30296072D01*
X8462278Y-33491216D01*
X8344938Y-33608351D01*
X8195748Y-33967640D01*
X8195409Y-34356673D01*
X8343971Y-34716222D01*
X8618819Y-34991550D01*
X8978108Y-35140740D01*
X9367141Y-35141079D01*
X9726690Y-34992517D01*
X10002018Y-34717669D01*
X10151208Y-34358380D01*
X10151547Y-33969347D01*
X10002985Y-33609798D01*
X9884678Y-33491284D01*
X9884678Y-30001484D01*
X9830541Y-29729320D01*
X9830541Y-29729319D01*
X9676372Y-29498590D01*
X9322460Y-29144678D01*
X9360662Y-29106543D01*
X9509852Y-28747254D01*
X9510191Y-28358221D01*
X9361629Y-27998672D01*
X9196921Y-27833676D01*
X9189185Y-27794786D01*
X9035016Y-27564057D01*
X6353640Y-24882681D01*
X6353640Y-24566000D01*
X6309362Y-24330683D01*
X6170290Y-24114559D01*
X5958090Y-23969569D01*
X5706200Y-23918560D01*
X4013200Y-23918560D01*
X4013200Y-20995588D01*
X4485588Y-20523200D01*
X6386345Y-20523200D01*
X7956039Y-22092895D01*
X7956039Y-22092895D01*
G37*
X7956039Y-22092895D02*
X8186769Y-22247063D01*
X8458933Y-22301200D01*
X8472202Y-22301200D01*
X8589337Y-22418540D01*
X8948626Y-22567730D01*
X9337659Y-22568069D01*
X9697208Y-22419507D01*
X9972536Y-22144659D01*
X10006963Y-22061751D01*
X10934677Y-22989465D01*
X10934677Y-31902377D01*
X10988814Y-32174542D01*
X11087100Y-32321636D01*
X11086931Y-32515163D01*
X11235493Y-32874712D01*
X11510341Y-33150040D01*
X11869630Y-33299230D01*
X11925301Y-33299279D01*
X11925301Y-35582911D01*
X11833912Y-35674300D01*
X7343089Y-35674300D01*
X6807200Y-35138412D01*
X6807200Y-34055800D01*
X6776471Y-33901317D01*
X6753063Y-33783635D01*
X6598894Y-33552906D01*
X6353640Y-33307652D01*
X6353640Y-32566000D01*
X6343525Y-32512243D01*
X6445478Y-32554578D01*
X6834511Y-32554917D01*
X7194060Y-32406355D01*
X7469388Y-32131507D01*
X7618578Y-31772218D01*
X7618917Y-31383185D01*
X7470355Y-31023636D01*
X7361632Y-30914724D01*
X7559542Y-30717159D01*
X7708732Y-30357870D01*
X7709071Y-29968837D01*
X7560509Y-29609288D01*
X7285661Y-29333960D01*
X6926372Y-29184770D01*
X6758914Y-29184624D01*
X6353640Y-28779350D01*
X6353640Y-28566000D01*
X6309362Y-28330683D01*
X6184751Y-28137032D01*
X6471704Y-28256186D01*
X6571005Y-28404799D01*
X8462278Y-30296072D01*
X8462278Y-33491216D01*
X8344938Y-33608351D01*
X8195748Y-33967640D01*
X8195409Y-34356673D01*
X8343971Y-34716222D01*
X8618819Y-34991550D01*
X8978108Y-35140740D01*
X9367141Y-35141079D01*
X9726690Y-34992517D01*
X10002018Y-34717669D01*
X10151208Y-34358380D01*
X10151547Y-33969347D01*
X10002985Y-33609798D01*
X9884678Y-33491284D01*
X9884678Y-30001484D01*
X9830541Y-29729320D01*
X9830541Y-29729319D01*
X9676372Y-29498590D01*
X9322460Y-29144678D01*
X9360662Y-29106543D01*
X9509852Y-28747254D01*
X9510191Y-28358221D01*
X9361629Y-27998672D01*
X9196921Y-27833676D01*
X9189185Y-27794786D01*
X9035016Y-27564057D01*
X6353640Y-24882681D01*
X6353640Y-24566000D01*
X6309362Y-24330683D01*
X6170290Y-24114559D01*
X5958090Y-23969569D01*
X5706200Y-23918560D01*
X4013200Y-23918560D01*
X4013200Y-20995588D01*
X4485588Y-20523200D01*
X6386345Y-20523200D01*
X7956039Y-22092895D01*
G36*
X14802114Y-27555394D02*
X15032843Y-27709563D01*
X15076994Y-27718345D01*
X15305008Y-27763700D01*
X17877144Y-27763700D01*
X17903038Y-27901317D01*
X18042110Y-28117441D01*
X18111672Y-28164970D01*
X18009769Y-28314110D01*
X17962071Y-28549648D01*
X17713337Y-28549431D01*
X17353788Y-28697993D01*
X17078460Y-28972841D01*
X16929270Y-29332130D01*
X16928931Y-29721163D01*
X17077493Y-30080712D01*
X17195800Y-30199226D01*
X17195800Y-30289500D01*
X17249937Y-30561665D01*
X17404106Y-30792394D01*
X17958760Y-31347048D01*
X17958760Y-31666000D01*
X18003038Y-31901317D01*
X18142110Y-32117441D01*
X18143499Y-32118390D01*
X18009769Y-32314110D01*
X17958760Y-32566000D01*
X17958760Y-33359452D01*
X17658106Y-33660106D01*
X17503937Y-33890835D01*
X17461952Y-34101910D01*
X17449800Y-34163000D01*
X17449800Y-34922523D01*
X15011413Y-32484136D01*
X15011557Y-32318337D01*
X14862995Y-31958788D01*
X14588147Y-31683460D01*
X14228858Y-31534270D01*
X13839825Y-31533931D01*
X13590180Y-31637082D01*
X13456895Y-31437606D01*
X12966699Y-30947411D01*
X12966699Y-25719979D01*
X14802114Y-27555394D01*
X14802114Y-27555394D01*
G37*
X14802114Y-27555394D02*
X15032843Y-27709563D01*
X15076994Y-27718345D01*
X15305008Y-27763700D01*
X17877144Y-27763700D01*
X17903038Y-27901317D01*
X18042110Y-28117441D01*
X18111672Y-28164970D01*
X18009769Y-28314110D01*
X17962071Y-28549648D01*
X17713337Y-28549431D01*
X17353788Y-28697993D01*
X17078460Y-28972841D01*
X16929270Y-29332130D01*
X16928931Y-29721163D01*
X17077493Y-30080712D01*
X17195800Y-30199226D01*
X17195800Y-30289500D01*
X17249937Y-30561665D01*
X17404106Y-30792394D01*
X17958760Y-31347048D01*
X17958760Y-31666000D01*
X18003038Y-31901317D01*
X18142110Y-32117441D01*
X18143499Y-32118390D01*
X18009769Y-32314110D01*
X17958760Y-32566000D01*
X17958760Y-33359452D01*
X17658106Y-33660106D01*
X17503937Y-33890835D01*
X17461952Y-34101910D01*
X17449800Y-34163000D01*
X17449800Y-34922523D01*
X15011413Y-32484136D01*
X15011557Y-32318337D01*
X14862995Y-31958788D01*
X14588147Y-31683460D01*
X14228858Y-31534270D01*
X13839825Y-31533931D01*
X13590180Y-31637082D01*
X13456895Y-31437606D01*
X12966699Y-30947411D01*
X12966699Y-25719979D01*
X14802114Y-27555394D01*
G36*
X22059054Y-21709380D02*
X22433847Y-22084827D01*
X22771646Y-22225094D01*
X22435820Y-22363854D01*
X22060373Y-22738647D01*
X21856932Y-23228587D01*
X21856469Y-23759086D01*
X21956068Y-24000135D01*
X21849106Y-24071605D01*
X21664995Y-24255716D01*
X21644527Y-24206301D01*
X21465898Y-24027673D01*
X21232509Y-23931000D01*
X20141950Y-23931000D01*
X19983200Y-24089750D01*
X19983200Y-24989000D01*
X20003200Y-24989000D01*
X20003200Y-25243000D01*
X19983200Y-25243000D01*
X19983200Y-25263000D01*
X19729200Y-25263000D01*
X19729200Y-25243000D01*
X18129950Y-25243000D01*
X17971200Y-25401750D01*
X17971200Y-25792310D01*
X18067873Y-26025699D01*
X18109110Y-26066936D01*
X18054759Y-26101910D01*
X17909769Y-26314110D01*
X17904263Y-26341300D01*
X15599596Y-26341300D01*
X13931933Y-24673637D01*
X13932077Y-24507837D01*
X13903920Y-24439690D01*
X17971200Y-24439690D01*
X17971200Y-24830250D01*
X18129950Y-24989000D01*
X19729200Y-24989000D01*
X19729200Y-24089750D01*
X19570450Y-23931000D01*
X18479891Y-23931000D01*
X18246502Y-24027673D01*
X18067873Y-24206301D01*
X17971200Y-24439690D01*
X13903920Y-24439690D01*
X13783515Y-24148288D01*
X13508667Y-23872960D01*
X13149378Y-23723770D01*
X12969176Y-23723613D01*
X12994589Y-23698200D01*
X13462000Y-23698200D01*
X13734165Y-23644063D01*
X13964894Y-23489894D01*
X15915588Y-21539200D01*
X21988737Y-21539200D01*
X22059054Y-21709380D01*
X22059054Y-21709380D01*
G37*
X22059054Y-21709380D02*
X22433847Y-22084827D01*
X22771646Y-22225094D01*
X22435820Y-22363854D01*
X22060373Y-22738647D01*
X21856932Y-23228587D01*
X21856469Y-23759086D01*
X21956068Y-24000135D01*
X21849106Y-24071605D01*
X21664995Y-24255716D01*
X21644527Y-24206301D01*
X21465898Y-24027673D01*
X21232509Y-23931000D01*
X20141950Y-23931000D01*
X19983200Y-24089750D01*
X19983200Y-24989000D01*
X20003200Y-24989000D01*
X20003200Y-25243000D01*
X19983200Y-25243000D01*
X19983200Y-25263000D01*
X19729200Y-25263000D01*
X19729200Y-25243000D01*
X18129950Y-25243000D01*
X17971200Y-25401750D01*
X17971200Y-25792310D01*
X18067873Y-26025699D01*
X18109110Y-26066936D01*
X18054759Y-26101910D01*
X17909769Y-26314110D01*
X17904263Y-26341300D01*
X15599596Y-26341300D01*
X13931933Y-24673637D01*
X13932077Y-24507837D01*
X13903920Y-24439690D01*
X17971200Y-24439690D01*
X17971200Y-24830250D01*
X18129950Y-24989000D01*
X19729200Y-24989000D01*
X19729200Y-24089750D01*
X19570450Y-23931000D01*
X18479891Y-23931000D01*
X18246502Y-24027673D01*
X18067873Y-24206301D01*
X17971200Y-24439690D01*
X13903920Y-24439690D01*
X13783515Y-24148288D01*
X13508667Y-23872960D01*
X13149378Y-23723770D01*
X12969176Y-23723613D01*
X12994589Y-23698200D01*
X13462000Y-23698200D01*
X13734165Y-23644063D01*
X13964894Y-23489894D01*
X15915588Y-21539200D01*
X21988737Y-21539200D01*
X22059054Y-21709380D01*
G36*
X5538167Y-705222D02*
X5180275Y-1240845D01*
X5054600Y-1872655D01*
X5054600Y-1937345D01*
X5180275Y-2569155D01*
X5380972Y-2869519D01*
X5329901Y-2890673D01*
X5151273Y-3069302D01*
X5054600Y-3302691D01*
X5054600Y-4159250D01*
X5213350Y-4318000D01*
X6578600Y-4318000D01*
X6578600Y-4298000D01*
X6832600Y-4298000D01*
X6832600Y-4318000D01*
X8197850Y-4318000D01*
X8356600Y-4159250D01*
X8356600Y-3302691D01*
X8259927Y-3069302D01*
X8081299Y-2890673D01*
X8030228Y-2869519D01*
X8230925Y-2569155D01*
X8356600Y-1937345D01*
X8356600Y-1872655D01*
X8230925Y-1240845D01*
X7873033Y-705222D01*
X7775421Y-640000D01*
X9524809Y-640000D01*
X9365659Y-742410D01*
X9220669Y-954610D01*
X9169660Y-1206500D01*
X9169660Y-2603500D01*
X9213938Y-2838817D01*
X9353010Y-3054941D01*
X9565210Y-3199931D01*
X9817100Y-3250940D01*
X11214100Y-3250940D01*
X11449417Y-3206662D01*
X11665541Y-3067590D01*
X11810531Y-2855390D01*
X11861540Y-2603500D01*
X11861540Y-2507116D01*
X11924454Y-2659380D01*
X12299247Y-3034827D01*
X12789187Y-3238268D01*
X13319686Y-3238731D01*
X13809980Y-3036146D01*
X14185427Y-2661353D01*
X14325694Y-2323554D01*
X14464454Y-2659380D01*
X14839247Y-3034827D01*
X15329187Y-3238268D01*
X15859686Y-3238731D01*
X16349980Y-3036146D01*
X16725427Y-2661353D01*
X16928868Y-2171413D01*
X16929331Y-1640914D01*
X16726746Y-1150620D01*
X16351953Y-775173D01*
X16026420Y-640000D01*
X19633647Y-640000D01*
X19560873Y-712647D01*
X19357432Y-1202587D01*
X19356969Y-1733086D01*
X19371926Y-1769285D01*
X19055106Y-2086106D01*
X18900937Y-2316835D01*
X18900937Y-2316836D01*
X18846800Y-2589000D01*
X18846800Y-6985000D01*
X18395950Y-6985000D01*
X18237200Y-7143750D01*
X18237200Y-8509000D01*
X18257200Y-8509000D01*
X18257200Y-8763000D01*
X18237200Y-8763000D01*
X18237200Y-10128250D01*
X18395950Y-10287000D01*
X18846800Y-10287000D01*
X18846800Y-14668500D01*
X18900937Y-14940665D01*
X19055106Y-15171394D01*
X21908385Y-18024674D01*
X21856932Y-18148587D01*
X21856469Y-18679086D01*
X21889993Y-18760219D01*
X20914412Y-19735800D01*
X18696440Y-19735800D01*
X18696440Y-18868000D01*
X18652162Y-18632683D01*
X18513090Y-18416559D01*
X18300890Y-18271569D01*
X18049000Y-18220560D01*
X17886615Y-18220560D01*
X18062729Y-18147611D01*
X18118410Y-17917016D01*
X17399000Y-17197605D01*
X16679590Y-17917016D01*
X16735271Y-18147611D01*
X16944902Y-18220560D01*
X16749000Y-18220560D01*
X16513683Y-18264838D01*
X16297559Y-18403910D01*
X16152569Y-18616110D01*
X16101560Y-18868000D01*
X16101560Y-19354800D01*
X14327640Y-19354800D01*
X14327640Y-18995000D01*
X14283362Y-18759683D01*
X14144290Y-18543559D01*
X13932090Y-18398569D01*
X13680200Y-18347560D01*
X13517815Y-18347560D01*
X13693929Y-18274611D01*
X13749610Y-18044016D01*
X13030200Y-17324605D01*
X12310790Y-18044016D01*
X12366471Y-18274611D01*
X12576102Y-18347560D01*
X12380200Y-18347560D01*
X12144883Y-18391838D01*
X11928759Y-18530910D01*
X11783769Y-18743110D01*
X11732760Y-18995000D01*
X11732760Y-20295000D01*
X11777038Y-20530317D01*
X11916110Y-20746441D01*
X12128310Y-20891431D01*
X12380200Y-20942440D01*
X13205652Y-20942440D01*
X13258800Y-20995588D01*
X13258800Y-21295411D01*
X12913412Y-21640800D01*
X12105588Y-21640800D01*
X11291891Y-20827103D01*
X11400321Y-20668410D01*
X11451330Y-20416520D01*
X11451330Y-19415760D01*
X11407052Y-19180443D01*
X11399422Y-19168586D01*
X11400321Y-19167270D01*
X11451330Y-18915380D01*
X11451330Y-18573958D01*
X12313894Y-17711394D01*
X12373688Y-17621906D01*
X12850595Y-17145000D01*
X13209805Y-17145000D01*
X13929216Y-17864410D01*
X14159811Y-17808729D01*
X14327822Y-17325922D01*
X14299528Y-16837078D01*
X16101378Y-16837078D01*
X16130917Y-17347428D01*
X16269389Y-17681729D01*
X16499984Y-17737410D01*
X17219395Y-17018000D01*
X17578605Y-17018000D01*
X18298016Y-17737410D01*
X18528611Y-17681729D01*
X18696622Y-17198922D01*
X18667083Y-16688572D01*
X18528611Y-16354271D01*
X18298016Y-16298590D01*
X17578605Y-17018000D01*
X17219395Y-17018000D01*
X16499984Y-16298590D01*
X16269389Y-16354271D01*
X16101378Y-16837078D01*
X14299528Y-16837078D01*
X14298283Y-16815572D01*
X14159811Y-16481271D01*
X13929216Y-16425590D01*
X13209805Y-17145000D01*
X12850595Y-17145000D01*
X12836453Y-17130858D01*
X13016058Y-16951252D01*
X13030200Y-16965395D01*
X13749610Y-16245984D01*
X13718944Y-16118984D01*
X16679590Y-16118984D01*
X17399000Y-16838395D01*
X18118410Y-16118984D01*
X18062729Y-15888389D01*
X17579922Y-15720378D01*
X17069572Y-15749917D01*
X16735271Y-15888389D01*
X16679590Y-16118984D01*
X13718944Y-16118984D01*
X13693929Y-16015389D01*
X13211122Y-15847378D01*
X12700772Y-15876917D01*
X12522200Y-15950884D01*
X12522200Y-12341661D01*
X14198358Y-12341661D01*
X14410590Y-12855303D01*
X14803230Y-13248629D01*
X15011112Y-13334949D01*
X14805297Y-13419990D01*
X14411971Y-13812630D01*
X14198843Y-14325900D01*
X14198358Y-14881661D01*
X14410590Y-15395303D01*
X14803230Y-15788629D01*
X15316500Y-16001757D01*
X15872261Y-16002242D01*
X16385903Y-15790010D01*
X16779229Y-15397370D01*
X16992357Y-14884100D01*
X16992842Y-14328339D01*
X16780610Y-13814697D01*
X16387970Y-13421371D01*
X16180088Y-13335051D01*
X16385903Y-13250010D01*
X16779229Y-12857370D01*
X16992357Y-12344100D01*
X16992842Y-11788339D01*
X16780610Y-11274697D01*
X16387970Y-10881371D01*
X15874700Y-10668243D01*
X15318939Y-10667758D01*
X14805297Y-10879990D01*
X14411971Y-11272630D01*
X14198843Y-11785900D01*
X14198358Y-12341661D01*
X12522200Y-12341661D01*
X12522200Y-10218298D01*
X13030200Y-10319345D01*
X13603689Y-10205271D01*
X14089870Y-9880415D01*
X14300200Y-9565634D01*
X14510530Y-9880415D01*
X14996711Y-10205271D01*
X15570200Y-10319345D01*
X16143689Y-10205271D01*
X16629870Y-9880415D01*
X16644700Y-9858220D01*
X16708273Y-10011698D01*
X16886901Y-10190327D01*
X17120290Y-10287000D01*
X17824450Y-10287000D01*
X17983200Y-10128250D01*
X17983200Y-8763000D01*
X17963200Y-8763000D01*
X17963200Y-8509000D01*
X17983200Y-8509000D01*
X17983200Y-7143750D01*
X17824450Y-6985000D01*
X17120290Y-6985000D01*
X16886901Y-7081673D01*
X16708273Y-7260302D01*
X16644700Y-7413780D01*
X16629870Y-7391585D01*
X16143689Y-7066729D01*
X15570200Y-6952655D01*
X14996711Y-7066729D01*
X14510530Y-7391585D01*
X14300200Y-7706366D01*
X14089870Y-7391585D01*
X13727755Y-7149627D01*
X13909540Y-6968159D01*
X14058730Y-6608870D01*
X14059069Y-6219837D01*
X13910507Y-5860288D01*
X13635659Y-5584960D01*
X13276370Y-5435770D01*
X12887337Y-5435431D01*
X12527788Y-5583993D01*
X12252460Y-5858841D01*
X12103270Y-6218130D01*
X12103124Y-6385587D01*
X11308106Y-7180606D01*
X11285269Y-7214784D01*
X11063689Y-7066729D01*
X10490200Y-6952655D01*
X9916711Y-7066729D01*
X9430530Y-7391585D01*
X9220200Y-7706366D01*
X9009870Y-7391585D01*
X8523689Y-7066729D01*
X7950200Y-6952655D01*
X7376711Y-7066729D01*
X6890530Y-7391585D01*
X6680200Y-7706366D01*
X6469870Y-7391585D01*
X5983689Y-7066729D01*
X5410200Y-6952655D01*
X4836711Y-7066729D01*
X4350530Y-7391585D01*
X4025674Y-7877766D01*
X3911600Y-8451255D01*
X3911600Y-8820745D01*
X4025674Y-9394234D01*
X4350530Y-9880415D01*
X4836711Y-10205271D01*
X5410200Y-10319345D01*
X5983689Y-10205271D01*
X6469870Y-9880415D01*
X6680200Y-9565634D01*
X6890530Y-9880415D01*
X7376711Y-10205271D01*
X7950200Y-10319345D01*
X8523689Y-10205271D01*
X9009870Y-9880415D01*
X9220200Y-9565634D01*
X9430530Y-9880415D01*
X9916711Y-10205271D01*
X10490200Y-10319345D01*
X11063689Y-10205271D01*
X11099800Y-10181142D01*
X11099800Y-15848731D01*
X10930200Y-15778480D01*
X9838690Y-15778480D01*
X9679940Y-15937230D01*
X9679940Y-16786860D01*
X9699940Y-16786860D01*
X9699940Y-17040860D01*
X9679940Y-17040860D01*
X9679940Y-17060860D01*
X9425940Y-17060860D01*
X9425940Y-17040860D01*
X9405940Y-17040860D01*
X9405940Y-16786860D01*
X9425940Y-16786860D01*
X9425940Y-15937230D01*
X9267190Y-15778480D01*
X8175680Y-15778480D01*
X7942291Y-15875153D01*
X7763663Y-16053782D01*
X7666990Y-16287171D01*
X7666990Y-16628110D01*
X7825738Y-16786858D01*
X7693728Y-16786858D01*
X7600950Y-16768070D01*
X7596650Y-16768070D01*
X7593437Y-16767047D01*
X7587554Y-16768070D01*
X3600450Y-16768070D01*
X3365133Y-16812348D01*
X3149009Y-16951420D01*
X3004019Y-17163620D01*
X2953010Y-17415510D01*
X2953010Y-17669609D01*
X2743015Y-17355330D01*
X2428234Y-17145000D01*
X2743015Y-16934670D01*
X3067871Y-16448489D01*
X3181945Y-15875000D01*
X3124303Y-15585213D01*
X4634992Y-15585213D01*
X4704457Y-15827397D01*
X5227902Y-16014144D01*
X5782968Y-15986362D01*
X6166743Y-15827397D01*
X6236208Y-15585213D01*
X5435600Y-14784605D01*
X4634992Y-15585213D01*
X3124303Y-15585213D01*
X3067871Y-15301511D01*
X2743015Y-14815330D01*
X2428234Y-14605000D01*
X2739075Y-14397302D01*
X4026456Y-14397302D01*
X4054238Y-14952368D01*
X4213203Y-15336143D01*
X4455387Y-15405608D01*
X5255995Y-14605000D01*
X5615205Y-14605000D01*
X6415813Y-15405608D01*
X6657997Y-15336143D01*
X6844744Y-14812698D01*
X6816962Y-14257632D01*
X6657997Y-13873857D01*
X6415813Y-13804392D01*
X5615205Y-14605000D01*
X5255995Y-14605000D01*
X4455387Y-13804392D01*
X4213203Y-13873857D01*
X4026456Y-14397302D01*
X2739075Y-14397302D01*
X2743015Y-14394670D01*
X3067871Y-13908489D01*
X3181945Y-13335000D01*
X3067871Y-12761511D01*
X2787336Y-12341661D01*
X4038358Y-12341661D01*
X4250590Y-12855303D01*
X4643230Y-13248629D01*
X4835327Y-13328395D01*
X4704457Y-13382603D01*
X4634992Y-13624787D01*
X5435600Y-14425395D01*
X6236208Y-13624787D01*
X6166743Y-13382603D01*
X6026282Y-13332491D01*
X6225903Y-13250010D01*
X6619229Y-12857370D01*
X6832357Y-12344100D01*
X6832842Y-11788339D01*
X6620610Y-11274697D01*
X6227970Y-10881371D01*
X5714700Y-10668243D01*
X5158939Y-10667758D01*
X4645297Y-10879990D01*
X4251971Y-11272630D01*
X4038843Y-11785900D01*
X4038358Y-12341661D01*
X2787336Y-12341661D01*
X2743015Y-12275330D01*
X2428234Y-12065000D01*
X2743015Y-11854670D01*
X3067871Y-11368489D01*
X3181945Y-10795000D01*
X3067871Y-10221511D01*
X2743015Y-9735330D01*
X2728687Y-9725757D01*
X2749917Y-9721762D01*
X2966041Y-9582690D01*
X3111031Y-9370490D01*
X3162040Y-9118600D01*
X3162040Y-7391400D01*
X3117762Y-7156083D01*
X2978690Y-6939959D01*
X2766490Y-6794969D01*
X2514600Y-6743960D01*
X640000Y-6743960D01*
X640000Y-4730750D01*
X5054600Y-4730750D01*
X5054600Y-5587309D01*
X5151273Y-5820698D01*
X5329901Y-5999327D01*
X5563290Y-6096000D01*
X6419850Y-6096000D01*
X6578600Y-5937250D01*
X6578600Y-4572000D01*
X6832600Y-4572000D01*
X6832600Y-5937250D01*
X6991350Y-6096000D01*
X7847910Y-6096000D01*
X8081299Y-5999327D01*
X8259927Y-5820698D01*
X8356600Y-5587309D01*
X8356600Y-4730750D01*
X8197850Y-4572000D01*
X6832600Y-4572000D01*
X6578600Y-4572000D01*
X5213350Y-4572000D01*
X5054600Y-4730750D01*
X640000Y-4730750D01*
X640000Y-640000D01*
X5635779Y-640000D01*
X5538167Y-705222D01*
X5538167Y-705222D01*
G37*
X5538167Y-705222D02*
X5180275Y-1240845D01*
X5054600Y-1872655D01*
X5054600Y-1937345D01*
X5180275Y-2569155D01*
X5380972Y-2869519D01*
X5329901Y-2890673D01*
X5151273Y-3069302D01*
X5054600Y-3302691D01*
X5054600Y-4159250D01*
X5213350Y-4318000D01*
X6578600Y-4318000D01*
X6578600Y-4298000D01*
X6832600Y-4298000D01*
X6832600Y-4318000D01*
X8197850Y-4318000D01*
X8356600Y-4159250D01*
X8356600Y-3302691D01*
X8259927Y-3069302D01*
X8081299Y-2890673D01*
X8030228Y-2869519D01*
X8230925Y-2569155D01*
X8356600Y-1937345D01*
X8356600Y-1872655D01*
X8230925Y-1240845D01*
X7873033Y-705222D01*
X7775421Y-640000D01*
X9524809Y-640000D01*
X9365659Y-742410D01*
X9220669Y-954610D01*
X9169660Y-1206500D01*
X9169660Y-2603500D01*
X9213938Y-2838817D01*
X9353010Y-3054941D01*
X9565210Y-3199931D01*
X9817100Y-3250940D01*
X11214100Y-3250940D01*
X11449417Y-3206662D01*
X11665541Y-3067590D01*
X11810531Y-2855390D01*
X11861540Y-2603500D01*
X11861540Y-2507116D01*
X11924454Y-2659380D01*
X12299247Y-3034827D01*
X12789187Y-3238268D01*
X13319686Y-3238731D01*
X13809980Y-3036146D01*
X14185427Y-2661353D01*
X14325694Y-2323554D01*
X14464454Y-2659380D01*
X14839247Y-3034827D01*
X15329187Y-3238268D01*
X15859686Y-3238731D01*
X16349980Y-3036146D01*
X16725427Y-2661353D01*
X16928868Y-2171413D01*
X16929331Y-1640914D01*
X16726746Y-1150620D01*
X16351953Y-775173D01*
X16026420Y-640000D01*
X19633647Y-640000D01*
X19560873Y-712647D01*
X19357432Y-1202587D01*
X19356969Y-1733086D01*
X19371926Y-1769285D01*
X19055106Y-2086106D01*
X18900937Y-2316835D01*
X18900937Y-2316836D01*
X18846800Y-2589000D01*
X18846800Y-6985000D01*
X18395950Y-6985000D01*
X18237200Y-7143750D01*
X18237200Y-8509000D01*
X18257200Y-8509000D01*
X18257200Y-8763000D01*
X18237200Y-8763000D01*
X18237200Y-10128250D01*
X18395950Y-10287000D01*
X18846800Y-10287000D01*
X18846800Y-14668500D01*
X18900937Y-14940665D01*
X19055106Y-15171394D01*
X21908385Y-18024674D01*
X21856932Y-18148587D01*
X21856469Y-18679086D01*
X21889993Y-18760219D01*
X20914412Y-19735800D01*
X18696440Y-19735800D01*
X18696440Y-18868000D01*
X18652162Y-18632683D01*
X18513090Y-18416559D01*
X18300890Y-18271569D01*
X18049000Y-18220560D01*
X17886615Y-18220560D01*
X18062729Y-18147611D01*
X18118410Y-17917016D01*
X17399000Y-17197605D01*
X16679590Y-17917016D01*
X16735271Y-18147611D01*
X16944902Y-18220560D01*
X16749000Y-18220560D01*
X16513683Y-18264838D01*
X16297559Y-18403910D01*
X16152569Y-18616110D01*
X16101560Y-18868000D01*
X16101560Y-19354800D01*
X14327640Y-19354800D01*
X14327640Y-18995000D01*
X14283362Y-18759683D01*
X14144290Y-18543559D01*
X13932090Y-18398569D01*
X13680200Y-18347560D01*
X13517815Y-18347560D01*
X13693929Y-18274611D01*
X13749610Y-18044016D01*
X13030200Y-17324605D01*
X12310790Y-18044016D01*
X12366471Y-18274611D01*
X12576102Y-18347560D01*
X12380200Y-18347560D01*
X12144883Y-18391838D01*
X11928759Y-18530910D01*
X11783769Y-18743110D01*
X11732760Y-18995000D01*
X11732760Y-20295000D01*
X11777038Y-20530317D01*
X11916110Y-20746441D01*
X12128310Y-20891431D01*
X12380200Y-20942440D01*
X13205652Y-20942440D01*
X13258800Y-20995588D01*
X13258800Y-21295411D01*
X12913412Y-21640800D01*
X12105588Y-21640800D01*
X11291891Y-20827103D01*
X11400321Y-20668410D01*
X11451330Y-20416520D01*
X11451330Y-19415760D01*
X11407052Y-19180443D01*
X11399422Y-19168586D01*
X11400321Y-19167270D01*
X11451330Y-18915380D01*
X11451330Y-18573958D01*
X12313894Y-17711394D01*
X12373688Y-17621906D01*
X12850595Y-17145000D01*
X13209805Y-17145000D01*
X13929216Y-17864410D01*
X14159811Y-17808729D01*
X14327822Y-17325922D01*
X14299528Y-16837078D01*
X16101378Y-16837078D01*
X16130917Y-17347428D01*
X16269389Y-17681729D01*
X16499984Y-17737410D01*
X17219395Y-17018000D01*
X17578605Y-17018000D01*
X18298016Y-17737410D01*
X18528611Y-17681729D01*
X18696622Y-17198922D01*
X18667083Y-16688572D01*
X18528611Y-16354271D01*
X18298016Y-16298590D01*
X17578605Y-17018000D01*
X17219395Y-17018000D01*
X16499984Y-16298590D01*
X16269389Y-16354271D01*
X16101378Y-16837078D01*
X14299528Y-16837078D01*
X14298283Y-16815572D01*
X14159811Y-16481271D01*
X13929216Y-16425590D01*
X13209805Y-17145000D01*
X12850595Y-17145000D01*
X12836453Y-17130858D01*
X13016058Y-16951252D01*
X13030200Y-16965395D01*
X13749610Y-16245984D01*
X13718944Y-16118984D01*
X16679590Y-16118984D01*
X17399000Y-16838395D01*
X18118410Y-16118984D01*
X18062729Y-15888389D01*
X17579922Y-15720378D01*
X17069572Y-15749917D01*
X16735271Y-15888389D01*
X16679590Y-16118984D01*
X13718944Y-16118984D01*
X13693929Y-16015389D01*
X13211122Y-15847378D01*
X12700772Y-15876917D01*
X12522200Y-15950884D01*
X12522200Y-12341661D01*
X14198358Y-12341661D01*
X14410590Y-12855303D01*
X14803230Y-13248629D01*
X15011112Y-13334949D01*
X14805297Y-13419990D01*
X14411971Y-13812630D01*
X14198843Y-14325900D01*
X14198358Y-14881661D01*
X14410590Y-15395303D01*
X14803230Y-15788629D01*
X15316500Y-16001757D01*
X15872261Y-16002242D01*
X16385903Y-15790010D01*
X16779229Y-15397370D01*
X16992357Y-14884100D01*
X16992842Y-14328339D01*
X16780610Y-13814697D01*
X16387970Y-13421371D01*
X16180088Y-13335051D01*
X16385903Y-13250010D01*
X16779229Y-12857370D01*
X16992357Y-12344100D01*
X16992842Y-11788339D01*
X16780610Y-11274697D01*
X16387970Y-10881371D01*
X15874700Y-10668243D01*
X15318939Y-10667758D01*
X14805297Y-10879990D01*
X14411971Y-11272630D01*
X14198843Y-11785900D01*
X14198358Y-12341661D01*
X12522200Y-12341661D01*
X12522200Y-10218298D01*
X13030200Y-10319345D01*
X13603689Y-10205271D01*
X14089870Y-9880415D01*
X14300200Y-9565634D01*
X14510530Y-9880415D01*
X14996711Y-10205271D01*
X15570200Y-10319345D01*
X16143689Y-10205271D01*
X16629870Y-9880415D01*
X16644700Y-9858220D01*
X16708273Y-10011698D01*
X16886901Y-10190327D01*
X17120290Y-10287000D01*
X17824450Y-10287000D01*
X17983200Y-10128250D01*
X17983200Y-8763000D01*
X17963200Y-8763000D01*
X17963200Y-8509000D01*
X17983200Y-8509000D01*
X17983200Y-7143750D01*
X17824450Y-6985000D01*
X17120290Y-6985000D01*
X16886901Y-7081673D01*
X16708273Y-7260302D01*
X16644700Y-7413780D01*
X16629870Y-7391585D01*
X16143689Y-7066729D01*
X15570200Y-6952655D01*
X14996711Y-7066729D01*
X14510530Y-7391585D01*
X14300200Y-7706366D01*
X14089870Y-7391585D01*
X13727755Y-7149627D01*
X13909540Y-6968159D01*
X14058730Y-6608870D01*
X14059069Y-6219837D01*
X13910507Y-5860288D01*
X13635659Y-5584960D01*
X13276370Y-5435770D01*
X12887337Y-5435431D01*
X12527788Y-5583993D01*
X12252460Y-5858841D01*
X12103270Y-6218130D01*
X12103124Y-6385587D01*
X11308106Y-7180606D01*
X11285269Y-7214784D01*
X11063689Y-7066729D01*
X10490200Y-6952655D01*
X9916711Y-7066729D01*
X9430530Y-7391585D01*
X9220200Y-7706366D01*
X9009870Y-7391585D01*
X8523689Y-7066729D01*
X7950200Y-6952655D01*
X7376711Y-7066729D01*
X6890530Y-7391585D01*
X6680200Y-7706366D01*
X6469870Y-7391585D01*
X5983689Y-7066729D01*
X5410200Y-6952655D01*
X4836711Y-7066729D01*
X4350530Y-7391585D01*
X4025674Y-7877766D01*
X3911600Y-8451255D01*
X3911600Y-8820745D01*
X4025674Y-9394234D01*
X4350530Y-9880415D01*
X4836711Y-10205271D01*
X5410200Y-10319345D01*
X5983689Y-10205271D01*
X6469870Y-9880415D01*
X6680200Y-9565634D01*
X6890530Y-9880415D01*
X7376711Y-10205271D01*
X7950200Y-10319345D01*
X8523689Y-10205271D01*
X9009870Y-9880415D01*
X9220200Y-9565634D01*
X9430530Y-9880415D01*
X9916711Y-10205271D01*
X10490200Y-10319345D01*
X11063689Y-10205271D01*
X11099800Y-10181142D01*
X11099800Y-15848731D01*
X10930200Y-15778480D01*
X9838690Y-15778480D01*
X9679940Y-15937230D01*
X9679940Y-16786860D01*
X9699940Y-16786860D01*
X9699940Y-17040860D01*
X9679940Y-17040860D01*
X9679940Y-17060860D01*
X9425940Y-17060860D01*
X9425940Y-17040860D01*
X9405940Y-17040860D01*
X9405940Y-16786860D01*
X9425940Y-16786860D01*
X9425940Y-15937230D01*
X9267190Y-15778480D01*
X8175680Y-15778480D01*
X7942291Y-15875153D01*
X7763663Y-16053782D01*
X7666990Y-16287171D01*
X7666990Y-16628110D01*
X7825738Y-16786858D01*
X7693728Y-16786858D01*
X7600950Y-16768070D01*
X7596650Y-16768070D01*
X7593437Y-16767047D01*
X7587554Y-16768070D01*
X3600450Y-16768070D01*
X3365133Y-16812348D01*
X3149009Y-16951420D01*
X3004019Y-17163620D01*
X2953010Y-17415510D01*
X2953010Y-17669609D01*
X2743015Y-17355330D01*
X2428234Y-17145000D01*
X2743015Y-16934670D01*
X3067871Y-16448489D01*
X3181945Y-15875000D01*
X3124303Y-15585213D01*
X4634992Y-15585213D01*
X4704457Y-15827397D01*
X5227902Y-16014144D01*
X5782968Y-15986362D01*
X6166743Y-15827397D01*
X6236208Y-15585213D01*
X5435600Y-14784605D01*
X4634992Y-15585213D01*
X3124303Y-15585213D01*
X3067871Y-15301511D01*
X2743015Y-14815330D01*
X2428234Y-14605000D01*
X2739075Y-14397302D01*
X4026456Y-14397302D01*
X4054238Y-14952368D01*
X4213203Y-15336143D01*
X4455387Y-15405608D01*
X5255995Y-14605000D01*
X5615205Y-14605000D01*
X6415813Y-15405608D01*
X6657997Y-15336143D01*
X6844744Y-14812698D01*
X6816962Y-14257632D01*
X6657997Y-13873857D01*
X6415813Y-13804392D01*
X5615205Y-14605000D01*
X5255995Y-14605000D01*
X4455387Y-13804392D01*
X4213203Y-13873857D01*
X4026456Y-14397302D01*
X2739075Y-14397302D01*
X2743015Y-14394670D01*
X3067871Y-13908489D01*
X3181945Y-13335000D01*
X3067871Y-12761511D01*
X2787336Y-12341661D01*
X4038358Y-12341661D01*
X4250590Y-12855303D01*
X4643230Y-13248629D01*
X4835327Y-13328395D01*
X4704457Y-13382603D01*
X4634992Y-13624787D01*
X5435600Y-14425395D01*
X6236208Y-13624787D01*
X6166743Y-13382603D01*
X6026282Y-13332491D01*
X6225903Y-13250010D01*
X6619229Y-12857370D01*
X6832357Y-12344100D01*
X6832842Y-11788339D01*
X6620610Y-11274697D01*
X6227970Y-10881371D01*
X5714700Y-10668243D01*
X5158939Y-10667758D01*
X4645297Y-10879990D01*
X4251971Y-11272630D01*
X4038843Y-11785900D01*
X4038358Y-12341661D01*
X2787336Y-12341661D01*
X2743015Y-12275330D01*
X2428234Y-12065000D01*
X2743015Y-11854670D01*
X3067871Y-11368489D01*
X3181945Y-10795000D01*
X3067871Y-10221511D01*
X2743015Y-9735330D01*
X2728687Y-9725757D01*
X2749917Y-9721762D01*
X2966041Y-9582690D01*
X3111031Y-9370490D01*
X3162040Y-9118600D01*
X3162040Y-7391400D01*
X3117762Y-7156083D01*
X2978690Y-6939959D01*
X2766490Y-6794969D01*
X2514600Y-6743960D01*
X640000Y-6743960D01*
X640000Y-4730750D01*
X5054600Y-4730750D01*
X5054600Y-5587309D01*
X5151273Y-5820698D01*
X5329901Y-5999327D01*
X5563290Y-6096000D01*
X6419850Y-6096000D01*
X6578600Y-5937250D01*
X6578600Y-4572000D01*
X6832600Y-4572000D01*
X6832600Y-5937250D01*
X6991350Y-6096000D01*
X7847910Y-6096000D01*
X8081299Y-5999327D01*
X8259927Y-5820698D01*
X8356600Y-5587309D01*
X8356600Y-4730750D01*
X8197850Y-4572000D01*
X6832600Y-4572000D01*
X6578600Y-4572000D01*
X5213350Y-4572000D01*
X5054600Y-4730750D01*
X640000Y-4730750D01*
X640000Y-640000D01*
X5635779Y-640000D01*
X5538167Y-705222D01*
G36*
X26060873Y-712647D02*
X25857432Y-1202587D01*
X25856969Y-1733086D01*
X26059554Y-2223380D01*
X26434347Y-2598827D01*
X26924287Y-2802268D01*
X27454786Y-2802731D01*
X27945080Y-2600146D01*
X28320527Y-2225353D01*
X28385608Y-2068620D01*
X28449554Y-2223380D01*
X28824347Y-2598827D01*
X29314287Y-2802268D01*
X29844786Y-2802731D01*
X29970853Y-2750641D01*
X31419800Y-4199588D01*
X31419800Y-7979858D01*
X31383689Y-7955729D01*
X30810200Y-7841655D01*
X30236711Y-7955729D01*
X29750530Y-8280585D01*
X29540200Y-8595366D01*
X29329870Y-8280585D01*
X28843689Y-7955729D01*
X28270200Y-7841655D01*
X27696711Y-7955729D01*
X27210530Y-8280585D01*
X27000200Y-8595366D01*
X26789870Y-8280585D01*
X26303689Y-7955729D01*
X25730200Y-7841655D01*
X25156711Y-7955729D01*
X24670530Y-8280585D01*
X24660957Y-8294913D01*
X24656962Y-8273683D01*
X24517890Y-8057559D01*
X24305690Y-7912569D01*
X24053800Y-7861560D01*
X22326600Y-7861560D01*
X22091283Y-7905838D01*
X21875159Y-8044910D01*
X21730169Y-8257110D01*
X21679160Y-8509000D01*
X21679160Y-10541000D01*
X21723438Y-10776317D01*
X21862510Y-10992441D01*
X22074710Y-11137431D01*
X22326600Y-11188440D01*
X24053800Y-11188440D01*
X24289117Y-11144162D01*
X24505241Y-11005090D01*
X24650231Y-10792890D01*
X24658600Y-10751561D01*
X24670530Y-10769415D01*
X25156711Y-11094271D01*
X25730200Y-11208345D01*
X26303689Y-11094271D01*
X26789870Y-10769415D01*
X27000200Y-10454634D01*
X27210530Y-10769415D01*
X27696711Y-11094271D01*
X28270200Y-11208345D01*
X28843689Y-11094271D01*
X29329870Y-10769415D01*
X29540200Y-10454634D01*
X29750530Y-10769415D01*
X30236711Y-11094271D01*
X30810200Y-11208345D01*
X31383689Y-11094271D01*
X31419800Y-11070142D01*
X31419800Y-14246911D01*
X24523536Y-21143176D01*
X24523931Y-20690914D01*
X24321346Y-20200620D01*
X23946553Y-19825173D01*
X23608754Y-19684906D01*
X23944580Y-19546146D01*
X24320027Y-19171353D01*
X24523468Y-18681413D01*
X24523931Y-18150914D01*
X24321346Y-17660620D01*
X23946553Y-17285173D01*
X23608754Y-17144906D01*
X23944580Y-17006146D01*
X24320027Y-16631353D01*
X24523468Y-16141413D01*
X24523931Y-15610914D01*
X24321346Y-15120620D01*
X23946553Y-14745173D01*
X23608754Y-14604906D01*
X23944580Y-14466146D01*
X24095776Y-14315213D01*
X24929592Y-14315213D01*
X24999057Y-14557397D01*
X25522502Y-14744144D01*
X26077568Y-14716362D01*
X26461343Y-14557397D01*
X26530808Y-14315213D01*
X25730200Y-13514605D01*
X24929592Y-14315213D01*
X24095776Y-14315213D01*
X24320027Y-14091353D01*
X24419258Y-13852378D01*
X24507803Y-14066143D01*
X24749987Y-14135608D01*
X25550595Y-13335000D01*
X25909805Y-13335000D01*
X26710413Y-14135608D01*
X26952597Y-14066143D01*
X27139344Y-13542698D01*
X27111562Y-12987632D01*
X26952597Y-12603857D01*
X26710413Y-12534392D01*
X25909805Y-13335000D01*
X25550595Y-13335000D01*
X24749987Y-12534392D01*
X24507803Y-12603857D01*
X24425856Y-12833553D01*
X24321346Y-12580620D01*
X24095907Y-12354787D01*
X24929592Y-12354787D01*
X25730200Y-13155395D01*
X26530808Y-12354787D01*
X26461343Y-12112603D01*
X25937898Y-11925856D01*
X25382832Y-11953638D01*
X24999057Y-12112603D01*
X24929592Y-12354787D01*
X24095907Y-12354787D01*
X23946553Y-12205173D01*
X23456613Y-12001732D01*
X22926114Y-12001269D01*
X22435820Y-12203854D01*
X22060373Y-12578647D01*
X21856932Y-13068587D01*
X21856469Y-13599086D01*
X22059054Y-14089380D01*
X22433847Y-14464827D01*
X22771646Y-14605094D01*
X22435820Y-14743854D01*
X22060373Y-15118647D01*
X21856932Y-15608587D01*
X21856624Y-15961336D01*
X20269200Y-14373912D01*
X20269200Y-7234334D01*
X20498180Y-7314927D01*
X21027899Y-7286148D01*
X21383629Y-7138800D01*
X21445283Y-6903188D01*
X26436117Y-6903188D01*
X26497771Y-7138800D01*
X26998180Y-7314927D01*
X27527899Y-7286148D01*
X27883629Y-7138800D01*
X27945283Y-6903188D01*
X28826117Y-6903188D01*
X28887771Y-7138800D01*
X29388180Y-7314927D01*
X29917899Y-7286148D01*
X30273629Y-7138800D01*
X30335283Y-6903188D01*
X29580700Y-6148605D01*
X28826117Y-6903188D01*
X27945283Y-6903188D01*
X27190700Y-6148605D01*
X26436117Y-6903188D01*
X21445283Y-6903188D01*
X20690700Y-6148605D01*
X20676558Y-6162748D01*
X20496953Y-5983143D01*
X20511095Y-5969000D01*
X20870305Y-5969000D01*
X21624888Y-6723583D01*
X21860500Y-6661929D01*
X22036627Y-6161520D01*
X22015709Y-5776480D01*
X25844773Y-5776480D01*
X25873552Y-6306199D01*
X26020900Y-6661929D01*
X26256512Y-6723583D01*
X27011095Y-5969000D01*
X27370305Y-5969000D01*
X28124888Y-6723583D01*
X28360500Y-6661929D01*
X28383653Y-6596148D01*
X28410900Y-6661929D01*
X28646512Y-6723583D01*
X29401095Y-5969000D01*
X29760305Y-5969000D01*
X30514888Y-6723583D01*
X30750500Y-6661929D01*
X30926627Y-6161520D01*
X30897848Y-5631801D01*
X30750500Y-5276071D01*
X30514888Y-5214417D01*
X29760305Y-5969000D01*
X29401095Y-5969000D01*
X28646512Y-5214417D01*
X28410900Y-5276071D01*
X28387747Y-5341852D01*
X28360500Y-5276071D01*
X28124888Y-5214417D01*
X27370305Y-5969000D01*
X27011095Y-5969000D01*
X26256512Y-5214417D01*
X26020900Y-5276071D01*
X25844773Y-5776480D01*
X22015709Y-5776480D01*
X22007848Y-5631801D01*
X21860500Y-5276071D01*
X21624888Y-5214417D01*
X20870305Y-5969000D01*
X20511095Y-5969000D01*
X20496953Y-5954858D01*
X20676558Y-5775253D01*
X20690700Y-5789395D01*
X21445283Y-5034812D01*
X26436117Y-5034812D01*
X27190700Y-5789395D01*
X27945283Y-5034812D01*
X28826117Y-5034812D01*
X29580700Y-5789395D01*
X30335283Y-5034812D01*
X30273629Y-4799200D01*
X29773220Y-4623073D01*
X29243501Y-4651852D01*
X28887771Y-4799200D01*
X28826117Y-5034812D01*
X27945283Y-5034812D01*
X27883629Y-4799200D01*
X27383220Y-4623073D01*
X26853501Y-4651852D01*
X26497771Y-4799200D01*
X26436117Y-5034812D01*
X21445283Y-5034812D01*
X21383629Y-4799200D01*
X20883220Y-4623073D01*
X20353501Y-4651852D01*
X20269200Y-4686771D01*
X20269200Y-2883588D01*
X20372164Y-2780625D01*
X20424287Y-2802268D01*
X20954786Y-2802731D01*
X21445080Y-2600146D01*
X21820527Y-2225353D01*
X22023968Y-1735413D01*
X22024431Y-1204914D01*
X21821846Y-714620D01*
X21747356Y-640000D01*
X26133647Y-640000D01*
X26060873Y-712647D01*
X26060873Y-712647D01*
G37*
X26060873Y-712647D02*
X25857432Y-1202587D01*
X25856969Y-1733086D01*
X26059554Y-2223380D01*
X26434347Y-2598827D01*
X26924287Y-2802268D01*
X27454786Y-2802731D01*
X27945080Y-2600146D01*
X28320527Y-2225353D01*
X28385608Y-2068620D01*
X28449554Y-2223380D01*
X28824347Y-2598827D01*
X29314287Y-2802268D01*
X29844786Y-2802731D01*
X29970853Y-2750641D01*
X31419800Y-4199588D01*
X31419800Y-7979858D01*
X31383689Y-7955729D01*
X30810200Y-7841655D01*
X30236711Y-7955729D01*
X29750530Y-8280585D01*
X29540200Y-8595366D01*
X29329870Y-8280585D01*
X28843689Y-7955729D01*
X28270200Y-7841655D01*
X27696711Y-7955729D01*
X27210530Y-8280585D01*
X27000200Y-8595366D01*
X26789870Y-8280585D01*
X26303689Y-7955729D01*
X25730200Y-7841655D01*
X25156711Y-7955729D01*
X24670530Y-8280585D01*
X24660957Y-8294913D01*
X24656962Y-8273683D01*
X24517890Y-8057559D01*
X24305690Y-7912569D01*
X24053800Y-7861560D01*
X22326600Y-7861560D01*
X22091283Y-7905838D01*
X21875159Y-8044910D01*
X21730169Y-8257110D01*
X21679160Y-8509000D01*
X21679160Y-10541000D01*
X21723438Y-10776317D01*
X21862510Y-10992441D01*
X22074710Y-11137431D01*
X22326600Y-11188440D01*
X24053800Y-11188440D01*
X24289117Y-11144162D01*
X24505241Y-11005090D01*
X24650231Y-10792890D01*
X24658600Y-10751561D01*
X24670530Y-10769415D01*
X25156711Y-11094271D01*
X25730200Y-11208345D01*
X26303689Y-11094271D01*
X26789870Y-10769415D01*
X27000200Y-10454634D01*
X27210530Y-10769415D01*
X27696711Y-11094271D01*
X28270200Y-11208345D01*
X28843689Y-11094271D01*
X29329870Y-10769415D01*
X29540200Y-10454634D01*
X29750530Y-10769415D01*
X30236711Y-11094271D01*
X30810200Y-11208345D01*
X31383689Y-11094271D01*
X31419800Y-11070142D01*
X31419800Y-14246911D01*
X24523536Y-21143176D01*
X24523931Y-20690914D01*
X24321346Y-20200620D01*
X23946553Y-19825173D01*
X23608754Y-19684906D01*
X23944580Y-19546146D01*
X24320027Y-19171353D01*
X24523468Y-18681413D01*
X24523931Y-18150914D01*
X24321346Y-17660620D01*
X23946553Y-17285173D01*
X23608754Y-17144906D01*
X23944580Y-17006146D01*
X24320027Y-16631353D01*
X24523468Y-16141413D01*
X24523931Y-15610914D01*
X24321346Y-15120620D01*
X23946553Y-14745173D01*
X23608754Y-14604906D01*
X23944580Y-14466146D01*
X24095776Y-14315213D01*
X24929592Y-14315213D01*
X24999057Y-14557397D01*
X25522502Y-14744144D01*
X26077568Y-14716362D01*
X26461343Y-14557397D01*
X26530808Y-14315213D01*
X25730200Y-13514605D01*
X24929592Y-14315213D01*
X24095776Y-14315213D01*
X24320027Y-14091353D01*
X24419258Y-13852378D01*
X24507803Y-14066143D01*
X24749987Y-14135608D01*
X25550595Y-13335000D01*
X25909805Y-13335000D01*
X26710413Y-14135608D01*
X26952597Y-14066143D01*
X27139344Y-13542698D01*
X27111562Y-12987632D01*
X26952597Y-12603857D01*
X26710413Y-12534392D01*
X25909805Y-13335000D01*
X25550595Y-13335000D01*
X24749987Y-12534392D01*
X24507803Y-12603857D01*
X24425856Y-12833553D01*
X24321346Y-12580620D01*
X24095907Y-12354787D01*
X24929592Y-12354787D01*
X25730200Y-13155395D01*
X26530808Y-12354787D01*
X26461343Y-12112603D01*
X25937898Y-11925856D01*
X25382832Y-11953638D01*
X24999057Y-12112603D01*
X24929592Y-12354787D01*
X24095907Y-12354787D01*
X23946553Y-12205173D01*
X23456613Y-12001732D01*
X22926114Y-12001269D01*
X22435820Y-12203854D01*
X22060373Y-12578647D01*
X21856932Y-13068587D01*
X21856469Y-13599086D01*
X22059054Y-14089380D01*
X22433847Y-14464827D01*
X22771646Y-14605094D01*
X22435820Y-14743854D01*
X22060373Y-15118647D01*
X21856932Y-15608587D01*
X21856624Y-15961336D01*
X20269200Y-14373912D01*
X20269200Y-7234334D01*
X20498180Y-7314927D01*
X21027899Y-7286148D01*
X21383629Y-7138800D01*
X21445283Y-6903188D01*
X26436117Y-6903188D01*
X26497771Y-7138800D01*
X26998180Y-7314927D01*
X27527899Y-7286148D01*
X27883629Y-7138800D01*
X27945283Y-6903188D01*
X28826117Y-6903188D01*
X28887771Y-7138800D01*
X29388180Y-7314927D01*
X29917899Y-7286148D01*
X30273629Y-7138800D01*
X30335283Y-6903188D01*
X29580700Y-6148605D01*
X28826117Y-6903188D01*
X27945283Y-6903188D01*
X27190700Y-6148605D01*
X26436117Y-6903188D01*
X21445283Y-6903188D01*
X20690700Y-6148605D01*
X20676558Y-6162748D01*
X20496953Y-5983143D01*
X20511095Y-5969000D01*
X20870305Y-5969000D01*
X21624888Y-6723583D01*
X21860500Y-6661929D01*
X22036627Y-6161520D01*
X22015709Y-5776480D01*
X25844773Y-5776480D01*
X25873552Y-6306199D01*
X26020900Y-6661929D01*
X26256512Y-6723583D01*
X27011095Y-5969000D01*
X27370305Y-5969000D01*
X28124888Y-6723583D01*
X28360500Y-6661929D01*
X28383653Y-6596148D01*
X28410900Y-6661929D01*
X28646512Y-6723583D01*
X29401095Y-5969000D01*
X29760305Y-5969000D01*
X30514888Y-6723583D01*
X30750500Y-6661929D01*
X30926627Y-6161520D01*
X30897848Y-5631801D01*
X30750500Y-5276071D01*
X30514888Y-5214417D01*
X29760305Y-5969000D01*
X29401095Y-5969000D01*
X28646512Y-5214417D01*
X28410900Y-5276071D01*
X28387747Y-5341852D01*
X28360500Y-5276071D01*
X28124888Y-5214417D01*
X27370305Y-5969000D01*
X27011095Y-5969000D01*
X26256512Y-5214417D01*
X26020900Y-5276071D01*
X25844773Y-5776480D01*
X22015709Y-5776480D01*
X22007848Y-5631801D01*
X21860500Y-5276071D01*
X21624888Y-5214417D01*
X20870305Y-5969000D01*
X20511095Y-5969000D01*
X20496953Y-5954858D01*
X20676558Y-5775253D01*
X20690700Y-5789395D01*
X21445283Y-5034812D01*
X26436117Y-5034812D01*
X27190700Y-5789395D01*
X27945283Y-5034812D01*
X28826117Y-5034812D01*
X29580700Y-5789395D01*
X30335283Y-5034812D01*
X30273629Y-4799200D01*
X29773220Y-4623073D01*
X29243501Y-4651852D01*
X28887771Y-4799200D01*
X28826117Y-5034812D01*
X27945283Y-5034812D01*
X27883629Y-4799200D01*
X27383220Y-4623073D01*
X26853501Y-4651852D01*
X26497771Y-4799200D01*
X26436117Y-5034812D01*
X21445283Y-5034812D01*
X21383629Y-4799200D01*
X20883220Y-4623073D01*
X20353501Y-4651852D01*
X20269200Y-4686771D01*
X20269200Y-2883588D01*
X20372164Y-2780625D01*
X20424287Y-2802268D01*
X20954786Y-2802731D01*
X21445080Y-2600146D01*
X21820527Y-2225353D01*
X22023968Y-1735413D01*
X22024431Y-1204914D01*
X21821846Y-714620D01*
X21747356Y-640000D01*
X26133647Y-640000D01*
X26060873Y-712647D01*
M02*
