G04 #@! TF.FileFunction,Soldermask,Bot*
%FSLAX46Y46*%
G04 Gerber Fmt 4.6, Leading zero omitted, Abs format (unit mm)*
G04 Created by KiCad (PCBNEW 4.0.2-stable) date Friday, August 05, 2016 'pmt' 08:03:55 pm*
%MOMM*%
G01*
G04 APERTURE LIST*
%ADD10C,0.100000*%
%ADD11R,1.700000X1.700000*%
%ADD12C,1.700000*%
%ADD13R,2.432000X2.127200*%
%ADD14O,2.432000X2.127200*%
%ADD15R,2.127200X2.432000*%
%ADD16O,2.127200X2.432000*%
%ADD17R,2.432000X2.432000*%
%ADD18O,2.432000X2.432000*%
%ADD19C,1.924000*%
%ADD20R,1.797000X1.797000*%
%ADD21C,1.797000*%
%ADD22R,2.901900X1.400760*%
%ADD23R,4.400500X2.398980*%
%ADD24R,2.900000X1.500000*%
G04 APERTURE END LIST*
D10*
D11*
X13081000Y-19581500D03*
D12*
X13081000Y-17081500D03*
D13*
X1549400Y-8191500D03*
D14*
X1549400Y-10731500D03*
X1549400Y-13271500D03*
X1549400Y-15811500D03*
X1549400Y-18351500D03*
X1549400Y-20891500D03*
X1549400Y-23431500D03*
X1549400Y-25971500D03*
D13*
X1549400Y-28511500D03*
D14*
X1549400Y-31051500D03*
X1549400Y-33591500D03*
X1549400Y-36131500D03*
X1549400Y-38671500D03*
X1549400Y-41211500D03*
X1549400Y-43751500D03*
X1549400Y-46291500D03*
D15*
X18161000Y-8572500D03*
D16*
X15621000Y-8572500D03*
X13081000Y-8572500D03*
X10541000Y-8572500D03*
X8001000Y-8572500D03*
X5461000Y-8572500D03*
D17*
X6756400Y-4381500D03*
D18*
X6756400Y-1841500D03*
D15*
X23241000Y-9461500D03*
D16*
X25781000Y-9461500D03*
X28321000Y-9461500D03*
X30861000Y-9461500D03*
X33401000Y-9461500D03*
X35941000Y-9461500D03*
X38481000Y-9461500D03*
X41021000Y-9461500D03*
X43561000Y-9461500D03*
D15*
X25781000Y-25971500D03*
D16*
X28321000Y-25971500D03*
X30861000Y-25971500D03*
X33401000Y-25971500D03*
X35941000Y-25971500D03*
X38481000Y-25971500D03*
X41021000Y-25971500D03*
X43561000Y-25971500D03*
D15*
X23241000Y-29781500D03*
D16*
X25781000Y-29781500D03*
X28321000Y-29781500D03*
X30861000Y-29781500D03*
X33401000Y-29781500D03*
X35941000Y-29781500D03*
X38481000Y-29781500D03*
X41021000Y-29781500D03*
X43561000Y-29781500D03*
D15*
X23241000Y-46291500D03*
D16*
X25781000Y-46291500D03*
X28321000Y-46291500D03*
X30861000Y-46291500D03*
X33401000Y-46291500D03*
X35941000Y-46291500D03*
X38481000Y-46291500D03*
X41021000Y-46291500D03*
X43561000Y-46291500D03*
D19*
X25781000Y-23431500D03*
X25781000Y-13271500D03*
X23241000Y-32321500D03*
X23241000Y-42481500D03*
X5486400Y-12001500D03*
X15646400Y-12001500D03*
X5486400Y-14541500D03*
X15646400Y-14541500D03*
D20*
X23241000Y-25971500D03*
D21*
X23241000Y-23431500D03*
X23241000Y-20891500D03*
X23241000Y-18351500D03*
X23241000Y-15811500D03*
X23241000Y-13271500D03*
D20*
X10566400Y-1841500D03*
D21*
X13106400Y-1841500D03*
X15646400Y-1841500D03*
D22*
X9603740Y-16850360D03*
X9603740Y-18351500D03*
X9603740Y-19852640D03*
D23*
X5651500Y-18351500D03*
D10*
G36*
X8575650Y-19051880D02*
X7426350Y-19552260D01*
X7426350Y-17150740D01*
X8575650Y-17651120D01*
X8575650Y-19051880D01*
X8575650Y-19051880D01*
G37*
D24*
X4507000Y-39052500D03*
X4507000Y-37052500D03*
X4507000Y-35052500D03*
X4507000Y-33052500D03*
X4507000Y-31052500D03*
X4507000Y-29052500D03*
X4507000Y-27052500D03*
X4507000Y-25052500D03*
X19907000Y-25052500D03*
X19807000Y-27052500D03*
X19907000Y-29052500D03*
X19907000Y-31052500D03*
X19907000Y-33052500D03*
X19907000Y-35052500D03*
X19907000Y-37052500D03*
X19907000Y-39052500D03*
D21*
X36131500Y-1405500D03*
X36131500Y-5905500D03*
X29631500Y-1405500D03*
X29631500Y-5905500D03*
X45021500Y-1405500D03*
X45021500Y-5905500D03*
X38521500Y-1405500D03*
X38521500Y-5905500D03*
X27241500Y-1405500D03*
X27241500Y-5905500D03*
X20741500Y-1405500D03*
X20741500Y-5905500D03*
M02*
