G04 #@! TF.FileFunction,Soldermask,Bot*
%FSLAX46Y46*%
G04 Gerber Fmt 4.6, Leading zero omitted, Abs format (unit mm)*
G04 Created by KiCad (PCBNEW 4.0.2-stable) date Friday, August 05, 2016 'pmt' 09:57:19 pm*
%MOMM*%
G01*
G04 APERTURE LIST*
%ADD10C,0.100000*%
%ADD11C,1.924000*%
%ADD12R,2.127200X2.432000*%
%ADD13O,2.127200X2.432000*%
%ADD14R,1.700000X1.700000*%
%ADD15C,1.700000*%
%ADD16R,2.432000X2.127200*%
%ADD17O,2.432000X2.127200*%
%ADD18R,2.432000X2.432000*%
%ADD19O,2.432000X2.432000*%
%ADD20R,1.797000X1.797000*%
%ADD21C,1.797000*%
%ADD22R,2.901900X1.400760*%
%ADD23R,4.400500X2.398980*%
%ADD24R,2.900000X1.500000*%
G04 APERTURE END LIST*
D10*
D11*
X23520400Y-29146500D03*
X33680400Y-29146500D03*
D12*
X36195000Y-23177500D03*
D13*
X33655000Y-23177500D03*
X31115000Y-23177500D03*
X28575000Y-23177500D03*
X26035000Y-23177500D03*
X23495000Y-23177500D03*
D11*
X43815000Y-38036500D03*
X43815000Y-27876500D03*
D14*
X31115000Y-34186500D03*
D15*
X31115000Y-31686500D03*
D16*
X19583400Y-22796500D03*
D17*
X19583400Y-25336500D03*
X19583400Y-27876500D03*
X19583400Y-30416500D03*
X19583400Y-32956500D03*
X19583400Y-35496500D03*
X19583400Y-38036500D03*
X19583400Y-40576500D03*
D16*
X19583400Y-43116500D03*
D17*
X19583400Y-45656500D03*
X19583400Y-48196500D03*
X19583400Y-50736500D03*
X19583400Y-53276500D03*
X19583400Y-55816500D03*
X19583400Y-58356500D03*
X19583400Y-60896500D03*
D18*
X24790400Y-18986500D03*
D19*
X24790400Y-16446500D03*
D12*
X41275000Y-24066500D03*
D13*
X43815000Y-24066500D03*
X46355000Y-24066500D03*
X48895000Y-24066500D03*
X51435000Y-24066500D03*
X53975000Y-24066500D03*
X56515000Y-24066500D03*
X59055000Y-24066500D03*
X61595000Y-24066500D03*
D12*
X43815000Y-40576500D03*
D13*
X46355000Y-40576500D03*
X48895000Y-40576500D03*
X51435000Y-40576500D03*
X53975000Y-40576500D03*
X56515000Y-40576500D03*
X59055000Y-40576500D03*
X61595000Y-40576500D03*
D12*
X41275000Y-44386500D03*
D13*
X43815000Y-44386500D03*
X46355000Y-44386500D03*
X48895000Y-44386500D03*
X51435000Y-44386500D03*
X53975000Y-44386500D03*
X56515000Y-44386500D03*
X59055000Y-44386500D03*
X61595000Y-44386500D03*
D12*
X41275000Y-60896500D03*
D13*
X43815000Y-60896500D03*
X46355000Y-60896500D03*
X48895000Y-60896500D03*
X51435000Y-60896500D03*
X53975000Y-60896500D03*
X56515000Y-60896500D03*
X59055000Y-60896500D03*
X61595000Y-60896500D03*
D11*
X41275000Y-46926500D03*
X41275000Y-57086500D03*
X23520400Y-26606500D03*
X33680400Y-26606500D03*
D20*
X41275000Y-40576500D03*
D21*
X41275000Y-38036500D03*
X41275000Y-35496500D03*
X41275000Y-32956500D03*
X41275000Y-30416500D03*
X41275000Y-27876500D03*
D20*
X28600400Y-16446500D03*
D21*
X31140400Y-16446500D03*
X33680400Y-16446500D03*
D22*
X27637740Y-31455360D03*
X27637740Y-32956500D03*
X27637740Y-34457640D03*
D23*
X23685500Y-32956500D03*
D10*
G36*
X26609650Y-33656880D02*
X25460350Y-34157260D01*
X25460350Y-31755740D01*
X26609650Y-32256120D01*
X26609650Y-33656880D01*
X26609650Y-33656880D01*
G37*
D24*
X22541000Y-53657500D03*
X22541000Y-51657500D03*
X22541000Y-49657500D03*
X22541000Y-47657500D03*
X22541000Y-45657500D03*
X22541000Y-43657500D03*
X22541000Y-41657500D03*
X22541000Y-39657500D03*
X37941000Y-39657500D03*
X37841000Y-41657500D03*
X37941000Y-43657500D03*
X37941000Y-45657500D03*
X37941000Y-47657500D03*
X37941000Y-49657500D03*
X37941000Y-51657500D03*
X37941000Y-53657500D03*
D21*
X54165500Y-16010500D03*
X54165500Y-20510500D03*
X47665500Y-16010500D03*
X47665500Y-20510500D03*
X63055500Y-16010500D03*
X63055500Y-20510500D03*
X56555500Y-16010500D03*
X56555500Y-20510500D03*
X45275500Y-16010500D03*
X45275500Y-20510500D03*
X38775500Y-16010500D03*
X38775500Y-20510500D03*
M02*
