G04 #@! TF.FileFunction,Legend,Top*
%FSLAX46Y46*%
G04 Gerber Fmt 4.6, Leading zero omitted, Abs format (unit mm)*
G04 Created by KiCad (PCBNEW 4.0.2-stable) date Friday, August 05, 2016 'pmt' 08:03:55 pm*
%MOMM*%
G01*
G04 APERTURE LIST*
%ADD10C,0.100000*%
%ADD11C,0.150000*%
%ADD12R,1.797000X1.797000*%
%ADD13R,1.700000X1.700000*%
%ADD14C,1.700000*%
%ADD15R,1.700000X1.100000*%
%ADD16R,2.432000X2.127200*%
%ADD17O,2.432000X2.127200*%
%ADD18R,2.127200X2.432000*%
%ADD19O,2.127200X2.432000*%
%ADD20R,2.432000X2.432000*%
%ADD21O,2.432000X2.432000*%
%ADD22C,1.924000*%
%ADD23C,1.797000*%
%ADD24R,1.900000X1.000000*%
%ADD25R,1.000000X2.400000*%
G04 APERTURE END LIST*
D10*
D11*
X4286238Y-41640881D02*
X4857667Y-41640881D01*
X4571952Y-42640881D02*
X4571952Y-41640881D01*
X5762429Y-42545643D02*
X5714810Y-42593262D01*
X5571953Y-42640881D01*
X5476715Y-42640881D01*
X5333857Y-42593262D01*
X5238619Y-42498024D01*
X5191000Y-42402786D01*
X5143381Y-42212310D01*
X5143381Y-42069452D01*
X5191000Y-41878976D01*
X5238619Y-41783738D01*
X5333857Y-41688500D01*
X5476715Y-41640881D01*
X5571953Y-41640881D01*
X5714810Y-41688500D01*
X5762429Y-41736119D01*
X6048143Y-41640881D02*
X6619572Y-41640881D01*
X6333857Y-42640881D02*
X6333857Y-41640881D01*
X7619572Y-41974214D02*
X7857667Y-42640881D01*
X8095763Y-41974214D01*
X8429096Y-41736119D02*
X8476715Y-41688500D01*
X8571953Y-41640881D01*
X8810049Y-41640881D01*
X8905287Y-41688500D01*
X8952906Y-41736119D01*
X9000525Y-41831357D01*
X9000525Y-41926595D01*
X8952906Y-42069452D01*
X8381477Y-42640881D01*
X9000525Y-42640881D01*
X9429096Y-42545643D02*
X9476715Y-42593262D01*
X9429096Y-42640881D01*
X9381477Y-42593262D01*
X9429096Y-42545643D01*
X9429096Y-42640881D01*
X10095762Y-41640881D02*
X10191001Y-41640881D01*
X10286239Y-41688500D01*
X10333858Y-41736119D01*
X10381477Y-41831357D01*
X10429096Y-42021833D01*
X10429096Y-42259929D01*
X10381477Y-42450405D01*
X10333858Y-42545643D01*
X10286239Y-42593262D01*
X10191001Y-42640881D01*
X10095762Y-42640881D01*
X10000524Y-42593262D01*
X9952905Y-42545643D01*
X9905286Y-42450405D01*
X9857667Y-42259929D01*
X9857667Y-42021833D01*
X9905286Y-41831357D01*
X9952905Y-41736119D01*
X10000524Y-41688500D01*
X10095762Y-41640881D01*
X4333857Y-43190881D02*
X4952905Y-43190881D01*
X4619571Y-43571833D01*
X4762429Y-43571833D01*
X4857667Y-43619452D01*
X4905286Y-43667071D01*
X4952905Y-43762310D01*
X4952905Y-44000405D01*
X4905286Y-44095643D01*
X4857667Y-44143262D01*
X4762429Y-44190881D01*
X4476714Y-44190881D01*
X4381476Y-44143262D01*
X4333857Y-44095643D01*
X5381476Y-44095643D02*
X5429095Y-44143262D01*
X5381476Y-44190881D01*
X5333857Y-44143262D01*
X5381476Y-44095643D01*
X5381476Y-44190881D01*
X5762428Y-43190881D02*
X6381476Y-43190881D01*
X6048142Y-43571833D01*
X6191000Y-43571833D01*
X6286238Y-43619452D01*
X6333857Y-43667071D01*
X6381476Y-43762310D01*
X6381476Y-44000405D01*
X6333857Y-44095643D01*
X6286238Y-44143262D01*
X6191000Y-44190881D01*
X5905285Y-44190881D01*
X5810047Y-44143262D01*
X5762428Y-44095643D01*
X6810047Y-43809929D02*
X7571952Y-43809929D01*
X8476714Y-43190881D02*
X8286237Y-43190881D01*
X8190999Y-43238500D01*
X8143380Y-43286119D01*
X8048142Y-43428976D01*
X8000523Y-43619452D01*
X8000523Y-44000405D01*
X8048142Y-44095643D01*
X8095761Y-44143262D01*
X8190999Y-44190881D01*
X8381476Y-44190881D01*
X8476714Y-44143262D01*
X8524333Y-44095643D01*
X8571952Y-44000405D01*
X8571952Y-43762310D01*
X8524333Y-43667071D01*
X8476714Y-43619452D01*
X8381476Y-43571833D01*
X8190999Y-43571833D01*
X8095761Y-43619452D01*
X8048142Y-43667071D01*
X8000523Y-43762310D01*
X9000523Y-44095643D02*
X9048142Y-44143262D01*
X9000523Y-44190881D01*
X8952904Y-44143262D01*
X9000523Y-44095643D01*
X9000523Y-44190881D01*
X9667189Y-43190881D02*
X9762428Y-43190881D01*
X9857666Y-43238500D01*
X9905285Y-43286119D01*
X9952904Y-43381357D01*
X10000523Y-43571833D01*
X10000523Y-43809929D01*
X9952904Y-44000405D01*
X9905285Y-44095643D01*
X9857666Y-44143262D01*
X9762428Y-44190881D01*
X9667189Y-44190881D01*
X9571951Y-44143262D01*
X9524332Y-44095643D01*
X9476713Y-44000405D01*
X9429094Y-43809929D01*
X9429094Y-43571833D01*
X9476713Y-43381357D01*
X9524332Y-43286119D01*
X9571951Y-43238500D01*
X9667189Y-43190881D01*
X10333856Y-43524214D02*
X10571951Y-44190881D01*
X10810047Y-43524214D01*
X11238618Y-44143262D02*
X11238618Y-44190881D01*
X11190999Y-44286119D01*
X11143380Y-44333738D01*
X12381475Y-43286119D02*
X12429094Y-43238500D01*
X12524332Y-43190881D01*
X12762428Y-43190881D01*
X12857666Y-43238500D01*
X12905285Y-43286119D01*
X12952904Y-43381357D01*
X12952904Y-43476595D01*
X12905285Y-43619452D01*
X12333856Y-44190881D01*
X12952904Y-44190881D01*
X13857666Y-43190881D02*
X13381475Y-43190881D01*
X13333856Y-43667071D01*
X13381475Y-43619452D01*
X13476713Y-43571833D01*
X13714809Y-43571833D01*
X13810047Y-43619452D01*
X13857666Y-43667071D01*
X13905285Y-43762310D01*
X13905285Y-44000405D01*
X13857666Y-44095643D01*
X13810047Y-44143262D01*
X13714809Y-44190881D01*
X13476713Y-44190881D01*
X13381475Y-44143262D01*
X13333856Y-44095643D01*
X14524332Y-43190881D02*
X14619571Y-43190881D01*
X14714809Y-43238500D01*
X14762428Y-43286119D01*
X14810047Y-43381357D01*
X14857666Y-43571833D01*
X14857666Y-43809929D01*
X14810047Y-44000405D01*
X14762428Y-44095643D01*
X14714809Y-44143262D01*
X14619571Y-44190881D01*
X14524332Y-44190881D01*
X14429094Y-44143262D01*
X14381475Y-44095643D01*
X14333856Y-44000405D01*
X14286237Y-43809929D01*
X14286237Y-43571833D01*
X14333856Y-43381357D01*
X14381475Y-43286119D01*
X14429094Y-43238500D01*
X14524332Y-43190881D01*
X15286237Y-44190881D02*
X15286237Y-43524214D01*
X15286237Y-43619452D02*
X15333856Y-43571833D01*
X15429094Y-43524214D01*
X15571952Y-43524214D01*
X15667190Y-43571833D01*
X15714809Y-43667071D01*
X15714809Y-44190881D01*
X15714809Y-43667071D02*
X15762428Y-43571833D01*
X15857666Y-43524214D01*
X16000523Y-43524214D01*
X16095761Y-43571833D01*
X16143380Y-43667071D01*
X16143380Y-44190881D01*
X16571951Y-43905167D02*
X17048142Y-43905167D01*
X16476713Y-44190881D02*
X16810046Y-43190881D01*
X17143380Y-44190881D01*
X4857667Y-45693262D02*
X4762429Y-45740881D01*
X4571952Y-45740881D01*
X4476714Y-45693262D01*
X4429095Y-45645643D01*
X4381476Y-45550405D01*
X4381476Y-45264690D01*
X4429095Y-45169452D01*
X4476714Y-45121833D01*
X4571952Y-45074214D01*
X4762429Y-45074214D01*
X4857667Y-45121833D01*
X5286238Y-45645643D02*
X5333857Y-45693262D01*
X5286238Y-45740881D01*
X5238619Y-45693262D01*
X5286238Y-45645643D01*
X5286238Y-45740881D01*
X6476714Y-44836119D02*
X6524333Y-44788500D01*
X6619571Y-44740881D01*
X6857667Y-44740881D01*
X6952905Y-44788500D01*
X7000524Y-44836119D01*
X7048143Y-44931357D01*
X7048143Y-45026595D01*
X7000524Y-45169452D01*
X6429095Y-45740881D01*
X7048143Y-45740881D01*
X7667190Y-44740881D02*
X7762429Y-44740881D01*
X7857667Y-44788500D01*
X7905286Y-44836119D01*
X7952905Y-44931357D01*
X8000524Y-45121833D01*
X8000524Y-45359929D01*
X7952905Y-45550405D01*
X7905286Y-45645643D01*
X7857667Y-45693262D01*
X7762429Y-45740881D01*
X7667190Y-45740881D01*
X7571952Y-45693262D01*
X7524333Y-45645643D01*
X7476714Y-45550405D01*
X7429095Y-45359929D01*
X7429095Y-45121833D01*
X7476714Y-44931357D01*
X7524333Y-44836119D01*
X7571952Y-44788500D01*
X7667190Y-44740881D01*
X8952905Y-45740881D02*
X8381476Y-45740881D01*
X8667190Y-45740881D02*
X8667190Y-44740881D01*
X8571952Y-44883738D01*
X8476714Y-44978976D01*
X8381476Y-45026595D01*
X9810048Y-44740881D02*
X9619571Y-44740881D01*
X9524333Y-44788500D01*
X9476714Y-44836119D01*
X9381476Y-44978976D01*
X9333857Y-45169452D01*
X9333857Y-45550405D01*
X9381476Y-45645643D01*
X9429095Y-45693262D01*
X9524333Y-45740881D01*
X9714810Y-45740881D01*
X9810048Y-45693262D01*
X9857667Y-45645643D01*
X9905286Y-45550405D01*
X9905286Y-45312310D01*
X9857667Y-45217071D01*
X9810048Y-45169452D01*
X9714810Y-45121833D01*
X9524333Y-45121833D01*
X9429095Y-45169452D01*
X9381476Y-45217071D01*
X9333857Y-45312310D01*
X4286238Y-46290881D02*
X4857667Y-46290881D01*
X4571952Y-47290881D02*
X4571952Y-46290881D01*
X5619572Y-47290881D02*
X5619572Y-46767071D01*
X5571953Y-46671833D01*
X5476715Y-46624214D01*
X5286238Y-46624214D01*
X5191000Y-46671833D01*
X5619572Y-47243262D02*
X5524334Y-47290881D01*
X5286238Y-47290881D01*
X5191000Y-47243262D01*
X5143381Y-47148024D01*
X5143381Y-47052786D01*
X5191000Y-46957548D01*
X5286238Y-46909929D01*
X5524334Y-46909929D01*
X5619572Y-46862310D01*
X6095762Y-46624214D02*
X6095762Y-47290881D01*
X6095762Y-46719452D02*
X6143381Y-46671833D01*
X6238619Y-46624214D01*
X6381477Y-46624214D01*
X6476715Y-46671833D01*
X6524334Y-46767071D01*
X6524334Y-47290881D01*
X7429096Y-46624214D02*
X7429096Y-47433738D01*
X7381477Y-47528976D01*
X7333858Y-47576595D01*
X7238619Y-47624214D01*
X7095762Y-47624214D01*
X7000524Y-47576595D01*
X7429096Y-47243262D02*
X7333858Y-47290881D01*
X7143381Y-47290881D01*
X7048143Y-47243262D01*
X7000524Y-47195643D01*
X6952905Y-47100405D01*
X6952905Y-46814690D01*
X7000524Y-46719452D01*
X7048143Y-46671833D01*
X7143381Y-46624214D01*
X7333858Y-46624214D01*
X7429096Y-46671833D01*
X7905286Y-47290881D02*
X7905286Y-46624214D01*
X7905286Y-46290881D02*
X7857667Y-46338500D01*
X7905286Y-46386119D01*
X7952905Y-46338500D01*
X7905286Y-46290881D01*
X7905286Y-46386119D01*
X8381476Y-47290881D02*
X8381476Y-46290881D01*
X8381476Y-46671833D02*
X8476714Y-46624214D01*
X8667191Y-46624214D01*
X8762429Y-46671833D01*
X8810048Y-46719452D01*
X8857667Y-46814690D01*
X8857667Y-47100405D01*
X8810048Y-47195643D01*
X8762429Y-47243262D01*
X8667191Y-47290881D01*
X8476714Y-47290881D01*
X8381476Y-47243262D01*
X9429095Y-47290881D02*
X9333857Y-47243262D01*
X9286238Y-47148024D01*
X9286238Y-46290881D01*
X10191001Y-47243262D02*
X10095763Y-47290881D01*
X9905286Y-47290881D01*
X9810048Y-47243262D01*
X9762429Y-47148024D01*
X9762429Y-46767071D01*
X9810048Y-46671833D01*
X9905286Y-46624214D01*
X10095763Y-46624214D01*
X10191001Y-46671833D01*
X10238620Y-46767071D01*
X10238620Y-46862310D01*
X9762429Y-46957548D01*
X11429096Y-47290881D02*
X11429096Y-46290881D01*
X11905286Y-46624214D02*
X11905286Y-47290881D01*
X11905286Y-46719452D02*
X11952905Y-46671833D01*
X12048143Y-46624214D01*
X12191001Y-46624214D01*
X12286239Y-46671833D01*
X12333858Y-46767071D01*
X12333858Y-47290881D01*
X12667191Y-46624214D02*
X13048143Y-46624214D01*
X12810048Y-46290881D02*
X12810048Y-47148024D01*
X12857667Y-47243262D01*
X12952905Y-47290881D01*
X13048143Y-47290881D01*
X13762430Y-47243262D02*
X13667192Y-47290881D01*
X13476715Y-47290881D01*
X13381477Y-47243262D01*
X13333858Y-47148024D01*
X13333858Y-46767071D01*
X13381477Y-46671833D01*
X13476715Y-46624214D01*
X13667192Y-46624214D01*
X13762430Y-46671833D01*
X13810049Y-46767071D01*
X13810049Y-46862310D01*
X13333858Y-46957548D01*
X14238620Y-47290881D02*
X14238620Y-46624214D01*
X14238620Y-46814690D02*
X14286239Y-46719452D01*
X14333858Y-46671833D01*
X14429096Y-46624214D01*
X14524335Y-46624214D01*
X15286240Y-47290881D02*
X15286240Y-46767071D01*
X15238621Y-46671833D01*
X15143383Y-46624214D01*
X14952906Y-46624214D01*
X14857668Y-46671833D01*
X15286240Y-47243262D02*
X15191002Y-47290881D01*
X14952906Y-47290881D01*
X14857668Y-47243262D01*
X14810049Y-47148024D01*
X14810049Y-47052786D01*
X14857668Y-46957548D01*
X14952906Y-46909929D01*
X15191002Y-46909929D01*
X15286240Y-46862310D01*
X16191002Y-47243262D02*
X16095764Y-47290881D01*
X15905287Y-47290881D01*
X15810049Y-47243262D01*
X15762430Y-47195643D01*
X15714811Y-47100405D01*
X15714811Y-46814690D01*
X15762430Y-46719452D01*
X15810049Y-46671833D01*
X15905287Y-46624214D01*
X16095764Y-46624214D01*
X16191002Y-46671833D01*
X16476716Y-46624214D02*
X16857668Y-46624214D01*
X16619573Y-46290881D02*
X16619573Y-47148024D01*
X16667192Y-47243262D01*
X16762430Y-47290881D01*
X16857668Y-47290881D01*
X17191002Y-47290881D02*
X17191002Y-46624214D01*
X17191002Y-46290881D02*
X17143383Y-46338500D01*
X17191002Y-46386119D01*
X17238621Y-46338500D01*
X17191002Y-46290881D01*
X17191002Y-46386119D01*
X17810049Y-47290881D02*
X17714811Y-47243262D01*
X17667192Y-47195643D01*
X17619573Y-47100405D01*
X17619573Y-46814690D01*
X17667192Y-46719452D01*
X17714811Y-46671833D01*
X17810049Y-46624214D01*
X17952907Y-46624214D01*
X18048145Y-46671833D01*
X18095764Y-46719452D01*
X18143383Y-46814690D01*
X18143383Y-47100405D01*
X18095764Y-47195643D01*
X18048145Y-47243262D01*
X17952907Y-47290881D01*
X17810049Y-47290881D01*
X18571954Y-46624214D02*
X18571954Y-47290881D01*
X18571954Y-46719452D02*
X18619573Y-46671833D01*
X18714811Y-46624214D01*
X18857669Y-46624214D01*
X18952907Y-46671833D01*
X19000526Y-46767071D01*
X19000526Y-47290881D01*
X9296400Y-5651500D02*
X9296400Y-3111500D01*
X9296400Y-3111500D02*
X16916400Y-3111500D01*
X16916400Y-3111500D02*
X16916400Y-5651500D01*
X16916400Y-5651500D02*
X9296400Y-5651500D01*
X11836400Y-3111500D02*
X11836400Y-5651500D01*
X11831000Y-19831500D02*
X11831000Y-16831500D01*
X14331000Y-16831500D02*
X14331000Y-19831500D01*
X14569000Y-34501500D02*
X14569000Y-35401500D01*
X14569000Y-38101500D02*
X19469000Y-38101500D01*
X19469000Y-34501500D02*
X14569000Y-34501500D01*
X279400Y-9461500D02*
X279400Y-27241500D01*
X279400Y-27241500D02*
X2819400Y-27241500D01*
X2819400Y-27241500D02*
X2819400Y-9461500D01*
X-600Y-6641500D02*
X-600Y-8191500D01*
X279400Y-9461500D02*
X2819400Y-9461500D01*
X3099400Y-8191500D02*
X3099400Y-6641500D01*
X3099400Y-6641500D02*
X-600Y-6641500D01*
X279400Y-29781500D02*
X279400Y-47561500D01*
X279400Y-47561500D02*
X2819400Y-47561500D01*
X2819400Y-47561500D02*
X2819400Y-29781500D01*
X-600Y-26961500D02*
X-600Y-28511500D01*
X279400Y-29781500D02*
X2819400Y-29781500D01*
X3099400Y-28511500D02*
X3099400Y-26961500D01*
X3099400Y-26961500D02*
X-600Y-26961500D01*
X16891000Y-9842500D02*
X4191000Y-9842500D01*
X4191000Y-9842500D02*
X4191000Y-7302500D01*
X4191000Y-7302500D02*
X16891000Y-7302500D01*
X19711000Y-10122500D02*
X18161000Y-10122500D01*
X16891000Y-9842500D02*
X16891000Y-7302500D01*
X18161000Y-7022500D02*
X19711000Y-7022500D01*
X19711000Y-7022500D02*
X19711000Y-10122500D01*
X8306400Y-5931500D02*
X8306400Y-4381500D01*
X8026400Y-571500D02*
X8026400Y-3111500D01*
X8026400Y-3111500D02*
X5486400Y-3111500D01*
X5206400Y-4381500D02*
X5206400Y-5931500D01*
X5206400Y-5931500D02*
X8306400Y-5931500D01*
X5486400Y-3111500D02*
X5486400Y-571500D01*
X5486400Y-571500D02*
X8026400Y-571500D01*
X24511000Y-10731500D02*
X44831000Y-10731500D01*
X44831000Y-10731500D02*
X44831000Y-8191500D01*
X44831000Y-8191500D02*
X24511000Y-8191500D01*
X21691000Y-11011500D02*
X23241000Y-11011500D01*
X24511000Y-10731500D02*
X24511000Y-8191500D01*
X23241000Y-7911500D02*
X21691000Y-7911500D01*
X21691000Y-7911500D02*
X21691000Y-11011500D01*
X27051000Y-27241500D02*
X44831000Y-27241500D01*
X44831000Y-27241500D02*
X44831000Y-24701500D01*
X44831000Y-24701500D02*
X27051000Y-24701500D01*
X24231000Y-27521500D02*
X25781000Y-27521500D01*
X27051000Y-27241500D02*
X27051000Y-24701500D01*
X25781000Y-24421500D02*
X24231000Y-24421500D01*
X24231000Y-24421500D02*
X24231000Y-27521500D01*
X24511000Y-31051500D02*
X44831000Y-31051500D01*
X44831000Y-31051500D02*
X44831000Y-28511500D01*
X44831000Y-28511500D02*
X24511000Y-28511500D01*
X21691000Y-31331500D02*
X23241000Y-31331500D01*
X24511000Y-31051500D02*
X24511000Y-28511500D01*
X23241000Y-28231500D02*
X21691000Y-28231500D01*
X21691000Y-28231500D02*
X21691000Y-31331500D01*
X24511000Y-47561500D02*
X44831000Y-47561500D01*
X44831000Y-47561500D02*
X44831000Y-45021500D01*
X44831000Y-45021500D02*
X24511000Y-45021500D01*
X21691000Y-47841500D02*
X23241000Y-47841500D01*
X24511000Y-47561500D02*
X24511000Y-45021500D01*
X23241000Y-44741500D02*
X21691000Y-44741500D01*
X21691000Y-44741500D02*
X21691000Y-47841500D01*
X25781000Y-23431500D02*
X25781000Y-22415500D01*
X25781000Y-22415500D02*
X24765000Y-22415500D01*
X24765000Y-22415500D02*
X24765000Y-14287500D01*
X24765000Y-14287500D02*
X26797000Y-14287500D01*
X26797000Y-14287500D02*
X26797000Y-22415500D01*
X26797000Y-22415500D02*
X25781000Y-22415500D01*
X25273000Y-22415500D02*
X24765000Y-21907500D01*
X25781000Y-13271500D02*
X25781000Y-14287500D01*
X23241000Y-32321500D02*
X23241000Y-33337500D01*
X23241000Y-33337500D02*
X24257000Y-33337500D01*
X24257000Y-33337500D02*
X24257000Y-41465500D01*
X24257000Y-41465500D02*
X22225000Y-41465500D01*
X22225000Y-41465500D02*
X22225000Y-33337500D01*
X22225000Y-33337500D02*
X23241000Y-33337500D01*
X23749000Y-33337500D02*
X24257000Y-33845500D01*
X23241000Y-42481500D02*
X23241000Y-41465500D01*
X5486400Y-12001500D02*
X6502400Y-12001500D01*
X6502400Y-12001500D02*
X6502400Y-10985500D01*
X6502400Y-10985500D02*
X14630400Y-10985500D01*
X14630400Y-10985500D02*
X14630400Y-13017500D01*
X14630400Y-13017500D02*
X6502400Y-13017500D01*
X6502400Y-13017500D02*
X6502400Y-12001500D01*
X6502400Y-11493500D02*
X7010400Y-10985500D01*
X15646400Y-12001500D02*
X14630400Y-12001500D01*
X5486400Y-14541500D02*
X6502400Y-14541500D01*
X6502400Y-14541500D02*
X6502400Y-13525500D01*
X6502400Y-13525500D02*
X14630400Y-13525500D01*
X14630400Y-13525500D02*
X14630400Y-15557500D01*
X14630400Y-15557500D02*
X6502400Y-15557500D01*
X6502400Y-15557500D02*
X6502400Y-14541500D01*
X6502400Y-14033500D02*
X7010400Y-13525500D01*
X15646400Y-14541500D02*
X14630400Y-14541500D01*
X21971000Y-12001500D02*
X24511000Y-12001500D01*
X24511000Y-12001500D02*
X24511000Y-27241500D01*
X24511000Y-27241500D02*
X21971000Y-27241500D01*
X21971000Y-12001500D02*
X21971000Y-27241500D01*
X21971000Y-24701500D02*
X24511000Y-24701500D01*
X9296400Y-3111500D02*
X9296400Y-571500D01*
X9296400Y-571500D02*
X16916400Y-571500D01*
X16916400Y-571500D02*
X16916400Y-3111500D01*
X16916400Y-3111500D02*
X9296400Y-3111500D01*
X11836400Y-571500D02*
X11836400Y-3111500D01*
X5791400Y-16451500D02*
X5791400Y-16556500D01*
X9941400Y-16451500D02*
X9941400Y-16556500D01*
X9941400Y-26601500D02*
X9941400Y-26496500D01*
X5791400Y-26601500D02*
X5791400Y-26496500D01*
X5791400Y-16451500D02*
X9941400Y-16451500D01*
X5791400Y-26601500D02*
X9941400Y-26601500D01*
X5791400Y-16556500D02*
X4416400Y-16556500D01*
X5824400Y-27881500D02*
X5824400Y-27986500D01*
X9974400Y-27881500D02*
X9974400Y-27986500D01*
X9974400Y-38031500D02*
X9974400Y-37926500D01*
X5824400Y-38031500D02*
X5824400Y-37926500D01*
X5824400Y-27881500D02*
X9974400Y-27881500D01*
X5824400Y-38031500D02*
X9974400Y-38031500D01*
X5824400Y-27986500D02*
X4449400Y-27986500D01*
X27451000Y-21591500D02*
X27796000Y-21591500D01*
X27451000Y-13841500D02*
X27796000Y-13841500D01*
X45701000Y-13841500D02*
X45356000Y-13841500D01*
X45701000Y-21591500D02*
X45356000Y-21591500D01*
X27451000Y-21591500D02*
X27451000Y-13841500D01*
X45701000Y-21591500D02*
X45701000Y-13841500D01*
X27796000Y-21591500D02*
X27796000Y-23416500D01*
X27451000Y-41911500D02*
X27796000Y-41911500D01*
X27451000Y-34161500D02*
X27796000Y-34161500D01*
X45701000Y-34161500D02*
X45356000Y-34161500D01*
X45701000Y-41911500D02*
X45356000Y-41911500D01*
X27451000Y-41911500D02*
X27451000Y-34161500D01*
X45701000Y-41911500D02*
X45701000Y-34161500D01*
X27796000Y-41911500D02*
X27796000Y-43736500D01*
X34881500Y-3655500D02*
G75*
G03X34881500Y-3655500I-2000000J0D01*
G01*
X30881500Y-655500D02*
X34881500Y-655500D01*
X35881500Y-2655500D02*
X35881500Y-4655500D01*
X34881500Y-6655500D02*
X30881500Y-6655500D01*
X29881500Y-2655500D02*
X29881500Y-4655500D01*
X43771500Y-3655500D02*
G75*
G03X43771500Y-3655500I-2000000J0D01*
G01*
X39771500Y-655500D02*
X43771500Y-655500D01*
X44771500Y-2655500D02*
X44771500Y-4655500D01*
X43771500Y-6655500D02*
X39771500Y-6655500D01*
X38771500Y-2655500D02*
X38771500Y-4655500D01*
X25991500Y-3655500D02*
G75*
G03X25991500Y-3655500I-2000000J0D01*
G01*
X21991500Y-655500D02*
X25991500Y-655500D01*
X26991500Y-2655500D02*
X26991500Y-4655500D01*
X25991500Y-6655500D02*
X21991500Y-6655500D01*
X20991500Y-2655500D02*
X20991500Y-4655500D01*
X9890524Y-6469071D02*
X10033381Y-6516690D01*
X10081000Y-6564310D01*
X10128619Y-6659548D01*
X10128619Y-6802405D01*
X10081000Y-6897643D01*
X10033381Y-6945262D01*
X9938143Y-6992881D01*
X9557190Y-6992881D01*
X9557190Y-5992881D01*
X9890524Y-5992881D01*
X9985762Y-6040500D01*
X10033381Y-6088119D01*
X10081000Y-6183357D01*
X10081000Y-6278595D01*
X10033381Y-6373833D01*
X9985762Y-6421452D01*
X9890524Y-6469071D01*
X9557190Y-6469071D01*
X10509571Y-6707167D02*
X10985762Y-6707167D01*
X10414333Y-6992881D02*
X10747666Y-5992881D01*
X11081000Y-6992881D01*
X11271476Y-5992881D02*
X11842905Y-5992881D01*
X11557190Y-6992881D02*
X11557190Y-5992881D01*
X12033381Y-5992881D02*
X12604810Y-5992881D01*
X12319095Y-6992881D02*
X12319095Y-5992881D01*
X13652429Y-5945262D02*
X12795286Y-7230976D01*
X14319096Y-6469071D02*
X13985762Y-6469071D01*
X13985762Y-6992881D02*
X13985762Y-5992881D01*
X14461953Y-5992881D01*
X14700048Y-5992881D02*
X15271477Y-5992881D01*
X14985762Y-6992881D02*
X14985762Y-5992881D01*
X15604810Y-6992881D02*
X15604810Y-5992881D01*
X15842905Y-5992881D01*
X15985763Y-6040500D01*
X16081001Y-6135738D01*
X16128620Y-6230976D01*
X16176239Y-6421452D01*
X16176239Y-6564310D01*
X16128620Y-6754786D01*
X16081001Y-6850024D01*
X15985763Y-6945262D01*
X15842905Y-6992881D01*
X15604810Y-6992881D01*
X16604810Y-6992881D02*
X16604810Y-5992881D01*
X15327334Y-17438643D02*
X15279715Y-17486262D01*
X15136858Y-17533881D01*
X15041620Y-17533881D01*
X14898762Y-17486262D01*
X14803524Y-17391024D01*
X14755905Y-17295786D01*
X14708286Y-17105310D01*
X14708286Y-16962452D01*
X14755905Y-16771976D01*
X14803524Y-16676738D01*
X14898762Y-16581500D01*
X15041620Y-16533881D01*
X15136858Y-16533881D01*
X15279715Y-16581500D01*
X15327334Y-16629119D01*
X16279715Y-17533881D02*
X15708286Y-17533881D01*
X15994000Y-17533881D02*
X15994000Y-16533881D01*
X15898762Y-16676738D01*
X15803524Y-16771976D01*
X15708286Y-16819595D01*
X14756048Y-17962619D02*
X14803667Y-17915000D01*
X14898905Y-17867381D01*
X15137001Y-17867381D01*
X15232239Y-17915000D01*
X15279858Y-17962619D01*
X15327477Y-18057857D01*
X15327477Y-18153095D01*
X15279858Y-18295952D01*
X14708429Y-18867381D01*
X15327477Y-18867381D01*
X15756048Y-18772143D02*
X15803667Y-18819762D01*
X15756048Y-18867381D01*
X15708429Y-18819762D01*
X15756048Y-18772143D01*
X15756048Y-18867381D01*
X16184619Y-17962619D02*
X16232238Y-17915000D01*
X16327476Y-17867381D01*
X16565572Y-17867381D01*
X16660810Y-17915000D01*
X16708429Y-17962619D01*
X16756048Y-18057857D01*
X16756048Y-18153095D01*
X16708429Y-18295952D01*
X16137000Y-18867381D01*
X16756048Y-18867381D01*
X17613191Y-18200714D02*
X17613191Y-18867381D01*
X17184619Y-18200714D02*
X17184619Y-18724524D01*
X17232238Y-18819762D01*
X17327476Y-18867381D01*
X17470334Y-18867381D01*
X17565572Y-18819762D01*
X17613191Y-18772143D01*
X18422715Y-18343571D02*
X18089381Y-18343571D01*
X18089381Y-18867381D02*
X18089381Y-17867381D01*
X18565572Y-17867381D01*
X14755905Y-34043881D02*
X14755905Y-33043881D01*
X14994000Y-33043881D01*
X15136858Y-33091500D01*
X15232096Y-33186738D01*
X15279715Y-33281976D01*
X15327334Y-33472452D01*
X15327334Y-33615310D01*
X15279715Y-33805786D01*
X15232096Y-33901024D01*
X15136858Y-33996262D01*
X14994000Y-34043881D01*
X14755905Y-34043881D01*
X16279715Y-34043881D02*
X15708286Y-34043881D01*
X15994000Y-34043881D02*
X15994000Y-33043881D01*
X15898762Y-33186738D01*
X15803524Y-33281976D01*
X15708286Y-33329595D01*
X3071905Y-10993381D02*
X3071905Y-9993381D01*
X3452858Y-9993381D01*
X3548096Y-10041000D01*
X3595715Y-10088619D01*
X3643334Y-10183857D01*
X3643334Y-10326714D01*
X3595715Y-10421952D01*
X3548096Y-10469571D01*
X3452858Y-10517190D01*
X3071905Y-10517190D01*
X4595715Y-10993381D02*
X4024286Y-10993381D01*
X4310000Y-10993381D02*
X4310000Y-9993381D01*
X4214762Y-10136238D01*
X4119524Y-10231476D01*
X4024286Y-10279095D01*
X3262405Y-39504881D02*
X3262405Y-38504881D01*
X3643358Y-38504881D01*
X3738596Y-38552500D01*
X3786215Y-38600119D01*
X3833834Y-38695357D01*
X3833834Y-38838214D01*
X3786215Y-38933452D01*
X3738596Y-38981071D01*
X3643358Y-39028690D01*
X3262405Y-39028690D01*
X4214786Y-38600119D02*
X4262405Y-38552500D01*
X4357643Y-38504881D01*
X4595739Y-38504881D01*
X4690977Y-38552500D01*
X4738596Y-38600119D01*
X4786215Y-38695357D01*
X4786215Y-38790595D01*
X4738596Y-38933452D01*
X4167167Y-39504881D01*
X4786215Y-39504881D01*
X19962905Y-8135881D02*
X19962905Y-7135881D01*
X20343858Y-7135881D01*
X20439096Y-7183500D01*
X20486715Y-7231119D01*
X20534334Y-7326357D01*
X20534334Y-7469214D01*
X20486715Y-7564452D01*
X20439096Y-7612071D01*
X20343858Y-7659690D01*
X19962905Y-7659690D01*
X21391477Y-7469214D02*
X21391477Y-8135881D01*
X21153381Y-7088262D02*
X20915286Y-7802548D01*
X21534334Y-7802548D01*
X3389405Y-1658881D02*
X3389405Y-658881D01*
X3770358Y-658881D01*
X3865596Y-706500D01*
X3913215Y-754119D01*
X3960834Y-849357D01*
X3960834Y-992214D01*
X3913215Y-1087452D01*
X3865596Y-1135071D01*
X3770358Y-1182690D01*
X3389405Y-1182690D01*
X4865596Y-658881D02*
X4389405Y-658881D01*
X4341786Y-1135071D01*
X4389405Y-1087452D01*
X4484643Y-1039833D01*
X4722739Y-1039833D01*
X4817977Y-1087452D01*
X4865596Y-1135071D01*
X4913215Y-1230310D01*
X4913215Y-1468405D01*
X4865596Y-1563643D01*
X4817977Y-1611262D01*
X4722739Y-1658881D01*
X4484643Y-1658881D01*
X4389405Y-1611262D01*
X4341786Y-1563643D01*
X19962905Y-10929881D02*
X19962905Y-9929881D01*
X20343858Y-9929881D01*
X20439096Y-9977500D01*
X20486715Y-10025119D01*
X20534334Y-10120357D01*
X20534334Y-10263214D01*
X20486715Y-10358452D01*
X20439096Y-10406071D01*
X20343858Y-10453690D01*
X19962905Y-10453690D01*
X21391477Y-9929881D02*
X21201000Y-9929881D01*
X21105762Y-9977500D01*
X21058143Y-10025119D01*
X20962905Y-10167976D01*
X20915286Y-10358452D01*
X20915286Y-10739405D01*
X20962905Y-10834643D01*
X21010524Y-10882262D01*
X21105762Y-10929881D01*
X21296239Y-10929881D01*
X21391477Y-10882262D01*
X21439096Y-10834643D01*
X21486715Y-10739405D01*
X21486715Y-10501310D01*
X21439096Y-10406071D01*
X21391477Y-10358452D01*
X21296239Y-10310833D01*
X21105762Y-10310833D01*
X21010524Y-10358452D01*
X20962905Y-10406071D01*
X20915286Y-10501310D01*
X19708905Y-26423881D02*
X19708905Y-25423881D01*
X20089858Y-25423881D01*
X20185096Y-25471500D01*
X20232715Y-25519119D01*
X20280334Y-25614357D01*
X20280334Y-25757214D01*
X20232715Y-25852452D01*
X20185096Y-25900071D01*
X20089858Y-25947690D01*
X19708905Y-25947690D01*
X20613667Y-25423881D02*
X21280334Y-25423881D01*
X20851762Y-26423881D01*
X19581905Y-30233881D02*
X19581905Y-29233881D01*
X19962858Y-29233881D01*
X20058096Y-29281500D01*
X20105715Y-29329119D01*
X20153334Y-29424357D01*
X20153334Y-29567214D01*
X20105715Y-29662452D01*
X20058096Y-29710071D01*
X19962858Y-29757690D01*
X19581905Y-29757690D01*
X20724762Y-29662452D02*
X20629524Y-29614833D01*
X20581905Y-29567214D01*
X20534286Y-29471976D01*
X20534286Y-29424357D01*
X20581905Y-29329119D01*
X20629524Y-29281500D01*
X20724762Y-29233881D01*
X20915239Y-29233881D01*
X21010477Y-29281500D01*
X21058096Y-29329119D01*
X21105715Y-29424357D01*
X21105715Y-29471976D01*
X21058096Y-29567214D01*
X21010477Y-29614833D01*
X20915239Y-29662452D01*
X20724762Y-29662452D01*
X20629524Y-29710071D01*
X20581905Y-29757690D01*
X20534286Y-29852929D01*
X20534286Y-30043405D01*
X20581905Y-30138643D01*
X20629524Y-30186262D01*
X20724762Y-30233881D01*
X20915239Y-30233881D01*
X21010477Y-30186262D01*
X21058096Y-30138643D01*
X21105715Y-30043405D01*
X21105715Y-29852929D01*
X21058096Y-29757690D01*
X21010477Y-29710071D01*
X20915239Y-29662452D01*
X24534905Y-44521381D02*
X24534905Y-43521381D01*
X24915858Y-43521381D01*
X25011096Y-43569000D01*
X25058715Y-43616619D01*
X25106334Y-43711857D01*
X25106334Y-43854714D01*
X25058715Y-43949952D01*
X25011096Y-43997571D01*
X24915858Y-44045190D01*
X24534905Y-44045190D01*
X25582524Y-44521381D02*
X25773000Y-44521381D01*
X25868239Y-44473762D01*
X25915858Y-44426143D01*
X26011096Y-44283286D01*
X26058715Y-44092810D01*
X26058715Y-43711857D01*
X26011096Y-43616619D01*
X25963477Y-43569000D01*
X25868239Y-43521381D01*
X25677762Y-43521381D01*
X25582524Y-43569000D01*
X25534905Y-43616619D01*
X25487286Y-43711857D01*
X25487286Y-43949952D01*
X25534905Y-44045190D01*
X25582524Y-44092810D01*
X25677762Y-44140429D01*
X25868239Y-44140429D01*
X25963477Y-44092810D01*
X26011096Y-44045190D01*
X26058715Y-43949952D01*
X21724881Y-21185166D02*
X21248690Y-21518500D01*
X21724881Y-21756595D02*
X20724881Y-21756595D01*
X20724881Y-21375642D01*
X20772500Y-21280404D01*
X20820119Y-21232785D01*
X20915357Y-21185166D01*
X21058214Y-21185166D01*
X21153452Y-21232785D01*
X21201071Y-21280404D01*
X21248690Y-21375642D01*
X21248690Y-21756595D01*
X21724881Y-20232785D02*
X21724881Y-20804214D01*
X21724881Y-20518500D02*
X20724881Y-20518500D01*
X20867738Y-20613738D01*
X20962976Y-20708976D01*
X21010595Y-20804214D01*
X26233381Y-18946738D02*
X26233381Y-19518167D01*
X26233381Y-19232453D02*
X25233381Y-19232453D01*
X25376238Y-19327691D01*
X25471476Y-19422929D01*
X25519095Y-19518167D01*
X25233381Y-18327691D02*
X25233381Y-18232452D01*
X25281000Y-18137214D01*
X25328619Y-18089595D01*
X25423857Y-18041976D01*
X25614333Y-17994357D01*
X25852429Y-17994357D01*
X26042905Y-18041976D01*
X26138143Y-18089595D01*
X26185762Y-18137214D01*
X26233381Y-18232452D01*
X26233381Y-18327691D01*
X26185762Y-18422929D01*
X26138143Y-18470548D01*
X26042905Y-18518167D01*
X25852429Y-18565786D01*
X25614333Y-18565786D01*
X25423857Y-18518167D01*
X25328619Y-18470548D01*
X25281000Y-18422929D01*
X25233381Y-18327691D01*
X26233381Y-17565786D02*
X25233381Y-17565786D01*
X25852429Y-17470548D02*
X26233381Y-17184833D01*
X25566714Y-17184833D02*
X25947667Y-17565786D01*
X21724881Y-40806666D02*
X21248690Y-41140000D01*
X21724881Y-41378095D02*
X20724881Y-41378095D01*
X20724881Y-40997142D01*
X20772500Y-40901904D01*
X20820119Y-40854285D01*
X20915357Y-40806666D01*
X21058214Y-40806666D01*
X21153452Y-40854285D01*
X21201071Y-40901904D01*
X21248690Y-40997142D01*
X21248690Y-41378095D01*
X20820119Y-40425714D02*
X20772500Y-40378095D01*
X20724881Y-40282857D01*
X20724881Y-40044761D01*
X20772500Y-39949523D01*
X20820119Y-39901904D01*
X20915357Y-39854285D01*
X21010595Y-39854285D01*
X21153452Y-39901904D01*
X21724881Y-40473333D01*
X21724881Y-39854285D01*
X22693381Y-38115785D02*
X22693381Y-38591976D01*
X23169571Y-38639595D01*
X23121952Y-38591976D01*
X23074333Y-38496738D01*
X23074333Y-38258642D01*
X23121952Y-38163404D01*
X23169571Y-38115785D01*
X23264810Y-38068166D01*
X23502905Y-38068166D01*
X23598143Y-38115785D01*
X23645762Y-38163404D01*
X23693381Y-38258642D01*
X23693381Y-38496738D01*
X23645762Y-38591976D01*
X23598143Y-38639595D01*
X22693381Y-37211023D02*
X22693381Y-37401500D01*
X22741000Y-37496738D01*
X22788619Y-37544357D01*
X22931476Y-37639595D01*
X23121952Y-37687214D01*
X23502905Y-37687214D01*
X23598143Y-37639595D01*
X23645762Y-37591976D01*
X23693381Y-37496738D01*
X23693381Y-37306261D01*
X23645762Y-37211023D01*
X23598143Y-37163404D01*
X23502905Y-37115785D01*
X23264810Y-37115785D01*
X23169571Y-37163404D01*
X23121952Y-37211023D01*
X23074333Y-37306261D01*
X23074333Y-37496738D01*
X23121952Y-37591976D01*
X23169571Y-37639595D01*
X23264810Y-37687214D01*
X22693381Y-36496738D02*
X22693381Y-36401499D01*
X22741000Y-36306261D01*
X22788619Y-36258642D01*
X22883857Y-36211023D01*
X23074333Y-36163404D01*
X23312429Y-36163404D01*
X23502905Y-36211023D01*
X23598143Y-36258642D01*
X23645762Y-36306261D01*
X23693381Y-36401499D01*
X23693381Y-36496738D01*
X23645762Y-36591976D01*
X23598143Y-36639595D01*
X23502905Y-36687214D01*
X23312429Y-36734833D01*
X23074333Y-36734833D01*
X22883857Y-36687214D01*
X22788619Y-36639595D01*
X22741000Y-36591976D01*
X22693381Y-36496738D01*
X17549834Y-12009381D02*
X17216500Y-11533190D01*
X16978405Y-12009381D02*
X16978405Y-11009381D01*
X17359358Y-11009381D01*
X17454596Y-11057000D01*
X17502215Y-11104619D01*
X17549834Y-11199857D01*
X17549834Y-11342714D01*
X17502215Y-11437952D01*
X17454596Y-11485571D01*
X17359358Y-11533190D01*
X16978405Y-11533190D01*
X17883167Y-11009381D02*
X18502215Y-11009381D01*
X18168881Y-11390333D01*
X18311739Y-11390333D01*
X18406977Y-11437952D01*
X18454596Y-11485571D01*
X18502215Y-11580810D01*
X18502215Y-11818905D01*
X18454596Y-11914143D01*
X18406977Y-11961762D01*
X18311739Y-12009381D01*
X18026024Y-12009381D01*
X17930786Y-11961762D01*
X17883167Y-11914143D01*
X9494972Y-12453881D02*
X8923543Y-12453881D01*
X9209257Y-12453881D02*
X9209257Y-11453881D01*
X9114019Y-11596738D01*
X9018781Y-11691976D01*
X8923543Y-11739595D01*
X10114019Y-11453881D02*
X10209258Y-11453881D01*
X10304496Y-11501500D01*
X10352115Y-11549119D01*
X10399734Y-11644357D01*
X10447353Y-11834833D01*
X10447353Y-12072929D01*
X10399734Y-12263405D01*
X10352115Y-12358643D01*
X10304496Y-12406262D01*
X10209258Y-12453881D01*
X10114019Y-12453881D01*
X10018781Y-12406262D01*
X9971162Y-12358643D01*
X9923543Y-12263405D01*
X9875924Y-12072929D01*
X9875924Y-11834833D01*
X9923543Y-11644357D01*
X9971162Y-11549119D01*
X10018781Y-11501500D01*
X10114019Y-11453881D01*
X11066400Y-11453881D02*
X11161639Y-11453881D01*
X11256877Y-11501500D01*
X11304496Y-11549119D01*
X11352115Y-11644357D01*
X11399734Y-11834833D01*
X11399734Y-12072929D01*
X11352115Y-12263405D01*
X11304496Y-12358643D01*
X11256877Y-12406262D01*
X11161639Y-12453881D01*
X11066400Y-12453881D01*
X10971162Y-12406262D01*
X10923543Y-12358643D01*
X10875924Y-12263405D01*
X10828305Y-12072929D01*
X10828305Y-11834833D01*
X10875924Y-11644357D01*
X10923543Y-11549119D01*
X10971162Y-11501500D01*
X11066400Y-11453881D01*
X11828305Y-12453881D02*
X11828305Y-11453881D01*
X11923543Y-12072929D02*
X12209258Y-12453881D01*
X12209258Y-11787214D02*
X11828305Y-12168167D01*
X17486334Y-14739881D02*
X17153000Y-14263690D01*
X16914905Y-14739881D02*
X16914905Y-13739881D01*
X17295858Y-13739881D01*
X17391096Y-13787500D01*
X17438715Y-13835119D01*
X17486334Y-13930357D01*
X17486334Y-14073214D01*
X17438715Y-14168452D01*
X17391096Y-14216071D01*
X17295858Y-14263690D01*
X16914905Y-14263690D01*
X18343477Y-14073214D02*
X18343477Y-14739881D01*
X18105381Y-13692262D02*
X17867286Y-14406548D01*
X18486334Y-14406548D01*
X9399733Y-14089119D02*
X9447352Y-14041500D01*
X9542590Y-13993881D01*
X9780686Y-13993881D01*
X9875924Y-14041500D01*
X9923543Y-14089119D01*
X9971162Y-14184357D01*
X9971162Y-14279595D01*
X9923543Y-14422452D01*
X9352114Y-14993881D01*
X9971162Y-14993881D01*
X10352114Y-14089119D02*
X10399733Y-14041500D01*
X10494971Y-13993881D01*
X10733067Y-13993881D01*
X10828305Y-14041500D01*
X10875924Y-14089119D01*
X10923543Y-14184357D01*
X10923543Y-14279595D01*
X10875924Y-14422452D01*
X10304495Y-14993881D01*
X10923543Y-14993881D01*
X11352114Y-14993881D02*
X11352114Y-13993881D01*
X11447352Y-14612929D02*
X11733067Y-14993881D01*
X11733067Y-14327214D02*
X11352114Y-14708167D01*
X21724881Y-18764166D02*
X21248690Y-19097500D01*
X21724881Y-19335595D02*
X20724881Y-19335595D01*
X20724881Y-18954642D01*
X20772500Y-18859404D01*
X20820119Y-18811785D01*
X20915357Y-18764166D01*
X21058214Y-18764166D01*
X21153452Y-18811785D01*
X21201071Y-18859404D01*
X21248690Y-18954642D01*
X21248690Y-19335595D01*
X21724881Y-17764166D02*
X21248690Y-18097500D01*
X21724881Y-18335595D02*
X20724881Y-18335595D01*
X20724881Y-17954642D01*
X20772500Y-17859404D01*
X20820119Y-17811785D01*
X20915357Y-17764166D01*
X21058214Y-17764166D01*
X21153452Y-17811785D01*
X21201071Y-17859404D01*
X21248690Y-17954642D01*
X21248690Y-18335595D01*
X21724881Y-16811785D02*
X21724881Y-17383214D01*
X21724881Y-17097500D02*
X20724881Y-17097500D01*
X20867738Y-17192738D01*
X20962976Y-17287976D01*
X21010595Y-17383214D01*
X21724881Y-14120738D02*
X21724881Y-14692167D01*
X21724881Y-14406453D02*
X20724881Y-14406453D01*
X20867738Y-14501691D01*
X20962976Y-14596929D01*
X21010595Y-14692167D01*
X20724881Y-13501691D02*
X20724881Y-13406452D01*
X20772500Y-13311214D01*
X20820119Y-13263595D01*
X20915357Y-13215976D01*
X21105833Y-13168357D01*
X21343929Y-13168357D01*
X21534405Y-13215976D01*
X21629643Y-13263595D01*
X21677262Y-13311214D01*
X21724881Y-13406452D01*
X21724881Y-13501691D01*
X21677262Y-13596929D01*
X21629643Y-13644548D01*
X21534405Y-13692167D01*
X21343929Y-13739786D01*
X21105833Y-13739786D01*
X20915357Y-13692167D01*
X20820119Y-13644548D01*
X20772500Y-13596929D01*
X20724881Y-13501691D01*
X21724881Y-12739786D02*
X20724881Y-12739786D01*
X21343929Y-12644548D02*
X21724881Y-12358833D01*
X21058214Y-12358833D02*
X21439167Y-12739786D01*
X7112095Y-26693881D02*
X7112095Y-27503405D01*
X7159714Y-27598643D01*
X7207333Y-27646262D01*
X7302571Y-27693881D01*
X7493048Y-27693881D01*
X7588286Y-27646262D01*
X7635905Y-27598643D01*
X7683524Y-27503405D01*
X7683524Y-26693881D01*
X8683524Y-27693881D02*
X8112095Y-27693881D01*
X8397809Y-27693881D02*
X8397809Y-26693881D01*
X8302571Y-26836738D01*
X8207333Y-26931976D01*
X8112095Y-26979595D01*
X8428961Y-24781033D02*
X7428961Y-24781033D01*
X8143247Y-24447699D01*
X7428961Y-24114366D01*
X8428961Y-24114366D01*
X8333723Y-23066747D02*
X8381342Y-23114366D01*
X8428961Y-23257223D01*
X8428961Y-23352461D01*
X8381342Y-23495319D01*
X8286104Y-23590557D01*
X8190866Y-23638176D01*
X8000390Y-23685795D01*
X7857532Y-23685795D01*
X7667056Y-23638176D01*
X7571818Y-23590557D01*
X7476580Y-23495319D01*
X7428961Y-23352461D01*
X7428961Y-23257223D01*
X7476580Y-23114366D01*
X7524199Y-23066747D01*
X8428961Y-22638176D02*
X7428961Y-22638176D01*
X7428961Y-22257223D01*
X7476580Y-22161985D01*
X7524199Y-22114366D01*
X7619437Y-22066747D01*
X7762294Y-22066747D01*
X7857532Y-22114366D01*
X7905151Y-22161985D01*
X7952770Y-22257223D01*
X7952770Y-22638176D01*
X7428961Y-21733414D02*
X7428961Y-21114366D01*
X7809913Y-21447700D01*
X7809913Y-21304842D01*
X7857532Y-21209604D01*
X7905151Y-21161985D01*
X8000390Y-21114366D01*
X8238485Y-21114366D01*
X8333723Y-21161985D01*
X8381342Y-21209604D01*
X8428961Y-21304842D01*
X8428961Y-21590557D01*
X8381342Y-21685795D01*
X8333723Y-21733414D01*
X7524199Y-20733414D02*
X7476580Y-20685795D01*
X7428961Y-20590557D01*
X7428961Y-20352461D01*
X7476580Y-20257223D01*
X7524199Y-20209604D01*
X7619437Y-20161985D01*
X7714675Y-20161985D01*
X7857532Y-20209604D01*
X8428961Y-20781033D01*
X8428961Y-20161985D01*
X7428961Y-19542938D02*
X7428961Y-19447699D01*
X7476580Y-19352461D01*
X7524199Y-19304842D01*
X7619437Y-19257223D01*
X7809913Y-19209604D01*
X8048009Y-19209604D01*
X8238485Y-19257223D01*
X8333723Y-19304842D01*
X8381342Y-19352461D01*
X8428961Y-19447699D01*
X8428961Y-19542938D01*
X8381342Y-19638176D01*
X8333723Y-19685795D01*
X8238485Y-19733414D01*
X8048009Y-19781033D01*
X7809913Y-19781033D01*
X7619437Y-19733414D01*
X7524199Y-19685795D01*
X7476580Y-19638176D01*
X7428961Y-19542938D01*
X7857532Y-18638176D02*
X7809913Y-18733414D01*
X7762294Y-18781033D01*
X7667056Y-18828652D01*
X7619437Y-18828652D01*
X7524199Y-18781033D01*
X7476580Y-18733414D01*
X7428961Y-18638176D01*
X7428961Y-18447699D01*
X7476580Y-18352461D01*
X7524199Y-18304842D01*
X7619437Y-18257223D01*
X7667056Y-18257223D01*
X7762294Y-18304842D01*
X7809913Y-18352461D01*
X7857532Y-18447699D01*
X7857532Y-18638176D01*
X7905151Y-18733414D01*
X7952770Y-18781033D01*
X8048009Y-18828652D01*
X8238485Y-18828652D01*
X8333723Y-18781033D01*
X8381342Y-18733414D01*
X8428961Y-18638176D01*
X8428961Y-18447699D01*
X8381342Y-18352461D01*
X8333723Y-18304842D01*
X8238485Y-18257223D01*
X8048009Y-18257223D01*
X7952770Y-18304842D01*
X7905151Y-18352461D01*
X7857532Y-18447699D01*
X7137495Y-38504881D02*
X7137495Y-39314405D01*
X7185114Y-39409643D01*
X7232733Y-39457262D01*
X7327971Y-39504881D01*
X7518448Y-39504881D01*
X7613686Y-39457262D01*
X7661305Y-39409643D01*
X7708924Y-39314405D01*
X7708924Y-38504881D01*
X8137495Y-38600119D02*
X8185114Y-38552500D01*
X8280352Y-38504881D01*
X8518448Y-38504881D01*
X8613686Y-38552500D01*
X8661305Y-38600119D01*
X8708924Y-38695357D01*
X8708924Y-38790595D01*
X8661305Y-38933452D01*
X8089876Y-39504881D01*
X8708924Y-39504881D01*
X8351781Y-36194595D02*
X7351781Y-36194595D01*
X8066067Y-35861261D01*
X7351781Y-35527928D01*
X8351781Y-35527928D01*
X8256543Y-34480309D02*
X8304162Y-34527928D01*
X8351781Y-34670785D01*
X8351781Y-34766023D01*
X8304162Y-34908881D01*
X8208924Y-35004119D01*
X8113686Y-35051738D01*
X7923210Y-35099357D01*
X7780352Y-35099357D01*
X7589876Y-35051738D01*
X7494638Y-35004119D01*
X7399400Y-34908881D01*
X7351781Y-34766023D01*
X7351781Y-34670785D01*
X7399400Y-34527928D01*
X7447019Y-34480309D01*
X8351781Y-34051738D02*
X7351781Y-34051738D01*
X7351781Y-33670785D01*
X7399400Y-33575547D01*
X7447019Y-33527928D01*
X7542257Y-33480309D01*
X7685114Y-33480309D01*
X7780352Y-33527928D01*
X7827971Y-33575547D01*
X7875590Y-33670785D01*
X7875590Y-34051738D01*
X7351781Y-33146976D02*
X7351781Y-32527928D01*
X7732733Y-32861262D01*
X7732733Y-32718404D01*
X7780352Y-32623166D01*
X7827971Y-32575547D01*
X7923210Y-32527928D01*
X8161305Y-32527928D01*
X8256543Y-32575547D01*
X8304162Y-32623166D01*
X8351781Y-32718404D01*
X8351781Y-33004119D01*
X8304162Y-33099357D01*
X8256543Y-33146976D01*
X7447019Y-32146976D02*
X7399400Y-32099357D01*
X7351781Y-32004119D01*
X7351781Y-31766023D01*
X7399400Y-31670785D01*
X7447019Y-31623166D01*
X7542257Y-31575547D01*
X7637495Y-31575547D01*
X7780352Y-31623166D01*
X8351781Y-32194595D01*
X8351781Y-31575547D01*
X7351781Y-30956500D02*
X7351781Y-30861261D01*
X7399400Y-30766023D01*
X7447019Y-30718404D01*
X7542257Y-30670785D01*
X7732733Y-30623166D01*
X7970829Y-30623166D01*
X8161305Y-30670785D01*
X8256543Y-30718404D01*
X8304162Y-30766023D01*
X8351781Y-30861261D01*
X8351781Y-30956500D01*
X8304162Y-31051738D01*
X8256543Y-31099357D01*
X8161305Y-31146976D01*
X7970829Y-31194595D01*
X7732733Y-31194595D01*
X7542257Y-31146976D01*
X7447019Y-31099357D01*
X7399400Y-31051738D01*
X7351781Y-30956500D01*
X7780352Y-30051738D02*
X7732733Y-30146976D01*
X7685114Y-30194595D01*
X7589876Y-30242214D01*
X7542257Y-30242214D01*
X7447019Y-30194595D01*
X7399400Y-30146976D01*
X7351781Y-30051738D01*
X7351781Y-29861261D01*
X7399400Y-29766023D01*
X7447019Y-29718404D01*
X7542257Y-29670785D01*
X7589876Y-29670785D01*
X7685114Y-29718404D01*
X7732733Y-29766023D01*
X7780352Y-29861261D01*
X7780352Y-30051738D01*
X7827971Y-30146976D01*
X7875590Y-30194595D01*
X7970829Y-30242214D01*
X8161305Y-30242214D01*
X8256543Y-30194595D01*
X8304162Y-30146976D01*
X8351781Y-30051738D01*
X8351781Y-29861261D01*
X8304162Y-29766023D01*
X8256543Y-29718404D01*
X8161305Y-29670785D01*
X7970829Y-29670785D01*
X7875590Y-29718404D01*
X7827971Y-29766023D01*
X7780352Y-29861261D01*
X20724881Y-24193405D02*
X21534405Y-24193405D01*
X21629643Y-24145786D01*
X21677262Y-24098167D01*
X21724881Y-24002929D01*
X21724881Y-23812452D01*
X21677262Y-23717214D01*
X21629643Y-23669595D01*
X21534405Y-23621976D01*
X20724881Y-23621976D01*
X20724881Y-22669595D02*
X20724881Y-23145786D01*
X21201071Y-23193405D01*
X21153452Y-23145786D01*
X21105833Y-23050548D01*
X21105833Y-22812452D01*
X21153452Y-22717214D01*
X21201071Y-22669595D01*
X21296310Y-22621976D01*
X21534405Y-22621976D01*
X21629643Y-22669595D01*
X21677262Y-22717214D01*
X21724881Y-22812452D01*
X21724881Y-23050548D01*
X21677262Y-23145786D01*
X21629643Y-23193405D01*
X32861714Y-18168881D02*
X32861714Y-17168881D01*
X33195048Y-17883167D01*
X33528381Y-17168881D01*
X33528381Y-18168881D01*
X34576000Y-18073643D02*
X34528381Y-18121262D01*
X34385524Y-18168881D01*
X34290286Y-18168881D01*
X34147428Y-18121262D01*
X34052190Y-18026024D01*
X34004571Y-17930786D01*
X33956952Y-17740310D01*
X33956952Y-17597452D01*
X34004571Y-17406976D01*
X34052190Y-17311738D01*
X34147428Y-17216500D01*
X34290286Y-17168881D01*
X34385524Y-17168881D01*
X34528381Y-17216500D01*
X34576000Y-17264119D01*
X35004571Y-18168881D02*
X35004571Y-17168881D01*
X35385524Y-17168881D01*
X35480762Y-17216500D01*
X35528381Y-17264119D01*
X35576000Y-17359357D01*
X35576000Y-17502214D01*
X35528381Y-17597452D01*
X35480762Y-17645071D01*
X35385524Y-17692690D01*
X35004571Y-17692690D01*
X35956952Y-17264119D02*
X36004571Y-17216500D01*
X36099809Y-17168881D01*
X36337905Y-17168881D01*
X36433143Y-17216500D01*
X36480762Y-17264119D01*
X36528381Y-17359357D01*
X36528381Y-17454595D01*
X36480762Y-17597452D01*
X35909333Y-18168881D01*
X36528381Y-18168881D01*
X36861714Y-17168881D02*
X37480762Y-17168881D01*
X37147428Y-17549833D01*
X37290286Y-17549833D01*
X37385524Y-17597452D01*
X37433143Y-17645071D01*
X37480762Y-17740310D01*
X37480762Y-17978405D01*
X37433143Y-18073643D01*
X37385524Y-18121262D01*
X37290286Y-18168881D01*
X37004571Y-18168881D01*
X36909333Y-18121262D01*
X36861714Y-18073643D01*
X38099809Y-17168881D02*
X38195048Y-17168881D01*
X38290286Y-17216500D01*
X38337905Y-17264119D01*
X38385524Y-17359357D01*
X38433143Y-17549833D01*
X38433143Y-17787929D01*
X38385524Y-17978405D01*
X38337905Y-18073643D01*
X38290286Y-18121262D01*
X38195048Y-18168881D01*
X38099809Y-18168881D01*
X38004571Y-18121262D01*
X37956952Y-18073643D01*
X37909333Y-17978405D01*
X37861714Y-17787929D01*
X37861714Y-17549833D01*
X37909333Y-17359357D01*
X37956952Y-17264119D01*
X38004571Y-17216500D01*
X38099809Y-17168881D01*
X39385524Y-18168881D02*
X38814095Y-18168881D01*
X39099809Y-18168881D02*
X39099809Y-17168881D01*
X39004571Y-17311738D01*
X38909333Y-17406976D01*
X38814095Y-17454595D01*
X39718857Y-17168881D02*
X40385524Y-17168881D01*
X39956952Y-18168881D01*
X26058881Y-41719405D02*
X26868405Y-41719405D01*
X26963643Y-41671786D01*
X27011262Y-41624167D01*
X27058881Y-41528929D01*
X27058881Y-41338452D01*
X27011262Y-41243214D01*
X26963643Y-41195595D01*
X26868405Y-41147976D01*
X26058881Y-41147976D01*
X26058881Y-40243214D02*
X26058881Y-40433691D01*
X26106500Y-40528929D01*
X26154119Y-40576548D01*
X26296976Y-40671786D01*
X26487452Y-40719405D01*
X26868405Y-40719405D01*
X26963643Y-40671786D01*
X27011262Y-40624167D01*
X27058881Y-40528929D01*
X27058881Y-40338452D01*
X27011262Y-40243214D01*
X26963643Y-40195595D01*
X26868405Y-40147976D01*
X26630310Y-40147976D01*
X26535071Y-40195595D01*
X26487452Y-40243214D01*
X26439833Y-40338452D01*
X26439833Y-40528929D01*
X26487452Y-40624167D01*
X26535071Y-40671786D01*
X26630310Y-40719405D01*
X32861714Y-38488881D02*
X32861714Y-37488881D01*
X33195048Y-38203167D01*
X33528381Y-37488881D01*
X33528381Y-38488881D01*
X34576000Y-38393643D02*
X34528381Y-38441262D01*
X34385524Y-38488881D01*
X34290286Y-38488881D01*
X34147428Y-38441262D01*
X34052190Y-38346024D01*
X34004571Y-38250786D01*
X33956952Y-38060310D01*
X33956952Y-37917452D01*
X34004571Y-37726976D01*
X34052190Y-37631738D01*
X34147428Y-37536500D01*
X34290286Y-37488881D01*
X34385524Y-37488881D01*
X34528381Y-37536500D01*
X34576000Y-37584119D01*
X35004571Y-38488881D02*
X35004571Y-37488881D01*
X35385524Y-37488881D01*
X35480762Y-37536500D01*
X35528381Y-37584119D01*
X35576000Y-37679357D01*
X35576000Y-37822214D01*
X35528381Y-37917452D01*
X35480762Y-37965071D01*
X35385524Y-38012690D01*
X35004571Y-38012690D01*
X35956952Y-37584119D02*
X36004571Y-37536500D01*
X36099809Y-37488881D01*
X36337905Y-37488881D01*
X36433143Y-37536500D01*
X36480762Y-37584119D01*
X36528381Y-37679357D01*
X36528381Y-37774595D01*
X36480762Y-37917452D01*
X35909333Y-38488881D01*
X36528381Y-38488881D01*
X36861714Y-37488881D02*
X37480762Y-37488881D01*
X37147428Y-37869833D01*
X37290286Y-37869833D01*
X37385524Y-37917452D01*
X37433143Y-37965071D01*
X37480762Y-38060310D01*
X37480762Y-38298405D01*
X37433143Y-38393643D01*
X37385524Y-38441262D01*
X37290286Y-38488881D01*
X37004571Y-38488881D01*
X36909333Y-38441262D01*
X36861714Y-38393643D01*
X38099809Y-37488881D02*
X38195048Y-37488881D01*
X38290286Y-37536500D01*
X38337905Y-37584119D01*
X38385524Y-37679357D01*
X38433143Y-37869833D01*
X38433143Y-38107929D01*
X38385524Y-38298405D01*
X38337905Y-38393643D01*
X38290286Y-38441262D01*
X38195048Y-38488881D01*
X38099809Y-38488881D01*
X38004571Y-38441262D01*
X37956952Y-38393643D01*
X37909333Y-38298405D01*
X37861714Y-38107929D01*
X37861714Y-37869833D01*
X37909333Y-37679357D01*
X37956952Y-37584119D01*
X38004571Y-37536500D01*
X38099809Y-37488881D01*
X39385524Y-38488881D02*
X38814095Y-38488881D01*
X39099809Y-38488881D02*
X39099809Y-37488881D01*
X39004571Y-37631738D01*
X38909333Y-37726976D01*
X38814095Y-37774595D01*
X39718857Y-37488881D02*
X40385524Y-37488881D01*
X39956952Y-38488881D01*
X31869215Y-7421571D02*
X32012072Y-7469190D01*
X32059691Y-7516810D01*
X32107310Y-7612048D01*
X32107310Y-7754905D01*
X32059691Y-7850143D01*
X32012072Y-7897762D01*
X31916834Y-7945381D01*
X31535881Y-7945381D01*
X31535881Y-6945381D01*
X31869215Y-6945381D01*
X31964453Y-6993000D01*
X32012072Y-7040619D01*
X32059691Y-7135857D01*
X32059691Y-7231095D01*
X32012072Y-7326333D01*
X31964453Y-7373952D01*
X31869215Y-7421571D01*
X31535881Y-7421571D01*
X32393024Y-6945381D02*
X32964453Y-6945381D01*
X32678738Y-7945381D02*
X32678738Y-6945381D01*
X33773977Y-7945381D02*
X33297786Y-7945381D01*
X33297786Y-6945381D01*
X34107310Y-7945381D02*
X34107310Y-6945381D01*
X34345405Y-6945381D01*
X34488263Y-6993000D01*
X34583501Y-7088238D01*
X34631120Y-7183476D01*
X34678739Y-7373952D01*
X34678739Y-7516810D01*
X34631120Y-7707286D01*
X34583501Y-7802524D01*
X34488263Y-7897762D01*
X34345405Y-7945381D01*
X34107310Y-7945381D01*
X40227429Y-7945381D02*
X40227429Y-6945381D01*
X40608382Y-6945381D01*
X40703620Y-6993000D01*
X40751239Y-7040619D01*
X40798858Y-7135857D01*
X40798858Y-7278714D01*
X40751239Y-7373952D01*
X40703620Y-7421571D01*
X40608382Y-7469190D01*
X40227429Y-7469190D01*
X41179810Y-7659667D02*
X41656001Y-7659667D01*
X41084572Y-7945381D02*
X41417905Y-6945381D01*
X41751239Y-7945381D01*
X42084572Y-7945381D02*
X42084572Y-6945381D01*
X43132191Y-7945381D02*
X42798857Y-7469190D01*
X42560762Y-7945381D02*
X42560762Y-6945381D01*
X42941715Y-6945381D01*
X43036953Y-6993000D01*
X43084572Y-7040619D01*
X43132191Y-7135857D01*
X43132191Y-7278714D01*
X43084572Y-7373952D01*
X43036953Y-7421571D01*
X42941715Y-7469190D01*
X42560762Y-7469190D01*
X23391881Y-7881881D02*
X23058547Y-7405690D01*
X22820452Y-7881881D02*
X22820452Y-6881881D01*
X23201405Y-6881881D01*
X23296643Y-6929500D01*
X23344262Y-6977119D01*
X23391881Y-7072357D01*
X23391881Y-7215214D01*
X23344262Y-7310452D01*
X23296643Y-7358071D01*
X23201405Y-7405690D01*
X22820452Y-7405690D01*
X23772833Y-7834262D02*
X23915690Y-7881881D01*
X24153786Y-7881881D01*
X24249024Y-7834262D01*
X24296643Y-7786643D01*
X24344262Y-7691405D01*
X24344262Y-7596167D01*
X24296643Y-7500929D01*
X24249024Y-7453310D01*
X24153786Y-7405690D01*
X23963309Y-7358071D01*
X23868071Y-7310452D01*
X23820452Y-7262833D01*
X23772833Y-7167595D01*
X23772833Y-7072357D01*
X23820452Y-6977119D01*
X23868071Y-6929500D01*
X23963309Y-6881881D01*
X24201405Y-6881881D01*
X24344262Y-6929500D01*
X24629976Y-6881881D02*
X25201405Y-6881881D01*
X24915690Y-7881881D02*
X24915690Y-6881881D01*
%LPC*%
D12*
X10566400Y-4381500D03*
X13106400Y-4381500D03*
X15646400Y-4381500D03*
D13*
X13081000Y-19581500D03*
D14*
X13081000Y-17081500D03*
D15*
X15569000Y-35201500D03*
X15569000Y-37401500D03*
X18669000Y-37401500D03*
X18669000Y-35201500D03*
D16*
X1549400Y-8191500D03*
D17*
X1549400Y-10731500D03*
X1549400Y-13271500D03*
X1549400Y-15811500D03*
X1549400Y-18351500D03*
X1549400Y-20891500D03*
X1549400Y-23431500D03*
X1549400Y-25971500D03*
D16*
X1549400Y-28511500D03*
D17*
X1549400Y-31051500D03*
X1549400Y-33591500D03*
X1549400Y-36131500D03*
X1549400Y-38671500D03*
X1549400Y-41211500D03*
X1549400Y-43751500D03*
X1549400Y-46291500D03*
D18*
X18161000Y-8572500D03*
D19*
X15621000Y-8572500D03*
X13081000Y-8572500D03*
X10541000Y-8572500D03*
X8001000Y-8572500D03*
X5461000Y-8572500D03*
D20*
X6756400Y-4381500D03*
D21*
X6756400Y-1841500D03*
D18*
X23241000Y-9461500D03*
D19*
X25781000Y-9461500D03*
X28321000Y-9461500D03*
X30861000Y-9461500D03*
X33401000Y-9461500D03*
X35941000Y-9461500D03*
X38481000Y-9461500D03*
X41021000Y-9461500D03*
X43561000Y-9461500D03*
D18*
X25781000Y-25971500D03*
D19*
X28321000Y-25971500D03*
X30861000Y-25971500D03*
X33401000Y-25971500D03*
X35941000Y-25971500D03*
X38481000Y-25971500D03*
X41021000Y-25971500D03*
X43561000Y-25971500D03*
D18*
X23241000Y-29781500D03*
D19*
X25781000Y-29781500D03*
X28321000Y-29781500D03*
X30861000Y-29781500D03*
X33401000Y-29781500D03*
X35941000Y-29781500D03*
X38481000Y-29781500D03*
X41021000Y-29781500D03*
X43561000Y-29781500D03*
D18*
X23241000Y-46291500D03*
D19*
X25781000Y-46291500D03*
X28321000Y-46291500D03*
X30861000Y-46291500D03*
X33401000Y-46291500D03*
X35941000Y-46291500D03*
X38481000Y-46291500D03*
X41021000Y-46291500D03*
X43561000Y-46291500D03*
D22*
X25781000Y-23431500D03*
X25781000Y-13271500D03*
X23241000Y-32321500D03*
X23241000Y-42481500D03*
X5486400Y-12001500D03*
X15646400Y-12001500D03*
X5486400Y-14541500D03*
X15646400Y-14541500D03*
D12*
X23241000Y-25971500D03*
D23*
X23241000Y-23431500D03*
X23241000Y-20891500D03*
X23241000Y-18351500D03*
X23241000Y-15811500D03*
X23241000Y-13271500D03*
D12*
X10566400Y-1841500D03*
D23*
X13106400Y-1841500D03*
X15646400Y-1841500D03*
D24*
X5166400Y-17081500D03*
X5166400Y-18351500D03*
X5166400Y-19621500D03*
X5166400Y-20891500D03*
X5166400Y-22161500D03*
X5166400Y-23431500D03*
X5166400Y-24701500D03*
X5166400Y-25971500D03*
X10566400Y-25971500D03*
X10566400Y-24701500D03*
X10566400Y-23431500D03*
X10566400Y-22161500D03*
X10566400Y-20891500D03*
X10566400Y-19621500D03*
X10566400Y-18351500D03*
X10566400Y-17081500D03*
X5199400Y-28511500D03*
X5199400Y-29781500D03*
X5199400Y-31051500D03*
X5199400Y-32321500D03*
X5199400Y-33591500D03*
X5199400Y-34861500D03*
X5199400Y-36131500D03*
X5199400Y-37401500D03*
X10599400Y-37401500D03*
X10599400Y-36131500D03*
X10599400Y-34861500D03*
X10599400Y-33591500D03*
X10599400Y-32321500D03*
X10599400Y-31051500D03*
X10599400Y-29781500D03*
X10599400Y-28511500D03*
D25*
X28321000Y-22416500D03*
X29591000Y-22416500D03*
X30861000Y-22416500D03*
X32131000Y-22416500D03*
X33401000Y-22416500D03*
X34671000Y-22416500D03*
X35941000Y-22416500D03*
X37211000Y-22416500D03*
X38481000Y-22416500D03*
X39751000Y-22416500D03*
X41021000Y-22416500D03*
X42291000Y-22416500D03*
X43561000Y-22416500D03*
X44831000Y-22416500D03*
X44831000Y-13016500D03*
X43561000Y-13016500D03*
X42291000Y-13016500D03*
X41021000Y-13016500D03*
X39751000Y-13016500D03*
X38481000Y-13016500D03*
X37211000Y-13016500D03*
X35941000Y-13016500D03*
X34671000Y-13016500D03*
X33401000Y-13016500D03*
X32131000Y-13016500D03*
X30861000Y-13016500D03*
X29591000Y-13016500D03*
X28321000Y-13016500D03*
X28321000Y-42736500D03*
X29591000Y-42736500D03*
X30861000Y-42736500D03*
X32131000Y-42736500D03*
X33401000Y-42736500D03*
X34671000Y-42736500D03*
X35941000Y-42736500D03*
X37211000Y-42736500D03*
X38481000Y-42736500D03*
X39751000Y-42736500D03*
X41021000Y-42736500D03*
X42291000Y-42736500D03*
X43561000Y-42736500D03*
X44831000Y-42736500D03*
X44831000Y-33336500D03*
X43561000Y-33336500D03*
X42291000Y-33336500D03*
X41021000Y-33336500D03*
X39751000Y-33336500D03*
X38481000Y-33336500D03*
X37211000Y-33336500D03*
X35941000Y-33336500D03*
X34671000Y-33336500D03*
X33401000Y-33336500D03*
X32131000Y-33336500D03*
X30861000Y-33336500D03*
X29591000Y-33336500D03*
X28321000Y-33336500D03*
D23*
X36131500Y-1405500D03*
X36131500Y-5905500D03*
X29631500Y-1405500D03*
X29631500Y-5905500D03*
X45021500Y-1405500D03*
X45021500Y-5905500D03*
X38521500Y-1405500D03*
X38521500Y-5905500D03*
X27241500Y-1405500D03*
X27241500Y-5905500D03*
X20741500Y-1405500D03*
X20741500Y-5905500D03*
M02*
