G04 #@! TF.FileFunction,Copper,L1,Top,Signal*
%FSLAX46Y46*%
G04 Gerber Fmt 4.6, Leading zero omitted, Abs format (unit mm)*
G04 Created by KiCad (PCBNEW 4.0.2-stable) date Friday, July 22, 2016 'pmt' 07:07:35 pm*
%MOMM*%
G01*
G04 APERTURE LIST*
%ADD10C,0.100000*%
%ADD11O,2.000000X1.200000*%
%ADD12C,1.397000*%
%ADD13R,2.000000X2.000000*%
%ADD14C,2.000000*%
%ADD15O,1.905000X1.117600*%
%ADD16R,1.905000X1.117600*%
%ADD17R,2.032000X1.727200*%
%ADD18O,2.032000X1.727200*%
%ADD19R,1.727200X2.032000*%
%ADD20O,1.727200X2.032000*%
%ADD21C,1.998980*%
%ADD22R,1.824000X1.524000*%
%ADD23O,1.824000X1.524000*%
%ADD24O,2.300000X1.600000*%
%ADD25R,0.700000X1.300000*%
%ADD26R,2.032000X2.032000*%
%ADD27O,2.032000X2.032000*%
%ADD28C,1.000000*%
G04 APERTURE END LIST*
D10*
D11*
X162560000Y-96520000D03*
X134720000Y-96520000D03*
X162560000Y-99060000D03*
X134720000Y-99060000D03*
X162560000Y-101600000D03*
X134720000Y-101600000D03*
X162560000Y-104140000D03*
X134720000Y-104140000D03*
X162560000Y-106680000D03*
X134720000Y-106680000D03*
X162560000Y-109220000D03*
X134720000Y-109220000D03*
X162560000Y-111760000D03*
X134720000Y-111760000D03*
X162560000Y-114300000D03*
X134720000Y-114300000D03*
D12*
X154940000Y-124460000D03*
X154940000Y-119380000D03*
X162560000Y-124460000D03*
X162560000Y-119380000D03*
X134620000Y-124460000D03*
X134620000Y-119380000D03*
X142240000Y-124460000D03*
X142240000Y-119380000D03*
X144780000Y-124460000D03*
X144780000Y-119380000D03*
X152400000Y-124460000D03*
X152400000Y-119380000D03*
D13*
X254635000Y-130175000D03*
D14*
X252095000Y-130175000D03*
D13*
X254635000Y-122555000D03*
D14*
X252095000Y-122555000D03*
D15*
X273050000Y-148590000D03*
D16*
X273050000Y-147320000D03*
D15*
X273050000Y-146050000D03*
X273050000Y-144780000D03*
D13*
X254635000Y-114935000D03*
D14*
X252095000Y-114935000D03*
D17*
X116840000Y-99060000D03*
D18*
X116840000Y-101600000D03*
X116840000Y-104140000D03*
X116840000Y-106680000D03*
X116840000Y-109220000D03*
X116840000Y-111760000D03*
X116840000Y-114300000D03*
X116840000Y-116840000D03*
D19*
X142240000Y-81280000D03*
D20*
X144780000Y-81280000D03*
X147320000Y-81280000D03*
X149860000Y-81280000D03*
X152400000Y-81280000D03*
X154940000Y-81280000D03*
D17*
X187960000Y-83820000D03*
D18*
X187960000Y-86360000D03*
X187960000Y-88900000D03*
X187960000Y-91440000D03*
X187960000Y-93980000D03*
X187960000Y-96520000D03*
X187960000Y-99060000D03*
X187960000Y-101600000D03*
X187960000Y-104140000D03*
D17*
X243840000Y-83820000D03*
D18*
X243840000Y-86360000D03*
X243840000Y-88900000D03*
X243840000Y-91440000D03*
X243840000Y-93980000D03*
X243840000Y-96520000D03*
X243840000Y-99060000D03*
X243840000Y-101600000D03*
X243840000Y-104140000D03*
D17*
X244475000Y-120015000D03*
D18*
X244475000Y-122555000D03*
X244475000Y-125095000D03*
D21*
X139700000Y-109220000D03*
X139700000Y-99060000D03*
X144780000Y-109220000D03*
X144780000Y-99060000D03*
X154940000Y-109220000D03*
X154940000Y-99060000D03*
X262890000Y-151130000D03*
X252730000Y-151130000D03*
X262890000Y-140970000D03*
X252730000Y-140970000D03*
X262890000Y-146050000D03*
X252730000Y-146050000D03*
X263525000Y-130175000D03*
X273685000Y-130175000D03*
X263525000Y-122555000D03*
X273685000Y-122555000D03*
X263525000Y-114935000D03*
X273685000Y-114935000D03*
D22*
X250190000Y-83820000D03*
D23*
X257810000Y-83820000D03*
X250190000Y-86360000D03*
X257810000Y-86360000D03*
X250190000Y-88900000D03*
X257810000Y-88900000D03*
X250190000Y-91440000D03*
X257810000Y-91440000D03*
X250190000Y-93980000D03*
X257810000Y-93980000D03*
X250190000Y-96520000D03*
X257810000Y-96520000D03*
X250190000Y-99060000D03*
X257810000Y-99060000D03*
X250190000Y-101600000D03*
X257810000Y-101600000D03*
D24*
X175260000Y-83820000D03*
X175260000Y-86360000D03*
X175260000Y-88900000D03*
X175260000Y-91440000D03*
X175260000Y-93980000D03*
X175260000Y-96520000D03*
X175260000Y-99060000D03*
X175260000Y-101600000D03*
X175260000Y-104140000D03*
X175260000Y-106680000D03*
X175260000Y-109220000D03*
X175260000Y-111760000D03*
X175260000Y-114300000D03*
X175260000Y-116840000D03*
X182880000Y-116840000D03*
X182880000Y-114300000D03*
X182880000Y-111760000D03*
X182880000Y-109220000D03*
X182880000Y-106680000D03*
X182880000Y-104140000D03*
X182880000Y-101600000D03*
X182880000Y-99060000D03*
X182880000Y-96520000D03*
X182880000Y-93980000D03*
X182880000Y-91440000D03*
X182880000Y-88900000D03*
X182880000Y-86360000D03*
X182880000Y-83820000D03*
X121920000Y-99060000D03*
X121920000Y-101600000D03*
X121920000Y-104140000D03*
X121920000Y-106680000D03*
X121920000Y-109220000D03*
X121920000Y-111760000D03*
X121920000Y-114300000D03*
X121920000Y-116840000D03*
X129540000Y-116840000D03*
X129540000Y-114300000D03*
X129540000Y-111760000D03*
X129540000Y-109220000D03*
X129540000Y-106680000D03*
X129540000Y-104140000D03*
X129540000Y-101600000D03*
X129540000Y-99060000D03*
D17*
X243840000Y-148590000D03*
D18*
X243840000Y-146050000D03*
X243840000Y-143510000D03*
X243840000Y-140970000D03*
D17*
X170180000Y-86360000D03*
D18*
X170180000Y-88900000D03*
X170180000Y-91440000D03*
X170180000Y-93980000D03*
X170180000Y-96520000D03*
X170180000Y-99060000D03*
X170180000Y-101600000D03*
X170180000Y-104140000D03*
D25*
X126660000Y-88900000D03*
X124460000Y-88900000D03*
X124460000Y-92000000D03*
X126660000Y-92000000D03*
D26*
X129540000Y-81280000D03*
D27*
X129540000Y-83820000D03*
D28*
X187960000Y-111760000D02*
X187960000Y-104140000D01*
X182880000Y-111760000D02*
X187960000Y-111760000D01*
X177800000Y-119380000D02*
X177800000Y-111760000D01*
X162560000Y-119380000D02*
X177800000Y-119380000D01*
X182880000Y-116840000D02*
X182880000Y-114300000D01*
X182880000Y-111760000D02*
X182880000Y-114300000D01*
X177800000Y-111760000D02*
X182880000Y-111760000D01*
X177800000Y-106680000D02*
X177800000Y-111760000D01*
X175260000Y-106680000D02*
X177800000Y-106680000D01*
X127000000Y-104140000D02*
X127000000Y-93980000D01*
X127000000Y-93980000D02*
X124460000Y-93980000D01*
X124460000Y-93980000D02*
X124460000Y-92000000D01*
X121920000Y-91440000D02*
X122480000Y-92000000D01*
X122480000Y-92000000D02*
X124460000Y-92000000D01*
X121920000Y-81280000D02*
X121920000Y-91440000D01*
X129540000Y-81280000D02*
X121920000Y-81280000D01*
X142240000Y-81280000D02*
X129540000Y-81280000D01*
X127000000Y-116840000D02*
X129540000Y-116840000D01*
X127000000Y-104140000D02*
X127000000Y-116840000D01*
X129540000Y-104140000D02*
X127000000Y-104140000D01*
X144780000Y-109220000D02*
X144780000Y-119380000D01*
X162560000Y-119380000D02*
X162560000Y-114300000D01*
X152400000Y-119380000D02*
X154940000Y-119380000D01*
X144780000Y-121920000D02*
X144780000Y-119380000D01*
X142240000Y-121920000D02*
X144780000Y-121920000D01*
X142240000Y-124460000D02*
X142240000Y-121920000D01*
X129540000Y-124460000D02*
X134620000Y-124460000D01*
X129540000Y-116840000D02*
X129540000Y-124460000D01*
X116840000Y-101600000D02*
X121920000Y-101600000D01*
X147320000Y-83820000D02*
X129540000Y-83820000D01*
X147320000Y-81280000D02*
X147320000Y-83820000D01*
X129540000Y-88900000D02*
X126660000Y-88900000D01*
X129540000Y-83820000D02*
X129540000Y-88900000D01*
X139700000Y-114300000D02*
X139700000Y-109220000D01*
X134720000Y-114300000D02*
X139700000Y-114300000D01*
X116840000Y-106680000D02*
X121920000Y-106680000D01*
X116840000Y-109220000D02*
X121920000Y-109220000D01*
X116840000Y-111760000D02*
X121920000Y-111760000D01*
X162560000Y-99060000D02*
X160020000Y-99060000D01*
X160020000Y-99060000D02*
X160020000Y-86360000D01*
X160020000Y-86360000D02*
X149860000Y-86360000D01*
X149860000Y-86360000D02*
X149860000Y-81280000D01*
X162560000Y-96520000D02*
X162560000Y-83820000D01*
X162560000Y-83820000D02*
X152400000Y-83820000D01*
X152400000Y-83820000D02*
X152400000Y-81280000D01*
X142240000Y-104140000D02*
X142240000Y-119380000D01*
X134720000Y-104140000D02*
X142240000Y-104140000D01*
X137160000Y-104140000D02*
X134720000Y-104140000D01*
X137160000Y-101600000D02*
X137160000Y-104140000D01*
X147320000Y-101600000D02*
X137160000Y-101600000D01*
X147320000Y-96520000D02*
X147320000Y-101600000D01*
X134720000Y-96520000D02*
X147320000Y-96520000D01*
X134720000Y-96520000D02*
X134620000Y-96520000D01*
X149860000Y-106680000D02*
X162560000Y-106680000D01*
X149860000Y-124460000D02*
X149860000Y-106680000D01*
X152400000Y-124460000D02*
X149860000Y-124460000D01*
X139700000Y-99060000D02*
X144780000Y-99060000D01*
X134720000Y-99060000D02*
X139700000Y-99060000D01*
X129540000Y-106680000D02*
X134720000Y-106680000D01*
X162560000Y-111760000D02*
X157480000Y-111760000D01*
X157480000Y-111760000D02*
X157480000Y-127000000D01*
X132080000Y-114300000D02*
X129540000Y-114300000D01*
X157480000Y-127000000D02*
X139700000Y-127000000D01*
X139700000Y-127000000D02*
X139700000Y-116840000D01*
X139700000Y-116840000D02*
X132080000Y-116840000D01*
X132080000Y-116840000D02*
X132080000Y-114300000D01*
X157480000Y-88900000D02*
X157480000Y-93980000D01*
X157480000Y-93980000D02*
X157480000Y-104140000D01*
X157480000Y-104140000D02*
X152400000Y-104140000D01*
X152400000Y-104140000D02*
X152400000Y-93980000D01*
X152400000Y-93980000D02*
X129540000Y-93980000D01*
X129540000Y-93980000D02*
X129540000Y-99060000D01*
X170180000Y-104140000D02*
X175260000Y-104140000D01*
X180340000Y-109220000D02*
X182880000Y-109220000D01*
X180340000Y-104140000D02*
X180340000Y-109220000D01*
X175260000Y-104140000D02*
X180340000Y-104140000D01*
X129540000Y-99060000D02*
X129540000Y-101600000D01*
X154940000Y-99060000D02*
X154940000Y-91440000D01*
X129540000Y-91440000D02*
X128980000Y-92000000D01*
X154940000Y-91440000D02*
X129540000Y-91440000D01*
X128980000Y-92000000D02*
X126660000Y-92000000D01*
X116840000Y-99060000D02*
X121920000Y-99060000D01*
X116840000Y-104140000D02*
X121920000Y-104140000D01*
X116840000Y-114300000D02*
X121920000Y-114300000D01*
X116840000Y-116840000D02*
X121920000Y-116840000D01*
X182880000Y-83820000D02*
X187960000Y-83820000D01*
X182880000Y-86360000D02*
X187960000Y-86360000D01*
X182880000Y-88900000D02*
X187960000Y-88900000D01*
X182880000Y-91440000D02*
X187960000Y-91440000D01*
X182880000Y-93980000D02*
X187960000Y-93980000D01*
X182880000Y-96520000D02*
X187960000Y-96520000D01*
X182880000Y-99060000D02*
X187960000Y-99060000D01*
X182880000Y-101600000D02*
X187960000Y-101600000D01*
X170180000Y-86360000D02*
X175260000Y-86360000D01*
X170180000Y-88900000D02*
X175260000Y-88900000D01*
X170180000Y-91440000D02*
X175260000Y-91440000D01*
X170180000Y-93980000D02*
X175260000Y-93980000D01*
X162560000Y-109220000D02*
X154940000Y-109220000D01*
X175260000Y-81280000D02*
X175260000Y-83820000D01*
X190500000Y-81280000D02*
X175260000Y-81280000D01*
X190500000Y-124460000D02*
X190500000Y-81280000D01*
X162560000Y-124460000D02*
X190500000Y-124460000D01*
X129540000Y-111760000D02*
X134720000Y-111760000D01*
X129540000Y-109220000D02*
X134720000Y-109220000D01*
X162560000Y-101600000D02*
X167640000Y-101600000D01*
X167640000Y-101600000D02*
X167640000Y-111760000D01*
X167640000Y-111760000D02*
X172720000Y-111760000D01*
X172720000Y-111760000D02*
X175260000Y-111760000D01*
X162560000Y-104140000D02*
X165100000Y-104140000D01*
X165100000Y-104140000D02*
X165100000Y-114300000D01*
X165100000Y-114300000D02*
X172720000Y-114300000D01*
X172720000Y-114300000D02*
X175260000Y-114300000D01*
X170180000Y-96520000D02*
X175260000Y-96520000D01*
X170180000Y-99060000D02*
X175260000Y-99060000D01*
X170180000Y-101600000D02*
X175260000Y-101600000D01*
M02*
