G04 #@! TF.FileFunction,Soldermask,Top*
%FSLAX46Y46*%
G04 Gerber Fmt 4.6, Leading zero omitted, Abs format (unit mm)*
G04 Created by KiCad (PCBNEW 4.0.2-stable) date Friday, August 05, 2016 'pmt' 08:03:55 pm*
%MOMM*%
G01*
G04 APERTURE LIST*
%ADD10C,0.100000*%
%ADD11R,1.797000X1.797000*%
%ADD12R,1.700000X1.700000*%
%ADD13C,1.700000*%
%ADD14R,1.700000X1.100000*%
%ADD15R,2.432000X2.127200*%
%ADD16O,2.432000X2.127200*%
%ADD17R,2.127200X2.432000*%
%ADD18O,2.127200X2.432000*%
%ADD19R,2.432000X2.432000*%
%ADD20O,2.432000X2.432000*%
%ADD21C,1.924000*%
%ADD22C,1.797000*%
%ADD23R,1.900000X1.000000*%
%ADD24R,1.000000X2.400000*%
G04 APERTURE END LIST*
D10*
D11*
X10566400Y-4381500D03*
X13106400Y-4381500D03*
X15646400Y-4381500D03*
D12*
X13081000Y-19581500D03*
D13*
X13081000Y-17081500D03*
D14*
X15569000Y-35201500D03*
X15569000Y-37401500D03*
X18669000Y-37401500D03*
X18669000Y-35201500D03*
D15*
X1549400Y-8191500D03*
D16*
X1549400Y-10731500D03*
X1549400Y-13271500D03*
X1549400Y-15811500D03*
X1549400Y-18351500D03*
X1549400Y-20891500D03*
X1549400Y-23431500D03*
X1549400Y-25971500D03*
D15*
X1549400Y-28511500D03*
D16*
X1549400Y-31051500D03*
X1549400Y-33591500D03*
X1549400Y-36131500D03*
X1549400Y-38671500D03*
X1549400Y-41211500D03*
X1549400Y-43751500D03*
X1549400Y-46291500D03*
D17*
X18161000Y-8572500D03*
D18*
X15621000Y-8572500D03*
X13081000Y-8572500D03*
X10541000Y-8572500D03*
X8001000Y-8572500D03*
X5461000Y-8572500D03*
D19*
X6756400Y-4381500D03*
D20*
X6756400Y-1841500D03*
D17*
X23241000Y-9461500D03*
D18*
X25781000Y-9461500D03*
X28321000Y-9461500D03*
X30861000Y-9461500D03*
X33401000Y-9461500D03*
X35941000Y-9461500D03*
X38481000Y-9461500D03*
X41021000Y-9461500D03*
X43561000Y-9461500D03*
D17*
X25781000Y-25971500D03*
D18*
X28321000Y-25971500D03*
X30861000Y-25971500D03*
X33401000Y-25971500D03*
X35941000Y-25971500D03*
X38481000Y-25971500D03*
X41021000Y-25971500D03*
X43561000Y-25971500D03*
D17*
X23241000Y-29781500D03*
D18*
X25781000Y-29781500D03*
X28321000Y-29781500D03*
X30861000Y-29781500D03*
X33401000Y-29781500D03*
X35941000Y-29781500D03*
X38481000Y-29781500D03*
X41021000Y-29781500D03*
X43561000Y-29781500D03*
D17*
X23241000Y-46291500D03*
D18*
X25781000Y-46291500D03*
X28321000Y-46291500D03*
X30861000Y-46291500D03*
X33401000Y-46291500D03*
X35941000Y-46291500D03*
X38481000Y-46291500D03*
X41021000Y-46291500D03*
X43561000Y-46291500D03*
D21*
X25781000Y-23431500D03*
X25781000Y-13271500D03*
X23241000Y-32321500D03*
X23241000Y-42481500D03*
X5486400Y-12001500D03*
X15646400Y-12001500D03*
X5486400Y-14541500D03*
X15646400Y-14541500D03*
D11*
X23241000Y-25971500D03*
D22*
X23241000Y-23431500D03*
X23241000Y-20891500D03*
X23241000Y-18351500D03*
X23241000Y-15811500D03*
X23241000Y-13271500D03*
D11*
X10566400Y-1841500D03*
D22*
X13106400Y-1841500D03*
X15646400Y-1841500D03*
D23*
X5166400Y-17081500D03*
X5166400Y-18351500D03*
X5166400Y-19621500D03*
X5166400Y-20891500D03*
X5166400Y-22161500D03*
X5166400Y-23431500D03*
X5166400Y-24701500D03*
X5166400Y-25971500D03*
X10566400Y-25971500D03*
X10566400Y-24701500D03*
X10566400Y-23431500D03*
X10566400Y-22161500D03*
X10566400Y-20891500D03*
X10566400Y-19621500D03*
X10566400Y-18351500D03*
X10566400Y-17081500D03*
X5199400Y-28511500D03*
X5199400Y-29781500D03*
X5199400Y-31051500D03*
X5199400Y-32321500D03*
X5199400Y-33591500D03*
X5199400Y-34861500D03*
X5199400Y-36131500D03*
X5199400Y-37401500D03*
X10599400Y-37401500D03*
X10599400Y-36131500D03*
X10599400Y-34861500D03*
X10599400Y-33591500D03*
X10599400Y-32321500D03*
X10599400Y-31051500D03*
X10599400Y-29781500D03*
X10599400Y-28511500D03*
D24*
X28321000Y-22416500D03*
X29591000Y-22416500D03*
X30861000Y-22416500D03*
X32131000Y-22416500D03*
X33401000Y-22416500D03*
X34671000Y-22416500D03*
X35941000Y-22416500D03*
X37211000Y-22416500D03*
X38481000Y-22416500D03*
X39751000Y-22416500D03*
X41021000Y-22416500D03*
X42291000Y-22416500D03*
X43561000Y-22416500D03*
X44831000Y-22416500D03*
X44831000Y-13016500D03*
X43561000Y-13016500D03*
X42291000Y-13016500D03*
X41021000Y-13016500D03*
X39751000Y-13016500D03*
X38481000Y-13016500D03*
X37211000Y-13016500D03*
X35941000Y-13016500D03*
X34671000Y-13016500D03*
X33401000Y-13016500D03*
X32131000Y-13016500D03*
X30861000Y-13016500D03*
X29591000Y-13016500D03*
X28321000Y-13016500D03*
X28321000Y-42736500D03*
X29591000Y-42736500D03*
X30861000Y-42736500D03*
X32131000Y-42736500D03*
X33401000Y-42736500D03*
X34671000Y-42736500D03*
X35941000Y-42736500D03*
X37211000Y-42736500D03*
X38481000Y-42736500D03*
X39751000Y-42736500D03*
X41021000Y-42736500D03*
X42291000Y-42736500D03*
X43561000Y-42736500D03*
X44831000Y-42736500D03*
X44831000Y-33336500D03*
X43561000Y-33336500D03*
X42291000Y-33336500D03*
X41021000Y-33336500D03*
X39751000Y-33336500D03*
X38481000Y-33336500D03*
X37211000Y-33336500D03*
X35941000Y-33336500D03*
X34671000Y-33336500D03*
X33401000Y-33336500D03*
X32131000Y-33336500D03*
X30861000Y-33336500D03*
X29591000Y-33336500D03*
X28321000Y-33336500D03*
D22*
X36131500Y-1405500D03*
X36131500Y-5905500D03*
X29631500Y-1405500D03*
X29631500Y-5905500D03*
X45021500Y-1405500D03*
X45021500Y-5905500D03*
X38521500Y-1405500D03*
X38521500Y-5905500D03*
X27241500Y-1405500D03*
X27241500Y-5905500D03*
X20741500Y-1405500D03*
X20741500Y-5905500D03*
M02*
