M48
;DRILL file {KiCad 4.0.2-stable} date Friday, August 05, 2016 'pmt' 08:04:15 pm
;FORMAT={-:-/ absolute / metric / decimal}
FMAT,2
METRIC,TZ
T1C0.330
T2C0.800
T3C0.800
T4C0.813
T5C1.016
%
G90
G05
M71
T1
X6.731Y-30.162
X6.985Y-31.559
X7.112Y-34.798
X7.366Y-28.258
X7.493Y-22.543
X8.382Y-28.258
X8.509Y-30.416
X9.271Y-33.973
X10.096Y-14.668
X12.065Y-32.322
X12.954Y-24.701
X13.081Y-6.413
X13.716Y-36.131
X13.843Y-37.719
X13.97Y-33.591
X14.287Y-32.703
X15.367Y-19.494
X17.145Y-37.655
X17.907Y-29.527
X41.656Y-40.513
X42.291Y-36.957
X43.561Y-44.386
T2
X13.081Y-19.581
T3
X13.081Y-17.081
T4
X5.486Y-12.002
X5.486Y-14.541
X10.566Y-1.841
X13.106Y-1.841
X15.646Y-1.841
X15.646Y-12.002
X15.646Y-14.541
X20.741Y-1.405
X20.741Y-5.905
X23.241Y-13.271
X23.241Y-15.811
X23.241Y-18.351
X23.241Y-20.892
X23.241Y-23.431
X23.241Y-25.971
X23.241Y-32.322
X23.241Y-42.481
X25.781Y-13.271
X25.781Y-23.431
X27.241Y-1.405
X27.241Y-5.905
X29.631Y-1.405
X29.631Y-5.905
X36.131Y-1.405
X36.131Y-5.905
X38.521Y-1.405
X38.521Y-5.905
X45.021Y-1.405
X45.021Y-5.905
T5
X1.549Y-8.191
X1.549Y-10.731
X1.549Y-13.271
X1.549Y-15.811
X1.549Y-18.351
X1.549Y-20.892
X1.549Y-23.431
X1.549Y-25.971
X1.549Y-28.511
X1.549Y-31.051
X1.549Y-33.591
X1.549Y-36.131
X1.549Y-38.672
X1.549Y-41.212
X1.549Y-43.752
X1.549Y-46.291
X5.461Y-8.572
X6.756Y-1.841
X6.756Y-4.381
X8.001Y-8.572
X10.541Y-8.572
X13.081Y-8.572
X15.621Y-8.572
X18.161Y-8.572
X23.241Y-9.461
X23.241Y-29.781
X23.241Y-46.291
X25.781Y-9.461
X25.781Y-25.971
X25.781Y-29.781
X25.781Y-46.291
X28.321Y-9.461
X28.321Y-25.971
X28.321Y-29.781
X28.321Y-46.291
X30.861Y-9.461
X30.861Y-25.971
X30.861Y-29.781
X30.861Y-46.291
X33.401Y-9.461
X33.401Y-25.971
X33.401Y-29.781
X33.401Y-46.291
X35.941Y-9.461
X35.941Y-25.971
X35.941Y-29.781
X35.941Y-46.291
X38.481Y-9.461
X38.481Y-25.971
X38.481Y-29.781
X38.481Y-46.291
X41.021Y-9.461
X41.021Y-25.971
X41.021Y-29.781
X41.021Y-46.291
X43.561Y-9.461
X43.561Y-25.971
X43.561Y-29.781
X43.561Y-46.291
T0
M30
