G04 #@! TF.FileFunction,Legend,Bot*
%FSLAX46Y46*%
G04 Gerber Fmt 4.6, Leading zero omitted, Abs format (unit mm)*
G04 Created by KiCad (PCBNEW 4.0.2-stable) date Friday, August 05, 2016 'pmt' 08:03:55 pm*
%MOMM*%
G01*
G04 APERTURE LIST*
%ADD10C,0.100000*%
%ADD11C,0.150000*%
%ADD12C,0.152400*%
%ADD13R,1.700000X1.700000*%
%ADD14C,1.700000*%
%ADD15R,2.432000X2.127200*%
%ADD16O,2.432000X2.127200*%
%ADD17R,2.127200X2.432000*%
%ADD18O,2.127200X2.432000*%
%ADD19R,2.432000X2.432000*%
%ADD20O,2.432000X2.432000*%
%ADD21C,1.924000*%
%ADD22R,1.797000X1.797000*%
%ADD23C,1.797000*%
%ADD24R,2.901900X1.400760*%
%ADD25R,4.400500X2.398980*%
%ADD26R,2.900000X1.500000*%
G04 APERTURE END LIST*
D10*
D11*
X7452360Y-16451580D02*
X7152640Y-16700500D01*
X7152640Y-16700500D02*
X7002780Y-16802100D01*
X7002780Y-16802100D02*
X7851140Y-16802100D01*
X5951220Y-16101060D02*
X7752080Y-16101060D01*
X5951220Y-16101060D02*
X5951220Y-16751300D01*
X5951220Y-20601940D02*
X7752080Y-20601940D01*
X5951220Y-20601940D02*
X5951220Y-19951700D01*
D12*
X4191000Y-24193500D02*
X4191000Y-23431500D01*
X4191000Y-23431500D02*
X20193000Y-23431500D01*
X20193000Y-23431500D02*
X20193000Y-24193500D01*
D11*
X5206905Y-15771881D02*
X5206905Y-16581405D01*
X5159286Y-16676643D01*
X5111667Y-16724262D01*
X5016429Y-16771881D01*
X4825952Y-16771881D01*
X4730714Y-16724262D01*
X4683095Y-16676643D01*
X4635476Y-16581405D01*
X4635476Y-15771881D01*
X3730714Y-16105214D02*
X3730714Y-16771881D01*
X3968810Y-15724262D02*
X4206905Y-16438548D01*
X3587857Y-16438548D01*
X19938905Y-21867881D02*
X19938905Y-22677405D01*
X19891286Y-22772643D01*
X19843667Y-22820262D01*
X19748429Y-22867881D01*
X19557952Y-22867881D01*
X19462714Y-22820262D01*
X19415095Y-22772643D01*
X19367476Y-22677405D01*
X19367476Y-21867881D01*
X18986524Y-21867881D02*
X18367476Y-21867881D01*
X18700810Y-22248833D01*
X18557952Y-22248833D01*
X18462714Y-22296452D01*
X18415095Y-22344071D01*
X18367476Y-22439310D01*
X18367476Y-22677405D01*
X18415095Y-22772643D01*
X18462714Y-22820262D01*
X18557952Y-22867881D01*
X18843667Y-22867881D01*
X18938905Y-22820262D01*
X18986524Y-22772643D01*
%LPC*%
D13*
X13081000Y-19581500D03*
D14*
X13081000Y-17081500D03*
D15*
X1549400Y-8191500D03*
D16*
X1549400Y-10731500D03*
X1549400Y-13271500D03*
X1549400Y-15811500D03*
X1549400Y-18351500D03*
X1549400Y-20891500D03*
X1549400Y-23431500D03*
X1549400Y-25971500D03*
D15*
X1549400Y-28511500D03*
D16*
X1549400Y-31051500D03*
X1549400Y-33591500D03*
X1549400Y-36131500D03*
X1549400Y-38671500D03*
X1549400Y-41211500D03*
X1549400Y-43751500D03*
X1549400Y-46291500D03*
D17*
X18161000Y-8572500D03*
D18*
X15621000Y-8572500D03*
X13081000Y-8572500D03*
X10541000Y-8572500D03*
X8001000Y-8572500D03*
X5461000Y-8572500D03*
D19*
X6756400Y-4381500D03*
D20*
X6756400Y-1841500D03*
D17*
X23241000Y-9461500D03*
D18*
X25781000Y-9461500D03*
X28321000Y-9461500D03*
X30861000Y-9461500D03*
X33401000Y-9461500D03*
X35941000Y-9461500D03*
X38481000Y-9461500D03*
X41021000Y-9461500D03*
X43561000Y-9461500D03*
D17*
X25781000Y-25971500D03*
D18*
X28321000Y-25971500D03*
X30861000Y-25971500D03*
X33401000Y-25971500D03*
X35941000Y-25971500D03*
X38481000Y-25971500D03*
X41021000Y-25971500D03*
X43561000Y-25971500D03*
D17*
X23241000Y-29781500D03*
D18*
X25781000Y-29781500D03*
X28321000Y-29781500D03*
X30861000Y-29781500D03*
X33401000Y-29781500D03*
X35941000Y-29781500D03*
X38481000Y-29781500D03*
X41021000Y-29781500D03*
X43561000Y-29781500D03*
D17*
X23241000Y-46291500D03*
D18*
X25781000Y-46291500D03*
X28321000Y-46291500D03*
X30861000Y-46291500D03*
X33401000Y-46291500D03*
X35941000Y-46291500D03*
X38481000Y-46291500D03*
X41021000Y-46291500D03*
X43561000Y-46291500D03*
D21*
X25781000Y-23431500D03*
X25781000Y-13271500D03*
X23241000Y-32321500D03*
X23241000Y-42481500D03*
X5486400Y-12001500D03*
X15646400Y-12001500D03*
X5486400Y-14541500D03*
X15646400Y-14541500D03*
D22*
X23241000Y-25971500D03*
D23*
X23241000Y-23431500D03*
X23241000Y-20891500D03*
X23241000Y-18351500D03*
X23241000Y-15811500D03*
X23241000Y-13271500D03*
D22*
X10566400Y-1841500D03*
D23*
X13106400Y-1841500D03*
X15646400Y-1841500D03*
D24*
X9603740Y-16850360D03*
X9603740Y-18351500D03*
X9603740Y-19852640D03*
D25*
X5651500Y-18351500D03*
D10*
G36*
X8575650Y-19051880D02*
X7426350Y-19552260D01*
X7426350Y-17150740D01*
X8575650Y-17651120D01*
X8575650Y-19051880D01*
X8575650Y-19051880D01*
G37*
D26*
X4507000Y-39052500D03*
X4507000Y-37052500D03*
X4507000Y-35052500D03*
X4507000Y-33052500D03*
X4507000Y-31052500D03*
X4507000Y-29052500D03*
X4507000Y-27052500D03*
X4507000Y-25052500D03*
X19907000Y-25052500D03*
X19807000Y-27052500D03*
X19907000Y-29052500D03*
X19907000Y-31052500D03*
X19907000Y-33052500D03*
X19907000Y-35052500D03*
X19907000Y-37052500D03*
X19907000Y-39052500D03*
D23*
X36131500Y-1405500D03*
X36131500Y-5905500D03*
X29631500Y-1405500D03*
X29631500Y-5905500D03*
X45021500Y-1405500D03*
X45021500Y-5905500D03*
X38521500Y-1405500D03*
X38521500Y-5905500D03*
X27241500Y-1405500D03*
X27241500Y-5905500D03*
X20741500Y-1405500D03*
X20741500Y-5905500D03*
M02*
