G04 #@! TF.FileFunction,Copper,L1,Top,Signal*
%FSLAX46Y46*%
G04 Gerber Fmt 4.6, Leading zero omitted, Abs format (unit mm)*
G04 Created by KiCad (PCBNEW 4.0.2-stable) date Friday, August 05, 2016 'pmt' 09:57:19 pm*
%MOMM*%
G01*
G04 APERTURE LIST*
%ADD10C,0.100000*%
%ADD11R,0.600000X2.000000*%
%ADD12C,1.524000*%
%ADD13R,1.727200X2.032000*%
%ADD14O,1.727200X2.032000*%
%ADD15R,1.397000X1.397000*%
%ADD16R,1.300000X1.300000*%
%ADD17C,1.300000*%
%ADD18R,1.300000X0.700000*%
%ADD19R,2.032000X1.727200*%
%ADD20O,2.032000X1.727200*%
%ADD21R,2.032000X2.032000*%
%ADD22O,2.032000X2.032000*%
%ADD23C,1.397000*%
%ADD24R,1.500000X0.600000*%
%ADD25C,0.685800*%
%ADD26C,0.152400*%
%ADD27C,0.254000*%
G04 APERTURE END LIST*
D10*
D11*
X46355000Y-57341500D03*
X47625000Y-57341500D03*
X48895000Y-57341500D03*
X50165000Y-57341500D03*
X51435000Y-57341500D03*
X52705000Y-57341500D03*
X53975000Y-57341500D03*
X55245000Y-57341500D03*
X56515000Y-57341500D03*
X57785000Y-57341500D03*
X59055000Y-57341500D03*
X60325000Y-57341500D03*
X61595000Y-57341500D03*
X62865000Y-57341500D03*
X62865000Y-47941500D03*
X61595000Y-47941500D03*
X60325000Y-47941500D03*
X59055000Y-47941500D03*
X57785000Y-47941500D03*
X56515000Y-47941500D03*
X55245000Y-47941500D03*
X53975000Y-47941500D03*
X52705000Y-47941500D03*
X51435000Y-47941500D03*
X50165000Y-47941500D03*
X48895000Y-47941500D03*
X47625000Y-47941500D03*
X46355000Y-47941500D03*
D12*
X23520400Y-29146500D03*
X33680400Y-29146500D03*
D13*
X36195000Y-23177500D03*
D14*
X33655000Y-23177500D03*
X31115000Y-23177500D03*
X28575000Y-23177500D03*
X26035000Y-23177500D03*
X23495000Y-23177500D03*
D12*
X43815000Y-38036500D03*
X43815000Y-27876500D03*
D15*
X28600400Y-18986500D03*
X31140400Y-18986500D03*
X33680400Y-18986500D03*
D16*
X31115000Y-34186500D03*
D17*
X31115000Y-31686500D03*
D18*
X33603000Y-49806500D03*
X33603000Y-52006500D03*
X36703000Y-52006500D03*
X36703000Y-49806500D03*
D19*
X19583400Y-22796500D03*
D20*
X19583400Y-25336500D03*
X19583400Y-27876500D03*
X19583400Y-30416500D03*
X19583400Y-32956500D03*
X19583400Y-35496500D03*
X19583400Y-38036500D03*
X19583400Y-40576500D03*
D19*
X19583400Y-43116500D03*
D20*
X19583400Y-45656500D03*
X19583400Y-48196500D03*
X19583400Y-50736500D03*
X19583400Y-53276500D03*
X19583400Y-55816500D03*
X19583400Y-58356500D03*
X19583400Y-60896500D03*
D21*
X24790400Y-18986500D03*
D22*
X24790400Y-16446500D03*
D13*
X41275000Y-24066500D03*
D14*
X43815000Y-24066500D03*
X46355000Y-24066500D03*
X48895000Y-24066500D03*
X51435000Y-24066500D03*
X53975000Y-24066500D03*
X56515000Y-24066500D03*
X59055000Y-24066500D03*
X61595000Y-24066500D03*
D13*
X43815000Y-40576500D03*
D14*
X46355000Y-40576500D03*
X48895000Y-40576500D03*
X51435000Y-40576500D03*
X53975000Y-40576500D03*
X56515000Y-40576500D03*
X59055000Y-40576500D03*
X61595000Y-40576500D03*
D13*
X41275000Y-44386500D03*
D14*
X43815000Y-44386500D03*
X46355000Y-44386500D03*
X48895000Y-44386500D03*
X51435000Y-44386500D03*
X53975000Y-44386500D03*
X56515000Y-44386500D03*
X59055000Y-44386500D03*
X61595000Y-44386500D03*
D13*
X41275000Y-60896500D03*
D14*
X43815000Y-60896500D03*
X46355000Y-60896500D03*
X48895000Y-60896500D03*
X51435000Y-60896500D03*
X53975000Y-60896500D03*
X56515000Y-60896500D03*
X59055000Y-60896500D03*
X61595000Y-60896500D03*
D12*
X41275000Y-46926500D03*
X41275000Y-57086500D03*
X23520400Y-26606500D03*
X33680400Y-26606500D03*
D15*
X41275000Y-40576500D03*
D23*
X41275000Y-38036500D03*
X41275000Y-35496500D03*
X41275000Y-32956500D03*
X41275000Y-30416500D03*
X41275000Y-27876500D03*
D15*
X28600400Y-16446500D03*
D23*
X31140400Y-16446500D03*
X33680400Y-16446500D03*
D24*
X23200400Y-31686500D03*
X23200400Y-32956500D03*
X23200400Y-34226500D03*
X23200400Y-35496500D03*
X23200400Y-36766500D03*
X23200400Y-38036500D03*
X23200400Y-39306500D03*
X23200400Y-40576500D03*
X28600400Y-40576500D03*
X28600400Y-39306500D03*
X28600400Y-38036500D03*
X28600400Y-36766500D03*
X28600400Y-35496500D03*
X28600400Y-34226500D03*
X28600400Y-32956500D03*
X28600400Y-31686500D03*
X23233400Y-43116500D03*
X23233400Y-44386500D03*
X23233400Y-45656500D03*
X23233400Y-46926500D03*
X23233400Y-48196500D03*
X23233400Y-49466500D03*
X23233400Y-50736500D03*
X23233400Y-52006500D03*
X28633400Y-52006500D03*
X28633400Y-50736500D03*
X28633400Y-49466500D03*
X28633400Y-48196500D03*
X28633400Y-46926500D03*
X28633400Y-45656500D03*
X28633400Y-44386500D03*
X28633400Y-43116500D03*
D11*
X46355000Y-37021500D03*
X47625000Y-37021500D03*
X48895000Y-37021500D03*
X50165000Y-37021500D03*
X51435000Y-37021500D03*
X52705000Y-37021500D03*
X53975000Y-37021500D03*
X55245000Y-37021500D03*
X56515000Y-37021500D03*
X57785000Y-37021500D03*
X59055000Y-37021500D03*
X60325000Y-37021500D03*
X61595000Y-37021500D03*
X62865000Y-37021500D03*
X62865000Y-27621500D03*
X61595000Y-27621500D03*
X60325000Y-27621500D03*
X59055000Y-27621500D03*
X57785000Y-27621500D03*
X56515000Y-27621500D03*
X55245000Y-27621500D03*
X53975000Y-27621500D03*
X52705000Y-27621500D03*
X51435000Y-27621500D03*
X50165000Y-27621500D03*
X48895000Y-27621500D03*
X47625000Y-27621500D03*
X46355000Y-27621500D03*
D23*
X54165500Y-16010500D03*
X54165500Y-20510500D03*
X47665500Y-16010500D03*
X47665500Y-20510500D03*
X63055500Y-16010500D03*
X63055500Y-20510500D03*
X56555500Y-16010500D03*
X56555500Y-20510500D03*
X45275500Y-16010500D03*
X45275500Y-20510500D03*
X38775500Y-16010500D03*
X38775500Y-20510500D03*
D25*
X56896004Y-49911000D03*
X25019000Y-30861000D03*
X27051000Y-29591000D03*
X25527000Y-26543000D03*
X25527010Y-29591000D03*
X28575002Y-29591000D03*
X30734000Y-52324000D03*
X24892000Y-52324000D03*
X25781000Y-52324000D03*
X26797000Y-52324000D03*
X62103000Y-52451000D03*
X61087000Y-51181000D03*
X59817000Y-52451000D03*
X61341000Y-53848000D03*
X62103000Y-50038000D03*
X60325000Y-50038000D03*
X55372002Y-21971000D03*
X60325002Y-22225000D03*
X61849000Y-21844000D03*
X59563000Y-20447000D03*
X44958000Y-36322000D03*
X44196000Y-30734000D03*
X45847000Y-31623000D03*
X44323000Y-33147000D03*
X42799000Y-34163000D03*
X42799000Y-31623000D03*
X42799000Y-29337000D03*
X39624000Y-25908000D03*
X39624000Y-27686000D03*
X39624000Y-22225000D03*
X38735000Y-23114000D03*
X39624000Y-29591000D03*
X38734998Y-24765000D03*
X38734998Y-26797000D03*
X38734996Y-28575000D03*
X41275000Y-26162000D03*
X45085000Y-22225000D03*
X47625000Y-22352000D03*
X40767000Y-18923000D03*
X41021000Y-20447000D03*
X45974000Y-17907000D03*
X39243000Y-18415004D03*
X35560000Y-17780000D03*
X36576000Y-16509998D03*
X35560000Y-19812000D03*
X35306000Y-15748000D03*
X36449000Y-18796000D03*
X36449000Y-21082000D03*
X26797000Y-20066000D03*
X26797000Y-17653000D03*
X26797000Y-18923000D03*
X21717000Y-22478994D03*
X24384000Y-21209000D03*
X22733000Y-20701000D03*
X19176996Y-20701000D03*
X20955000Y-15748000D03*
X20955000Y-20701000D03*
X20955000Y-18923000D03*
X20955000Y-17399000D03*
X35560000Y-31877000D03*
X36830000Y-30988000D03*
X35433000Y-30226000D03*
X36449004Y-29083000D03*
X36195000Y-25527000D03*
X32385000Y-25019008D03*
X34671000Y-25019000D03*
X35179000Y-27940000D03*
X34036000Y-31115000D03*
X34036000Y-32766000D03*
X38100000Y-31750000D03*
X36449000Y-27051000D03*
X30988000Y-29845000D03*
X27432000Y-26542998D03*
X25019000Y-27940000D03*
X26670000Y-27940000D03*
X28575000Y-27940000D03*
X26162000Y-25273000D03*
X57785000Y-50799988D03*
X57912010Y-49911000D03*
X39497000Y-36576000D03*
X38481000Y-36576000D03*
X37465000Y-36576000D03*
X28702000Y-41783000D03*
X27559000Y-41910000D03*
X26416000Y-41529000D03*
X27051000Y-40512998D03*
X26416000Y-45339000D03*
X25400000Y-49022000D03*
X25400000Y-47879000D03*
X25908000Y-49911002D03*
X31750000Y-52324000D03*
X46482000Y-30226000D03*
X45212000Y-29210000D03*
X41275000Y-21844000D03*
X46482000Y-21844000D03*
X43307000Y-20701000D03*
X48895000Y-19304000D03*
X46482004Y-19304000D03*
X43560999Y-15621001D03*
X40259000Y-17399000D03*
X53086000Y-17653000D03*
X50292000Y-16891000D03*
X51435000Y-18288000D03*
X58420004Y-17145000D03*
X56515000Y-18160996D03*
X59944004Y-18161000D03*
X61341000Y-17145008D03*
X55372000Y-19177000D03*
X58039000Y-19177000D03*
X57784998Y-22225000D03*
X59944000Y-15748000D03*
X61340996Y-15748000D03*
X61595000Y-19177000D03*
X60325000Y-25781000D03*
X63500000Y-25781000D03*
X63500000Y-29718000D03*
X25781000Y-44450000D03*
X60579000Y-33147000D03*
X60579000Y-31369000D03*
X42291000Y-19304000D03*
X42164000Y-17399000D03*
X61341004Y-42545000D03*
X42672000Y-26669998D03*
X22733000Y-17399000D03*
X22733000Y-18923000D03*
X19177004Y-17399000D03*
X61722000Y-29718000D03*
X53721000Y-22098000D03*
X63500000Y-31369000D03*
X63500000Y-33147000D03*
X63500000Y-34925000D03*
X61722000Y-34925000D03*
X59690000Y-34925000D03*
X57785000Y-34925000D03*
X57785000Y-33147000D03*
X57785000Y-31369000D03*
X59309000Y-29718000D03*
X61595000Y-25781000D03*
X63500000Y-24003000D03*
X63500000Y-22225000D03*
X63500000Y-18796000D03*
X63500000Y-17653000D03*
X58420000Y-15748000D03*
X52324000Y-15748006D03*
X50927004Y-15748000D03*
X49403000Y-15748000D03*
X51435000Y-20066000D03*
X51435000Y-21971000D03*
X44450000Y-18796000D03*
X42926000Y-22098000D03*
X49022000Y-21844000D03*
X40640000Y-15621000D03*
X42164000Y-15621000D03*
X43942000Y-17399000D03*
X47879000Y-17907000D03*
X22733002Y-15748000D03*
X19177000Y-18923000D03*
X19177000Y-15748000D03*
X48006000Y-29718000D03*
X35052016Y-52324000D03*
X34544000Y-21336000D03*
X31750000Y-50736500D03*
X33401000Y-34099500D03*
X25527000Y-37147500D03*
X26416016Y-42862500D03*
X32258000Y-47117000D03*
X32258004Y-48260000D03*
X30099000Y-46926500D03*
X31115000Y-21018500D03*
X30988008Y-39306500D03*
X35941000Y-44132500D03*
X25400002Y-42862500D03*
X27305000Y-48577508D03*
X24765002Y-44767500D03*
X25019000Y-46164500D03*
X59690000Y-55118000D03*
X61595000Y-58991500D03*
D26*
X36703000Y-52006500D02*
X38290500Y-52006500D01*
X41783000Y-58801000D02*
X50673000Y-49911000D01*
X39497000Y-53213000D02*
X39497000Y-58801000D01*
X50673000Y-49911000D02*
X56896004Y-49911000D01*
X38290500Y-52006500D02*
X39497000Y-53213000D01*
X39497000Y-58801000D02*
X41783000Y-58801000D01*
X25019000Y-30099010D02*
X25019000Y-30861000D01*
X25527010Y-29591000D02*
X25019000Y-30099010D01*
X26670000Y-27940000D02*
X26670000Y-29210000D01*
X26670000Y-29210000D02*
X27051000Y-29591000D01*
X25527000Y-25908000D02*
X25527000Y-26543000D01*
X26162000Y-25273000D02*
X25527000Y-25908000D01*
X30734000Y-52324000D02*
X31750000Y-52324000D01*
X25908000Y-49911002D02*
X25908000Y-51435000D01*
X25908000Y-51435000D02*
X26797000Y-52324000D01*
X61341000Y-53213000D02*
X62103000Y-52451000D01*
X61341000Y-53848000D02*
X61341000Y-53213000D01*
X60706000Y-51562000D02*
X61087000Y-51181000D01*
X60325000Y-51562000D02*
X60706000Y-51562000D01*
X60325000Y-51943000D02*
X59817000Y-52451000D01*
X60325000Y-51562000D02*
X60325000Y-51943000D01*
X60325000Y-50038000D02*
X62103000Y-50038000D01*
X55626002Y-22225000D02*
X55372002Y-21971000D01*
X57784998Y-22225000D02*
X55626002Y-22225000D01*
X61468000Y-22225000D02*
X60325002Y-22225000D01*
X61849000Y-21844000D02*
X61468000Y-22225000D01*
X59563000Y-21462998D02*
X60325002Y-22225000D01*
X59563000Y-20447000D02*
X59563000Y-21462998D01*
X62230000Y-22225000D02*
X61849000Y-21844000D01*
X63500000Y-22225000D02*
X62230000Y-22225000D01*
X42799000Y-34163000D02*
X44958000Y-36322000D01*
X44196000Y-30734000D02*
X45212000Y-29718000D01*
X45212000Y-29718000D02*
X45212000Y-29210000D01*
X44323000Y-33147000D02*
X45847000Y-31623000D01*
X42799000Y-31623000D02*
X42799000Y-34163000D01*
X44450000Y-29972000D02*
X43434000Y-29972000D01*
X43434000Y-29972000D02*
X42799000Y-29337000D01*
X45212000Y-29210000D02*
X44450000Y-29972000D01*
X39878000Y-26162000D02*
X39624000Y-25908000D01*
X41275000Y-26162000D02*
X39878000Y-26162000D01*
X39624000Y-29591000D02*
X39624000Y-27686000D01*
X39624000Y-21844000D02*
X39624000Y-22225000D01*
X41021000Y-20447000D02*
X39624000Y-21844000D01*
X38735000Y-23367998D02*
X38735000Y-23114000D01*
X38631065Y-23471933D02*
X38735000Y-23367998D01*
X38608002Y-23471933D02*
X38631065Y-23471933D01*
X39624000Y-34417000D02*
X39624000Y-29591000D01*
X39497000Y-34544000D02*
X39624000Y-34417000D01*
X38734998Y-23598929D02*
X38734998Y-24765000D01*
X38608002Y-23471933D02*
X38734998Y-23598929D01*
X38735000Y-26797000D02*
X38734998Y-26797000D01*
X38734996Y-26797004D02*
X38734996Y-28575000D01*
X38735000Y-26797000D02*
X38734996Y-26797004D01*
X44704000Y-21844000D02*
X45085000Y-22225000D01*
X44069000Y-21844000D02*
X44704000Y-21844000D01*
X47117000Y-21844000D02*
X47625000Y-22352000D01*
X46482000Y-21844000D02*
X47117000Y-21844000D01*
X38989000Y-18923000D02*
X40767000Y-18923000D01*
X38862000Y-18796000D02*
X38989000Y-18923000D01*
X47879000Y-17907000D02*
X45974000Y-17907000D01*
X39243000Y-18415000D02*
X39243000Y-18415004D01*
X40259000Y-17399000D02*
X39243000Y-18415000D01*
X35306000Y-17526000D02*
X35560000Y-17780000D01*
X35306000Y-15748000D02*
X35306000Y-17526000D01*
X36576000Y-16510000D02*
X36576000Y-16509998D01*
X36449000Y-16637000D02*
X36576000Y-16510000D01*
X36449000Y-21082000D02*
X36449000Y-18796000D01*
X26797000Y-18923000D02*
X26797000Y-20066000D01*
X26797000Y-18923000D02*
X26797000Y-17653000D01*
X21717000Y-21717000D02*
X21717000Y-22478994D01*
X22733000Y-20701000D02*
X21717000Y-21717000D01*
X24790400Y-20802600D02*
X24384000Y-21209000D01*
X24790400Y-18986500D02*
X24790400Y-20802600D01*
X20955000Y-20701000D02*
X19176996Y-20701000D01*
X19177000Y-15748000D02*
X20955000Y-15748000D01*
X20955000Y-17399000D02*
X20955000Y-18923000D01*
X35687000Y-31750000D02*
X35560000Y-31877000D01*
X38100000Y-31750000D02*
X35687000Y-31750000D01*
X36830000Y-29463996D02*
X36830000Y-30988000D01*
X36449004Y-29083000D02*
X36830000Y-29463996D01*
X35179000Y-27940000D02*
X35179000Y-29972000D01*
X35179000Y-29972000D02*
X35433000Y-30226000D01*
X35687000Y-25019000D02*
X36195000Y-25527000D01*
X34671000Y-25019000D02*
X35687000Y-25019000D01*
X36195000Y-23177500D02*
X36195000Y-25527000D01*
X34417008Y-25019008D02*
X32385000Y-25019008D01*
X36449000Y-27051000D02*
X34417008Y-25019008D01*
X34036000Y-32766000D02*
X34036000Y-31115000D01*
X29972000Y-29845000D02*
X29972000Y-30543500D01*
X29972000Y-30543500D02*
X31115000Y-31686500D01*
X30988000Y-29845000D02*
X29972000Y-29845000D01*
X28575000Y-27940000D02*
X27432000Y-26797000D01*
X27432000Y-26797000D02*
X27432000Y-26542998D01*
X24726900Y-27940000D02*
X25019000Y-27940000D01*
X23520400Y-29146500D02*
X24726900Y-27940000D01*
X57785000Y-50799988D02*
X56896012Y-49911000D01*
X56896012Y-49911000D02*
X56896004Y-49911000D01*
X57912010Y-49911000D02*
X56896004Y-49911000D01*
X37465000Y-36576000D02*
X39497000Y-34544000D01*
X39497000Y-36576000D02*
X39497000Y-34544000D01*
X37465000Y-36576000D02*
X38481000Y-36576000D01*
X60325000Y-51562000D02*
X60325000Y-47941500D01*
X28633400Y-45656500D02*
X26733500Y-45656500D01*
X26733500Y-45656500D02*
X26416000Y-45339000D01*
X28600400Y-40576500D02*
X28600400Y-41681400D01*
X28600400Y-41681400D02*
X28702000Y-41783000D01*
X27178000Y-41529000D02*
X27559000Y-41910000D01*
X26670000Y-41529000D02*
X27178000Y-41529000D01*
X26758899Y-41186101D02*
X26416000Y-41529000D01*
X26885899Y-41186101D02*
X26758899Y-41186101D01*
X28600400Y-40576500D02*
X27495500Y-40576500D01*
X27495500Y-40576500D02*
X26885899Y-41186101D01*
X27051000Y-40512998D02*
X27051000Y-41021000D01*
X27051000Y-41021000D02*
X26885899Y-41186101D01*
X26416000Y-45085000D02*
X26416000Y-45339000D01*
X25781000Y-44450000D02*
X26416000Y-45085000D01*
X25400000Y-49784000D02*
X25400000Y-49022000D01*
X25527000Y-49911000D02*
X25400000Y-49784000D01*
X28183400Y-52006500D02*
X26087902Y-49911002D01*
X28633400Y-52006500D02*
X28183400Y-52006500D01*
X25907998Y-49911000D02*
X25908000Y-49911002D01*
X26087902Y-49911002D02*
X25908000Y-49911002D01*
X25527000Y-49911000D02*
X25907998Y-49911000D01*
X31115000Y-52324000D02*
X31750000Y-52324000D01*
X30035506Y-52006500D02*
X30480000Y-52450994D01*
X31138067Y-52451000D02*
X31138061Y-52450994D01*
X30226000Y-52324000D02*
X31115000Y-52324000D01*
X31138061Y-52450994D02*
X30480000Y-52450994D01*
X30988000Y-52451000D02*
X31138067Y-52451000D01*
X28633400Y-52006500D02*
X30035506Y-52006500D01*
X31115000Y-52324000D02*
X31115000Y-52427933D01*
X31115000Y-52427933D02*
X31138067Y-52451000D01*
X30861000Y-52324000D02*
X30988000Y-52451000D01*
X46990000Y-29718000D02*
X46482000Y-30226000D01*
X48006000Y-29718000D02*
X46990000Y-29718000D01*
X45720000Y-29718000D02*
X46609000Y-29718000D01*
X45212000Y-29210000D02*
X45720000Y-29718000D01*
X38608000Y-24384000D02*
X38608002Y-24383998D01*
X38608002Y-24383998D02*
X38608002Y-23471933D01*
X41529000Y-22098000D02*
X41275000Y-21844000D01*
X42926000Y-22098000D02*
X41529000Y-22098000D01*
X43307000Y-19939000D02*
X43307000Y-20701000D01*
X44450000Y-18796000D02*
X43307000Y-19939000D01*
X48872000Y-19304000D02*
X48895000Y-19304000D01*
X47665500Y-20510500D02*
X48872000Y-19304000D01*
X49022000Y-19431000D02*
X48895000Y-19304000D01*
X49022000Y-21844000D02*
X49022000Y-19431000D01*
X48895000Y-19431000D02*
X48895000Y-19304000D01*
X51435000Y-21971000D02*
X48895000Y-19431000D01*
X46482004Y-19303996D02*
X46482004Y-19304000D01*
X47879000Y-17907000D02*
X46482004Y-19303996D01*
X43942000Y-16002002D02*
X43560999Y-15621001D01*
X43942000Y-17399000D02*
X43942000Y-16002002D01*
X42164000Y-17399000D02*
X40259000Y-17399000D01*
X52743101Y-17310101D02*
X53086000Y-17653000D01*
X50292000Y-16637000D02*
X50292000Y-16891000D01*
X49403000Y-15748000D02*
X50292000Y-16637000D01*
X51435000Y-20066000D02*
X51435000Y-18288000D01*
X58928004Y-17145000D02*
X58420004Y-17145000D01*
X59944004Y-18161000D02*
X58928004Y-17145000D01*
X58420000Y-15748000D02*
X58420000Y-17144996D01*
X58039000Y-17526004D02*
X58420004Y-17145000D01*
X58420000Y-17144996D02*
X58420004Y-17145000D01*
X58039000Y-19177000D02*
X58039000Y-17526004D01*
X56388006Y-18160996D02*
X56515000Y-18160996D01*
X56172101Y-18376901D02*
X56388006Y-18160996D01*
X61848992Y-17653000D02*
X61341000Y-17145008D01*
X62230000Y-17653000D02*
X61848992Y-17653000D01*
X55372000Y-19177000D02*
X56172101Y-18376901D01*
X55753002Y-18796000D02*
X56172101Y-18376901D01*
X55372000Y-18796000D02*
X55753002Y-18796000D01*
X57889000Y-19177000D02*
X58039000Y-19177000D01*
X56555500Y-20510500D02*
X57889000Y-19177000D01*
X61595000Y-19177000D02*
X58039000Y-19177000D01*
X61340996Y-15748000D02*
X59944000Y-15748000D01*
X63500000Y-17653000D02*
X62230000Y-17653000D01*
X62230000Y-17780000D02*
X62230000Y-17653000D01*
X63119000Y-19177000D02*
X61595000Y-19177000D01*
X63500000Y-18796000D02*
X63119000Y-19177000D01*
X61722000Y-19177000D02*
X61595000Y-19177000D01*
X63055500Y-20510500D02*
X61722000Y-19177000D01*
X61595000Y-25781000D02*
X60325000Y-25781000D01*
X63500000Y-24003000D02*
X63500000Y-25781000D01*
X62865000Y-29083000D02*
X63500000Y-29718000D01*
X63373000Y-29591000D02*
X63500000Y-29718000D01*
X62865000Y-27621500D02*
X62865000Y-29083000D01*
X63015067Y-29591000D02*
X63373000Y-29591000D01*
X57785000Y-53847998D02*
X60324998Y-51308000D01*
X57785000Y-57341500D02*
X57785000Y-53847998D01*
X25400000Y-48768000D02*
X25400000Y-48387000D01*
X24892000Y-52451000D02*
X25527000Y-51816000D01*
X25527000Y-51816000D02*
X25527000Y-49911000D01*
X31115000Y-52324000D02*
X30861000Y-52324000D01*
X27495500Y-52006500D02*
X28633400Y-52006500D01*
X59309000Y-29718000D02*
X60579000Y-30988000D01*
X60579000Y-30988000D02*
X60579000Y-31369000D01*
X60833000Y-42545000D02*
X61341004Y-42545000D01*
X38735000Y-26797000D02*
X38607999Y-26924001D01*
X42672000Y-26162000D02*
X42672000Y-26669998D01*
X42545000Y-26035000D02*
X42672000Y-26162000D01*
X22733002Y-17398998D02*
X22733000Y-17399000D01*
X22733002Y-15748000D02*
X22733002Y-17398998D01*
X22796500Y-18986500D02*
X22733000Y-18923000D01*
X24790400Y-18986500D02*
X22796500Y-18986500D01*
X19177000Y-17399004D02*
X19177004Y-17399000D01*
X19177000Y-18923000D02*
X19177000Y-17399004D01*
X59309000Y-29718000D02*
X61722000Y-29718000D01*
X55245000Y-21463000D02*
X55118000Y-21463000D01*
X55118000Y-21463000D02*
X54165500Y-20510500D01*
X54610000Y-22098000D02*
X55245000Y-21463000D01*
X53721000Y-22098000D02*
X54610000Y-22098000D01*
X63500000Y-33147000D02*
X63500000Y-31369000D01*
X61722000Y-34925000D02*
X63500000Y-34925000D01*
X57785000Y-34925000D02*
X59690000Y-34925000D01*
X57785000Y-31369000D02*
X57785000Y-33147000D01*
X52743103Y-17310099D02*
X52870101Y-17310099D01*
X52743101Y-17310101D02*
X52743103Y-17310099D01*
X52870101Y-17310099D02*
X53213000Y-17652998D01*
X52578000Y-17145002D02*
X52743101Y-17310101D01*
X52323994Y-15748000D02*
X52324000Y-15748006D01*
X50927004Y-15748000D02*
X52323994Y-15748000D01*
X42164000Y-15621000D02*
X40640000Y-15621000D01*
X23520400Y-29057600D02*
X23520400Y-28803598D01*
X35369516Y-52006500D02*
X35052016Y-52324000D01*
X36703000Y-52006500D02*
X35369516Y-52006500D01*
X30543500Y-52006500D02*
X30861000Y-52324000D01*
X28633400Y-52006500D02*
X30543500Y-52006500D01*
X36195000Y-21209000D02*
X36068000Y-21336000D01*
X36068000Y-21336000D02*
X34544000Y-21336000D01*
X36195000Y-23177500D02*
X36195000Y-21209000D01*
X28600400Y-40576500D02*
X28600400Y-41554400D01*
X28600400Y-41554400D02*
X28956000Y-41910000D01*
X28956000Y-41910000D02*
X30099000Y-41910000D01*
X30099000Y-41910000D02*
X30353000Y-42164000D01*
X30353000Y-42164000D02*
X30353000Y-44577000D01*
X30353000Y-44577000D02*
X29273500Y-45656500D01*
X29273500Y-45656500D02*
X28633400Y-45656500D01*
X45275500Y-20510500D02*
X43815000Y-19050000D01*
X43815000Y-19050000D02*
X40236000Y-19050000D01*
X40236000Y-19050000D02*
X38775500Y-20510500D01*
X46586000Y-19431000D02*
X46355000Y-19431000D01*
X46355000Y-19431000D02*
X45275500Y-20510500D01*
X47665500Y-20510500D02*
X46586000Y-19431000D01*
X55372000Y-19304000D02*
X55372000Y-19327000D01*
X55372000Y-19327000D02*
X56555500Y-20510500D01*
X54165500Y-20510500D02*
X55372000Y-19304000D01*
X28600400Y-40576500D02*
X27698000Y-40576500D01*
X28633400Y-45656500D02*
X27731000Y-45656500D01*
X27731000Y-45656500D02*
X27604000Y-45529500D01*
X27604000Y-45529500D02*
X27114500Y-45529500D01*
X26733500Y-33909000D02*
X26733500Y-30670500D01*
X26924000Y-34099500D02*
X26733500Y-33909000D01*
X27571000Y-34099500D02*
X26924000Y-34099500D01*
X28600400Y-34226500D02*
X27698000Y-34226500D01*
X27698000Y-34226500D02*
X27571000Y-34099500D01*
X27114500Y-45529500D02*
X26924000Y-45339000D01*
X29273500Y-30416500D02*
X29845000Y-30416500D01*
X29845000Y-30416500D02*
X31115000Y-31686500D01*
X61595000Y-27621500D02*
X60325000Y-27621500D01*
X62865000Y-27621500D02*
X61595000Y-27621500D01*
X19583400Y-25336500D02*
X19583400Y-26098500D01*
X22750400Y-32956500D02*
X23200400Y-32956500D01*
X19583400Y-26098500D02*
X21844000Y-28359100D01*
X21844000Y-28359100D02*
X21844000Y-32050100D01*
X21844000Y-32050100D02*
X22750400Y-32956500D01*
X28600400Y-18986500D02*
X28600400Y-19977100D01*
X28600400Y-19977100D02*
X27305000Y-21272500D01*
X27305000Y-21272500D02*
X25908000Y-21272500D01*
X25908000Y-21272500D02*
X24765000Y-22415500D01*
X24765000Y-22415500D02*
X24765000Y-25361900D01*
X24765000Y-25361900D02*
X23520400Y-26606500D01*
X28600400Y-16446500D02*
X28600400Y-18986500D01*
X24790400Y-16446500D02*
X28600400Y-16446500D01*
X19583400Y-30416500D02*
X19583400Y-30441900D01*
X19583400Y-30441900D02*
X20955000Y-31813500D01*
X20955000Y-31813500D02*
X20955000Y-33701100D01*
X20955000Y-33701100D02*
X22750400Y-35496500D01*
X22750400Y-35496500D02*
X23200400Y-35496500D01*
X19583400Y-32956500D02*
X19583400Y-33599500D01*
X19583400Y-33599500D02*
X22750400Y-36766500D01*
X22750400Y-36766500D02*
X23200400Y-36766500D01*
X19583400Y-35496500D02*
X19964400Y-35496500D01*
X19964400Y-35496500D02*
X22504400Y-38036500D01*
X22504400Y-38036500D02*
X23200400Y-38036500D01*
X19583400Y-45656500D02*
X20853400Y-44386500D01*
X20853400Y-44386500D02*
X23233400Y-44386500D01*
X19583400Y-50736500D02*
X19583400Y-50126500D01*
X19583400Y-50126500D02*
X22783400Y-46926500D01*
X22783400Y-46926500D02*
X23233400Y-46926500D01*
X19735800Y-53276500D02*
X19583400Y-53276500D01*
X20904189Y-52108111D02*
X19735800Y-53276500D01*
X22783400Y-48196500D02*
X20904189Y-50075711D01*
X23233400Y-48196500D02*
X22783400Y-48196500D01*
X20904189Y-50075711D02*
X20904189Y-52108111D01*
X21209000Y-54343300D02*
X19735800Y-55816500D01*
X23233400Y-49466500D02*
X22783400Y-49466500D01*
X22783400Y-49466500D02*
X21209000Y-51040900D01*
X21209000Y-51040900D02*
X21209000Y-54343300D01*
X19735800Y-55816500D02*
X19583400Y-55816500D01*
X33680400Y-29146500D02*
X32603223Y-30223677D01*
X35179000Y-49847500D02*
X34290000Y-50736500D01*
X32603223Y-30223677D02*
X32603223Y-43842723D01*
X32603223Y-43842723D02*
X35179000Y-46418500D01*
X35179000Y-46418500D02*
X35179000Y-49847500D01*
X34290000Y-50736500D02*
X31750000Y-50736500D01*
X33680400Y-26606500D02*
X33680400Y-29146500D01*
X41275000Y-40576500D02*
X41275000Y-39725600D01*
X42545000Y-37592000D02*
X41783000Y-36830000D01*
X41275000Y-39725600D02*
X42545000Y-38455600D01*
X42545000Y-38455600D02*
X42545000Y-37592000D01*
X41783000Y-36830000D02*
X40767000Y-36830000D01*
X40767000Y-36830000D02*
X40005000Y-37592000D01*
X40005000Y-37592000D02*
X36893500Y-37592000D01*
X36893500Y-37592000D02*
X33401000Y-34099500D01*
X59055000Y-47941500D02*
X59055000Y-51054000D01*
X59055000Y-51054000D02*
X56515000Y-53594000D01*
X56515000Y-53594000D02*
X56515000Y-56641500D01*
X56515000Y-56641500D02*
X56515000Y-57341500D01*
X56515000Y-37021500D02*
X56515000Y-37782500D01*
X56515000Y-37782500D02*
X57277000Y-38544500D01*
X59715400Y-38544500D02*
X61595000Y-40424100D01*
X57277000Y-38544500D02*
X59715400Y-38544500D01*
X61595000Y-40424100D02*
X61595000Y-40576500D01*
X56515000Y-57341500D02*
X56515000Y-58102500D01*
X56515000Y-58102500D02*
X57277000Y-58864500D01*
X57277000Y-58864500D02*
X59715400Y-58864500D01*
X59715400Y-58864500D02*
X61595000Y-60744100D01*
X61595000Y-60744100D02*
X61595000Y-60896500D01*
X61595000Y-40576500D02*
X61595000Y-41338500D01*
X61595000Y-41338500D02*
X63119000Y-42862500D01*
X63119000Y-42862500D02*
X63119000Y-46535100D01*
X63119000Y-46535100D02*
X62865000Y-46789100D01*
X62865000Y-46789100D02*
X62865000Y-47941500D01*
X28600400Y-32956500D02*
X30226000Y-32956500D01*
X30226000Y-32956500D02*
X30861000Y-33591500D01*
X30861000Y-33591500D02*
X30861000Y-34186500D01*
X25527000Y-37147500D02*
X27813000Y-34861500D01*
X27813000Y-34861500D02*
X29383600Y-34861500D01*
X29383600Y-34861500D02*
X30058600Y-34186500D01*
X30058600Y-34186500D02*
X30861000Y-34186500D01*
X56515000Y-37021500D02*
X56515000Y-36321500D01*
X26670016Y-43116500D02*
X26416016Y-42862500D01*
X28633400Y-43116500D02*
X26670016Y-43116500D01*
X62865000Y-47941500D02*
X62865000Y-47241500D01*
X59055000Y-47241500D02*
X59055000Y-47941500D01*
X62865000Y-47241500D02*
X62042000Y-46418500D01*
X62042000Y-46418500D02*
X59878000Y-46418500D01*
X59878000Y-46418500D02*
X59055000Y-47241500D01*
X59055000Y-27621500D02*
X59055000Y-28321500D01*
X59055000Y-28321500D02*
X56515000Y-30861500D01*
X56515000Y-30861500D02*
X56515000Y-37021500D01*
X28633400Y-43116500D02*
X28633400Y-44386500D01*
X28600400Y-31686500D02*
X28600400Y-32956500D01*
X36703000Y-49806500D02*
X39456000Y-49806500D01*
X39456000Y-49806500D02*
X41275000Y-51625500D01*
X41275000Y-51625500D02*
X41275000Y-57086500D01*
X19583400Y-22796500D02*
X19735800Y-22796500D01*
X19735800Y-22796500D02*
X22352000Y-25412700D01*
X22352000Y-25412700D02*
X22352000Y-31280100D01*
X22352000Y-31280100D02*
X22758400Y-31686500D01*
X22758400Y-31686500D02*
X23200400Y-31686500D01*
X19583400Y-27876500D02*
X19735800Y-27876500D01*
X21336000Y-32812100D02*
X22750400Y-34226500D01*
X19735800Y-27876500D02*
X21336000Y-29476700D01*
X21336000Y-29476700D02*
X21336000Y-32812100D01*
X22750400Y-34226500D02*
X23200400Y-34226500D01*
X19583400Y-38036500D02*
X19583400Y-38163500D01*
X19583400Y-38163500D02*
X20726400Y-39306500D01*
X20726400Y-39306500D02*
X23200400Y-39306500D01*
X19583400Y-40576500D02*
X23200400Y-40576500D01*
X28575000Y-23177500D02*
X28575000Y-23329900D01*
X32258000Y-46863000D02*
X32258000Y-47117000D01*
X28575000Y-23329900D02*
X32298412Y-27053312D01*
X32298412Y-27053312D02*
X32298412Y-46822588D01*
X32298412Y-46822588D02*
X32258000Y-46863000D01*
X41275000Y-24066500D02*
X42037000Y-24066500D01*
X42037000Y-24066500D02*
X45592000Y-27621500D01*
X45592000Y-27621500D02*
X46355000Y-27621500D01*
X43815000Y-24066500D02*
X43815000Y-24193500D01*
X43815000Y-24193500D02*
X45466000Y-25844500D01*
X45466000Y-25844500D02*
X46863000Y-25844500D01*
X46863000Y-25844500D02*
X47625000Y-26606500D01*
X47625000Y-26606500D02*
X47625000Y-27621500D01*
X46355000Y-24066500D02*
X48895000Y-26606500D01*
X48895000Y-26606500D02*
X48895000Y-27621500D01*
X43815000Y-40576500D02*
X43815000Y-40424100D01*
X43815000Y-40424100D02*
X45567600Y-38671500D01*
X45567600Y-38671500D02*
X46675000Y-38671500D01*
X46675000Y-38671500D02*
X47625000Y-37721500D01*
X47625000Y-37721500D02*
X47625000Y-37021500D01*
X42189400Y-42354500D02*
X39624000Y-42354500D01*
X29535800Y-50736500D02*
X28633400Y-50736500D01*
X35560000Y-46418500D02*
X35560000Y-50058336D01*
X30107302Y-51308002D02*
X29535800Y-50736500D01*
X35560000Y-50058336D02*
X34310334Y-51308002D01*
X39624000Y-42354500D02*
X35560000Y-46418500D01*
X34310334Y-51308002D02*
X30107302Y-51308002D01*
X43815000Y-40576500D02*
X43815000Y-40728900D01*
X43815000Y-40728900D02*
X42189400Y-42354500D01*
X46355000Y-40576500D02*
X46355000Y-40261500D01*
X46355000Y-40261500D02*
X48895000Y-37721500D01*
X48895000Y-37721500D02*
X48895000Y-37021500D01*
X48895000Y-40576500D02*
X48895000Y-39052500D01*
X48895000Y-39052500D02*
X50165000Y-37782500D01*
X50165000Y-37782500D02*
X50165000Y-37021500D01*
X51435000Y-40576500D02*
X51435000Y-37021500D01*
X53975000Y-40576500D02*
X53975000Y-38991500D01*
X53975000Y-38991500D02*
X52705000Y-37721500D01*
X52705000Y-37721500D02*
X52705000Y-37021500D01*
X56515000Y-40576500D02*
X56515000Y-40261500D01*
X53975000Y-37721500D02*
X53975000Y-37021500D01*
X56515000Y-40261500D02*
X53975000Y-37721500D01*
X59055000Y-40576500D02*
X59055000Y-40424100D01*
X59055000Y-40424100D02*
X57683400Y-39052500D01*
X57683400Y-39052500D02*
X56576000Y-39052500D01*
X56576000Y-39052500D02*
X55245000Y-37721500D01*
X55245000Y-37721500D02*
X55245000Y-37021500D01*
X46355000Y-37021500D02*
X46355000Y-34396676D01*
X46355000Y-34396676D02*
X52070000Y-28681676D01*
X52070000Y-28681676D02*
X52070000Y-26098500D01*
X56388000Y-16178000D02*
X56555500Y-16010500D01*
X52070000Y-26098500D02*
X52705000Y-25463500D01*
X52705000Y-25463500D02*
X52705000Y-19748500D01*
X56275500Y-16178000D02*
X56388000Y-16178000D01*
X52705000Y-19748500D02*
X56275500Y-16178000D01*
X26035000Y-23177500D02*
X26035000Y-23329900D01*
X26035000Y-23329900D02*
X31993601Y-29288501D01*
X31993601Y-29288501D02*
X31993601Y-44460399D01*
X31993601Y-44460399D02*
X31496000Y-44958000D01*
X31496000Y-44958000D02*
X31496000Y-47497996D01*
X31496000Y-47497996D02*
X32258004Y-48260000D01*
X30099000Y-47104900D02*
X30099000Y-46926500D01*
X32800600Y-49806500D02*
X30099000Y-47104900D01*
X33603000Y-49806500D02*
X32800600Y-49806500D01*
X31140400Y-18986500D02*
X31140400Y-20993100D01*
X31140400Y-20993100D02*
X31115000Y-21018500D01*
X31140400Y-16446500D02*
X31140400Y-18986500D01*
X19583400Y-43116500D02*
X23233400Y-43116500D01*
X19583400Y-48196500D02*
X20218400Y-48196500D01*
X20218400Y-48196500D02*
X22758400Y-45656500D01*
X22758400Y-45656500D02*
X23233400Y-45656500D01*
X19735800Y-58356500D02*
X19583400Y-58356500D01*
X21539189Y-51980711D02*
X21539189Y-56553111D01*
X22783400Y-50736500D02*
X21539189Y-51980711D01*
X23233400Y-50736500D02*
X22783400Y-50736500D01*
X21539189Y-56553111D02*
X19735800Y-58356500D01*
X23233400Y-52006500D02*
X21844000Y-53395900D01*
X21844000Y-53395900D02*
X21844000Y-58635900D01*
X21844000Y-58635900D02*
X19583400Y-60896500D01*
X33680400Y-18986500D02*
X33680400Y-20612100D01*
X33680400Y-20612100D02*
X31115000Y-23177500D01*
X33680400Y-16446500D02*
X33680400Y-18986500D01*
X48895000Y-24066500D02*
X48895000Y-25209500D01*
X48895000Y-25209500D02*
X50165000Y-26479500D01*
X50165000Y-26479500D02*
X50165000Y-27621500D01*
X51435000Y-24066500D02*
X51435000Y-27621500D01*
X53975000Y-24066500D02*
X53975000Y-25651500D01*
X53975000Y-25651500D02*
X52705000Y-26921500D01*
X52705000Y-26921500D02*
X52705000Y-27621500D01*
X56515000Y-24066500D02*
X56515000Y-24381500D01*
X56515000Y-24381500D02*
X53975000Y-26921500D01*
X53975000Y-26921500D02*
X53975000Y-27621500D01*
X59055000Y-24066500D02*
X59055000Y-24218900D01*
X55245000Y-26987500D02*
X55245000Y-27621500D01*
X59055000Y-24218900D02*
X57429400Y-25844500D01*
X57429400Y-25844500D02*
X56388000Y-25844500D01*
X56388000Y-25844500D02*
X55245000Y-26987500D01*
X41275000Y-44386500D02*
X41656000Y-44386500D01*
X41656000Y-44386500D02*
X45211000Y-47941500D01*
X45211000Y-47941500D02*
X46355000Y-47941500D01*
X43815000Y-44386500D02*
X43815000Y-44538900D01*
X47625000Y-47241500D02*
X47625000Y-47941500D01*
X43815000Y-44538900D02*
X45440600Y-46164500D01*
X45440600Y-46164500D02*
X46548000Y-46164500D01*
X46548000Y-46164500D02*
X47625000Y-47241500D01*
X46355000Y-44386500D02*
X46355000Y-44701500D01*
X46355000Y-44701500D02*
X48895000Y-47241500D01*
X48895000Y-47241500D02*
X48895000Y-47941500D01*
X48895000Y-44386500D02*
X48895000Y-45971500D01*
X48895000Y-45971500D02*
X50165000Y-47241500D01*
X50165000Y-47241500D02*
X50165000Y-47941500D01*
X51435000Y-44386500D02*
X51435000Y-47941500D01*
X53975000Y-44386500D02*
X53975000Y-45971500D01*
X53975000Y-45971500D02*
X52705000Y-47241500D01*
X52705000Y-47241500D02*
X52705000Y-47941500D01*
X56515000Y-44386500D02*
X56515000Y-44701500D01*
X56515000Y-44701500D02*
X53975000Y-47241500D01*
X53975000Y-47241500D02*
X53975000Y-47941500D01*
X59055000Y-44386500D02*
X59055000Y-44538900D01*
X55245000Y-47241500D02*
X55245000Y-47941500D01*
X59055000Y-44538900D02*
X57429400Y-46164500D01*
X57429400Y-46164500D02*
X56322000Y-46164500D01*
X56322000Y-46164500D02*
X55245000Y-47241500D01*
X41275000Y-60744100D02*
X44677600Y-57341500D01*
X44677600Y-57341500D02*
X46355000Y-57341500D01*
X43815000Y-60896500D02*
X43815000Y-60744100D01*
X43815000Y-60744100D02*
X45440600Y-59118500D01*
X45440600Y-59118500D02*
X46548000Y-59118500D01*
X46548000Y-59118500D02*
X47625000Y-58041500D01*
X47625000Y-58041500D02*
X47625000Y-57341500D01*
X46355000Y-60896500D02*
X46355000Y-60581500D01*
X46355000Y-60581500D02*
X48895000Y-58041500D01*
X48895000Y-58041500D02*
X48895000Y-57341500D01*
X48895000Y-60896500D02*
X48895000Y-59311500D01*
X48895000Y-59311500D02*
X50165000Y-58041500D01*
X50165000Y-58041500D02*
X50165000Y-57341500D01*
X51435000Y-57341500D02*
X51435000Y-60896500D01*
X53975000Y-60896500D02*
X53975000Y-59311500D01*
X53975000Y-59311500D02*
X52705000Y-58041500D01*
X52705000Y-58041500D02*
X52705000Y-57341500D01*
X56515000Y-60896500D02*
X56515000Y-60581500D01*
X56515000Y-60581500D02*
X53975000Y-58041500D01*
X53975000Y-58041500D02*
X53975000Y-57341500D01*
X59055000Y-60896500D02*
X59055000Y-60744100D01*
X59055000Y-60744100D02*
X57683400Y-59372500D01*
X57683400Y-59372500D02*
X56576000Y-59372500D01*
X56576000Y-59372500D02*
X55245000Y-58041500D01*
X55245000Y-58041500D02*
X55245000Y-57341500D01*
X28600400Y-39306500D02*
X30988008Y-39306500D01*
X41275000Y-38036500D02*
X38544500Y-38036500D01*
X38544500Y-38036500D02*
X35941000Y-40640000D01*
X35941000Y-40640000D02*
X35941000Y-44132500D01*
X25400002Y-40786898D02*
X25400002Y-42862500D01*
X28600400Y-38036500D02*
X28150400Y-38036500D01*
X28150400Y-38036500D02*
X25400002Y-40786898D01*
X27305000Y-48588100D02*
X27305000Y-48577508D01*
X28183400Y-49466500D02*
X27305000Y-48588100D01*
X28633400Y-49466500D02*
X28183400Y-49466500D01*
X28633400Y-48196500D02*
X28130500Y-48196500D01*
X28130500Y-48196500D02*
X25107901Y-45173901D01*
X25107901Y-45173901D02*
X25107901Y-45110399D01*
X25107901Y-45110399D02*
X24765002Y-44767500D01*
X28150400Y-36766500D02*
X24765002Y-40151898D01*
X28600400Y-36766500D02*
X28150400Y-36766500D01*
X24765002Y-40151898D02*
X24765002Y-44767500D01*
X29083400Y-46926500D02*
X30099000Y-47942100D01*
X30099000Y-47942100D02*
X30099000Y-49462382D01*
X30099000Y-49462382D02*
X29459882Y-50101500D01*
X26416000Y-47498000D02*
X25082500Y-46164500D01*
X29459882Y-50101500D02*
X27495500Y-50101500D01*
X27495500Y-50101500D02*
X26416000Y-49022000D01*
X26416000Y-49022000D02*
X26416000Y-47498000D01*
X25082500Y-46164500D02*
X25019000Y-46164500D01*
X29083400Y-46926500D02*
X29083400Y-46926100D01*
X29050400Y-35496500D02*
X28600400Y-35496500D01*
X29083400Y-46926100D02*
X31686502Y-44322998D01*
X31686502Y-44322998D02*
X31686502Y-38132602D01*
X31686502Y-38132602D02*
X29050400Y-35496500D01*
X28633400Y-46926500D02*
X29083400Y-46926500D01*
X60325000Y-55753000D02*
X59690000Y-55118000D01*
X60325000Y-56641500D02*
X60325000Y-55753000D01*
X60325000Y-37021500D02*
X60325000Y-37721500D01*
X60325000Y-37721500D02*
X61275000Y-38671500D01*
X63423811Y-39992311D02*
X63423811Y-53606689D01*
X61275000Y-38671500D02*
X62103000Y-38671500D01*
X62103000Y-38671500D02*
X63423811Y-39992311D01*
X63423811Y-53606689D02*
X60389000Y-56641500D01*
X60389000Y-56641500D02*
X60325000Y-56641500D01*
X60325000Y-36321500D02*
X60325000Y-37021500D01*
X60325000Y-56641500D02*
X60325000Y-57341500D01*
X61595000Y-37021500D02*
X61595000Y-37721500D01*
X61595000Y-37721500D02*
X63728622Y-39855122D01*
X63728622Y-39855122D02*
X63728622Y-54571878D01*
X63728622Y-54571878D02*
X61595000Y-56705500D01*
X61595000Y-56705500D02*
X61595000Y-57341500D01*
X61595000Y-57341500D02*
X61595000Y-58991500D01*
X61595000Y-37021500D02*
X61595000Y-36321500D01*
D27*
G36*
X39763960Y-43370500D02*
X39763960Y-45402500D01*
X39808238Y-45637817D01*
X39947310Y-45853941D01*
X40159510Y-45998931D01*
X40215457Y-46010261D01*
X40091371Y-46134130D01*
X39878243Y-46647400D01*
X39877758Y-47203161D01*
X40089990Y-47716803D01*
X40482630Y-48110129D01*
X40995900Y-48323257D01*
X41551661Y-48323742D01*
X42065303Y-48111510D01*
X42458629Y-47718870D01*
X42671757Y-47205600D01*
X42672242Y-46649839D01*
X42502329Y-46238617D01*
X44708106Y-48444394D01*
X44938835Y-48598563D01*
X44983990Y-48607545D01*
X45211000Y-48652700D01*
X45407560Y-48652700D01*
X45407560Y-48941500D01*
X45451838Y-49176817D01*
X45590910Y-49392941D01*
X45803110Y-49537931D01*
X46055000Y-49588940D01*
X46655000Y-49588940D01*
X46890317Y-49544662D01*
X46989528Y-49480822D01*
X47073110Y-49537931D01*
X47325000Y-49588940D01*
X47925000Y-49588940D01*
X48160317Y-49544662D01*
X48259528Y-49480822D01*
X48343110Y-49537931D01*
X48595000Y-49588940D01*
X49195000Y-49588940D01*
X49430317Y-49544662D01*
X49529528Y-49480822D01*
X49613110Y-49537931D01*
X49865000Y-49588940D01*
X50465000Y-49588940D01*
X50700317Y-49544662D01*
X50799528Y-49480822D01*
X50883110Y-49537931D01*
X51135000Y-49588940D01*
X51735000Y-49588940D01*
X51970317Y-49544662D01*
X52069528Y-49480822D01*
X52153110Y-49537931D01*
X52405000Y-49588940D01*
X53005000Y-49588940D01*
X53240317Y-49544662D01*
X53339528Y-49480822D01*
X53423110Y-49537931D01*
X53675000Y-49588940D01*
X54275000Y-49588940D01*
X54510317Y-49544662D01*
X54609528Y-49480822D01*
X54693110Y-49537931D01*
X54945000Y-49588940D01*
X55545000Y-49588940D01*
X55780317Y-49544662D01*
X55879528Y-49480822D01*
X55963110Y-49537931D01*
X56215000Y-49588940D01*
X56815000Y-49588940D01*
X57050317Y-49544662D01*
X57149528Y-49480822D01*
X57233110Y-49537931D01*
X57485000Y-49588940D01*
X58085000Y-49588940D01*
X58320317Y-49544662D01*
X58343800Y-49529551D01*
X58343800Y-50759411D01*
X56012106Y-53091106D01*
X55857937Y-53321835D01*
X55857937Y-53321836D01*
X55803800Y-53594000D01*
X55803800Y-55749790D01*
X55796890Y-55745069D01*
X55545000Y-55694060D01*
X54945000Y-55694060D01*
X54709683Y-55738338D01*
X54610472Y-55802178D01*
X54526890Y-55745069D01*
X54275000Y-55694060D01*
X53675000Y-55694060D01*
X53439683Y-55738338D01*
X53340472Y-55802178D01*
X53256890Y-55745069D01*
X53005000Y-55694060D01*
X52405000Y-55694060D01*
X52169683Y-55738338D01*
X52070472Y-55802178D01*
X51986890Y-55745069D01*
X51735000Y-55694060D01*
X51135000Y-55694060D01*
X50899683Y-55738338D01*
X50800472Y-55802178D01*
X50716890Y-55745069D01*
X50465000Y-55694060D01*
X49865000Y-55694060D01*
X49629683Y-55738338D01*
X49530472Y-55802178D01*
X49446890Y-55745069D01*
X49195000Y-55694060D01*
X48595000Y-55694060D01*
X48359683Y-55738338D01*
X48260472Y-55802178D01*
X48176890Y-55745069D01*
X47925000Y-55694060D01*
X47325000Y-55694060D01*
X47089683Y-55738338D01*
X46990472Y-55802178D01*
X46906890Y-55745069D01*
X46655000Y-55694060D01*
X46055000Y-55694060D01*
X45819683Y-55738338D01*
X45603559Y-55877410D01*
X45458569Y-56089610D01*
X45407560Y-56341500D01*
X45407560Y-56630300D01*
X44677600Y-56630300D01*
X44450590Y-56675455D01*
X44405435Y-56684437D01*
X44174706Y-56838606D01*
X41780252Y-59233060D01*
X40411400Y-59233060D01*
X40176083Y-59277338D01*
X39959959Y-59416410D01*
X39814969Y-59628610D01*
X39763960Y-59880500D01*
X39763960Y-61780500D01*
X38862000Y-61780500D01*
X38862000Y-52705000D01*
X38853226Y-52658615D01*
X38825865Y-52616273D01*
X38784187Y-52587912D01*
X38734758Y-52578000D01*
X37947949Y-52579502D01*
X37988000Y-52482809D01*
X37988000Y-52292250D01*
X37829250Y-52133500D01*
X36830000Y-52133500D01*
X36830000Y-52153500D01*
X36576000Y-52153500D01*
X36576000Y-52133500D01*
X35576750Y-52133500D01*
X35418000Y-52292250D01*
X35418000Y-52482809D01*
X35460018Y-52584250D01*
X34854085Y-52585406D01*
X34900440Y-52356500D01*
X34900440Y-51723684D01*
X35093933Y-51530191D01*
X35418000Y-51530191D01*
X35418000Y-51720750D01*
X35576750Y-51879500D01*
X36576000Y-51879500D01*
X36576000Y-51180250D01*
X36830000Y-51180250D01*
X36830000Y-51879500D01*
X37829250Y-51879500D01*
X37988000Y-51720750D01*
X37988000Y-51530191D01*
X37891327Y-51296802D01*
X37712699Y-51118173D01*
X37479310Y-51021500D01*
X36988750Y-51021500D01*
X36830000Y-51180250D01*
X36576000Y-51180250D01*
X36417250Y-51021500D01*
X35926690Y-51021500D01*
X35693301Y-51118173D01*
X35514673Y-51296802D01*
X35418000Y-51530191D01*
X35093933Y-51530191D01*
X35859392Y-50764733D01*
X36053000Y-50803940D01*
X37353000Y-50803940D01*
X37588317Y-50759662D01*
X37804441Y-50620590D01*
X37874743Y-50517700D01*
X39161412Y-50517700D01*
X40563800Y-51920089D01*
X40563800Y-55868805D01*
X40484697Y-55901490D01*
X40091371Y-56294130D01*
X39878243Y-56807400D01*
X39877758Y-57363161D01*
X40089990Y-57876803D01*
X40482630Y-58270129D01*
X40995900Y-58483257D01*
X41551661Y-58483742D01*
X42065303Y-58271510D01*
X42458629Y-57878870D01*
X42671757Y-57365600D01*
X42672242Y-56809839D01*
X42460010Y-56296197D01*
X42067370Y-55902871D01*
X41986200Y-55869166D01*
X41986200Y-51625500D01*
X41932063Y-51353336D01*
X41855929Y-51239394D01*
X41777894Y-51122605D01*
X39958894Y-49303606D01*
X39728165Y-49149437D01*
X39456000Y-49095300D01*
X37875158Y-49095300D01*
X37817090Y-49005059D01*
X37604890Y-48860069D01*
X37353000Y-48809060D01*
X36271200Y-48809060D01*
X36271200Y-46713088D01*
X39802093Y-43182195D01*
X39763960Y-43370500D01*
X39763960Y-43370500D01*
G37*
X39763960Y-43370500D02*
X39763960Y-45402500D01*
X39808238Y-45637817D01*
X39947310Y-45853941D01*
X40159510Y-45998931D01*
X40215457Y-46010261D01*
X40091371Y-46134130D01*
X39878243Y-46647400D01*
X39877758Y-47203161D01*
X40089990Y-47716803D01*
X40482630Y-48110129D01*
X40995900Y-48323257D01*
X41551661Y-48323742D01*
X42065303Y-48111510D01*
X42458629Y-47718870D01*
X42671757Y-47205600D01*
X42672242Y-46649839D01*
X42502329Y-46238617D01*
X44708106Y-48444394D01*
X44938835Y-48598563D01*
X44983990Y-48607545D01*
X45211000Y-48652700D01*
X45407560Y-48652700D01*
X45407560Y-48941500D01*
X45451838Y-49176817D01*
X45590910Y-49392941D01*
X45803110Y-49537931D01*
X46055000Y-49588940D01*
X46655000Y-49588940D01*
X46890317Y-49544662D01*
X46989528Y-49480822D01*
X47073110Y-49537931D01*
X47325000Y-49588940D01*
X47925000Y-49588940D01*
X48160317Y-49544662D01*
X48259528Y-49480822D01*
X48343110Y-49537931D01*
X48595000Y-49588940D01*
X49195000Y-49588940D01*
X49430317Y-49544662D01*
X49529528Y-49480822D01*
X49613110Y-49537931D01*
X49865000Y-49588940D01*
X50465000Y-49588940D01*
X50700317Y-49544662D01*
X50799528Y-49480822D01*
X50883110Y-49537931D01*
X51135000Y-49588940D01*
X51735000Y-49588940D01*
X51970317Y-49544662D01*
X52069528Y-49480822D01*
X52153110Y-49537931D01*
X52405000Y-49588940D01*
X53005000Y-49588940D01*
X53240317Y-49544662D01*
X53339528Y-49480822D01*
X53423110Y-49537931D01*
X53675000Y-49588940D01*
X54275000Y-49588940D01*
X54510317Y-49544662D01*
X54609528Y-49480822D01*
X54693110Y-49537931D01*
X54945000Y-49588940D01*
X55545000Y-49588940D01*
X55780317Y-49544662D01*
X55879528Y-49480822D01*
X55963110Y-49537931D01*
X56215000Y-49588940D01*
X56815000Y-49588940D01*
X57050317Y-49544662D01*
X57149528Y-49480822D01*
X57233110Y-49537931D01*
X57485000Y-49588940D01*
X58085000Y-49588940D01*
X58320317Y-49544662D01*
X58343800Y-49529551D01*
X58343800Y-50759411D01*
X56012106Y-53091106D01*
X55857937Y-53321835D01*
X55857937Y-53321836D01*
X55803800Y-53594000D01*
X55803800Y-55749790D01*
X55796890Y-55745069D01*
X55545000Y-55694060D01*
X54945000Y-55694060D01*
X54709683Y-55738338D01*
X54610472Y-55802178D01*
X54526890Y-55745069D01*
X54275000Y-55694060D01*
X53675000Y-55694060D01*
X53439683Y-55738338D01*
X53340472Y-55802178D01*
X53256890Y-55745069D01*
X53005000Y-55694060D01*
X52405000Y-55694060D01*
X52169683Y-55738338D01*
X52070472Y-55802178D01*
X51986890Y-55745069D01*
X51735000Y-55694060D01*
X51135000Y-55694060D01*
X50899683Y-55738338D01*
X50800472Y-55802178D01*
X50716890Y-55745069D01*
X50465000Y-55694060D01*
X49865000Y-55694060D01*
X49629683Y-55738338D01*
X49530472Y-55802178D01*
X49446890Y-55745069D01*
X49195000Y-55694060D01*
X48595000Y-55694060D01*
X48359683Y-55738338D01*
X48260472Y-55802178D01*
X48176890Y-55745069D01*
X47925000Y-55694060D01*
X47325000Y-55694060D01*
X47089683Y-55738338D01*
X46990472Y-55802178D01*
X46906890Y-55745069D01*
X46655000Y-55694060D01*
X46055000Y-55694060D01*
X45819683Y-55738338D01*
X45603559Y-55877410D01*
X45458569Y-56089610D01*
X45407560Y-56341500D01*
X45407560Y-56630300D01*
X44677600Y-56630300D01*
X44450590Y-56675455D01*
X44405435Y-56684437D01*
X44174706Y-56838606D01*
X41780252Y-59233060D01*
X40411400Y-59233060D01*
X40176083Y-59277338D01*
X39959959Y-59416410D01*
X39814969Y-59628610D01*
X39763960Y-59880500D01*
X39763960Y-61780500D01*
X38862000Y-61780500D01*
X38862000Y-52705000D01*
X38853226Y-52658615D01*
X38825865Y-52616273D01*
X38784187Y-52587912D01*
X38734758Y-52578000D01*
X37947949Y-52579502D01*
X37988000Y-52482809D01*
X37988000Y-52292250D01*
X37829250Y-52133500D01*
X36830000Y-52133500D01*
X36830000Y-52153500D01*
X36576000Y-52153500D01*
X36576000Y-52133500D01*
X35576750Y-52133500D01*
X35418000Y-52292250D01*
X35418000Y-52482809D01*
X35460018Y-52584250D01*
X34854085Y-52585406D01*
X34900440Y-52356500D01*
X34900440Y-51723684D01*
X35093933Y-51530191D01*
X35418000Y-51530191D01*
X35418000Y-51720750D01*
X35576750Y-51879500D01*
X36576000Y-51879500D01*
X36576000Y-51180250D01*
X36830000Y-51180250D01*
X36830000Y-51879500D01*
X37829250Y-51879500D01*
X37988000Y-51720750D01*
X37988000Y-51530191D01*
X37891327Y-51296802D01*
X37712699Y-51118173D01*
X37479310Y-51021500D01*
X36988750Y-51021500D01*
X36830000Y-51180250D01*
X36576000Y-51180250D01*
X36417250Y-51021500D01*
X35926690Y-51021500D01*
X35693301Y-51118173D01*
X35514673Y-51296802D01*
X35418000Y-51530191D01*
X35093933Y-51530191D01*
X35859392Y-50764733D01*
X36053000Y-50803940D01*
X37353000Y-50803940D01*
X37588317Y-50759662D01*
X37804441Y-50620590D01*
X37874743Y-50517700D01*
X39161412Y-50517700D01*
X40563800Y-51920089D01*
X40563800Y-55868805D01*
X40484697Y-55901490D01*
X40091371Y-56294130D01*
X39878243Y-56807400D01*
X39877758Y-57363161D01*
X40089990Y-57876803D01*
X40482630Y-58270129D01*
X40995900Y-58483257D01*
X41551661Y-58483742D01*
X42065303Y-58271510D01*
X42458629Y-57878870D01*
X42671757Y-57365600D01*
X42672242Y-56809839D01*
X42460010Y-56296197D01*
X42067370Y-55902871D01*
X41986200Y-55869166D01*
X41986200Y-51625500D01*
X41932063Y-51353336D01*
X41855929Y-51239394D01*
X41777894Y-51122605D01*
X39958894Y-49303606D01*
X39728165Y-49149437D01*
X39456000Y-49095300D01*
X37875158Y-49095300D01*
X37817090Y-49005059D01*
X37604890Y-48860069D01*
X37353000Y-48809060D01*
X36271200Y-48809060D01*
X36271200Y-46713088D01*
X39802093Y-43182195D01*
X39763960Y-43370500D01*
G36*
X60452000Y-47814500D02*
X61468000Y-47814500D01*
X61468000Y-47794500D01*
X61722000Y-47794500D01*
X61722000Y-47814500D01*
X61742000Y-47814500D01*
X61742000Y-48068500D01*
X61722000Y-48068500D01*
X61722000Y-49417750D01*
X61880750Y-49576500D01*
X62021310Y-49576500D01*
X62238122Y-49486694D01*
X62313110Y-49537931D01*
X62565000Y-49588940D01*
X62712611Y-49588940D01*
X62712611Y-53312101D01*
X60801250Y-55223462D01*
X60667925Y-55090136D01*
X60668069Y-54924337D01*
X60519507Y-54564788D01*
X60244659Y-54289460D01*
X59885370Y-54140270D01*
X59496337Y-54139931D01*
X59136788Y-54288493D01*
X58861460Y-54563341D01*
X58712270Y-54922630D01*
X58711931Y-55311663D01*
X58860493Y-55671212D01*
X58883301Y-55694060D01*
X58755000Y-55694060D01*
X58519683Y-55738338D01*
X58429020Y-55796678D01*
X58211310Y-55706500D01*
X58070750Y-55706500D01*
X57912000Y-55865250D01*
X57912000Y-57214500D01*
X57932000Y-57214500D01*
X57932000Y-57468500D01*
X57912000Y-57468500D01*
X57912000Y-57488500D01*
X57658000Y-57488500D01*
X57658000Y-57468500D01*
X57638000Y-57468500D01*
X57638000Y-57214500D01*
X57658000Y-57214500D01*
X57658000Y-55865250D01*
X57499250Y-55706500D01*
X57358690Y-55706500D01*
X57226200Y-55761379D01*
X57226200Y-53888588D01*
X59557894Y-51556895D01*
X59712062Y-51326165D01*
X59712063Y-51326164D01*
X59766200Y-51054000D01*
X59766200Y-49521621D01*
X59898690Y-49576500D01*
X60039250Y-49576500D01*
X60198000Y-49417750D01*
X60198000Y-48068500D01*
X60452000Y-48068500D01*
X60452000Y-49417750D01*
X60610750Y-49576500D01*
X60751310Y-49576500D01*
X60960000Y-49490058D01*
X61168690Y-49576500D01*
X61309250Y-49576500D01*
X61468000Y-49417750D01*
X61468000Y-48068500D01*
X60452000Y-48068500D01*
X60198000Y-48068500D01*
X60178000Y-48068500D01*
X60178000Y-47814500D01*
X60198000Y-47814500D01*
X60198000Y-47794500D01*
X60452000Y-47794500D01*
X60452000Y-47814500D01*
X60452000Y-47814500D01*
G37*
X60452000Y-47814500D02*
X61468000Y-47814500D01*
X61468000Y-47794500D01*
X61722000Y-47794500D01*
X61722000Y-47814500D01*
X61742000Y-47814500D01*
X61742000Y-48068500D01*
X61722000Y-48068500D01*
X61722000Y-49417750D01*
X61880750Y-49576500D01*
X62021310Y-49576500D01*
X62238122Y-49486694D01*
X62313110Y-49537931D01*
X62565000Y-49588940D01*
X62712611Y-49588940D01*
X62712611Y-53312101D01*
X60801250Y-55223462D01*
X60667925Y-55090136D01*
X60668069Y-54924337D01*
X60519507Y-54564788D01*
X60244659Y-54289460D01*
X59885370Y-54140270D01*
X59496337Y-54139931D01*
X59136788Y-54288493D01*
X58861460Y-54563341D01*
X58712270Y-54922630D01*
X58711931Y-55311663D01*
X58860493Y-55671212D01*
X58883301Y-55694060D01*
X58755000Y-55694060D01*
X58519683Y-55738338D01*
X58429020Y-55796678D01*
X58211310Y-55706500D01*
X58070750Y-55706500D01*
X57912000Y-55865250D01*
X57912000Y-57214500D01*
X57932000Y-57214500D01*
X57932000Y-57468500D01*
X57912000Y-57468500D01*
X57912000Y-57488500D01*
X57658000Y-57488500D01*
X57658000Y-57468500D01*
X57638000Y-57468500D01*
X57638000Y-57214500D01*
X57658000Y-57214500D01*
X57658000Y-55865250D01*
X57499250Y-55706500D01*
X57358690Y-55706500D01*
X57226200Y-55761379D01*
X57226200Y-53888588D01*
X59557894Y-51556895D01*
X59712062Y-51326165D01*
X59712063Y-51326164D01*
X59766200Y-51054000D01*
X59766200Y-49521621D01*
X59898690Y-49576500D01*
X60039250Y-49576500D01*
X60198000Y-49417750D01*
X60198000Y-48068500D01*
X60452000Y-48068500D01*
X60452000Y-49417750D01*
X60610750Y-49576500D01*
X60751310Y-49576500D01*
X60960000Y-49490058D01*
X61168690Y-49576500D01*
X61309250Y-49576500D01*
X61468000Y-49417750D01*
X61468000Y-48068500D01*
X60452000Y-48068500D01*
X60198000Y-48068500D01*
X60178000Y-48068500D01*
X60178000Y-47814500D01*
X60198000Y-47814500D01*
X60198000Y-47794500D01*
X60452000Y-47794500D01*
X60452000Y-47814500D01*
G36*
X24823630Y-47142230D02*
X25054643Y-47142431D01*
X25704800Y-47792588D01*
X25704800Y-49022000D01*
X25758937Y-49294165D01*
X25913106Y-49524894D01*
X26992606Y-50604395D01*
X27184740Y-50732774D01*
X27223336Y-50758563D01*
X27235960Y-50761074D01*
X27235960Y-51036500D01*
X27280238Y-51271817D01*
X27338578Y-51362480D01*
X27248400Y-51580190D01*
X27248400Y-51720750D01*
X27407150Y-51879500D01*
X28506400Y-51879500D01*
X28506400Y-51859500D01*
X28760400Y-51859500D01*
X28760400Y-51879500D01*
X29707081Y-51879500D01*
X29835137Y-51965065D01*
X30107302Y-52019202D01*
X32305560Y-52019202D01*
X32305560Y-52356500D01*
X32349531Y-52590186D01*
X29951317Y-52594762D01*
X30018400Y-52432810D01*
X30018400Y-52292250D01*
X29859650Y-52133500D01*
X28760400Y-52133500D01*
X28760400Y-52153500D01*
X28506400Y-52153500D01*
X28506400Y-52133500D01*
X27407150Y-52133500D01*
X27248400Y-52292250D01*
X27248400Y-52432810D01*
X27317565Y-52599789D01*
X24547933Y-52605074D01*
X24579831Y-52558390D01*
X24630840Y-52306500D01*
X24630840Y-51706500D01*
X24586562Y-51471183D01*
X24522722Y-51371972D01*
X24579831Y-51288390D01*
X24630840Y-51036500D01*
X24630840Y-50436500D01*
X24586562Y-50201183D01*
X24522722Y-50101972D01*
X24579831Y-50018390D01*
X24630840Y-49766500D01*
X24630840Y-49166500D01*
X24586562Y-48931183D01*
X24522722Y-48831972D01*
X24579831Y-48748390D01*
X24630840Y-48496500D01*
X24630840Y-47896500D01*
X24586562Y-47661183D01*
X24522722Y-47561972D01*
X24579831Y-47478390D01*
X24630840Y-47226500D01*
X24630840Y-47062177D01*
X24823630Y-47142230D01*
X24823630Y-47142230D01*
G37*
X24823630Y-47142230D02*
X25054643Y-47142431D01*
X25704800Y-47792588D01*
X25704800Y-49022000D01*
X25758937Y-49294165D01*
X25913106Y-49524894D01*
X26992606Y-50604395D01*
X27184740Y-50732774D01*
X27223336Y-50758563D01*
X27235960Y-50761074D01*
X27235960Y-51036500D01*
X27280238Y-51271817D01*
X27338578Y-51362480D01*
X27248400Y-51580190D01*
X27248400Y-51720750D01*
X27407150Y-51879500D01*
X28506400Y-51879500D01*
X28506400Y-51859500D01*
X28760400Y-51859500D01*
X28760400Y-51879500D01*
X29707081Y-51879500D01*
X29835137Y-51965065D01*
X30107302Y-52019202D01*
X32305560Y-52019202D01*
X32305560Y-52356500D01*
X32349531Y-52590186D01*
X29951317Y-52594762D01*
X30018400Y-52432810D01*
X30018400Y-52292250D01*
X29859650Y-52133500D01*
X28760400Y-52133500D01*
X28760400Y-52153500D01*
X28506400Y-52153500D01*
X28506400Y-52133500D01*
X27407150Y-52133500D01*
X27248400Y-52292250D01*
X27248400Y-52432810D01*
X27317565Y-52599789D01*
X24547933Y-52605074D01*
X24579831Y-52558390D01*
X24630840Y-52306500D01*
X24630840Y-51706500D01*
X24586562Y-51471183D01*
X24522722Y-51371972D01*
X24579831Y-51288390D01*
X24630840Y-51036500D01*
X24630840Y-50436500D01*
X24586562Y-50201183D01*
X24522722Y-50101972D01*
X24579831Y-50018390D01*
X24630840Y-49766500D01*
X24630840Y-49166500D01*
X24586562Y-48931183D01*
X24522722Y-48831972D01*
X24579831Y-48748390D01*
X24630840Y-48496500D01*
X24630840Y-47896500D01*
X24586562Y-47661183D01*
X24522722Y-47561972D01*
X24579831Y-47478390D01*
X24630840Y-47226500D01*
X24630840Y-47062177D01*
X24823630Y-47142230D01*
G36*
X26220646Y-43840230D02*
X26609679Y-43840569D01*
X26650311Y-43823780D01*
X26670016Y-43827700D01*
X27291690Y-43827700D01*
X27286969Y-43834610D01*
X27235960Y-44086500D01*
X27235960Y-44686500D01*
X27280238Y-44921817D01*
X27338578Y-45012480D01*
X27248400Y-45230190D01*
X27248400Y-45370750D01*
X27407150Y-45529500D01*
X28506400Y-45529500D01*
X28506400Y-45509500D01*
X28760400Y-45509500D01*
X28760400Y-45529500D01*
X28780400Y-45529500D01*
X28780400Y-45783500D01*
X28760400Y-45783500D01*
X28760400Y-45803500D01*
X28506400Y-45803500D01*
X28506400Y-45783500D01*
X27407150Y-45783500D01*
X27248400Y-45942250D01*
X27248400Y-46082810D01*
X27338206Y-46299622D01*
X27298103Y-46358315D01*
X25742871Y-44803083D01*
X25743071Y-44573837D01*
X25594509Y-44214288D01*
X25476202Y-44095774D01*
X25476202Y-43840467D01*
X25593665Y-43840569D01*
X25908339Y-43710549D01*
X26220646Y-43840230D01*
X26220646Y-43840230D01*
G37*
X26220646Y-43840230D02*
X26609679Y-43840569D01*
X26650311Y-43823780D01*
X26670016Y-43827700D01*
X27291690Y-43827700D01*
X27286969Y-43834610D01*
X27235960Y-44086500D01*
X27235960Y-44686500D01*
X27280238Y-44921817D01*
X27338578Y-45012480D01*
X27248400Y-45230190D01*
X27248400Y-45370750D01*
X27407150Y-45529500D01*
X28506400Y-45529500D01*
X28506400Y-45509500D01*
X28760400Y-45509500D01*
X28760400Y-45529500D01*
X28780400Y-45529500D01*
X28780400Y-45783500D01*
X28760400Y-45783500D01*
X28760400Y-45803500D01*
X28506400Y-45803500D01*
X28506400Y-45783500D01*
X27407150Y-45783500D01*
X27248400Y-45942250D01*
X27248400Y-46082810D01*
X27338206Y-46299622D01*
X27298103Y-46358315D01*
X25742871Y-44803083D01*
X25743071Y-44573837D01*
X25594509Y-44214288D01*
X25476202Y-44095774D01*
X25476202Y-43840467D01*
X25593665Y-43840569D01*
X25908339Y-43710549D01*
X26220646Y-43840230D01*
G36*
X27305578Y-39932480D02*
X27215400Y-40150190D01*
X27215400Y-40290750D01*
X27374150Y-40449500D01*
X28473400Y-40449500D01*
X28473400Y-40429500D01*
X28727400Y-40429500D01*
X28727400Y-40449500D01*
X29826650Y-40449500D01*
X29985400Y-40290750D01*
X29985400Y-40150190D01*
X29930521Y-40017700D01*
X30316214Y-40017700D01*
X30433349Y-40135040D01*
X30792638Y-40284230D01*
X30975302Y-40284389D01*
X30975302Y-44028410D01*
X29946677Y-45057035D01*
X29928594Y-45013378D01*
X29979831Y-44938390D01*
X30030840Y-44686500D01*
X30030840Y-44086500D01*
X29986562Y-43851183D01*
X29922722Y-43751972D01*
X29979831Y-43668390D01*
X30030840Y-43416500D01*
X30030840Y-42816500D01*
X29986562Y-42581183D01*
X29847490Y-42365059D01*
X29635290Y-42220069D01*
X29383400Y-42169060D01*
X27883400Y-42169060D01*
X27648083Y-42213338D01*
X27431959Y-42352410D01*
X27395821Y-42405300D01*
X27285194Y-42405300D01*
X27245523Y-42309288D01*
X26970675Y-42033960D01*
X26611386Y-41884770D01*
X26222353Y-41884431D01*
X26111202Y-41930357D01*
X26111202Y-41081486D01*
X26330438Y-40862250D01*
X27215400Y-40862250D01*
X27215400Y-41002810D01*
X27312073Y-41236199D01*
X27490702Y-41414827D01*
X27724091Y-41511500D01*
X28314650Y-41511500D01*
X28473400Y-41352750D01*
X28473400Y-40703500D01*
X28727400Y-40703500D01*
X28727400Y-41352750D01*
X28886150Y-41511500D01*
X29476709Y-41511500D01*
X29710098Y-41414827D01*
X29888727Y-41236199D01*
X29985400Y-41002810D01*
X29985400Y-40862250D01*
X29826650Y-40703500D01*
X28727400Y-40703500D01*
X28473400Y-40703500D01*
X27374150Y-40703500D01*
X27215400Y-40862250D01*
X26330438Y-40862250D01*
X27287814Y-39904874D01*
X27305578Y-39932480D01*
X27305578Y-39932480D01*
G37*
X27305578Y-39932480D02*
X27215400Y-40150190D01*
X27215400Y-40290750D01*
X27374150Y-40449500D01*
X28473400Y-40449500D01*
X28473400Y-40429500D01*
X28727400Y-40429500D01*
X28727400Y-40449500D01*
X29826650Y-40449500D01*
X29985400Y-40290750D01*
X29985400Y-40150190D01*
X29930521Y-40017700D01*
X30316214Y-40017700D01*
X30433349Y-40135040D01*
X30792638Y-40284230D01*
X30975302Y-40284389D01*
X30975302Y-44028410D01*
X29946677Y-45057035D01*
X29928594Y-45013378D01*
X29979831Y-44938390D01*
X30030840Y-44686500D01*
X30030840Y-44086500D01*
X29986562Y-43851183D01*
X29922722Y-43751972D01*
X29979831Y-43668390D01*
X30030840Y-43416500D01*
X30030840Y-42816500D01*
X29986562Y-42581183D01*
X29847490Y-42365059D01*
X29635290Y-42220069D01*
X29383400Y-42169060D01*
X27883400Y-42169060D01*
X27648083Y-42213338D01*
X27431959Y-42352410D01*
X27395821Y-42405300D01*
X27285194Y-42405300D01*
X27245523Y-42309288D01*
X26970675Y-42033960D01*
X26611386Y-41884770D01*
X26222353Y-41884431D01*
X26111202Y-41930357D01*
X26111202Y-41081486D01*
X26330438Y-40862250D01*
X27215400Y-40862250D01*
X27215400Y-41002810D01*
X27312073Y-41236199D01*
X27490702Y-41414827D01*
X27724091Y-41511500D01*
X28314650Y-41511500D01*
X28473400Y-41352750D01*
X28473400Y-40703500D01*
X28727400Y-40703500D01*
X28727400Y-41352750D01*
X28886150Y-41511500D01*
X29476709Y-41511500D01*
X29710098Y-41414827D01*
X29888727Y-41236199D01*
X29985400Y-41002810D01*
X29985400Y-40862250D01*
X29826650Y-40703500D01*
X28727400Y-40703500D01*
X28473400Y-40703500D01*
X27374150Y-40703500D01*
X27215400Y-40862250D01*
X26330438Y-40862250D01*
X27287814Y-39904874D01*
X27305578Y-39932480D01*
G36*
X60535330Y-41820915D02*
X61021511Y-42145771D01*
X61489589Y-42238878D01*
X62090787Y-42840075D01*
X61969791Y-42781791D01*
X61954026Y-42779142D01*
X61722000Y-42900283D01*
X61722000Y-44259500D01*
X61742000Y-44259500D01*
X61742000Y-44513500D01*
X61722000Y-44513500D01*
X61722000Y-44533500D01*
X61468000Y-44533500D01*
X61468000Y-44513500D01*
X61448000Y-44513500D01*
X61448000Y-44259500D01*
X61468000Y-44259500D01*
X61468000Y-42900283D01*
X61235974Y-42779142D01*
X61220209Y-42781791D01*
X60692964Y-43035768D01*
X60321461Y-43451569D01*
X60114670Y-43142085D01*
X59628489Y-42817229D01*
X59055000Y-42703155D01*
X58481511Y-42817229D01*
X57995330Y-43142085D01*
X57785000Y-43456866D01*
X57574670Y-43142085D01*
X57088489Y-42817229D01*
X56515000Y-42703155D01*
X55941511Y-42817229D01*
X55455330Y-43142085D01*
X55245000Y-43456866D01*
X55034670Y-43142085D01*
X54548489Y-42817229D01*
X53975000Y-42703155D01*
X53401511Y-42817229D01*
X52915330Y-43142085D01*
X52705000Y-43456866D01*
X52494670Y-43142085D01*
X52008489Y-42817229D01*
X51435000Y-42703155D01*
X50861511Y-42817229D01*
X50375330Y-43142085D01*
X50165000Y-43456866D01*
X49954670Y-43142085D01*
X49468489Y-42817229D01*
X48895000Y-42703155D01*
X48321511Y-42817229D01*
X47835330Y-43142085D01*
X47625000Y-43456866D01*
X47414670Y-43142085D01*
X46928489Y-42817229D01*
X46355000Y-42703155D01*
X45781511Y-42817229D01*
X45295330Y-43142085D01*
X45085000Y-43456866D01*
X44874670Y-43142085D01*
X44388489Y-42817229D01*
X43815000Y-42703155D01*
X43241511Y-42817229D01*
X42755330Y-43142085D01*
X42745757Y-43156413D01*
X42741762Y-43135183D01*
X42602690Y-42919059D01*
X42601363Y-42918152D01*
X42692294Y-42857394D01*
X43309748Y-42239940D01*
X44678600Y-42239940D01*
X44913917Y-42195662D01*
X45130041Y-42056590D01*
X45275031Y-41844390D01*
X45283400Y-41803061D01*
X45295330Y-41820915D01*
X45781511Y-42145771D01*
X46355000Y-42259845D01*
X46928489Y-42145771D01*
X47414670Y-41820915D01*
X47625000Y-41506134D01*
X47835330Y-41820915D01*
X48321511Y-42145771D01*
X48895000Y-42259845D01*
X49468489Y-42145771D01*
X49954670Y-41820915D01*
X50165000Y-41506134D01*
X50375330Y-41820915D01*
X50861511Y-42145771D01*
X51435000Y-42259845D01*
X52008489Y-42145771D01*
X52494670Y-41820915D01*
X52705000Y-41506134D01*
X52915330Y-41820915D01*
X53401511Y-42145771D01*
X53975000Y-42259845D01*
X54548489Y-42145771D01*
X55034670Y-41820915D01*
X55245000Y-41506134D01*
X55455330Y-41820915D01*
X55941511Y-42145771D01*
X56515000Y-42259845D01*
X57088489Y-42145771D01*
X57574670Y-41820915D01*
X57785000Y-41506134D01*
X57995330Y-41820915D01*
X58481511Y-42145771D01*
X59055000Y-42259845D01*
X59628489Y-42145771D01*
X60114670Y-41820915D01*
X60325000Y-41506134D01*
X60535330Y-41820915D01*
X60535330Y-41820915D01*
G37*
X60535330Y-41820915D02*
X61021511Y-42145771D01*
X61489589Y-42238878D01*
X62090787Y-42840075D01*
X61969791Y-42781791D01*
X61954026Y-42779142D01*
X61722000Y-42900283D01*
X61722000Y-44259500D01*
X61742000Y-44259500D01*
X61742000Y-44513500D01*
X61722000Y-44513500D01*
X61722000Y-44533500D01*
X61468000Y-44533500D01*
X61468000Y-44513500D01*
X61448000Y-44513500D01*
X61448000Y-44259500D01*
X61468000Y-44259500D01*
X61468000Y-42900283D01*
X61235974Y-42779142D01*
X61220209Y-42781791D01*
X60692964Y-43035768D01*
X60321461Y-43451569D01*
X60114670Y-43142085D01*
X59628489Y-42817229D01*
X59055000Y-42703155D01*
X58481511Y-42817229D01*
X57995330Y-43142085D01*
X57785000Y-43456866D01*
X57574670Y-43142085D01*
X57088489Y-42817229D01*
X56515000Y-42703155D01*
X55941511Y-42817229D01*
X55455330Y-43142085D01*
X55245000Y-43456866D01*
X55034670Y-43142085D01*
X54548489Y-42817229D01*
X53975000Y-42703155D01*
X53401511Y-42817229D01*
X52915330Y-43142085D01*
X52705000Y-43456866D01*
X52494670Y-43142085D01*
X52008489Y-42817229D01*
X51435000Y-42703155D01*
X50861511Y-42817229D01*
X50375330Y-43142085D01*
X50165000Y-43456866D01*
X49954670Y-43142085D01*
X49468489Y-42817229D01*
X48895000Y-42703155D01*
X48321511Y-42817229D01*
X47835330Y-43142085D01*
X47625000Y-43456866D01*
X47414670Y-43142085D01*
X46928489Y-42817229D01*
X46355000Y-42703155D01*
X45781511Y-42817229D01*
X45295330Y-43142085D01*
X45085000Y-43456866D01*
X44874670Y-43142085D01*
X44388489Y-42817229D01*
X43815000Y-42703155D01*
X43241511Y-42817229D01*
X42755330Y-43142085D01*
X42745757Y-43156413D01*
X42741762Y-43135183D01*
X42602690Y-42919059D01*
X42601363Y-42918152D01*
X42692294Y-42857394D01*
X43309748Y-42239940D01*
X44678600Y-42239940D01*
X44913917Y-42195662D01*
X45130041Y-42056590D01*
X45275031Y-41844390D01*
X45283400Y-41803061D01*
X45295330Y-41820915D01*
X45781511Y-42145771D01*
X46355000Y-42259845D01*
X46928489Y-42145771D01*
X47414670Y-41820915D01*
X47625000Y-41506134D01*
X47835330Y-41820915D01*
X48321511Y-42145771D01*
X48895000Y-42259845D01*
X49468489Y-42145771D01*
X49954670Y-41820915D01*
X50165000Y-41506134D01*
X50375330Y-41820915D01*
X50861511Y-42145771D01*
X51435000Y-42259845D01*
X52008489Y-42145771D01*
X52494670Y-41820915D01*
X52705000Y-41506134D01*
X52915330Y-41820915D01*
X53401511Y-42145771D01*
X53975000Y-42259845D01*
X54548489Y-42145771D01*
X55034670Y-41820915D01*
X55245000Y-41506134D01*
X55455330Y-41820915D01*
X55941511Y-42145771D01*
X56515000Y-42259845D01*
X57088489Y-42145771D01*
X57574670Y-41820915D01*
X57785000Y-41506134D01*
X57995330Y-41820915D01*
X58481511Y-42145771D01*
X59055000Y-42259845D01*
X59628489Y-42145771D01*
X60114670Y-41820915D01*
X60325000Y-41506134D01*
X60535330Y-41820915D01*
G36*
X61925673Y-15254147D02*
X61722232Y-15744087D01*
X61721769Y-16274586D01*
X61924354Y-16764880D01*
X62299147Y-17140327D01*
X62789087Y-17343768D01*
X63319586Y-17344231D01*
X63809880Y-17141646D01*
X63939500Y-17012252D01*
X63939500Y-19475218D01*
X63925337Y-19461055D01*
X63810082Y-19576310D01*
X63748429Y-19340700D01*
X63248020Y-19164573D01*
X62718301Y-19193352D01*
X62362571Y-19340700D01*
X62300917Y-19576312D01*
X63055500Y-20330895D01*
X63069643Y-20316753D01*
X63249248Y-20496358D01*
X63235105Y-20510500D01*
X63249248Y-20524643D01*
X63069643Y-20704248D01*
X63055500Y-20690105D01*
X62300917Y-21444688D01*
X62362571Y-21680300D01*
X62862980Y-21856427D01*
X63392699Y-21827648D01*
X63748429Y-21680300D01*
X63810082Y-21444690D01*
X63925337Y-21559945D01*
X63939500Y-21545782D01*
X63939500Y-39060212D01*
X63463374Y-38584086D01*
X63616441Y-38485590D01*
X63761431Y-38273390D01*
X63812440Y-38021500D01*
X63812440Y-36021500D01*
X63768162Y-35786183D01*
X63629090Y-35570059D01*
X63416890Y-35425069D01*
X63165000Y-35374060D01*
X62565000Y-35374060D01*
X62329683Y-35418338D01*
X62230472Y-35482178D01*
X62146890Y-35425069D01*
X61895000Y-35374060D01*
X61295000Y-35374060D01*
X61059683Y-35418338D01*
X60960472Y-35482178D01*
X60876890Y-35425069D01*
X60625000Y-35374060D01*
X60025000Y-35374060D01*
X59789683Y-35418338D01*
X59690472Y-35482178D01*
X59606890Y-35425069D01*
X59355000Y-35374060D01*
X58755000Y-35374060D01*
X58519683Y-35418338D01*
X58429020Y-35476678D01*
X58211310Y-35386500D01*
X58070750Y-35386500D01*
X57912000Y-35545250D01*
X57912000Y-36894500D01*
X57932000Y-36894500D01*
X57932000Y-37148500D01*
X57912000Y-37148500D01*
X57912000Y-37168500D01*
X57658000Y-37168500D01*
X57658000Y-37148500D01*
X57638000Y-37148500D01*
X57638000Y-36894500D01*
X57658000Y-36894500D01*
X57658000Y-35545250D01*
X57499250Y-35386500D01*
X57358690Y-35386500D01*
X57226200Y-35441379D01*
X57226200Y-31156088D01*
X59113349Y-29268940D01*
X59355000Y-29268940D01*
X59590317Y-29224662D01*
X59680980Y-29166322D01*
X59898690Y-29256500D01*
X60039250Y-29256500D01*
X60198000Y-29097750D01*
X60198000Y-27748500D01*
X60452000Y-27748500D01*
X60452000Y-29097750D01*
X60610750Y-29256500D01*
X60751310Y-29256500D01*
X60960000Y-29170058D01*
X61168690Y-29256500D01*
X61309250Y-29256500D01*
X61468000Y-29097750D01*
X61468000Y-27748500D01*
X61722000Y-27748500D01*
X61722000Y-29097750D01*
X61880750Y-29256500D01*
X62021310Y-29256500D01*
X62230000Y-29170058D01*
X62438690Y-29256500D01*
X62579250Y-29256500D01*
X62738000Y-29097750D01*
X62738000Y-27748500D01*
X62992000Y-27748500D01*
X62992000Y-29097750D01*
X63150750Y-29256500D01*
X63291310Y-29256500D01*
X63524699Y-29159827D01*
X63703327Y-28981198D01*
X63800000Y-28747809D01*
X63800000Y-27907250D01*
X63641250Y-27748500D01*
X62992000Y-27748500D01*
X62738000Y-27748500D01*
X61722000Y-27748500D01*
X61468000Y-27748500D01*
X60452000Y-27748500D01*
X60198000Y-27748500D01*
X60178000Y-27748500D01*
X60178000Y-27494500D01*
X60198000Y-27494500D01*
X60198000Y-26145250D01*
X60452000Y-26145250D01*
X60452000Y-27494500D01*
X61468000Y-27494500D01*
X61468000Y-26145250D01*
X61722000Y-26145250D01*
X61722000Y-27494500D01*
X62738000Y-27494500D01*
X62738000Y-26145250D01*
X62992000Y-26145250D01*
X62992000Y-27494500D01*
X63641250Y-27494500D01*
X63800000Y-27335750D01*
X63800000Y-26495191D01*
X63703327Y-26261802D01*
X63524699Y-26083173D01*
X63291310Y-25986500D01*
X63150750Y-25986500D01*
X62992000Y-26145250D01*
X62738000Y-26145250D01*
X62579250Y-25986500D01*
X62438690Y-25986500D01*
X62230000Y-26072942D01*
X62021310Y-25986500D01*
X61880750Y-25986500D01*
X61722000Y-26145250D01*
X61468000Y-26145250D01*
X61309250Y-25986500D01*
X61168690Y-25986500D01*
X60960000Y-26072942D01*
X60751310Y-25986500D01*
X60610750Y-25986500D01*
X60452000Y-26145250D01*
X60198000Y-26145250D01*
X60039250Y-25986500D01*
X59898690Y-25986500D01*
X59681878Y-26076306D01*
X59606890Y-26025069D01*
X59355000Y-25974060D01*
X58755000Y-25974060D01*
X58519683Y-26018338D01*
X58420472Y-26082178D01*
X58336890Y-26025069D01*
X58268474Y-26011214D01*
X58616972Y-25662716D01*
X59055000Y-25749845D01*
X59628489Y-25635771D01*
X60114670Y-25310915D01*
X60321461Y-25001431D01*
X60692964Y-25417232D01*
X61220209Y-25671209D01*
X61235974Y-25673858D01*
X61468000Y-25552717D01*
X61468000Y-24193500D01*
X61722000Y-24193500D01*
X61722000Y-25552717D01*
X61954026Y-25673858D01*
X61969791Y-25671209D01*
X62497036Y-25417232D01*
X62886954Y-24980820D01*
X63080184Y-24428413D01*
X62935924Y-24193500D01*
X61722000Y-24193500D01*
X61468000Y-24193500D01*
X61448000Y-24193500D01*
X61448000Y-23939500D01*
X61468000Y-23939500D01*
X61468000Y-22580283D01*
X61722000Y-22580283D01*
X61722000Y-23939500D01*
X62935924Y-23939500D01*
X63080184Y-23704587D01*
X62886954Y-23152180D01*
X62497036Y-22715768D01*
X61969791Y-22461791D01*
X61954026Y-22459142D01*
X61722000Y-22580283D01*
X61468000Y-22580283D01*
X61235974Y-22459142D01*
X61220209Y-22461791D01*
X60692964Y-22715768D01*
X60321461Y-23131569D01*
X60114670Y-22822085D01*
X59628489Y-22497229D01*
X59055000Y-22383155D01*
X58481511Y-22497229D01*
X57995330Y-22822085D01*
X57785000Y-23136866D01*
X57574670Y-22822085D01*
X57088489Y-22497229D01*
X56515000Y-22383155D01*
X55941511Y-22497229D01*
X55455330Y-22822085D01*
X55245000Y-23136866D01*
X55034670Y-22822085D01*
X54548489Y-22497229D01*
X53975000Y-22383155D01*
X53416200Y-22494307D01*
X53416200Y-21464877D01*
X53472571Y-21680300D01*
X53972980Y-21856427D01*
X54502699Y-21827648D01*
X54858429Y-21680300D01*
X54920083Y-21444688D01*
X55800917Y-21444688D01*
X55862571Y-21680300D01*
X56362980Y-21856427D01*
X56892699Y-21827648D01*
X57248429Y-21680300D01*
X57310083Y-21444688D01*
X56555500Y-20690105D01*
X55800917Y-21444688D01*
X54920083Y-21444688D01*
X54165500Y-20690105D01*
X54151358Y-20704248D01*
X53971753Y-20524643D01*
X53985895Y-20510500D01*
X54345105Y-20510500D01*
X55099688Y-21265083D01*
X55335300Y-21203429D01*
X55358453Y-21137648D01*
X55385700Y-21203429D01*
X55621312Y-21265083D01*
X56375895Y-20510500D01*
X56735105Y-20510500D01*
X57489688Y-21265083D01*
X57725300Y-21203429D01*
X57901427Y-20703020D01*
X57880509Y-20317980D01*
X61709573Y-20317980D01*
X61738352Y-20847699D01*
X61885700Y-21203429D01*
X62121312Y-21265083D01*
X62875895Y-20510500D01*
X62121312Y-19755917D01*
X61885700Y-19817571D01*
X61709573Y-20317980D01*
X57880509Y-20317980D01*
X57872648Y-20173301D01*
X57725300Y-19817571D01*
X57489688Y-19755917D01*
X56735105Y-20510500D01*
X56375895Y-20510500D01*
X55621312Y-19755917D01*
X55385700Y-19817571D01*
X55362547Y-19883352D01*
X55335300Y-19817571D01*
X55099688Y-19755917D01*
X54345105Y-20510500D01*
X53985895Y-20510500D01*
X53971753Y-20496358D01*
X54151358Y-20316753D01*
X54165500Y-20330895D01*
X54920083Y-19576312D01*
X55800917Y-19576312D01*
X56555500Y-20330895D01*
X57310083Y-19576312D01*
X57248429Y-19340700D01*
X56748020Y-19164573D01*
X56218301Y-19193352D01*
X55862571Y-19340700D01*
X55800917Y-19576312D01*
X54920083Y-19576312D01*
X54858429Y-19340700D01*
X54358020Y-19164573D01*
X54291078Y-19168210D01*
X56166446Y-17292843D01*
X56289087Y-17343768D01*
X56819586Y-17344231D01*
X57309880Y-17141646D01*
X57685327Y-16766853D01*
X57888768Y-16276913D01*
X57889231Y-15746414D01*
X57686646Y-15256120D01*
X57675545Y-15245000D01*
X61934836Y-15245000D01*
X61925673Y-15254147D01*
X61925673Y-15254147D01*
G37*
X61925673Y-15254147D02*
X61722232Y-15744087D01*
X61721769Y-16274586D01*
X61924354Y-16764880D01*
X62299147Y-17140327D01*
X62789087Y-17343768D01*
X63319586Y-17344231D01*
X63809880Y-17141646D01*
X63939500Y-17012252D01*
X63939500Y-19475218D01*
X63925337Y-19461055D01*
X63810082Y-19576310D01*
X63748429Y-19340700D01*
X63248020Y-19164573D01*
X62718301Y-19193352D01*
X62362571Y-19340700D01*
X62300917Y-19576312D01*
X63055500Y-20330895D01*
X63069643Y-20316753D01*
X63249248Y-20496358D01*
X63235105Y-20510500D01*
X63249248Y-20524643D01*
X63069643Y-20704248D01*
X63055500Y-20690105D01*
X62300917Y-21444688D01*
X62362571Y-21680300D01*
X62862980Y-21856427D01*
X63392699Y-21827648D01*
X63748429Y-21680300D01*
X63810082Y-21444690D01*
X63925337Y-21559945D01*
X63939500Y-21545782D01*
X63939500Y-39060212D01*
X63463374Y-38584086D01*
X63616441Y-38485590D01*
X63761431Y-38273390D01*
X63812440Y-38021500D01*
X63812440Y-36021500D01*
X63768162Y-35786183D01*
X63629090Y-35570059D01*
X63416890Y-35425069D01*
X63165000Y-35374060D01*
X62565000Y-35374060D01*
X62329683Y-35418338D01*
X62230472Y-35482178D01*
X62146890Y-35425069D01*
X61895000Y-35374060D01*
X61295000Y-35374060D01*
X61059683Y-35418338D01*
X60960472Y-35482178D01*
X60876890Y-35425069D01*
X60625000Y-35374060D01*
X60025000Y-35374060D01*
X59789683Y-35418338D01*
X59690472Y-35482178D01*
X59606890Y-35425069D01*
X59355000Y-35374060D01*
X58755000Y-35374060D01*
X58519683Y-35418338D01*
X58429020Y-35476678D01*
X58211310Y-35386500D01*
X58070750Y-35386500D01*
X57912000Y-35545250D01*
X57912000Y-36894500D01*
X57932000Y-36894500D01*
X57932000Y-37148500D01*
X57912000Y-37148500D01*
X57912000Y-37168500D01*
X57658000Y-37168500D01*
X57658000Y-37148500D01*
X57638000Y-37148500D01*
X57638000Y-36894500D01*
X57658000Y-36894500D01*
X57658000Y-35545250D01*
X57499250Y-35386500D01*
X57358690Y-35386500D01*
X57226200Y-35441379D01*
X57226200Y-31156088D01*
X59113349Y-29268940D01*
X59355000Y-29268940D01*
X59590317Y-29224662D01*
X59680980Y-29166322D01*
X59898690Y-29256500D01*
X60039250Y-29256500D01*
X60198000Y-29097750D01*
X60198000Y-27748500D01*
X60452000Y-27748500D01*
X60452000Y-29097750D01*
X60610750Y-29256500D01*
X60751310Y-29256500D01*
X60960000Y-29170058D01*
X61168690Y-29256500D01*
X61309250Y-29256500D01*
X61468000Y-29097750D01*
X61468000Y-27748500D01*
X61722000Y-27748500D01*
X61722000Y-29097750D01*
X61880750Y-29256500D01*
X62021310Y-29256500D01*
X62230000Y-29170058D01*
X62438690Y-29256500D01*
X62579250Y-29256500D01*
X62738000Y-29097750D01*
X62738000Y-27748500D01*
X62992000Y-27748500D01*
X62992000Y-29097750D01*
X63150750Y-29256500D01*
X63291310Y-29256500D01*
X63524699Y-29159827D01*
X63703327Y-28981198D01*
X63800000Y-28747809D01*
X63800000Y-27907250D01*
X63641250Y-27748500D01*
X62992000Y-27748500D01*
X62738000Y-27748500D01*
X61722000Y-27748500D01*
X61468000Y-27748500D01*
X60452000Y-27748500D01*
X60198000Y-27748500D01*
X60178000Y-27748500D01*
X60178000Y-27494500D01*
X60198000Y-27494500D01*
X60198000Y-26145250D01*
X60452000Y-26145250D01*
X60452000Y-27494500D01*
X61468000Y-27494500D01*
X61468000Y-26145250D01*
X61722000Y-26145250D01*
X61722000Y-27494500D01*
X62738000Y-27494500D01*
X62738000Y-26145250D01*
X62992000Y-26145250D01*
X62992000Y-27494500D01*
X63641250Y-27494500D01*
X63800000Y-27335750D01*
X63800000Y-26495191D01*
X63703327Y-26261802D01*
X63524699Y-26083173D01*
X63291310Y-25986500D01*
X63150750Y-25986500D01*
X62992000Y-26145250D01*
X62738000Y-26145250D01*
X62579250Y-25986500D01*
X62438690Y-25986500D01*
X62230000Y-26072942D01*
X62021310Y-25986500D01*
X61880750Y-25986500D01*
X61722000Y-26145250D01*
X61468000Y-26145250D01*
X61309250Y-25986500D01*
X61168690Y-25986500D01*
X60960000Y-26072942D01*
X60751310Y-25986500D01*
X60610750Y-25986500D01*
X60452000Y-26145250D01*
X60198000Y-26145250D01*
X60039250Y-25986500D01*
X59898690Y-25986500D01*
X59681878Y-26076306D01*
X59606890Y-26025069D01*
X59355000Y-25974060D01*
X58755000Y-25974060D01*
X58519683Y-26018338D01*
X58420472Y-26082178D01*
X58336890Y-26025069D01*
X58268474Y-26011214D01*
X58616972Y-25662716D01*
X59055000Y-25749845D01*
X59628489Y-25635771D01*
X60114670Y-25310915D01*
X60321461Y-25001431D01*
X60692964Y-25417232D01*
X61220209Y-25671209D01*
X61235974Y-25673858D01*
X61468000Y-25552717D01*
X61468000Y-24193500D01*
X61722000Y-24193500D01*
X61722000Y-25552717D01*
X61954026Y-25673858D01*
X61969791Y-25671209D01*
X62497036Y-25417232D01*
X62886954Y-24980820D01*
X63080184Y-24428413D01*
X62935924Y-24193500D01*
X61722000Y-24193500D01*
X61468000Y-24193500D01*
X61448000Y-24193500D01*
X61448000Y-23939500D01*
X61468000Y-23939500D01*
X61468000Y-22580283D01*
X61722000Y-22580283D01*
X61722000Y-23939500D01*
X62935924Y-23939500D01*
X63080184Y-23704587D01*
X62886954Y-23152180D01*
X62497036Y-22715768D01*
X61969791Y-22461791D01*
X61954026Y-22459142D01*
X61722000Y-22580283D01*
X61468000Y-22580283D01*
X61235974Y-22459142D01*
X61220209Y-22461791D01*
X60692964Y-22715768D01*
X60321461Y-23131569D01*
X60114670Y-22822085D01*
X59628489Y-22497229D01*
X59055000Y-22383155D01*
X58481511Y-22497229D01*
X57995330Y-22822085D01*
X57785000Y-23136866D01*
X57574670Y-22822085D01*
X57088489Y-22497229D01*
X56515000Y-22383155D01*
X55941511Y-22497229D01*
X55455330Y-22822085D01*
X55245000Y-23136866D01*
X55034670Y-22822085D01*
X54548489Y-22497229D01*
X53975000Y-22383155D01*
X53416200Y-22494307D01*
X53416200Y-21464877D01*
X53472571Y-21680300D01*
X53972980Y-21856427D01*
X54502699Y-21827648D01*
X54858429Y-21680300D01*
X54920083Y-21444688D01*
X55800917Y-21444688D01*
X55862571Y-21680300D01*
X56362980Y-21856427D01*
X56892699Y-21827648D01*
X57248429Y-21680300D01*
X57310083Y-21444688D01*
X56555500Y-20690105D01*
X55800917Y-21444688D01*
X54920083Y-21444688D01*
X54165500Y-20690105D01*
X54151358Y-20704248D01*
X53971753Y-20524643D01*
X53985895Y-20510500D01*
X54345105Y-20510500D01*
X55099688Y-21265083D01*
X55335300Y-21203429D01*
X55358453Y-21137648D01*
X55385700Y-21203429D01*
X55621312Y-21265083D01*
X56375895Y-20510500D01*
X56735105Y-20510500D01*
X57489688Y-21265083D01*
X57725300Y-21203429D01*
X57901427Y-20703020D01*
X57880509Y-20317980D01*
X61709573Y-20317980D01*
X61738352Y-20847699D01*
X61885700Y-21203429D01*
X62121312Y-21265083D01*
X62875895Y-20510500D01*
X62121312Y-19755917D01*
X61885700Y-19817571D01*
X61709573Y-20317980D01*
X57880509Y-20317980D01*
X57872648Y-20173301D01*
X57725300Y-19817571D01*
X57489688Y-19755917D01*
X56735105Y-20510500D01*
X56375895Y-20510500D01*
X55621312Y-19755917D01*
X55385700Y-19817571D01*
X55362547Y-19883352D01*
X55335300Y-19817571D01*
X55099688Y-19755917D01*
X54345105Y-20510500D01*
X53985895Y-20510500D01*
X53971753Y-20496358D01*
X54151358Y-20316753D01*
X54165500Y-20330895D01*
X54920083Y-19576312D01*
X55800917Y-19576312D01*
X56555500Y-20330895D01*
X57310083Y-19576312D01*
X57248429Y-19340700D01*
X56748020Y-19164573D01*
X56218301Y-19193352D01*
X55862571Y-19340700D01*
X55800917Y-19576312D01*
X54920083Y-19576312D01*
X54858429Y-19340700D01*
X54358020Y-19164573D01*
X54291078Y-19168210D01*
X56166446Y-17292843D01*
X56289087Y-17343768D01*
X56819586Y-17344231D01*
X57309880Y-17141646D01*
X57685327Y-16766853D01*
X57888768Y-16276913D01*
X57889231Y-15746414D01*
X57686646Y-15256120D01*
X57675545Y-15245000D01*
X61934836Y-15245000D01*
X61925673Y-15254147D01*
G36*
X37645673Y-15254147D02*
X37442232Y-15744087D01*
X37441769Y-16274586D01*
X37644354Y-16764880D01*
X38019147Y-17140327D01*
X38509087Y-17343768D01*
X39039586Y-17344231D01*
X39529880Y-17141646D01*
X39905327Y-16766853D01*
X40108768Y-16276913D01*
X40109231Y-15746414D01*
X39906646Y-15256120D01*
X39895545Y-15245000D01*
X44154836Y-15245000D01*
X44145673Y-15254147D01*
X43942232Y-15744087D01*
X43941769Y-16274586D01*
X44144354Y-16764880D01*
X44519147Y-17140327D01*
X45009087Y-17343768D01*
X45539586Y-17344231D01*
X46029880Y-17141646D01*
X46405327Y-16766853D01*
X46470408Y-16610120D01*
X46534354Y-16764880D01*
X46909147Y-17140327D01*
X47399087Y-17343768D01*
X47929586Y-17344231D01*
X48419880Y-17141646D01*
X48795327Y-16766853D01*
X48998768Y-16276913D01*
X48999231Y-15746414D01*
X48796646Y-15256120D01*
X48785545Y-15245000D01*
X53044836Y-15245000D01*
X53035673Y-15254147D01*
X52832232Y-15744087D01*
X52831769Y-16274586D01*
X53034354Y-16764880D01*
X53409147Y-17140327D01*
X53899087Y-17343768D01*
X54103765Y-17343947D01*
X52202106Y-19245606D01*
X52047937Y-19476335D01*
X52028050Y-19576312D01*
X51993800Y-19748500D01*
X51993800Y-22494307D01*
X51435000Y-22383155D01*
X50861511Y-22497229D01*
X50375330Y-22822085D01*
X50165000Y-23136866D01*
X49954670Y-22822085D01*
X49468489Y-22497229D01*
X48895000Y-22383155D01*
X48321511Y-22497229D01*
X47835330Y-22822085D01*
X47625000Y-23136866D01*
X47414670Y-22822085D01*
X46928489Y-22497229D01*
X46355000Y-22383155D01*
X45781511Y-22497229D01*
X45295330Y-22822085D01*
X45085000Y-23136866D01*
X44874670Y-22822085D01*
X44388489Y-22497229D01*
X43815000Y-22383155D01*
X43241511Y-22497229D01*
X42755330Y-22822085D01*
X42745757Y-22836413D01*
X42741762Y-22815183D01*
X42602690Y-22599059D01*
X42390490Y-22454069D01*
X42138600Y-22403060D01*
X40411400Y-22403060D01*
X40176083Y-22447338D01*
X39959959Y-22586410D01*
X39814969Y-22798610D01*
X39763960Y-23050500D01*
X39763960Y-25082500D01*
X39808238Y-25317817D01*
X39947310Y-25533941D01*
X40159510Y-25678931D01*
X40411400Y-25729940D01*
X42138600Y-25729940D01*
X42373917Y-25685662D01*
X42542131Y-25577419D01*
X43462129Y-26497417D01*
X43083857Y-26654103D01*
X43014392Y-26896287D01*
X43815000Y-27696895D01*
X43829143Y-27682753D01*
X44008748Y-27862358D01*
X43994605Y-27876500D01*
X44795213Y-28677108D01*
X45037397Y-28607643D01*
X45186570Y-28189517D01*
X45319835Y-28278563D01*
X45364990Y-28287545D01*
X45407560Y-28296012D01*
X45407560Y-28621500D01*
X45451838Y-28856817D01*
X45590910Y-29072941D01*
X45803110Y-29217931D01*
X46055000Y-29268940D01*
X46655000Y-29268940D01*
X46890317Y-29224662D01*
X46989528Y-29160822D01*
X47073110Y-29217931D01*
X47325000Y-29268940D01*
X47925000Y-29268940D01*
X48160317Y-29224662D01*
X48259528Y-29160822D01*
X48343110Y-29217931D01*
X48595000Y-29268940D01*
X49195000Y-29268940D01*
X49430317Y-29224662D01*
X49529528Y-29160822D01*
X49613110Y-29217931D01*
X49865000Y-29268940D01*
X50465000Y-29268940D01*
X50479716Y-29266171D01*
X45852106Y-33893782D01*
X45697937Y-34124511D01*
X45652388Y-34353500D01*
X45643800Y-34396676D01*
X45643800Y-35531516D01*
X45603559Y-35557410D01*
X45458569Y-35769610D01*
X45407560Y-36021500D01*
X45407560Y-37992134D01*
X45295436Y-38014437D01*
X45211971Y-38070206D01*
X45212242Y-37759839D01*
X45000010Y-37246197D01*
X44607370Y-36852871D01*
X44094100Y-36639743D01*
X43538339Y-36639258D01*
X43024697Y-36851490D01*
X42917394Y-36958606D01*
X42308150Y-36349362D01*
X42404827Y-36252853D01*
X42608268Y-35762913D01*
X42608731Y-35232414D01*
X42406146Y-34742120D01*
X42031353Y-34366673D01*
X41693554Y-34226406D01*
X42029380Y-34087646D01*
X42404827Y-33712853D01*
X42608268Y-33222913D01*
X42608731Y-32692414D01*
X42406146Y-32202120D01*
X42031353Y-31826673D01*
X41693554Y-31686406D01*
X42029380Y-31547646D01*
X42404827Y-31172853D01*
X42608268Y-30682913D01*
X42608731Y-30152414D01*
X42406146Y-29662120D01*
X42031353Y-29286673D01*
X41693554Y-29146406D01*
X42029380Y-29007646D01*
X42180576Y-28856713D01*
X43014392Y-28856713D01*
X43083857Y-29098897D01*
X43607302Y-29285644D01*
X44162368Y-29257862D01*
X44546143Y-29098897D01*
X44615608Y-28856713D01*
X43815000Y-28056105D01*
X43014392Y-28856713D01*
X42180576Y-28856713D01*
X42404827Y-28632853D01*
X42504058Y-28393878D01*
X42592603Y-28607643D01*
X42834787Y-28677108D01*
X43635395Y-27876500D01*
X42834787Y-27075892D01*
X42592603Y-27145357D01*
X42510656Y-27375053D01*
X42406146Y-27122120D01*
X42031353Y-26746673D01*
X41541413Y-26543232D01*
X41010914Y-26542769D01*
X40520620Y-26745354D01*
X40145173Y-27120147D01*
X39941732Y-27610087D01*
X39941269Y-28140586D01*
X40143854Y-28630880D01*
X40518647Y-29006327D01*
X40856446Y-29146594D01*
X40520620Y-29285354D01*
X40145173Y-29660147D01*
X39941732Y-30150087D01*
X39941269Y-30680586D01*
X40143854Y-31170880D01*
X40518647Y-31546327D01*
X40856446Y-31686594D01*
X40520620Y-31825354D01*
X40145173Y-32200147D01*
X39941732Y-32690087D01*
X39941269Y-33220586D01*
X40143854Y-33710880D01*
X40518647Y-34086327D01*
X40856446Y-34226594D01*
X40520620Y-34365354D01*
X40145173Y-34740147D01*
X39941732Y-35230087D01*
X39941269Y-35760586D01*
X40143854Y-36250880D01*
X40242007Y-36349204D01*
X39710412Y-36880800D01*
X37188088Y-36880800D01*
X34378925Y-34071637D01*
X34379069Y-33905837D01*
X34230507Y-33546288D01*
X33955659Y-33270960D01*
X33596370Y-33121770D01*
X33314423Y-33121524D01*
X33314423Y-30518265D01*
X33322254Y-30510434D01*
X33401300Y-30543257D01*
X33957061Y-30543742D01*
X34470703Y-30331510D01*
X34864029Y-29938870D01*
X35077157Y-29425600D01*
X35077642Y-28869839D01*
X34865410Y-28356197D01*
X34472770Y-27962871D01*
X34391600Y-27929166D01*
X34391600Y-27824195D01*
X34470703Y-27791510D01*
X34864029Y-27398870D01*
X35077157Y-26885600D01*
X35077642Y-26329839D01*
X34865410Y-25816197D01*
X34472770Y-25422871D01*
X33959500Y-25209743D01*
X33403739Y-25209258D01*
X32890097Y-25421490D01*
X32496771Y-25814130D01*
X32370093Y-26119204D01*
X31110922Y-24860034D01*
X31115000Y-24860845D01*
X31688489Y-24746771D01*
X32174670Y-24421915D01*
X32385000Y-24107134D01*
X32595330Y-24421915D01*
X33081511Y-24746771D01*
X33655000Y-24860845D01*
X34228489Y-24746771D01*
X34714670Y-24421915D01*
X34729500Y-24399720D01*
X34793073Y-24553198D01*
X34971701Y-24731827D01*
X35205090Y-24828500D01*
X35909250Y-24828500D01*
X36068000Y-24669750D01*
X36068000Y-23304500D01*
X36322000Y-23304500D01*
X36322000Y-24669750D01*
X36480750Y-24828500D01*
X37184910Y-24828500D01*
X37418299Y-24731827D01*
X37596927Y-24553198D01*
X37693600Y-24319809D01*
X37693600Y-23463250D01*
X37534850Y-23304500D01*
X36322000Y-23304500D01*
X36068000Y-23304500D01*
X36048000Y-23304500D01*
X36048000Y-23050500D01*
X36068000Y-23050500D01*
X36068000Y-21685250D01*
X36322000Y-21685250D01*
X36322000Y-23050500D01*
X37534850Y-23050500D01*
X37693600Y-22891750D01*
X37693600Y-22035191D01*
X37596927Y-21801802D01*
X37418299Y-21623173D01*
X37184910Y-21526500D01*
X36480750Y-21526500D01*
X36322000Y-21685250D01*
X36068000Y-21685250D01*
X35909250Y-21526500D01*
X35205090Y-21526500D01*
X34971701Y-21623173D01*
X34793073Y-21801802D01*
X34729500Y-21955280D01*
X34714670Y-21933085D01*
X34228489Y-21608229D01*
X33779391Y-21518898D01*
X33853601Y-21444688D01*
X38020917Y-21444688D01*
X38082571Y-21680300D01*
X38582980Y-21856427D01*
X39112699Y-21827648D01*
X39468429Y-21680300D01*
X39530083Y-21444688D01*
X44520917Y-21444688D01*
X44582571Y-21680300D01*
X45082980Y-21856427D01*
X45612699Y-21827648D01*
X45968429Y-21680300D01*
X46030083Y-21444688D01*
X46910917Y-21444688D01*
X46972571Y-21680300D01*
X47472980Y-21856427D01*
X48002699Y-21827648D01*
X48358429Y-21680300D01*
X48420083Y-21444688D01*
X47665500Y-20690105D01*
X46910917Y-21444688D01*
X46030083Y-21444688D01*
X45275500Y-20690105D01*
X44520917Y-21444688D01*
X39530083Y-21444688D01*
X38775500Y-20690105D01*
X38020917Y-21444688D01*
X33853601Y-21444688D01*
X34183294Y-21114995D01*
X34337462Y-20884265D01*
X34337463Y-20884264D01*
X34391600Y-20612100D01*
X34391600Y-20330050D01*
X34455746Y-20317980D01*
X37429573Y-20317980D01*
X37458352Y-20847699D01*
X37605700Y-21203429D01*
X37841312Y-21265083D01*
X38595895Y-20510500D01*
X38955105Y-20510500D01*
X39709688Y-21265083D01*
X39945300Y-21203429D01*
X40121427Y-20703020D01*
X40100509Y-20317980D01*
X43929573Y-20317980D01*
X43958352Y-20847699D01*
X44105700Y-21203429D01*
X44341312Y-21265083D01*
X45095895Y-20510500D01*
X45455105Y-20510500D01*
X46209688Y-21265083D01*
X46445300Y-21203429D01*
X46468453Y-21137648D01*
X46495700Y-21203429D01*
X46731312Y-21265083D01*
X47485895Y-20510500D01*
X47845105Y-20510500D01*
X48599688Y-21265083D01*
X48835300Y-21203429D01*
X49011427Y-20703020D01*
X48982648Y-20173301D01*
X48835300Y-19817571D01*
X48599688Y-19755917D01*
X47845105Y-20510500D01*
X47485895Y-20510500D01*
X46731312Y-19755917D01*
X46495700Y-19817571D01*
X46472547Y-19883352D01*
X46445300Y-19817571D01*
X46209688Y-19755917D01*
X45455105Y-20510500D01*
X45095895Y-20510500D01*
X44341312Y-19755917D01*
X44105700Y-19817571D01*
X43929573Y-20317980D01*
X40100509Y-20317980D01*
X40092648Y-20173301D01*
X39945300Y-19817571D01*
X39709688Y-19755917D01*
X38955105Y-20510500D01*
X38595895Y-20510500D01*
X37841312Y-19755917D01*
X37605700Y-19817571D01*
X37429573Y-20317980D01*
X34455746Y-20317980D01*
X34614217Y-20288162D01*
X34830341Y-20149090D01*
X34975331Y-19936890D01*
X35026340Y-19685000D01*
X35026340Y-19576312D01*
X38020917Y-19576312D01*
X38775500Y-20330895D01*
X39530083Y-19576312D01*
X44520917Y-19576312D01*
X45275500Y-20330895D01*
X46030083Y-19576312D01*
X46910917Y-19576312D01*
X47665500Y-20330895D01*
X48420083Y-19576312D01*
X48358429Y-19340700D01*
X47858020Y-19164573D01*
X47328301Y-19193352D01*
X46972571Y-19340700D01*
X46910917Y-19576312D01*
X46030083Y-19576312D01*
X45968429Y-19340700D01*
X45468020Y-19164573D01*
X44938301Y-19193352D01*
X44582571Y-19340700D01*
X44520917Y-19576312D01*
X39530083Y-19576312D01*
X39468429Y-19340700D01*
X38968020Y-19164573D01*
X38438301Y-19193352D01*
X38082571Y-19340700D01*
X38020917Y-19576312D01*
X35026340Y-19576312D01*
X35026340Y-18288000D01*
X34982062Y-18052683D01*
X34842990Y-17836559D01*
X34630790Y-17691569D01*
X34391600Y-17643132D01*
X34391600Y-17595488D01*
X34434780Y-17577646D01*
X34810227Y-17202853D01*
X35013668Y-16712913D01*
X35014131Y-16182414D01*
X34811546Y-15692120D01*
X34436753Y-15316673D01*
X34264145Y-15245000D01*
X37654836Y-15245000D01*
X37645673Y-15254147D01*
X37645673Y-15254147D01*
G37*
X37645673Y-15254147D02*
X37442232Y-15744087D01*
X37441769Y-16274586D01*
X37644354Y-16764880D01*
X38019147Y-17140327D01*
X38509087Y-17343768D01*
X39039586Y-17344231D01*
X39529880Y-17141646D01*
X39905327Y-16766853D01*
X40108768Y-16276913D01*
X40109231Y-15746414D01*
X39906646Y-15256120D01*
X39895545Y-15245000D01*
X44154836Y-15245000D01*
X44145673Y-15254147D01*
X43942232Y-15744087D01*
X43941769Y-16274586D01*
X44144354Y-16764880D01*
X44519147Y-17140327D01*
X45009087Y-17343768D01*
X45539586Y-17344231D01*
X46029880Y-17141646D01*
X46405327Y-16766853D01*
X46470408Y-16610120D01*
X46534354Y-16764880D01*
X46909147Y-17140327D01*
X47399087Y-17343768D01*
X47929586Y-17344231D01*
X48419880Y-17141646D01*
X48795327Y-16766853D01*
X48998768Y-16276913D01*
X48999231Y-15746414D01*
X48796646Y-15256120D01*
X48785545Y-15245000D01*
X53044836Y-15245000D01*
X53035673Y-15254147D01*
X52832232Y-15744087D01*
X52831769Y-16274586D01*
X53034354Y-16764880D01*
X53409147Y-17140327D01*
X53899087Y-17343768D01*
X54103765Y-17343947D01*
X52202106Y-19245606D01*
X52047937Y-19476335D01*
X52028050Y-19576312D01*
X51993800Y-19748500D01*
X51993800Y-22494307D01*
X51435000Y-22383155D01*
X50861511Y-22497229D01*
X50375330Y-22822085D01*
X50165000Y-23136866D01*
X49954670Y-22822085D01*
X49468489Y-22497229D01*
X48895000Y-22383155D01*
X48321511Y-22497229D01*
X47835330Y-22822085D01*
X47625000Y-23136866D01*
X47414670Y-22822085D01*
X46928489Y-22497229D01*
X46355000Y-22383155D01*
X45781511Y-22497229D01*
X45295330Y-22822085D01*
X45085000Y-23136866D01*
X44874670Y-22822085D01*
X44388489Y-22497229D01*
X43815000Y-22383155D01*
X43241511Y-22497229D01*
X42755330Y-22822085D01*
X42745757Y-22836413D01*
X42741762Y-22815183D01*
X42602690Y-22599059D01*
X42390490Y-22454069D01*
X42138600Y-22403060D01*
X40411400Y-22403060D01*
X40176083Y-22447338D01*
X39959959Y-22586410D01*
X39814969Y-22798610D01*
X39763960Y-23050500D01*
X39763960Y-25082500D01*
X39808238Y-25317817D01*
X39947310Y-25533941D01*
X40159510Y-25678931D01*
X40411400Y-25729940D01*
X42138600Y-25729940D01*
X42373917Y-25685662D01*
X42542131Y-25577419D01*
X43462129Y-26497417D01*
X43083857Y-26654103D01*
X43014392Y-26896287D01*
X43815000Y-27696895D01*
X43829143Y-27682753D01*
X44008748Y-27862358D01*
X43994605Y-27876500D01*
X44795213Y-28677108D01*
X45037397Y-28607643D01*
X45186570Y-28189517D01*
X45319835Y-28278563D01*
X45364990Y-28287545D01*
X45407560Y-28296012D01*
X45407560Y-28621500D01*
X45451838Y-28856817D01*
X45590910Y-29072941D01*
X45803110Y-29217931D01*
X46055000Y-29268940D01*
X46655000Y-29268940D01*
X46890317Y-29224662D01*
X46989528Y-29160822D01*
X47073110Y-29217931D01*
X47325000Y-29268940D01*
X47925000Y-29268940D01*
X48160317Y-29224662D01*
X48259528Y-29160822D01*
X48343110Y-29217931D01*
X48595000Y-29268940D01*
X49195000Y-29268940D01*
X49430317Y-29224662D01*
X49529528Y-29160822D01*
X49613110Y-29217931D01*
X49865000Y-29268940D01*
X50465000Y-29268940D01*
X50479716Y-29266171D01*
X45852106Y-33893782D01*
X45697937Y-34124511D01*
X45652388Y-34353500D01*
X45643800Y-34396676D01*
X45643800Y-35531516D01*
X45603559Y-35557410D01*
X45458569Y-35769610D01*
X45407560Y-36021500D01*
X45407560Y-37992134D01*
X45295436Y-38014437D01*
X45211971Y-38070206D01*
X45212242Y-37759839D01*
X45000010Y-37246197D01*
X44607370Y-36852871D01*
X44094100Y-36639743D01*
X43538339Y-36639258D01*
X43024697Y-36851490D01*
X42917394Y-36958606D01*
X42308150Y-36349362D01*
X42404827Y-36252853D01*
X42608268Y-35762913D01*
X42608731Y-35232414D01*
X42406146Y-34742120D01*
X42031353Y-34366673D01*
X41693554Y-34226406D01*
X42029380Y-34087646D01*
X42404827Y-33712853D01*
X42608268Y-33222913D01*
X42608731Y-32692414D01*
X42406146Y-32202120D01*
X42031353Y-31826673D01*
X41693554Y-31686406D01*
X42029380Y-31547646D01*
X42404827Y-31172853D01*
X42608268Y-30682913D01*
X42608731Y-30152414D01*
X42406146Y-29662120D01*
X42031353Y-29286673D01*
X41693554Y-29146406D01*
X42029380Y-29007646D01*
X42180576Y-28856713D01*
X43014392Y-28856713D01*
X43083857Y-29098897D01*
X43607302Y-29285644D01*
X44162368Y-29257862D01*
X44546143Y-29098897D01*
X44615608Y-28856713D01*
X43815000Y-28056105D01*
X43014392Y-28856713D01*
X42180576Y-28856713D01*
X42404827Y-28632853D01*
X42504058Y-28393878D01*
X42592603Y-28607643D01*
X42834787Y-28677108D01*
X43635395Y-27876500D01*
X42834787Y-27075892D01*
X42592603Y-27145357D01*
X42510656Y-27375053D01*
X42406146Y-27122120D01*
X42031353Y-26746673D01*
X41541413Y-26543232D01*
X41010914Y-26542769D01*
X40520620Y-26745354D01*
X40145173Y-27120147D01*
X39941732Y-27610087D01*
X39941269Y-28140586D01*
X40143854Y-28630880D01*
X40518647Y-29006327D01*
X40856446Y-29146594D01*
X40520620Y-29285354D01*
X40145173Y-29660147D01*
X39941732Y-30150087D01*
X39941269Y-30680586D01*
X40143854Y-31170880D01*
X40518647Y-31546327D01*
X40856446Y-31686594D01*
X40520620Y-31825354D01*
X40145173Y-32200147D01*
X39941732Y-32690087D01*
X39941269Y-33220586D01*
X40143854Y-33710880D01*
X40518647Y-34086327D01*
X40856446Y-34226594D01*
X40520620Y-34365354D01*
X40145173Y-34740147D01*
X39941732Y-35230087D01*
X39941269Y-35760586D01*
X40143854Y-36250880D01*
X40242007Y-36349204D01*
X39710412Y-36880800D01*
X37188088Y-36880800D01*
X34378925Y-34071637D01*
X34379069Y-33905837D01*
X34230507Y-33546288D01*
X33955659Y-33270960D01*
X33596370Y-33121770D01*
X33314423Y-33121524D01*
X33314423Y-30518265D01*
X33322254Y-30510434D01*
X33401300Y-30543257D01*
X33957061Y-30543742D01*
X34470703Y-30331510D01*
X34864029Y-29938870D01*
X35077157Y-29425600D01*
X35077642Y-28869839D01*
X34865410Y-28356197D01*
X34472770Y-27962871D01*
X34391600Y-27929166D01*
X34391600Y-27824195D01*
X34470703Y-27791510D01*
X34864029Y-27398870D01*
X35077157Y-26885600D01*
X35077642Y-26329839D01*
X34865410Y-25816197D01*
X34472770Y-25422871D01*
X33959500Y-25209743D01*
X33403739Y-25209258D01*
X32890097Y-25421490D01*
X32496771Y-25814130D01*
X32370093Y-26119204D01*
X31110922Y-24860034D01*
X31115000Y-24860845D01*
X31688489Y-24746771D01*
X32174670Y-24421915D01*
X32385000Y-24107134D01*
X32595330Y-24421915D01*
X33081511Y-24746771D01*
X33655000Y-24860845D01*
X34228489Y-24746771D01*
X34714670Y-24421915D01*
X34729500Y-24399720D01*
X34793073Y-24553198D01*
X34971701Y-24731827D01*
X35205090Y-24828500D01*
X35909250Y-24828500D01*
X36068000Y-24669750D01*
X36068000Y-23304500D01*
X36322000Y-23304500D01*
X36322000Y-24669750D01*
X36480750Y-24828500D01*
X37184910Y-24828500D01*
X37418299Y-24731827D01*
X37596927Y-24553198D01*
X37693600Y-24319809D01*
X37693600Y-23463250D01*
X37534850Y-23304500D01*
X36322000Y-23304500D01*
X36068000Y-23304500D01*
X36048000Y-23304500D01*
X36048000Y-23050500D01*
X36068000Y-23050500D01*
X36068000Y-21685250D01*
X36322000Y-21685250D01*
X36322000Y-23050500D01*
X37534850Y-23050500D01*
X37693600Y-22891750D01*
X37693600Y-22035191D01*
X37596927Y-21801802D01*
X37418299Y-21623173D01*
X37184910Y-21526500D01*
X36480750Y-21526500D01*
X36322000Y-21685250D01*
X36068000Y-21685250D01*
X35909250Y-21526500D01*
X35205090Y-21526500D01*
X34971701Y-21623173D01*
X34793073Y-21801802D01*
X34729500Y-21955280D01*
X34714670Y-21933085D01*
X34228489Y-21608229D01*
X33779391Y-21518898D01*
X33853601Y-21444688D01*
X38020917Y-21444688D01*
X38082571Y-21680300D01*
X38582980Y-21856427D01*
X39112699Y-21827648D01*
X39468429Y-21680300D01*
X39530083Y-21444688D01*
X44520917Y-21444688D01*
X44582571Y-21680300D01*
X45082980Y-21856427D01*
X45612699Y-21827648D01*
X45968429Y-21680300D01*
X46030083Y-21444688D01*
X46910917Y-21444688D01*
X46972571Y-21680300D01*
X47472980Y-21856427D01*
X48002699Y-21827648D01*
X48358429Y-21680300D01*
X48420083Y-21444688D01*
X47665500Y-20690105D01*
X46910917Y-21444688D01*
X46030083Y-21444688D01*
X45275500Y-20690105D01*
X44520917Y-21444688D01*
X39530083Y-21444688D01*
X38775500Y-20690105D01*
X38020917Y-21444688D01*
X33853601Y-21444688D01*
X34183294Y-21114995D01*
X34337462Y-20884265D01*
X34337463Y-20884264D01*
X34391600Y-20612100D01*
X34391600Y-20330050D01*
X34455746Y-20317980D01*
X37429573Y-20317980D01*
X37458352Y-20847699D01*
X37605700Y-21203429D01*
X37841312Y-21265083D01*
X38595895Y-20510500D01*
X38955105Y-20510500D01*
X39709688Y-21265083D01*
X39945300Y-21203429D01*
X40121427Y-20703020D01*
X40100509Y-20317980D01*
X43929573Y-20317980D01*
X43958352Y-20847699D01*
X44105700Y-21203429D01*
X44341312Y-21265083D01*
X45095895Y-20510500D01*
X45455105Y-20510500D01*
X46209688Y-21265083D01*
X46445300Y-21203429D01*
X46468453Y-21137648D01*
X46495700Y-21203429D01*
X46731312Y-21265083D01*
X47485895Y-20510500D01*
X47845105Y-20510500D01*
X48599688Y-21265083D01*
X48835300Y-21203429D01*
X49011427Y-20703020D01*
X48982648Y-20173301D01*
X48835300Y-19817571D01*
X48599688Y-19755917D01*
X47845105Y-20510500D01*
X47485895Y-20510500D01*
X46731312Y-19755917D01*
X46495700Y-19817571D01*
X46472547Y-19883352D01*
X46445300Y-19817571D01*
X46209688Y-19755917D01*
X45455105Y-20510500D01*
X45095895Y-20510500D01*
X44341312Y-19755917D01*
X44105700Y-19817571D01*
X43929573Y-20317980D01*
X40100509Y-20317980D01*
X40092648Y-20173301D01*
X39945300Y-19817571D01*
X39709688Y-19755917D01*
X38955105Y-20510500D01*
X38595895Y-20510500D01*
X37841312Y-19755917D01*
X37605700Y-19817571D01*
X37429573Y-20317980D01*
X34455746Y-20317980D01*
X34614217Y-20288162D01*
X34830341Y-20149090D01*
X34975331Y-19936890D01*
X35026340Y-19685000D01*
X35026340Y-19576312D01*
X38020917Y-19576312D01*
X38775500Y-20330895D01*
X39530083Y-19576312D01*
X44520917Y-19576312D01*
X45275500Y-20330895D01*
X46030083Y-19576312D01*
X46910917Y-19576312D01*
X47665500Y-20330895D01*
X48420083Y-19576312D01*
X48358429Y-19340700D01*
X47858020Y-19164573D01*
X47328301Y-19193352D01*
X46972571Y-19340700D01*
X46910917Y-19576312D01*
X46030083Y-19576312D01*
X45968429Y-19340700D01*
X45468020Y-19164573D01*
X44938301Y-19193352D01*
X44582571Y-19340700D01*
X44520917Y-19576312D01*
X39530083Y-19576312D01*
X39468429Y-19340700D01*
X38968020Y-19164573D01*
X38438301Y-19193352D01*
X38082571Y-19340700D01*
X38020917Y-19576312D01*
X35026340Y-19576312D01*
X35026340Y-18288000D01*
X34982062Y-18052683D01*
X34842990Y-17836559D01*
X34630790Y-17691569D01*
X34391600Y-17643132D01*
X34391600Y-17595488D01*
X34434780Y-17577646D01*
X34810227Y-17202853D01*
X35013668Y-16712913D01*
X35014131Y-16182414D01*
X34811546Y-15692120D01*
X34436753Y-15316673D01*
X34264145Y-15245000D01*
X37654836Y-15245000D01*
X37645673Y-15254147D01*
G36*
X26035000Y-24860845D02*
X26473028Y-24773716D01*
X31282401Y-29583090D01*
X31282401Y-30389661D01*
X30785572Y-30418417D01*
X30451271Y-30556889D01*
X30395590Y-30787484D01*
X31115000Y-31506895D01*
X31129143Y-31492753D01*
X31282401Y-31646011D01*
X31282401Y-31726989D01*
X31129143Y-31880248D01*
X31115000Y-31866105D01*
X31100858Y-31880248D01*
X30921252Y-31700642D01*
X30935395Y-31686500D01*
X30215984Y-30967090D01*
X29985389Y-31022771D01*
X29945216Y-31138214D01*
X29814490Y-30935059D01*
X29602290Y-30790069D01*
X29350400Y-30739060D01*
X27850400Y-30739060D01*
X27615083Y-30783338D01*
X27398959Y-30922410D01*
X27253969Y-31134610D01*
X27202960Y-31386500D01*
X27202960Y-31986500D01*
X27247238Y-32221817D01*
X27311078Y-32321028D01*
X27253969Y-32404610D01*
X27202960Y-32656500D01*
X27202960Y-33256500D01*
X27247238Y-33491817D01*
X27305578Y-33582480D01*
X27215400Y-33800190D01*
X27215400Y-33940750D01*
X27374150Y-34099500D01*
X28473400Y-34099500D01*
X28473400Y-34079500D01*
X28727400Y-34079500D01*
X28727400Y-34099500D01*
X28747400Y-34099500D01*
X28747400Y-34150300D01*
X27813000Y-34150300D01*
X27585990Y-34195455D01*
X27540835Y-34204437D01*
X27310106Y-34358606D01*
X25499137Y-36169575D01*
X25333337Y-36169431D01*
X24973788Y-36317993D01*
X24698460Y-36592841D01*
X24597840Y-36835161D01*
X24597840Y-36466500D01*
X24553562Y-36231183D01*
X24489722Y-36131972D01*
X24546831Y-36048390D01*
X24597840Y-35796500D01*
X24597840Y-35196500D01*
X24553562Y-34961183D01*
X24489722Y-34861972D01*
X24546831Y-34778390D01*
X24597840Y-34526500D01*
X24597840Y-33926500D01*
X24553562Y-33691183D01*
X24489722Y-33591972D01*
X24546831Y-33508390D01*
X24597840Y-33256500D01*
X24597840Y-32656500D01*
X24553562Y-32421183D01*
X24489722Y-32321972D01*
X24546831Y-32238390D01*
X24597840Y-31986500D01*
X24597840Y-31386500D01*
X24553562Y-31151183D01*
X24414490Y-30935059D01*
X24202290Y-30790069D01*
X23950400Y-30739060D01*
X23063200Y-30739060D01*
X23063200Y-30466630D01*
X23312702Y-30555644D01*
X23867768Y-30527862D01*
X24251543Y-30368897D01*
X24321008Y-30126713D01*
X23520400Y-29326105D01*
X23506258Y-29340248D01*
X23326653Y-29160643D01*
X23340795Y-29146500D01*
X23700005Y-29146500D01*
X24500613Y-29947108D01*
X24742797Y-29877643D01*
X24929544Y-29354198D01*
X24901762Y-28799132D01*
X24742797Y-28415357D01*
X24500613Y-28345892D01*
X23700005Y-29146500D01*
X23340795Y-29146500D01*
X23326653Y-29132358D01*
X23506258Y-28952753D01*
X23520400Y-28966895D01*
X24321008Y-28166287D01*
X24251543Y-27924103D01*
X24111082Y-27873991D01*
X24310703Y-27791510D01*
X24704029Y-27398870D01*
X24917157Y-26885600D01*
X24917642Y-26329839D01*
X24884079Y-26248609D01*
X25267894Y-25864794D01*
X25422063Y-25634065D01*
X25431045Y-25588910D01*
X25476200Y-25361900D01*
X25476200Y-24749693D01*
X26035000Y-24860845D01*
X26035000Y-24860845D01*
G37*
X26035000Y-24860845D02*
X26473028Y-24773716D01*
X31282401Y-29583090D01*
X31282401Y-30389661D01*
X30785572Y-30418417D01*
X30451271Y-30556889D01*
X30395590Y-30787484D01*
X31115000Y-31506895D01*
X31129143Y-31492753D01*
X31282401Y-31646011D01*
X31282401Y-31726989D01*
X31129143Y-31880248D01*
X31115000Y-31866105D01*
X31100858Y-31880248D01*
X30921252Y-31700642D01*
X30935395Y-31686500D01*
X30215984Y-30967090D01*
X29985389Y-31022771D01*
X29945216Y-31138214D01*
X29814490Y-30935059D01*
X29602290Y-30790069D01*
X29350400Y-30739060D01*
X27850400Y-30739060D01*
X27615083Y-30783338D01*
X27398959Y-30922410D01*
X27253969Y-31134610D01*
X27202960Y-31386500D01*
X27202960Y-31986500D01*
X27247238Y-32221817D01*
X27311078Y-32321028D01*
X27253969Y-32404610D01*
X27202960Y-32656500D01*
X27202960Y-33256500D01*
X27247238Y-33491817D01*
X27305578Y-33582480D01*
X27215400Y-33800190D01*
X27215400Y-33940750D01*
X27374150Y-34099500D01*
X28473400Y-34099500D01*
X28473400Y-34079500D01*
X28727400Y-34079500D01*
X28727400Y-34099500D01*
X28747400Y-34099500D01*
X28747400Y-34150300D01*
X27813000Y-34150300D01*
X27585990Y-34195455D01*
X27540835Y-34204437D01*
X27310106Y-34358606D01*
X25499137Y-36169575D01*
X25333337Y-36169431D01*
X24973788Y-36317993D01*
X24698460Y-36592841D01*
X24597840Y-36835161D01*
X24597840Y-36466500D01*
X24553562Y-36231183D01*
X24489722Y-36131972D01*
X24546831Y-36048390D01*
X24597840Y-35796500D01*
X24597840Y-35196500D01*
X24553562Y-34961183D01*
X24489722Y-34861972D01*
X24546831Y-34778390D01*
X24597840Y-34526500D01*
X24597840Y-33926500D01*
X24553562Y-33691183D01*
X24489722Y-33591972D01*
X24546831Y-33508390D01*
X24597840Y-33256500D01*
X24597840Y-32656500D01*
X24553562Y-32421183D01*
X24489722Y-32321972D01*
X24546831Y-32238390D01*
X24597840Y-31986500D01*
X24597840Y-31386500D01*
X24553562Y-31151183D01*
X24414490Y-30935059D01*
X24202290Y-30790069D01*
X23950400Y-30739060D01*
X23063200Y-30739060D01*
X23063200Y-30466630D01*
X23312702Y-30555644D01*
X23867768Y-30527862D01*
X24251543Y-30368897D01*
X24321008Y-30126713D01*
X23520400Y-29326105D01*
X23506258Y-29340248D01*
X23326653Y-29160643D01*
X23340795Y-29146500D01*
X23700005Y-29146500D01*
X24500613Y-29947108D01*
X24742797Y-29877643D01*
X24929544Y-29354198D01*
X24901762Y-28799132D01*
X24742797Y-28415357D01*
X24500613Y-28345892D01*
X23700005Y-29146500D01*
X23340795Y-29146500D01*
X23326653Y-29132358D01*
X23506258Y-28952753D01*
X23520400Y-28966895D01*
X24321008Y-28166287D01*
X24251543Y-27924103D01*
X24111082Y-27873991D01*
X24310703Y-27791510D01*
X24704029Y-27398870D01*
X24917157Y-26885600D01*
X24917642Y-26329839D01*
X24884079Y-26248609D01*
X25267894Y-25864794D01*
X25422063Y-25634065D01*
X25431045Y-25588910D01*
X25476200Y-25361900D01*
X25476200Y-24749693D01*
X26035000Y-24860845D01*
G36*
X23622967Y-15246722D02*
X23265075Y-15782345D01*
X23139400Y-16414155D01*
X23139400Y-16478845D01*
X23265075Y-17110655D01*
X23465772Y-17411019D01*
X23414701Y-17432173D01*
X23236073Y-17610802D01*
X23139400Y-17844191D01*
X23139400Y-18700750D01*
X23298150Y-18859500D01*
X24663400Y-18859500D01*
X24663400Y-18839500D01*
X24917400Y-18839500D01*
X24917400Y-18859500D01*
X26282650Y-18859500D01*
X26441400Y-18700750D01*
X26441400Y-17844191D01*
X26344727Y-17610802D01*
X26166099Y-17432173D01*
X26115028Y-17411019D01*
X26284291Y-17157700D01*
X27256850Y-17157700D01*
X27298738Y-17380317D01*
X27437810Y-17596441D01*
X27615393Y-17717778D01*
X27450459Y-17823910D01*
X27305469Y-18036110D01*
X27254460Y-18288000D01*
X27254460Y-19685000D01*
X27298738Y-19920317D01*
X27436816Y-20134896D01*
X27010412Y-20561300D01*
X26116673Y-20561300D01*
X26166099Y-20540827D01*
X26344727Y-20362198D01*
X26441400Y-20128809D01*
X26441400Y-19272250D01*
X26282650Y-19113500D01*
X24917400Y-19113500D01*
X24917400Y-20478750D01*
X25076150Y-20637500D01*
X25602816Y-20637500D01*
X25405106Y-20769606D01*
X24367014Y-21807698D01*
X24068489Y-21608229D01*
X23495000Y-21494155D01*
X22921511Y-21608229D01*
X22435330Y-21933085D01*
X22110474Y-22419266D01*
X21996400Y-22992755D01*
X21996400Y-23362245D01*
X22110474Y-23935734D01*
X22435330Y-24421915D01*
X22921511Y-24746771D01*
X23495000Y-24860845D01*
X24053800Y-24749693D01*
X24053800Y-25067312D01*
X23878546Y-25242566D01*
X23799500Y-25209743D01*
X23243739Y-25209258D01*
X23039517Y-25293640D01*
X23009063Y-25140536D01*
X22911443Y-24994437D01*
X22854895Y-24909806D01*
X21246840Y-23301752D01*
X21246840Y-21932900D01*
X21202562Y-21697583D01*
X21063490Y-21481459D01*
X20851290Y-21336469D01*
X20599400Y-21285460D01*
X18674000Y-21285460D01*
X18674000Y-19272250D01*
X23139400Y-19272250D01*
X23139400Y-20128809D01*
X23236073Y-20362198D01*
X23414701Y-20540827D01*
X23648090Y-20637500D01*
X24504650Y-20637500D01*
X24663400Y-20478750D01*
X24663400Y-19113500D01*
X23298150Y-19113500D01*
X23139400Y-19272250D01*
X18674000Y-19272250D01*
X18674000Y-15245000D01*
X23625544Y-15245000D01*
X23622967Y-15246722D01*
X23622967Y-15246722D01*
G37*
X23622967Y-15246722D02*
X23265075Y-15782345D01*
X23139400Y-16414155D01*
X23139400Y-16478845D01*
X23265075Y-17110655D01*
X23465772Y-17411019D01*
X23414701Y-17432173D01*
X23236073Y-17610802D01*
X23139400Y-17844191D01*
X23139400Y-18700750D01*
X23298150Y-18859500D01*
X24663400Y-18859500D01*
X24663400Y-18839500D01*
X24917400Y-18839500D01*
X24917400Y-18859500D01*
X26282650Y-18859500D01*
X26441400Y-18700750D01*
X26441400Y-17844191D01*
X26344727Y-17610802D01*
X26166099Y-17432173D01*
X26115028Y-17411019D01*
X26284291Y-17157700D01*
X27256850Y-17157700D01*
X27298738Y-17380317D01*
X27437810Y-17596441D01*
X27615393Y-17717778D01*
X27450459Y-17823910D01*
X27305469Y-18036110D01*
X27254460Y-18288000D01*
X27254460Y-19685000D01*
X27298738Y-19920317D01*
X27436816Y-20134896D01*
X27010412Y-20561300D01*
X26116673Y-20561300D01*
X26166099Y-20540827D01*
X26344727Y-20362198D01*
X26441400Y-20128809D01*
X26441400Y-19272250D01*
X26282650Y-19113500D01*
X24917400Y-19113500D01*
X24917400Y-20478750D01*
X25076150Y-20637500D01*
X25602816Y-20637500D01*
X25405106Y-20769606D01*
X24367014Y-21807698D01*
X24068489Y-21608229D01*
X23495000Y-21494155D01*
X22921511Y-21608229D01*
X22435330Y-21933085D01*
X22110474Y-22419266D01*
X21996400Y-22992755D01*
X21996400Y-23362245D01*
X22110474Y-23935734D01*
X22435330Y-24421915D01*
X22921511Y-24746771D01*
X23495000Y-24860845D01*
X24053800Y-24749693D01*
X24053800Y-25067312D01*
X23878546Y-25242566D01*
X23799500Y-25209743D01*
X23243739Y-25209258D01*
X23039517Y-25293640D01*
X23009063Y-25140536D01*
X22911443Y-24994437D01*
X22854895Y-24909806D01*
X21246840Y-23301752D01*
X21246840Y-21932900D01*
X21202562Y-21697583D01*
X21063490Y-21481459D01*
X20851290Y-21336469D01*
X20599400Y-21285460D01*
X18674000Y-21285460D01*
X18674000Y-19272250D01*
X23139400Y-19272250D01*
X23139400Y-20128809D01*
X23236073Y-20362198D01*
X23414701Y-20540827D01*
X23648090Y-20637500D01*
X24504650Y-20637500D01*
X24663400Y-20478750D01*
X24663400Y-19113500D01*
X23298150Y-19113500D01*
X23139400Y-19272250D01*
X18674000Y-19272250D01*
X18674000Y-15245000D01*
X23625544Y-15245000D01*
X23622967Y-15246722D01*
M02*
