G04 #@! TF.FileFunction,Legend,Top*
%FSLAX46Y46*%
G04 Gerber Fmt 4.6, Leading zero omitted, Abs format (unit mm)*
G04 Created by KiCad (PCBNEW 4.0.2-stable) date Friday, August 05, 2016 'pmt' 09:57:19 pm*
%MOMM*%
G01*
G04 APERTURE LIST*
%ADD10C,0.100000*%
%ADD11C,0.150000*%
%ADD12R,1.000000X2.400000*%
%ADD13C,1.924000*%
%ADD14R,2.127200X2.432000*%
%ADD15O,2.127200X2.432000*%
%ADD16R,1.797000X1.797000*%
%ADD17R,1.700000X1.700000*%
%ADD18C,1.700000*%
%ADD19R,1.700000X1.100000*%
%ADD20R,2.432000X2.127200*%
%ADD21O,2.432000X2.127200*%
%ADD22R,2.432000X2.432000*%
%ADD23O,2.432000X2.432000*%
%ADD24C,1.797000*%
%ADD25R,1.900000X1.000000*%
G04 APERTURE END LIST*
D10*
D11*
X22320238Y-56245881D02*
X22891667Y-56245881D01*
X22605952Y-57245881D02*
X22605952Y-56245881D01*
X23796429Y-57150643D02*
X23748810Y-57198262D01*
X23605953Y-57245881D01*
X23510715Y-57245881D01*
X23367857Y-57198262D01*
X23272619Y-57103024D01*
X23225000Y-57007786D01*
X23177381Y-56817310D01*
X23177381Y-56674452D01*
X23225000Y-56483976D01*
X23272619Y-56388738D01*
X23367857Y-56293500D01*
X23510715Y-56245881D01*
X23605953Y-56245881D01*
X23748810Y-56293500D01*
X23796429Y-56341119D01*
X24082143Y-56245881D02*
X24653572Y-56245881D01*
X24367857Y-57245881D02*
X24367857Y-56245881D01*
X25653572Y-56579214D02*
X25891667Y-57245881D01*
X26129763Y-56579214D01*
X26463096Y-56341119D02*
X26510715Y-56293500D01*
X26605953Y-56245881D01*
X26844049Y-56245881D01*
X26939287Y-56293500D01*
X26986906Y-56341119D01*
X27034525Y-56436357D01*
X27034525Y-56531595D01*
X26986906Y-56674452D01*
X26415477Y-57245881D01*
X27034525Y-57245881D01*
X27463096Y-57150643D02*
X27510715Y-57198262D01*
X27463096Y-57245881D01*
X27415477Y-57198262D01*
X27463096Y-57150643D01*
X27463096Y-57245881D01*
X28129762Y-56245881D02*
X28225001Y-56245881D01*
X28320239Y-56293500D01*
X28367858Y-56341119D01*
X28415477Y-56436357D01*
X28463096Y-56626833D01*
X28463096Y-56864929D01*
X28415477Y-57055405D01*
X28367858Y-57150643D01*
X28320239Y-57198262D01*
X28225001Y-57245881D01*
X28129762Y-57245881D01*
X28034524Y-57198262D01*
X27986905Y-57150643D01*
X27939286Y-57055405D01*
X27891667Y-56864929D01*
X27891667Y-56626833D01*
X27939286Y-56436357D01*
X27986905Y-56341119D01*
X28034524Y-56293500D01*
X28129762Y-56245881D01*
X22367857Y-57795881D02*
X22986905Y-57795881D01*
X22653571Y-58176833D01*
X22796429Y-58176833D01*
X22891667Y-58224452D01*
X22939286Y-58272071D01*
X22986905Y-58367310D01*
X22986905Y-58605405D01*
X22939286Y-58700643D01*
X22891667Y-58748262D01*
X22796429Y-58795881D01*
X22510714Y-58795881D01*
X22415476Y-58748262D01*
X22367857Y-58700643D01*
X23415476Y-58700643D02*
X23463095Y-58748262D01*
X23415476Y-58795881D01*
X23367857Y-58748262D01*
X23415476Y-58700643D01*
X23415476Y-58795881D01*
X23796428Y-57795881D02*
X24415476Y-57795881D01*
X24082142Y-58176833D01*
X24225000Y-58176833D01*
X24320238Y-58224452D01*
X24367857Y-58272071D01*
X24415476Y-58367310D01*
X24415476Y-58605405D01*
X24367857Y-58700643D01*
X24320238Y-58748262D01*
X24225000Y-58795881D01*
X23939285Y-58795881D01*
X23844047Y-58748262D01*
X23796428Y-58700643D01*
X24844047Y-58414929D02*
X25605952Y-58414929D01*
X26510714Y-57795881D02*
X26320237Y-57795881D01*
X26224999Y-57843500D01*
X26177380Y-57891119D01*
X26082142Y-58033976D01*
X26034523Y-58224452D01*
X26034523Y-58605405D01*
X26082142Y-58700643D01*
X26129761Y-58748262D01*
X26224999Y-58795881D01*
X26415476Y-58795881D01*
X26510714Y-58748262D01*
X26558333Y-58700643D01*
X26605952Y-58605405D01*
X26605952Y-58367310D01*
X26558333Y-58272071D01*
X26510714Y-58224452D01*
X26415476Y-58176833D01*
X26224999Y-58176833D01*
X26129761Y-58224452D01*
X26082142Y-58272071D01*
X26034523Y-58367310D01*
X27034523Y-58700643D02*
X27082142Y-58748262D01*
X27034523Y-58795881D01*
X26986904Y-58748262D01*
X27034523Y-58700643D01*
X27034523Y-58795881D01*
X27701189Y-57795881D02*
X27796428Y-57795881D01*
X27891666Y-57843500D01*
X27939285Y-57891119D01*
X27986904Y-57986357D01*
X28034523Y-58176833D01*
X28034523Y-58414929D01*
X27986904Y-58605405D01*
X27939285Y-58700643D01*
X27891666Y-58748262D01*
X27796428Y-58795881D01*
X27701189Y-58795881D01*
X27605951Y-58748262D01*
X27558332Y-58700643D01*
X27510713Y-58605405D01*
X27463094Y-58414929D01*
X27463094Y-58176833D01*
X27510713Y-57986357D01*
X27558332Y-57891119D01*
X27605951Y-57843500D01*
X27701189Y-57795881D01*
X28367856Y-58129214D02*
X28605951Y-58795881D01*
X28844047Y-58129214D01*
X29272618Y-58748262D02*
X29272618Y-58795881D01*
X29224999Y-58891119D01*
X29177380Y-58938738D01*
X30415475Y-57891119D02*
X30463094Y-57843500D01*
X30558332Y-57795881D01*
X30796428Y-57795881D01*
X30891666Y-57843500D01*
X30939285Y-57891119D01*
X30986904Y-57986357D01*
X30986904Y-58081595D01*
X30939285Y-58224452D01*
X30367856Y-58795881D01*
X30986904Y-58795881D01*
X31891666Y-57795881D02*
X31415475Y-57795881D01*
X31367856Y-58272071D01*
X31415475Y-58224452D01*
X31510713Y-58176833D01*
X31748809Y-58176833D01*
X31844047Y-58224452D01*
X31891666Y-58272071D01*
X31939285Y-58367310D01*
X31939285Y-58605405D01*
X31891666Y-58700643D01*
X31844047Y-58748262D01*
X31748809Y-58795881D01*
X31510713Y-58795881D01*
X31415475Y-58748262D01*
X31367856Y-58700643D01*
X32558332Y-57795881D02*
X32653571Y-57795881D01*
X32748809Y-57843500D01*
X32796428Y-57891119D01*
X32844047Y-57986357D01*
X32891666Y-58176833D01*
X32891666Y-58414929D01*
X32844047Y-58605405D01*
X32796428Y-58700643D01*
X32748809Y-58748262D01*
X32653571Y-58795881D01*
X32558332Y-58795881D01*
X32463094Y-58748262D01*
X32415475Y-58700643D01*
X32367856Y-58605405D01*
X32320237Y-58414929D01*
X32320237Y-58176833D01*
X32367856Y-57986357D01*
X32415475Y-57891119D01*
X32463094Y-57843500D01*
X32558332Y-57795881D01*
X33320237Y-58795881D02*
X33320237Y-58129214D01*
X33320237Y-58224452D02*
X33367856Y-58176833D01*
X33463094Y-58129214D01*
X33605952Y-58129214D01*
X33701190Y-58176833D01*
X33748809Y-58272071D01*
X33748809Y-58795881D01*
X33748809Y-58272071D02*
X33796428Y-58176833D01*
X33891666Y-58129214D01*
X34034523Y-58129214D01*
X34129761Y-58176833D01*
X34177380Y-58272071D01*
X34177380Y-58795881D01*
X34605951Y-58510167D02*
X35082142Y-58510167D01*
X34510713Y-58795881D02*
X34844046Y-57795881D01*
X35177380Y-58795881D01*
X22891667Y-60298262D02*
X22796429Y-60345881D01*
X22605952Y-60345881D01*
X22510714Y-60298262D01*
X22463095Y-60250643D01*
X22415476Y-60155405D01*
X22415476Y-59869690D01*
X22463095Y-59774452D01*
X22510714Y-59726833D01*
X22605952Y-59679214D01*
X22796429Y-59679214D01*
X22891667Y-59726833D01*
X23320238Y-60250643D02*
X23367857Y-60298262D01*
X23320238Y-60345881D01*
X23272619Y-60298262D01*
X23320238Y-60250643D01*
X23320238Y-60345881D01*
X24510714Y-59441119D02*
X24558333Y-59393500D01*
X24653571Y-59345881D01*
X24891667Y-59345881D01*
X24986905Y-59393500D01*
X25034524Y-59441119D01*
X25082143Y-59536357D01*
X25082143Y-59631595D01*
X25034524Y-59774452D01*
X24463095Y-60345881D01*
X25082143Y-60345881D01*
X25701190Y-59345881D02*
X25796429Y-59345881D01*
X25891667Y-59393500D01*
X25939286Y-59441119D01*
X25986905Y-59536357D01*
X26034524Y-59726833D01*
X26034524Y-59964929D01*
X25986905Y-60155405D01*
X25939286Y-60250643D01*
X25891667Y-60298262D01*
X25796429Y-60345881D01*
X25701190Y-60345881D01*
X25605952Y-60298262D01*
X25558333Y-60250643D01*
X25510714Y-60155405D01*
X25463095Y-59964929D01*
X25463095Y-59726833D01*
X25510714Y-59536357D01*
X25558333Y-59441119D01*
X25605952Y-59393500D01*
X25701190Y-59345881D01*
X26986905Y-60345881D02*
X26415476Y-60345881D01*
X26701190Y-60345881D02*
X26701190Y-59345881D01*
X26605952Y-59488738D01*
X26510714Y-59583976D01*
X26415476Y-59631595D01*
X27844048Y-59345881D02*
X27653571Y-59345881D01*
X27558333Y-59393500D01*
X27510714Y-59441119D01*
X27415476Y-59583976D01*
X27367857Y-59774452D01*
X27367857Y-60155405D01*
X27415476Y-60250643D01*
X27463095Y-60298262D01*
X27558333Y-60345881D01*
X27748810Y-60345881D01*
X27844048Y-60298262D01*
X27891667Y-60250643D01*
X27939286Y-60155405D01*
X27939286Y-59917310D01*
X27891667Y-59822071D01*
X27844048Y-59774452D01*
X27748810Y-59726833D01*
X27558333Y-59726833D01*
X27463095Y-59774452D01*
X27415476Y-59822071D01*
X27367857Y-59917310D01*
X22320238Y-60895881D02*
X22891667Y-60895881D01*
X22605952Y-61895881D02*
X22605952Y-60895881D01*
X23653572Y-61895881D02*
X23653572Y-61372071D01*
X23605953Y-61276833D01*
X23510715Y-61229214D01*
X23320238Y-61229214D01*
X23225000Y-61276833D01*
X23653572Y-61848262D02*
X23558334Y-61895881D01*
X23320238Y-61895881D01*
X23225000Y-61848262D01*
X23177381Y-61753024D01*
X23177381Y-61657786D01*
X23225000Y-61562548D01*
X23320238Y-61514929D01*
X23558334Y-61514929D01*
X23653572Y-61467310D01*
X24129762Y-61229214D02*
X24129762Y-61895881D01*
X24129762Y-61324452D02*
X24177381Y-61276833D01*
X24272619Y-61229214D01*
X24415477Y-61229214D01*
X24510715Y-61276833D01*
X24558334Y-61372071D01*
X24558334Y-61895881D01*
X25463096Y-61229214D02*
X25463096Y-62038738D01*
X25415477Y-62133976D01*
X25367858Y-62181595D01*
X25272619Y-62229214D01*
X25129762Y-62229214D01*
X25034524Y-62181595D01*
X25463096Y-61848262D02*
X25367858Y-61895881D01*
X25177381Y-61895881D01*
X25082143Y-61848262D01*
X25034524Y-61800643D01*
X24986905Y-61705405D01*
X24986905Y-61419690D01*
X25034524Y-61324452D01*
X25082143Y-61276833D01*
X25177381Y-61229214D01*
X25367858Y-61229214D01*
X25463096Y-61276833D01*
X25939286Y-61895881D02*
X25939286Y-61229214D01*
X25939286Y-60895881D02*
X25891667Y-60943500D01*
X25939286Y-60991119D01*
X25986905Y-60943500D01*
X25939286Y-60895881D01*
X25939286Y-60991119D01*
X26415476Y-61895881D02*
X26415476Y-60895881D01*
X26415476Y-61276833D02*
X26510714Y-61229214D01*
X26701191Y-61229214D01*
X26796429Y-61276833D01*
X26844048Y-61324452D01*
X26891667Y-61419690D01*
X26891667Y-61705405D01*
X26844048Y-61800643D01*
X26796429Y-61848262D01*
X26701191Y-61895881D01*
X26510714Y-61895881D01*
X26415476Y-61848262D01*
X27463095Y-61895881D02*
X27367857Y-61848262D01*
X27320238Y-61753024D01*
X27320238Y-60895881D01*
X28225001Y-61848262D02*
X28129763Y-61895881D01*
X27939286Y-61895881D01*
X27844048Y-61848262D01*
X27796429Y-61753024D01*
X27796429Y-61372071D01*
X27844048Y-61276833D01*
X27939286Y-61229214D01*
X28129763Y-61229214D01*
X28225001Y-61276833D01*
X28272620Y-61372071D01*
X28272620Y-61467310D01*
X27796429Y-61562548D01*
X29463096Y-61895881D02*
X29463096Y-60895881D01*
X29939286Y-61229214D02*
X29939286Y-61895881D01*
X29939286Y-61324452D02*
X29986905Y-61276833D01*
X30082143Y-61229214D01*
X30225001Y-61229214D01*
X30320239Y-61276833D01*
X30367858Y-61372071D01*
X30367858Y-61895881D01*
X30701191Y-61229214D02*
X31082143Y-61229214D01*
X30844048Y-60895881D02*
X30844048Y-61753024D01*
X30891667Y-61848262D01*
X30986905Y-61895881D01*
X31082143Y-61895881D01*
X31796430Y-61848262D02*
X31701192Y-61895881D01*
X31510715Y-61895881D01*
X31415477Y-61848262D01*
X31367858Y-61753024D01*
X31367858Y-61372071D01*
X31415477Y-61276833D01*
X31510715Y-61229214D01*
X31701192Y-61229214D01*
X31796430Y-61276833D01*
X31844049Y-61372071D01*
X31844049Y-61467310D01*
X31367858Y-61562548D01*
X32272620Y-61895881D02*
X32272620Y-61229214D01*
X32272620Y-61419690D02*
X32320239Y-61324452D01*
X32367858Y-61276833D01*
X32463096Y-61229214D01*
X32558335Y-61229214D01*
X33320240Y-61895881D02*
X33320240Y-61372071D01*
X33272621Y-61276833D01*
X33177383Y-61229214D01*
X32986906Y-61229214D01*
X32891668Y-61276833D01*
X33320240Y-61848262D02*
X33225002Y-61895881D01*
X32986906Y-61895881D01*
X32891668Y-61848262D01*
X32844049Y-61753024D01*
X32844049Y-61657786D01*
X32891668Y-61562548D01*
X32986906Y-61514929D01*
X33225002Y-61514929D01*
X33320240Y-61467310D01*
X34225002Y-61848262D02*
X34129764Y-61895881D01*
X33939287Y-61895881D01*
X33844049Y-61848262D01*
X33796430Y-61800643D01*
X33748811Y-61705405D01*
X33748811Y-61419690D01*
X33796430Y-61324452D01*
X33844049Y-61276833D01*
X33939287Y-61229214D01*
X34129764Y-61229214D01*
X34225002Y-61276833D01*
X34510716Y-61229214D02*
X34891668Y-61229214D01*
X34653573Y-60895881D02*
X34653573Y-61753024D01*
X34701192Y-61848262D01*
X34796430Y-61895881D01*
X34891668Y-61895881D01*
X35225002Y-61895881D02*
X35225002Y-61229214D01*
X35225002Y-60895881D02*
X35177383Y-60943500D01*
X35225002Y-60991119D01*
X35272621Y-60943500D01*
X35225002Y-60895881D01*
X35225002Y-60991119D01*
X35844049Y-61895881D02*
X35748811Y-61848262D01*
X35701192Y-61800643D01*
X35653573Y-61705405D01*
X35653573Y-61419690D01*
X35701192Y-61324452D01*
X35748811Y-61276833D01*
X35844049Y-61229214D01*
X35986907Y-61229214D01*
X36082145Y-61276833D01*
X36129764Y-61324452D01*
X36177383Y-61419690D01*
X36177383Y-61705405D01*
X36129764Y-61800643D01*
X36082145Y-61848262D01*
X35986907Y-61895881D01*
X35844049Y-61895881D01*
X36605954Y-61229214D02*
X36605954Y-61895881D01*
X36605954Y-61324452D02*
X36653573Y-61276833D01*
X36748811Y-61229214D01*
X36891669Y-61229214D01*
X36986907Y-61276833D01*
X37034526Y-61372071D01*
X37034526Y-61895881D01*
X45485000Y-56516500D02*
X45830000Y-56516500D01*
X45485000Y-48766500D02*
X45830000Y-48766500D01*
X63735000Y-48766500D02*
X63390000Y-48766500D01*
X63735000Y-56516500D02*
X63390000Y-56516500D01*
X45485000Y-56516500D02*
X45485000Y-48766500D01*
X63735000Y-56516500D02*
X63735000Y-48766500D01*
X45830000Y-56516500D02*
X45830000Y-58341500D01*
X23520400Y-29146500D02*
X24536400Y-29146500D01*
X24536400Y-29146500D02*
X24536400Y-28130500D01*
X24536400Y-28130500D02*
X32664400Y-28130500D01*
X32664400Y-28130500D02*
X32664400Y-30162500D01*
X32664400Y-30162500D02*
X24536400Y-30162500D01*
X24536400Y-30162500D02*
X24536400Y-29146500D01*
X24536400Y-28638500D02*
X25044400Y-28130500D01*
X33680400Y-29146500D02*
X32664400Y-29146500D01*
X34925000Y-24447500D02*
X22225000Y-24447500D01*
X22225000Y-24447500D02*
X22225000Y-21907500D01*
X22225000Y-21907500D02*
X34925000Y-21907500D01*
X37745000Y-24727500D02*
X36195000Y-24727500D01*
X34925000Y-24447500D02*
X34925000Y-21907500D01*
X36195000Y-21627500D02*
X37745000Y-21627500D01*
X37745000Y-21627500D02*
X37745000Y-24727500D01*
X43815000Y-38036500D02*
X43815000Y-37020500D01*
X43815000Y-37020500D02*
X42799000Y-37020500D01*
X42799000Y-37020500D02*
X42799000Y-28892500D01*
X42799000Y-28892500D02*
X44831000Y-28892500D01*
X44831000Y-28892500D02*
X44831000Y-37020500D01*
X44831000Y-37020500D02*
X43815000Y-37020500D01*
X43307000Y-37020500D02*
X42799000Y-36512500D01*
X43815000Y-27876500D02*
X43815000Y-28892500D01*
X27330400Y-20256500D02*
X27330400Y-17716500D01*
X27330400Y-17716500D02*
X34950400Y-17716500D01*
X34950400Y-17716500D02*
X34950400Y-20256500D01*
X34950400Y-20256500D02*
X27330400Y-20256500D01*
X29870400Y-17716500D02*
X29870400Y-20256500D01*
X29865000Y-34436500D02*
X29865000Y-31436500D01*
X32365000Y-31436500D02*
X32365000Y-34436500D01*
X32603000Y-49106500D02*
X32603000Y-50006500D01*
X32603000Y-52706500D02*
X37503000Y-52706500D01*
X37503000Y-49106500D02*
X32603000Y-49106500D01*
X18313400Y-24066500D02*
X18313400Y-41846500D01*
X18313400Y-41846500D02*
X20853400Y-41846500D01*
X20853400Y-41846500D02*
X20853400Y-24066500D01*
X18033400Y-21246500D02*
X18033400Y-22796500D01*
X18313400Y-24066500D02*
X20853400Y-24066500D01*
X21133400Y-22796500D02*
X21133400Y-21246500D01*
X21133400Y-21246500D02*
X18033400Y-21246500D01*
X18313400Y-44386500D02*
X18313400Y-62166500D01*
X18313400Y-62166500D02*
X20853400Y-62166500D01*
X20853400Y-62166500D02*
X20853400Y-44386500D01*
X18033400Y-41566500D02*
X18033400Y-43116500D01*
X18313400Y-44386500D02*
X20853400Y-44386500D01*
X21133400Y-43116500D02*
X21133400Y-41566500D01*
X21133400Y-41566500D02*
X18033400Y-41566500D01*
X26340400Y-20536500D02*
X26340400Y-18986500D01*
X26060400Y-15176500D02*
X26060400Y-17716500D01*
X26060400Y-17716500D02*
X23520400Y-17716500D01*
X23240400Y-18986500D02*
X23240400Y-20536500D01*
X23240400Y-20536500D02*
X26340400Y-20536500D01*
X23520400Y-17716500D02*
X23520400Y-15176500D01*
X23520400Y-15176500D02*
X26060400Y-15176500D01*
X42545000Y-25336500D02*
X62865000Y-25336500D01*
X62865000Y-25336500D02*
X62865000Y-22796500D01*
X62865000Y-22796500D02*
X42545000Y-22796500D01*
X39725000Y-25616500D02*
X41275000Y-25616500D01*
X42545000Y-25336500D02*
X42545000Y-22796500D01*
X41275000Y-22516500D02*
X39725000Y-22516500D01*
X39725000Y-22516500D02*
X39725000Y-25616500D01*
X45085000Y-41846500D02*
X62865000Y-41846500D01*
X62865000Y-41846500D02*
X62865000Y-39306500D01*
X62865000Y-39306500D02*
X45085000Y-39306500D01*
X42265000Y-42126500D02*
X43815000Y-42126500D01*
X45085000Y-41846500D02*
X45085000Y-39306500D01*
X43815000Y-39026500D02*
X42265000Y-39026500D01*
X42265000Y-39026500D02*
X42265000Y-42126500D01*
X42545000Y-45656500D02*
X62865000Y-45656500D01*
X62865000Y-45656500D02*
X62865000Y-43116500D01*
X62865000Y-43116500D02*
X42545000Y-43116500D01*
X39725000Y-45936500D02*
X41275000Y-45936500D01*
X42545000Y-45656500D02*
X42545000Y-43116500D01*
X41275000Y-42836500D02*
X39725000Y-42836500D01*
X39725000Y-42836500D02*
X39725000Y-45936500D01*
X42545000Y-62166500D02*
X62865000Y-62166500D01*
X62865000Y-62166500D02*
X62865000Y-59626500D01*
X62865000Y-59626500D02*
X42545000Y-59626500D01*
X39725000Y-62446500D02*
X41275000Y-62446500D01*
X42545000Y-62166500D02*
X42545000Y-59626500D01*
X41275000Y-59346500D02*
X39725000Y-59346500D01*
X39725000Y-59346500D02*
X39725000Y-62446500D01*
X41275000Y-46926500D02*
X41275000Y-47942500D01*
X41275000Y-47942500D02*
X42291000Y-47942500D01*
X42291000Y-47942500D02*
X42291000Y-56070500D01*
X42291000Y-56070500D02*
X40259000Y-56070500D01*
X40259000Y-56070500D02*
X40259000Y-47942500D01*
X40259000Y-47942500D02*
X41275000Y-47942500D01*
X41783000Y-47942500D02*
X42291000Y-48450500D01*
X41275000Y-57086500D02*
X41275000Y-56070500D01*
X23520400Y-26606500D02*
X24536400Y-26606500D01*
X24536400Y-26606500D02*
X24536400Y-25590500D01*
X24536400Y-25590500D02*
X32664400Y-25590500D01*
X32664400Y-25590500D02*
X32664400Y-27622500D01*
X32664400Y-27622500D02*
X24536400Y-27622500D01*
X24536400Y-27622500D02*
X24536400Y-26606500D01*
X24536400Y-26098500D02*
X25044400Y-25590500D01*
X33680400Y-26606500D02*
X32664400Y-26606500D01*
X40005000Y-26606500D02*
X42545000Y-26606500D01*
X42545000Y-26606500D02*
X42545000Y-41846500D01*
X42545000Y-41846500D02*
X40005000Y-41846500D01*
X40005000Y-26606500D02*
X40005000Y-41846500D01*
X40005000Y-39306500D02*
X42545000Y-39306500D01*
X27330400Y-17716500D02*
X27330400Y-15176500D01*
X27330400Y-15176500D02*
X34950400Y-15176500D01*
X34950400Y-15176500D02*
X34950400Y-17716500D01*
X34950400Y-17716500D02*
X27330400Y-17716500D01*
X29870400Y-15176500D02*
X29870400Y-17716500D01*
X23825400Y-31056500D02*
X23825400Y-31161500D01*
X27975400Y-31056500D02*
X27975400Y-31161500D01*
X27975400Y-41206500D02*
X27975400Y-41101500D01*
X23825400Y-41206500D02*
X23825400Y-41101500D01*
X23825400Y-31056500D02*
X27975400Y-31056500D01*
X23825400Y-41206500D02*
X27975400Y-41206500D01*
X23825400Y-31161500D02*
X22450400Y-31161500D01*
X23858400Y-42486500D02*
X23858400Y-42591500D01*
X28008400Y-42486500D02*
X28008400Y-42591500D01*
X28008400Y-52636500D02*
X28008400Y-52531500D01*
X23858400Y-52636500D02*
X23858400Y-52531500D01*
X23858400Y-42486500D02*
X28008400Y-42486500D01*
X23858400Y-52636500D02*
X28008400Y-52636500D01*
X23858400Y-42591500D02*
X22483400Y-42591500D01*
X45485000Y-36196500D02*
X45830000Y-36196500D01*
X45485000Y-28446500D02*
X45830000Y-28446500D01*
X63735000Y-28446500D02*
X63390000Y-28446500D01*
X63735000Y-36196500D02*
X63390000Y-36196500D01*
X45485000Y-36196500D02*
X45485000Y-28446500D01*
X63735000Y-36196500D02*
X63735000Y-28446500D01*
X45830000Y-36196500D02*
X45830000Y-38021500D01*
X52915500Y-18260500D02*
G75*
G03X52915500Y-18260500I-2000000J0D01*
G01*
X48915500Y-15260500D02*
X52915500Y-15260500D01*
X53915500Y-17260500D02*
X53915500Y-19260500D01*
X52915500Y-21260500D02*
X48915500Y-21260500D01*
X47915500Y-17260500D02*
X47915500Y-19260500D01*
X61805500Y-18260500D02*
G75*
G03X61805500Y-18260500I-2000000J0D01*
G01*
X57805500Y-15260500D02*
X61805500Y-15260500D01*
X62805500Y-17260500D02*
X62805500Y-19260500D01*
X61805500Y-21260500D02*
X57805500Y-21260500D01*
X56805500Y-17260500D02*
X56805500Y-19260500D01*
X44025500Y-18260500D02*
G75*
G03X44025500Y-18260500I-2000000J0D01*
G01*
X40025500Y-15260500D02*
X44025500Y-15260500D01*
X45025500Y-17260500D02*
X45025500Y-19260500D01*
X44025500Y-21260500D02*
X40025500Y-21260500D01*
X39025500Y-17260500D02*
X39025500Y-19260500D01*
X44092881Y-56324405D02*
X44902405Y-56324405D01*
X44997643Y-56276786D01*
X45045262Y-56229167D01*
X45092881Y-56133929D01*
X45092881Y-55943452D01*
X45045262Y-55848214D01*
X44997643Y-55800595D01*
X44902405Y-55752976D01*
X44092881Y-55752976D01*
X44092881Y-54848214D02*
X44092881Y-55038691D01*
X44140500Y-55133929D01*
X44188119Y-55181548D01*
X44330976Y-55276786D01*
X44521452Y-55324405D01*
X44902405Y-55324405D01*
X44997643Y-55276786D01*
X45045262Y-55229167D01*
X45092881Y-55133929D01*
X45092881Y-54943452D01*
X45045262Y-54848214D01*
X44997643Y-54800595D01*
X44902405Y-54752976D01*
X44664310Y-54752976D01*
X44569071Y-54800595D01*
X44521452Y-54848214D01*
X44473833Y-54943452D01*
X44473833Y-55133929D01*
X44521452Y-55229167D01*
X44569071Y-55276786D01*
X44664310Y-55324405D01*
X50895714Y-53093881D02*
X50895714Y-52093881D01*
X51229048Y-52808167D01*
X51562381Y-52093881D01*
X51562381Y-53093881D01*
X52610000Y-52998643D02*
X52562381Y-53046262D01*
X52419524Y-53093881D01*
X52324286Y-53093881D01*
X52181428Y-53046262D01*
X52086190Y-52951024D01*
X52038571Y-52855786D01*
X51990952Y-52665310D01*
X51990952Y-52522452D01*
X52038571Y-52331976D01*
X52086190Y-52236738D01*
X52181428Y-52141500D01*
X52324286Y-52093881D01*
X52419524Y-52093881D01*
X52562381Y-52141500D01*
X52610000Y-52189119D01*
X53038571Y-53093881D02*
X53038571Y-52093881D01*
X53419524Y-52093881D01*
X53514762Y-52141500D01*
X53562381Y-52189119D01*
X53610000Y-52284357D01*
X53610000Y-52427214D01*
X53562381Y-52522452D01*
X53514762Y-52570071D01*
X53419524Y-52617690D01*
X53038571Y-52617690D01*
X53990952Y-52189119D02*
X54038571Y-52141500D01*
X54133809Y-52093881D01*
X54371905Y-52093881D01*
X54467143Y-52141500D01*
X54514762Y-52189119D01*
X54562381Y-52284357D01*
X54562381Y-52379595D01*
X54514762Y-52522452D01*
X53943333Y-53093881D01*
X54562381Y-53093881D01*
X54895714Y-52093881D02*
X55514762Y-52093881D01*
X55181428Y-52474833D01*
X55324286Y-52474833D01*
X55419524Y-52522452D01*
X55467143Y-52570071D01*
X55514762Y-52665310D01*
X55514762Y-52903405D01*
X55467143Y-52998643D01*
X55419524Y-53046262D01*
X55324286Y-53093881D01*
X55038571Y-53093881D01*
X54943333Y-53046262D01*
X54895714Y-52998643D01*
X56133809Y-52093881D02*
X56229048Y-52093881D01*
X56324286Y-52141500D01*
X56371905Y-52189119D01*
X56419524Y-52284357D01*
X56467143Y-52474833D01*
X56467143Y-52712929D01*
X56419524Y-52903405D01*
X56371905Y-52998643D01*
X56324286Y-53046262D01*
X56229048Y-53093881D01*
X56133809Y-53093881D01*
X56038571Y-53046262D01*
X55990952Y-52998643D01*
X55943333Y-52903405D01*
X55895714Y-52712929D01*
X55895714Y-52474833D01*
X55943333Y-52284357D01*
X55990952Y-52189119D01*
X56038571Y-52141500D01*
X56133809Y-52093881D01*
X57419524Y-53093881D02*
X56848095Y-53093881D01*
X57133809Y-53093881D02*
X57133809Y-52093881D01*
X57038571Y-52236738D01*
X56943333Y-52331976D01*
X56848095Y-52379595D01*
X57752857Y-52093881D02*
X58419524Y-52093881D01*
X57990952Y-53093881D01*
X35520334Y-29344881D02*
X35187000Y-28868690D01*
X34948905Y-29344881D02*
X34948905Y-28344881D01*
X35329858Y-28344881D01*
X35425096Y-28392500D01*
X35472715Y-28440119D01*
X35520334Y-28535357D01*
X35520334Y-28678214D01*
X35472715Y-28773452D01*
X35425096Y-28821071D01*
X35329858Y-28868690D01*
X34948905Y-28868690D01*
X36377477Y-28678214D02*
X36377477Y-29344881D01*
X36139381Y-28297262D02*
X35901286Y-29011548D01*
X36520334Y-29011548D01*
X27433733Y-28694119D02*
X27481352Y-28646500D01*
X27576590Y-28598881D01*
X27814686Y-28598881D01*
X27909924Y-28646500D01*
X27957543Y-28694119D01*
X28005162Y-28789357D01*
X28005162Y-28884595D01*
X27957543Y-29027452D01*
X27386114Y-29598881D01*
X28005162Y-29598881D01*
X28386114Y-28694119D02*
X28433733Y-28646500D01*
X28528971Y-28598881D01*
X28767067Y-28598881D01*
X28862305Y-28646500D01*
X28909924Y-28694119D01*
X28957543Y-28789357D01*
X28957543Y-28884595D01*
X28909924Y-29027452D01*
X28338495Y-29598881D01*
X28957543Y-29598881D01*
X29386114Y-29598881D02*
X29386114Y-28598881D01*
X29481352Y-29217929D02*
X29767067Y-29598881D01*
X29767067Y-28932214D02*
X29386114Y-29313167D01*
X37996905Y-22740881D02*
X37996905Y-21740881D01*
X38377858Y-21740881D01*
X38473096Y-21788500D01*
X38520715Y-21836119D01*
X38568334Y-21931357D01*
X38568334Y-22074214D01*
X38520715Y-22169452D01*
X38473096Y-22217071D01*
X38377858Y-22264690D01*
X37996905Y-22264690D01*
X39425477Y-22074214D02*
X39425477Y-22740881D01*
X39187381Y-21693262D02*
X38949286Y-22407548D01*
X39568334Y-22407548D01*
X39758881Y-35790166D02*
X39282690Y-36123500D01*
X39758881Y-36361595D02*
X38758881Y-36361595D01*
X38758881Y-35980642D01*
X38806500Y-35885404D01*
X38854119Y-35837785D01*
X38949357Y-35790166D01*
X39092214Y-35790166D01*
X39187452Y-35837785D01*
X39235071Y-35885404D01*
X39282690Y-35980642D01*
X39282690Y-36361595D01*
X39758881Y-34837785D02*
X39758881Y-35409214D01*
X39758881Y-35123500D02*
X38758881Y-35123500D01*
X38901738Y-35218738D01*
X38996976Y-35313976D01*
X39044595Y-35409214D01*
X44267381Y-33551738D02*
X44267381Y-34123167D01*
X44267381Y-33837453D02*
X43267381Y-33837453D01*
X43410238Y-33932691D01*
X43505476Y-34027929D01*
X43553095Y-34123167D01*
X43267381Y-32932691D02*
X43267381Y-32837452D01*
X43315000Y-32742214D01*
X43362619Y-32694595D01*
X43457857Y-32646976D01*
X43648333Y-32599357D01*
X43886429Y-32599357D01*
X44076905Y-32646976D01*
X44172143Y-32694595D01*
X44219762Y-32742214D01*
X44267381Y-32837452D01*
X44267381Y-32932691D01*
X44219762Y-33027929D01*
X44172143Y-33075548D01*
X44076905Y-33123167D01*
X43886429Y-33170786D01*
X43648333Y-33170786D01*
X43457857Y-33123167D01*
X43362619Y-33075548D01*
X43315000Y-33027929D01*
X43267381Y-32932691D01*
X44267381Y-32170786D02*
X43267381Y-32170786D01*
X43886429Y-32075548D02*
X44267381Y-31789833D01*
X43600714Y-31789833D02*
X43981667Y-32170786D01*
X27924524Y-21074071D02*
X28067381Y-21121690D01*
X28115000Y-21169310D01*
X28162619Y-21264548D01*
X28162619Y-21407405D01*
X28115000Y-21502643D01*
X28067381Y-21550262D01*
X27972143Y-21597881D01*
X27591190Y-21597881D01*
X27591190Y-20597881D01*
X27924524Y-20597881D01*
X28019762Y-20645500D01*
X28067381Y-20693119D01*
X28115000Y-20788357D01*
X28115000Y-20883595D01*
X28067381Y-20978833D01*
X28019762Y-21026452D01*
X27924524Y-21074071D01*
X27591190Y-21074071D01*
X28543571Y-21312167D02*
X29019762Y-21312167D01*
X28448333Y-21597881D02*
X28781666Y-20597881D01*
X29115000Y-21597881D01*
X29305476Y-20597881D02*
X29876905Y-20597881D01*
X29591190Y-21597881D02*
X29591190Y-20597881D01*
X30067381Y-20597881D02*
X30638810Y-20597881D01*
X30353095Y-21597881D02*
X30353095Y-20597881D01*
X31686429Y-20550262D02*
X30829286Y-21835976D01*
X32353096Y-21074071D02*
X32019762Y-21074071D01*
X32019762Y-21597881D02*
X32019762Y-20597881D01*
X32495953Y-20597881D01*
X32734048Y-20597881D02*
X33305477Y-20597881D01*
X33019762Y-21597881D02*
X33019762Y-20597881D01*
X33638810Y-21597881D02*
X33638810Y-20597881D01*
X33876905Y-20597881D01*
X34019763Y-20645500D01*
X34115001Y-20740738D01*
X34162620Y-20835976D01*
X34210239Y-21026452D01*
X34210239Y-21169310D01*
X34162620Y-21359786D01*
X34115001Y-21455024D01*
X34019763Y-21550262D01*
X33876905Y-21597881D01*
X33638810Y-21597881D01*
X34638810Y-21597881D02*
X34638810Y-20597881D01*
X33361334Y-32043643D02*
X33313715Y-32091262D01*
X33170858Y-32138881D01*
X33075620Y-32138881D01*
X32932762Y-32091262D01*
X32837524Y-31996024D01*
X32789905Y-31900786D01*
X32742286Y-31710310D01*
X32742286Y-31567452D01*
X32789905Y-31376976D01*
X32837524Y-31281738D01*
X32932762Y-31186500D01*
X33075620Y-31138881D01*
X33170858Y-31138881D01*
X33313715Y-31186500D01*
X33361334Y-31234119D01*
X34313715Y-32138881D02*
X33742286Y-32138881D01*
X34028000Y-32138881D02*
X34028000Y-31138881D01*
X33932762Y-31281738D01*
X33837524Y-31376976D01*
X33742286Y-31424595D01*
X32790048Y-32567619D02*
X32837667Y-32520000D01*
X32932905Y-32472381D01*
X33171001Y-32472381D01*
X33266239Y-32520000D01*
X33313858Y-32567619D01*
X33361477Y-32662857D01*
X33361477Y-32758095D01*
X33313858Y-32900952D01*
X32742429Y-33472381D01*
X33361477Y-33472381D01*
X33790048Y-33377143D02*
X33837667Y-33424762D01*
X33790048Y-33472381D01*
X33742429Y-33424762D01*
X33790048Y-33377143D01*
X33790048Y-33472381D01*
X34218619Y-32567619D02*
X34266238Y-32520000D01*
X34361476Y-32472381D01*
X34599572Y-32472381D01*
X34694810Y-32520000D01*
X34742429Y-32567619D01*
X34790048Y-32662857D01*
X34790048Y-32758095D01*
X34742429Y-32900952D01*
X34171000Y-33472381D01*
X34790048Y-33472381D01*
X35647191Y-32805714D02*
X35647191Y-33472381D01*
X35218619Y-32805714D02*
X35218619Y-33329524D01*
X35266238Y-33424762D01*
X35361476Y-33472381D01*
X35504334Y-33472381D01*
X35599572Y-33424762D01*
X35647191Y-33377143D01*
X36456715Y-32948571D02*
X36123381Y-32948571D01*
X36123381Y-33472381D02*
X36123381Y-32472381D01*
X36599572Y-32472381D01*
X32789905Y-48648881D02*
X32789905Y-47648881D01*
X33028000Y-47648881D01*
X33170858Y-47696500D01*
X33266096Y-47791738D01*
X33313715Y-47886976D01*
X33361334Y-48077452D01*
X33361334Y-48220310D01*
X33313715Y-48410786D01*
X33266096Y-48506024D01*
X33170858Y-48601262D01*
X33028000Y-48648881D01*
X32789905Y-48648881D01*
X34313715Y-48648881D02*
X33742286Y-48648881D01*
X34028000Y-48648881D02*
X34028000Y-47648881D01*
X33932762Y-47791738D01*
X33837524Y-47886976D01*
X33742286Y-47934595D01*
X21105905Y-25598381D02*
X21105905Y-24598381D01*
X21486858Y-24598381D01*
X21582096Y-24646000D01*
X21629715Y-24693619D01*
X21677334Y-24788857D01*
X21677334Y-24931714D01*
X21629715Y-25026952D01*
X21582096Y-25074571D01*
X21486858Y-25122190D01*
X21105905Y-25122190D01*
X22629715Y-25598381D02*
X22058286Y-25598381D01*
X22344000Y-25598381D02*
X22344000Y-24598381D01*
X22248762Y-24741238D01*
X22153524Y-24836476D01*
X22058286Y-24884095D01*
X21296405Y-54109881D02*
X21296405Y-53109881D01*
X21677358Y-53109881D01*
X21772596Y-53157500D01*
X21820215Y-53205119D01*
X21867834Y-53300357D01*
X21867834Y-53443214D01*
X21820215Y-53538452D01*
X21772596Y-53586071D01*
X21677358Y-53633690D01*
X21296405Y-53633690D01*
X22248786Y-53205119D02*
X22296405Y-53157500D01*
X22391643Y-53109881D01*
X22629739Y-53109881D01*
X22724977Y-53157500D01*
X22772596Y-53205119D01*
X22820215Y-53300357D01*
X22820215Y-53395595D01*
X22772596Y-53538452D01*
X22201167Y-54109881D01*
X22820215Y-54109881D01*
X21423405Y-16263881D02*
X21423405Y-15263881D01*
X21804358Y-15263881D01*
X21899596Y-15311500D01*
X21947215Y-15359119D01*
X21994834Y-15454357D01*
X21994834Y-15597214D01*
X21947215Y-15692452D01*
X21899596Y-15740071D01*
X21804358Y-15787690D01*
X21423405Y-15787690D01*
X22899596Y-15263881D02*
X22423405Y-15263881D01*
X22375786Y-15740071D01*
X22423405Y-15692452D01*
X22518643Y-15644833D01*
X22756739Y-15644833D01*
X22851977Y-15692452D01*
X22899596Y-15740071D01*
X22947215Y-15835310D01*
X22947215Y-16073405D01*
X22899596Y-16168643D01*
X22851977Y-16216262D01*
X22756739Y-16263881D01*
X22518643Y-16263881D01*
X22423405Y-16216262D01*
X22375786Y-16168643D01*
X37996905Y-25534881D02*
X37996905Y-24534881D01*
X38377858Y-24534881D01*
X38473096Y-24582500D01*
X38520715Y-24630119D01*
X38568334Y-24725357D01*
X38568334Y-24868214D01*
X38520715Y-24963452D01*
X38473096Y-25011071D01*
X38377858Y-25058690D01*
X37996905Y-25058690D01*
X39425477Y-24534881D02*
X39235000Y-24534881D01*
X39139762Y-24582500D01*
X39092143Y-24630119D01*
X38996905Y-24772976D01*
X38949286Y-24963452D01*
X38949286Y-25344405D01*
X38996905Y-25439643D01*
X39044524Y-25487262D01*
X39139762Y-25534881D01*
X39330239Y-25534881D01*
X39425477Y-25487262D01*
X39473096Y-25439643D01*
X39520715Y-25344405D01*
X39520715Y-25106310D01*
X39473096Y-25011071D01*
X39425477Y-24963452D01*
X39330239Y-24915833D01*
X39139762Y-24915833D01*
X39044524Y-24963452D01*
X38996905Y-25011071D01*
X38949286Y-25106310D01*
X37742905Y-41028881D02*
X37742905Y-40028881D01*
X38123858Y-40028881D01*
X38219096Y-40076500D01*
X38266715Y-40124119D01*
X38314334Y-40219357D01*
X38314334Y-40362214D01*
X38266715Y-40457452D01*
X38219096Y-40505071D01*
X38123858Y-40552690D01*
X37742905Y-40552690D01*
X38647667Y-40028881D02*
X39314334Y-40028881D01*
X38885762Y-41028881D01*
X37615905Y-44838881D02*
X37615905Y-43838881D01*
X37996858Y-43838881D01*
X38092096Y-43886500D01*
X38139715Y-43934119D01*
X38187334Y-44029357D01*
X38187334Y-44172214D01*
X38139715Y-44267452D01*
X38092096Y-44315071D01*
X37996858Y-44362690D01*
X37615905Y-44362690D01*
X38758762Y-44267452D02*
X38663524Y-44219833D01*
X38615905Y-44172214D01*
X38568286Y-44076976D01*
X38568286Y-44029357D01*
X38615905Y-43934119D01*
X38663524Y-43886500D01*
X38758762Y-43838881D01*
X38949239Y-43838881D01*
X39044477Y-43886500D01*
X39092096Y-43934119D01*
X39139715Y-44029357D01*
X39139715Y-44076976D01*
X39092096Y-44172214D01*
X39044477Y-44219833D01*
X38949239Y-44267452D01*
X38758762Y-44267452D01*
X38663524Y-44315071D01*
X38615905Y-44362690D01*
X38568286Y-44457929D01*
X38568286Y-44648405D01*
X38615905Y-44743643D01*
X38663524Y-44791262D01*
X38758762Y-44838881D01*
X38949239Y-44838881D01*
X39044477Y-44791262D01*
X39092096Y-44743643D01*
X39139715Y-44648405D01*
X39139715Y-44457929D01*
X39092096Y-44362690D01*
X39044477Y-44315071D01*
X38949239Y-44267452D01*
X42568905Y-59126381D02*
X42568905Y-58126381D01*
X42949858Y-58126381D01*
X43045096Y-58174000D01*
X43092715Y-58221619D01*
X43140334Y-58316857D01*
X43140334Y-58459714D01*
X43092715Y-58554952D01*
X43045096Y-58602571D01*
X42949858Y-58650190D01*
X42568905Y-58650190D01*
X43616524Y-59126381D02*
X43807000Y-59126381D01*
X43902239Y-59078762D01*
X43949858Y-59031143D01*
X44045096Y-58888286D01*
X44092715Y-58697810D01*
X44092715Y-58316857D01*
X44045096Y-58221619D01*
X43997477Y-58174000D01*
X43902239Y-58126381D01*
X43711762Y-58126381D01*
X43616524Y-58174000D01*
X43568905Y-58221619D01*
X43521286Y-58316857D01*
X43521286Y-58554952D01*
X43568905Y-58650190D01*
X43616524Y-58697810D01*
X43711762Y-58745429D01*
X43902239Y-58745429D01*
X43997477Y-58697810D01*
X44045096Y-58650190D01*
X44092715Y-58554952D01*
X39758881Y-55411666D02*
X39282690Y-55745000D01*
X39758881Y-55983095D02*
X38758881Y-55983095D01*
X38758881Y-55602142D01*
X38806500Y-55506904D01*
X38854119Y-55459285D01*
X38949357Y-55411666D01*
X39092214Y-55411666D01*
X39187452Y-55459285D01*
X39235071Y-55506904D01*
X39282690Y-55602142D01*
X39282690Y-55983095D01*
X38854119Y-55030714D02*
X38806500Y-54983095D01*
X38758881Y-54887857D01*
X38758881Y-54649761D01*
X38806500Y-54554523D01*
X38854119Y-54506904D01*
X38949357Y-54459285D01*
X39044595Y-54459285D01*
X39187452Y-54506904D01*
X39758881Y-55078333D01*
X39758881Y-54459285D01*
X40727381Y-52720785D02*
X40727381Y-53196976D01*
X41203571Y-53244595D01*
X41155952Y-53196976D01*
X41108333Y-53101738D01*
X41108333Y-52863642D01*
X41155952Y-52768404D01*
X41203571Y-52720785D01*
X41298810Y-52673166D01*
X41536905Y-52673166D01*
X41632143Y-52720785D01*
X41679762Y-52768404D01*
X41727381Y-52863642D01*
X41727381Y-53101738D01*
X41679762Y-53196976D01*
X41632143Y-53244595D01*
X40727381Y-51816023D02*
X40727381Y-52006500D01*
X40775000Y-52101738D01*
X40822619Y-52149357D01*
X40965476Y-52244595D01*
X41155952Y-52292214D01*
X41536905Y-52292214D01*
X41632143Y-52244595D01*
X41679762Y-52196976D01*
X41727381Y-52101738D01*
X41727381Y-51911261D01*
X41679762Y-51816023D01*
X41632143Y-51768404D01*
X41536905Y-51720785D01*
X41298810Y-51720785D01*
X41203571Y-51768404D01*
X41155952Y-51816023D01*
X41108333Y-51911261D01*
X41108333Y-52101738D01*
X41155952Y-52196976D01*
X41203571Y-52244595D01*
X41298810Y-52292214D01*
X40727381Y-51101738D02*
X40727381Y-51006499D01*
X40775000Y-50911261D01*
X40822619Y-50863642D01*
X40917857Y-50816023D01*
X41108333Y-50768404D01*
X41346429Y-50768404D01*
X41536905Y-50816023D01*
X41632143Y-50863642D01*
X41679762Y-50911261D01*
X41727381Y-51006499D01*
X41727381Y-51101738D01*
X41679762Y-51196976D01*
X41632143Y-51244595D01*
X41536905Y-51292214D01*
X41346429Y-51339833D01*
X41108333Y-51339833D01*
X40917857Y-51292214D01*
X40822619Y-51244595D01*
X40775000Y-51196976D01*
X40727381Y-51101738D01*
X35583834Y-26614381D02*
X35250500Y-26138190D01*
X35012405Y-26614381D02*
X35012405Y-25614381D01*
X35393358Y-25614381D01*
X35488596Y-25662000D01*
X35536215Y-25709619D01*
X35583834Y-25804857D01*
X35583834Y-25947714D01*
X35536215Y-26042952D01*
X35488596Y-26090571D01*
X35393358Y-26138190D01*
X35012405Y-26138190D01*
X35917167Y-25614381D02*
X36536215Y-25614381D01*
X36202881Y-25995333D01*
X36345739Y-25995333D01*
X36440977Y-26042952D01*
X36488596Y-26090571D01*
X36536215Y-26185810D01*
X36536215Y-26423905D01*
X36488596Y-26519143D01*
X36440977Y-26566762D01*
X36345739Y-26614381D01*
X36060024Y-26614381D01*
X35964786Y-26566762D01*
X35917167Y-26519143D01*
X27528972Y-27058881D02*
X26957543Y-27058881D01*
X27243257Y-27058881D02*
X27243257Y-26058881D01*
X27148019Y-26201738D01*
X27052781Y-26296976D01*
X26957543Y-26344595D01*
X28148019Y-26058881D02*
X28243258Y-26058881D01*
X28338496Y-26106500D01*
X28386115Y-26154119D01*
X28433734Y-26249357D01*
X28481353Y-26439833D01*
X28481353Y-26677929D01*
X28433734Y-26868405D01*
X28386115Y-26963643D01*
X28338496Y-27011262D01*
X28243258Y-27058881D01*
X28148019Y-27058881D01*
X28052781Y-27011262D01*
X28005162Y-26963643D01*
X27957543Y-26868405D01*
X27909924Y-26677929D01*
X27909924Y-26439833D01*
X27957543Y-26249357D01*
X28005162Y-26154119D01*
X28052781Y-26106500D01*
X28148019Y-26058881D01*
X29100400Y-26058881D02*
X29195639Y-26058881D01*
X29290877Y-26106500D01*
X29338496Y-26154119D01*
X29386115Y-26249357D01*
X29433734Y-26439833D01*
X29433734Y-26677929D01*
X29386115Y-26868405D01*
X29338496Y-26963643D01*
X29290877Y-27011262D01*
X29195639Y-27058881D01*
X29100400Y-27058881D01*
X29005162Y-27011262D01*
X28957543Y-26963643D01*
X28909924Y-26868405D01*
X28862305Y-26677929D01*
X28862305Y-26439833D01*
X28909924Y-26249357D01*
X28957543Y-26154119D01*
X29005162Y-26106500D01*
X29100400Y-26058881D01*
X29862305Y-27058881D02*
X29862305Y-26058881D01*
X29957543Y-26677929D02*
X30243258Y-27058881D01*
X30243258Y-26392214D02*
X29862305Y-26773167D01*
X39758881Y-33369166D02*
X39282690Y-33702500D01*
X39758881Y-33940595D02*
X38758881Y-33940595D01*
X38758881Y-33559642D01*
X38806500Y-33464404D01*
X38854119Y-33416785D01*
X38949357Y-33369166D01*
X39092214Y-33369166D01*
X39187452Y-33416785D01*
X39235071Y-33464404D01*
X39282690Y-33559642D01*
X39282690Y-33940595D01*
X39758881Y-32369166D02*
X39282690Y-32702500D01*
X39758881Y-32940595D02*
X38758881Y-32940595D01*
X38758881Y-32559642D01*
X38806500Y-32464404D01*
X38854119Y-32416785D01*
X38949357Y-32369166D01*
X39092214Y-32369166D01*
X39187452Y-32416785D01*
X39235071Y-32464404D01*
X39282690Y-32559642D01*
X39282690Y-32940595D01*
X39758881Y-31416785D02*
X39758881Y-31988214D01*
X39758881Y-31702500D02*
X38758881Y-31702500D01*
X38901738Y-31797738D01*
X38996976Y-31892976D01*
X39044595Y-31988214D01*
X39758881Y-28725738D02*
X39758881Y-29297167D01*
X39758881Y-29011453D02*
X38758881Y-29011453D01*
X38901738Y-29106691D01*
X38996976Y-29201929D01*
X39044595Y-29297167D01*
X38758881Y-28106691D02*
X38758881Y-28011452D01*
X38806500Y-27916214D01*
X38854119Y-27868595D01*
X38949357Y-27820976D01*
X39139833Y-27773357D01*
X39377929Y-27773357D01*
X39568405Y-27820976D01*
X39663643Y-27868595D01*
X39711262Y-27916214D01*
X39758881Y-28011452D01*
X39758881Y-28106691D01*
X39711262Y-28201929D01*
X39663643Y-28249548D01*
X39568405Y-28297167D01*
X39377929Y-28344786D01*
X39139833Y-28344786D01*
X38949357Y-28297167D01*
X38854119Y-28249548D01*
X38806500Y-28201929D01*
X38758881Y-28106691D01*
X39758881Y-27344786D02*
X38758881Y-27344786D01*
X39377929Y-27249548D02*
X39758881Y-26963833D01*
X39092214Y-26963833D02*
X39473167Y-27344786D01*
X25146095Y-41298881D02*
X25146095Y-42108405D01*
X25193714Y-42203643D01*
X25241333Y-42251262D01*
X25336571Y-42298881D01*
X25527048Y-42298881D01*
X25622286Y-42251262D01*
X25669905Y-42203643D01*
X25717524Y-42108405D01*
X25717524Y-41298881D01*
X26717524Y-42298881D02*
X26146095Y-42298881D01*
X26431809Y-42298881D02*
X26431809Y-41298881D01*
X26336571Y-41441738D01*
X26241333Y-41536976D01*
X26146095Y-41584595D01*
X26462961Y-39386033D02*
X25462961Y-39386033D01*
X26177247Y-39052699D01*
X25462961Y-38719366D01*
X26462961Y-38719366D01*
X26367723Y-37671747D02*
X26415342Y-37719366D01*
X26462961Y-37862223D01*
X26462961Y-37957461D01*
X26415342Y-38100319D01*
X26320104Y-38195557D01*
X26224866Y-38243176D01*
X26034390Y-38290795D01*
X25891532Y-38290795D01*
X25701056Y-38243176D01*
X25605818Y-38195557D01*
X25510580Y-38100319D01*
X25462961Y-37957461D01*
X25462961Y-37862223D01*
X25510580Y-37719366D01*
X25558199Y-37671747D01*
X26462961Y-37243176D02*
X25462961Y-37243176D01*
X25462961Y-36862223D01*
X25510580Y-36766985D01*
X25558199Y-36719366D01*
X25653437Y-36671747D01*
X25796294Y-36671747D01*
X25891532Y-36719366D01*
X25939151Y-36766985D01*
X25986770Y-36862223D01*
X25986770Y-37243176D01*
X25462961Y-36338414D02*
X25462961Y-35719366D01*
X25843913Y-36052700D01*
X25843913Y-35909842D01*
X25891532Y-35814604D01*
X25939151Y-35766985D01*
X26034390Y-35719366D01*
X26272485Y-35719366D01*
X26367723Y-35766985D01*
X26415342Y-35814604D01*
X26462961Y-35909842D01*
X26462961Y-36195557D01*
X26415342Y-36290795D01*
X26367723Y-36338414D01*
X25558199Y-35338414D02*
X25510580Y-35290795D01*
X25462961Y-35195557D01*
X25462961Y-34957461D01*
X25510580Y-34862223D01*
X25558199Y-34814604D01*
X25653437Y-34766985D01*
X25748675Y-34766985D01*
X25891532Y-34814604D01*
X26462961Y-35386033D01*
X26462961Y-34766985D01*
X25462961Y-34147938D02*
X25462961Y-34052699D01*
X25510580Y-33957461D01*
X25558199Y-33909842D01*
X25653437Y-33862223D01*
X25843913Y-33814604D01*
X26082009Y-33814604D01*
X26272485Y-33862223D01*
X26367723Y-33909842D01*
X26415342Y-33957461D01*
X26462961Y-34052699D01*
X26462961Y-34147938D01*
X26415342Y-34243176D01*
X26367723Y-34290795D01*
X26272485Y-34338414D01*
X26082009Y-34386033D01*
X25843913Y-34386033D01*
X25653437Y-34338414D01*
X25558199Y-34290795D01*
X25510580Y-34243176D01*
X25462961Y-34147938D01*
X25891532Y-33243176D02*
X25843913Y-33338414D01*
X25796294Y-33386033D01*
X25701056Y-33433652D01*
X25653437Y-33433652D01*
X25558199Y-33386033D01*
X25510580Y-33338414D01*
X25462961Y-33243176D01*
X25462961Y-33052699D01*
X25510580Y-32957461D01*
X25558199Y-32909842D01*
X25653437Y-32862223D01*
X25701056Y-32862223D01*
X25796294Y-32909842D01*
X25843913Y-32957461D01*
X25891532Y-33052699D01*
X25891532Y-33243176D01*
X25939151Y-33338414D01*
X25986770Y-33386033D01*
X26082009Y-33433652D01*
X26272485Y-33433652D01*
X26367723Y-33386033D01*
X26415342Y-33338414D01*
X26462961Y-33243176D01*
X26462961Y-33052699D01*
X26415342Y-32957461D01*
X26367723Y-32909842D01*
X26272485Y-32862223D01*
X26082009Y-32862223D01*
X25986770Y-32909842D01*
X25939151Y-32957461D01*
X25891532Y-33052699D01*
X25171495Y-53109881D02*
X25171495Y-53919405D01*
X25219114Y-54014643D01*
X25266733Y-54062262D01*
X25361971Y-54109881D01*
X25552448Y-54109881D01*
X25647686Y-54062262D01*
X25695305Y-54014643D01*
X25742924Y-53919405D01*
X25742924Y-53109881D01*
X26171495Y-53205119D02*
X26219114Y-53157500D01*
X26314352Y-53109881D01*
X26552448Y-53109881D01*
X26647686Y-53157500D01*
X26695305Y-53205119D01*
X26742924Y-53300357D01*
X26742924Y-53395595D01*
X26695305Y-53538452D01*
X26123876Y-54109881D01*
X26742924Y-54109881D01*
X26385781Y-50799595D02*
X25385781Y-50799595D01*
X26100067Y-50466261D01*
X25385781Y-50132928D01*
X26385781Y-50132928D01*
X26290543Y-49085309D02*
X26338162Y-49132928D01*
X26385781Y-49275785D01*
X26385781Y-49371023D01*
X26338162Y-49513881D01*
X26242924Y-49609119D01*
X26147686Y-49656738D01*
X25957210Y-49704357D01*
X25814352Y-49704357D01*
X25623876Y-49656738D01*
X25528638Y-49609119D01*
X25433400Y-49513881D01*
X25385781Y-49371023D01*
X25385781Y-49275785D01*
X25433400Y-49132928D01*
X25481019Y-49085309D01*
X26385781Y-48656738D02*
X25385781Y-48656738D01*
X25385781Y-48275785D01*
X25433400Y-48180547D01*
X25481019Y-48132928D01*
X25576257Y-48085309D01*
X25719114Y-48085309D01*
X25814352Y-48132928D01*
X25861971Y-48180547D01*
X25909590Y-48275785D01*
X25909590Y-48656738D01*
X25385781Y-47751976D02*
X25385781Y-47132928D01*
X25766733Y-47466262D01*
X25766733Y-47323404D01*
X25814352Y-47228166D01*
X25861971Y-47180547D01*
X25957210Y-47132928D01*
X26195305Y-47132928D01*
X26290543Y-47180547D01*
X26338162Y-47228166D01*
X26385781Y-47323404D01*
X26385781Y-47609119D01*
X26338162Y-47704357D01*
X26290543Y-47751976D01*
X25481019Y-46751976D02*
X25433400Y-46704357D01*
X25385781Y-46609119D01*
X25385781Y-46371023D01*
X25433400Y-46275785D01*
X25481019Y-46228166D01*
X25576257Y-46180547D01*
X25671495Y-46180547D01*
X25814352Y-46228166D01*
X26385781Y-46799595D01*
X26385781Y-46180547D01*
X25385781Y-45561500D02*
X25385781Y-45466261D01*
X25433400Y-45371023D01*
X25481019Y-45323404D01*
X25576257Y-45275785D01*
X25766733Y-45228166D01*
X26004829Y-45228166D01*
X26195305Y-45275785D01*
X26290543Y-45323404D01*
X26338162Y-45371023D01*
X26385781Y-45466261D01*
X26385781Y-45561500D01*
X26338162Y-45656738D01*
X26290543Y-45704357D01*
X26195305Y-45751976D01*
X26004829Y-45799595D01*
X25766733Y-45799595D01*
X25576257Y-45751976D01*
X25481019Y-45704357D01*
X25433400Y-45656738D01*
X25385781Y-45561500D01*
X25814352Y-44656738D02*
X25766733Y-44751976D01*
X25719114Y-44799595D01*
X25623876Y-44847214D01*
X25576257Y-44847214D01*
X25481019Y-44799595D01*
X25433400Y-44751976D01*
X25385781Y-44656738D01*
X25385781Y-44466261D01*
X25433400Y-44371023D01*
X25481019Y-44323404D01*
X25576257Y-44275785D01*
X25623876Y-44275785D01*
X25719114Y-44323404D01*
X25766733Y-44371023D01*
X25814352Y-44466261D01*
X25814352Y-44656738D01*
X25861971Y-44751976D01*
X25909590Y-44799595D01*
X26004829Y-44847214D01*
X26195305Y-44847214D01*
X26290543Y-44799595D01*
X26338162Y-44751976D01*
X26385781Y-44656738D01*
X26385781Y-44466261D01*
X26338162Y-44371023D01*
X26290543Y-44323404D01*
X26195305Y-44275785D01*
X26004829Y-44275785D01*
X25909590Y-44323404D01*
X25861971Y-44371023D01*
X25814352Y-44466261D01*
X38758881Y-38798405D02*
X39568405Y-38798405D01*
X39663643Y-38750786D01*
X39711262Y-38703167D01*
X39758881Y-38607929D01*
X39758881Y-38417452D01*
X39711262Y-38322214D01*
X39663643Y-38274595D01*
X39568405Y-38226976D01*
X38758881Y-38226976D01*
X38758881Y-37274595D02*
X38758881Y-37750786D01*
X39235071Y-37798405D01*
X39187452Y-37750786D01*
X39139833Y-37655548D01*
X39139833Y-37417452D01*
X39187452Y-37322214D01*
X39235071Y-37274595D01*
X39330310Y-37226976D01*
X39568405Y-37226976D01*
X39663643Y-37274595D01*
X39711262Y-37322214D01*
X39758881Y-37417452D01*
X39758881Y-37655548D01*
X39711262Y-37750786D01*
X39663643Y-37798405D01*
X50895714Y-32773881D02*
X50895714Y-31773881D01*
X51229048Y-32488167D01*
X51562381Y-31773881D01*
X51562381Y-32773881D01*
X52610000Y-32678643D02*
X52562381Y-32726262D01*
X52419524Y-32773881D01*
X52324286Y-32773881D01*
X52181428Y-32726262D01*
X52086190Y-32631024D01*
X52038571Y-32535786D01*
X51990952Y-32345310D01*
X51990952Y-32202452D01*
X52038571Y-32011976D01*
X52086190Y-31916738D01*
X52181428Y-31821500D01*
X52324286Y-31773881D01*
X52419524Y-31773881D01*
X52562381Y-31821500D01*
X52610000Y-31869119D01*
X53038571Y-32773881D02*
X53038571Y-31773881D01*
X53419524Y-31773881D01*
X53514762Y-31821500D01*
X53562381Y-31869119D01*
X53610000Y-31964357D01*
X53610000Y-32107214D01*
X53562381Y-32202452D01*
X53514762Y-32250071D01*
X53419524Y-32297690D01*
X53038571Y-32297690D01*
X53990952Y-31869119D02*
X54038571Y-31821500D01*
X54133809Y-31773881D01*
X54371905Y-31773881D01*
X54467143Y-31821500D01*
X54514762Y-31869119D01*
X54562381Y-31964357D01*
X54562381Y-32059595D01*
X54514762Y-32202452D01*
X53943333Y-32773881D01*
X54562381Y-32773881D01*
X54895714Y-31773881D02*
X55514762Y-31773881D01*
X55181428Y-32154833D01*
X55324286Y-32154833D01*
X55419524Y-32202452D01*
X55467143Y-32250071D01*
X55514762Y-32345310D01*
X55514762Y-32583405D01*
X55467143Y-32678643D01*
X55419524Y-32726262D01*
X55324286Y-32773881D01*
X55038571Y-32773881D01*
X54943333Y-32726262D01*
X54895714Y-32678643D01*
X56133809Y-31773881D02*
X56229048Y-31773881D01*
X56324286Y-31821500D01*
X56371905Y-31869119D01*
X56419524Y-31964357D01*
X56467143Y-32154833D01*
X56467143Y-32392929D01*
X56419524Y-32583405D01*
X56371905Y-32678643D01*
X56324286Y-32726262D01*
X56229048Y-32773881D01*
X56133809Y-32773881D01*
X56038571Y-32726262D01*
X55990952Y-32678643D01*
X55943333Y-32583405D01*
X55895714Y-32392929D01*
X55895714Y-32154833D01*
X55943333Y-31964357D01*
X55990952Y-31869119D01*
X56038571Y-31821500D01*
X56133809Y-31773881D01*
X57419524Y-32773881D02*
X56848095Y-32773881D01*
X57133809Y-32773881D02*
X57133809Y-31773881D01*
X57038571Y-31916738D01*
X56943333Y-32011976D01*
X56848095Y-32059595D01*
X57752857Y-31773881D02*
X58419524Y-31773881D01*
X57990952Y-32773881D01*
X49903215Y-22026571D02*
X50046072Y-22074190D01*
X50093691Y-22121810D01*
X50141310Y-22217048D01*
X50141310Y-22359905D01*
X50093691Y-22455143D01*
X50046072Y-22502762D01*
X49950834Y-22550381D01*
X49569881Y-22550381D01*
X49569881Y-21550381D01*
X49903215Y-21550381D01*
X49998453Y-21598000D01*
X50046072Y-21645619D01*
X50093691Y-21740857D01*
X50093691Y-21836095D01*
X50046072Y-21931333D01*
X49998453Y-21978952D01*
X49903215Y-22026571D01*
X49569881Y-22026571D01*
X50427024Y-21550381D02*
X50998453Y-21550381D01*
X50712738Y-22550381D02*
X50712738Y-21550381D01*
X51807977Y-22550381D02*
X51331786Y-22550381D01*
X51331786Y-21550381D01*
X52141310Y-22550381D02*
X52141310Y-21550381D01*
X52379405Y-21550381D01*
X52522263Y-21598000D01*
X52617501Y-21693238D01*
X52665120Y-21788476D01*
X52712739Y-21978952D01*
X52712739Y-22121810D01*
X52665120Y-22312286D01*
X52617501Y-22407524D01*
X52522263Y-22502762D01*
X52379405Y-22550381D01*
X52141310Y-22550381D01*
X58261429Y-22550381D02*
X58261429Y-21550381D01*
X58642382Y-21550381D01*
X58737620Y-21598000D01*
X58785239Y-21645619D01*
X58832858Y-21740857D01*
X58832858Y-21883714D01*
X58785239Y-21978952D01*
X58737620Y-22026571D01*
X58642382Y-22074190D01*
X58261429Y-22074190D01*
X59213810Y-22264667D02*
X59690001Y-22264667D01*
X59118572Y-22550381D02*
X59451905Y-21550381D01*
X59785239Y-22550381D01*
X60118572Y-22550381D02*
X60118572Y-21550381D01*
X61166191Y-22550381D02*
X60832857Y-22074190D01*
X60594762Y-22550381D02*
X60594762Y-21550381D01*
X60975715Y-21550381D01*
X61070953Y-21598000D01*
X61118572Y-21645619D01*
X61166191Y-21740857D01*
X61166191Y-21883714D01*
X61118572Y-21978952D01*
X61070953Y-22026571D01*
X60975715Y-22074190D01*
X60594762Y-22074190D01*
X41425881Y-22486881D02*
X41092547Y-22010690D01*
X40854452Y-22486881D02*
X40854452Y-21486881D01*
X41235405Y-21486881D01*
X41330643Y-21534500D01*
X41378262Y-21582119D01*
X41425881Y-21677357D01*
X41425881Y-21820214D01*
X41378262Y-21915452D01*
X41330643Y-21963071D01*
X41235405Y-22010690D01*
X40854452Y-22010690D01*
X41806833Y-22439262D02*
X41949690Y-22486881D01*
X42187786Y-22486881D01*
X42283024Y-22439262D01*
X42330643Y-22391643D01*
X42378262Y-22296405D01*
X42378262Y-22201167D01*
X42330643Y-22105929D01*
X42283024Y-22058310D01*
X42187786Y-22010690D01*
X41997309Y-21963071D01*
X41902071Y-21915452D01*
X41854452Y-21867833D01*
X41806833Y-21772595D01*
X41806833Y-21677357D01*
X41854452Y-21582119D01*
X41902071Y-21534500D01*
X41997309Y-21486881D01*
X42235405Y-21486881D01*
X42378262Y-21534500D01*
X42663976Y-21486881D02*
X43235405Y-21486881D01*
X42949690Y-22486881D02*
X42949690Y-21486881D01*
%LPC*%
D12*
X46355000Y-57341500D03*
X47625000Y-57341500D03*
X48895000Y-57341500D03*
X50165000Y-57341500D03*
X51435000Y-57341500D03*
X52705000Y-57341500D03*
X53975000Y-57341500D03*
X55245000Y-57341500D03*
X56515000Y-57341500D03*
X57785000Y-57341500D03*
X59055000Y-57341500D03*
X60325000Y-57341500D03*
X61595000Y-57341500D03*
X62865000Y-57341500D03*
X62865000Y-47941500D03*
X61595000Y-47941500D03*
X60325000Y-47941500D03*
X59055000Y-47941500D03*
X57785000Y-47941500D03*
X56515000Y-47941500D03*
X55245000Y-47941500D03*
X53975000Y-47941500D03*
X52705000Y-47941500D03*
X51435000Y-47941500D03*
X50165000Y-47941500D03*
X48895000Y-47941500D03*
X47625000Y-47941500D03*
X46355000Y-47941500D03*
D13*
X23520400Y-29146500D03*
X33680400Y-29146500D03*
D14*
X36195000Y-23177500D03*
D15*
X33655000Y-23177500D03*
X31115000Y-23177500D03*
X28575000Y-23177500D03*
X26035000Y-23177500D03*
X23495000Y-23177500D03*
D13*
X43815000Y-38036500D03*
X43815000Y-27876500D03*
D16*
X28600400Y-18986500D03*
X31140400Y-18986500D03*
X33680400Y-18986500D03*
D17*
X31115000Y-34186500D03*
D18*
X31115000Y-31686500D03*
D19*
X33603000Y-49806500D03*
X33603000Y-52006500D03*
X36703000Y-52006500D03*
X36703000Y-49806500D03*
D20*
X19583400Y-22796500D03*
D21*
X19583400Y-25336500D03*
X19583400Y-27876500D03*
X19583400Y-30416500D03*
X19583400Y-32956500D03*
X19583400Y-35496500D03*
X19583400Y-38036500D03*
X19583400Y-40576500D03*
D20*
X19583400Y-43116500D03*
D21*
X19583400Y-45656500D03*
X19583400Y-48196500D03*
X19583400Y-50736500D03*
X19583400Y-53276500D03*
X19583400Y-55816500D03*
X19583400Y-58356500D03*
X19583400Y-60896500D03*
D22*
X24790400Y-18986500D03*
D23*
X24790400Y-16446500D03*
D14*
X41275000Y-24066500D03*
D15*
X43815000Y-24066500D03*
X46355000Y-24066500D03*
X48895000Y-24066500D03*
X51435000Y-24066500D03*
X53975000Y-24066500D03*
X56515000Y-24066500D03*
X59055000Y-24066500D03*
X61595000Y-24066500D03*
D14*
X43815000Y-40576500D03*
D15*
X46355000Y-40576500D03*
X48895000Y-40576500D03*
X51435000Y-40576500D03*
X53975000Y-40576500D03*
X56515000Y-40576500D03*
X59055000Y-40576500D03*
X61595000Y-40576500D03*
D14*
X41275000Y-44386500D03*
D15*
X43815000Y-44386500D03*
X46355000Y-44386500D03*
X48895000Y-44386500D03*
X51435000Y-44386500D03*
X53975000Y-44386500D03*
X56515000Y-44386500D03*
X59055000Y-44386500D03*
X61595000Y-44386500D03*
D14*
X41275000Y-60896500D03*
D15*
X43815000Y-60896500D03*
X46355000Y-60896500D03*
X48895000Y-60896500D03*
X51435000Y-60896500D03*
X53975000Y-60896500D03*
X56515000Y-60896500D03*
X59055000Y-60896500D03*
X61595000Y-60896500D03*
D13*
X41275000Y-46926500D03*
X41275000Y-57086500D03*
X23520400Y-26606500D03*
X33680400Y-26606500D03*
D16*
X41275000Y-40576500D03*
D24*
X41275000Y-38036500D03*
X41275000Y-35496500D03*
X41275000Y-32956500D03*
X41275000Y-30416500D03*
X41275000Y-27876500D03*
D16*
X28600400Y-16446500D03*
D24*
X31140400Y-16446500D03*
X33680400Y-16446500D03*
D25*
X23200400Y-31686500D03*
X23200400Y-32956500D03*
X23200400Y-34226500D03*
X23200400Y-35496500D03*
X23200400Y-36766500D03*
X23200400Y-38036500D03*
X23200400Y-39306500D03*
X23200400Y-40576500D03*
X28600400Y-40576500D03*
X28600400Y-39306500D03*
X28600400Y-38036500D03*
X28600400Y-36766500D03*
X28600400Y-35496500D03*
X28600400Y-34226500D03*
X28600400Y-32956500D03*
X28600400Y-31686500D03*
X23233400Y-43116500D03*
X23233400Y-44386500D03*
X23233400Y-45656500D03*
X23233400Y-46926500D03*
X23233400Y-48196500D03*
X23233400Y-49466500D03*
X23233400Y-50736500D03*
X23233400Y-52006500D03*
X28633400Y-52006500D03*
X28633400Y-50736500D03*
X28633400Y-49466500D03*
X28633400Y-48196500D03*
X28633400Y-46926500D03*
X28633400Y-45656500D03*
X28633400Y-44386500D03*
X28633400Y-43116500D03*
D12*
X46355000Y-37021500D03*
X47625000Y-37021500D03*
X48895000Y-37021500D03*
X50165000Y-37021500D03*
X51435000Y-37021500D03*
X52705000Y-37021500D03*
X53975000Y-37021500D03*
X55245000Y-37021500D03*
X56515000Y-37021500D03*
X57785000Y-37021500D03*
X59055000Y-37021500D03*
X60325000Y-37021500D03*
X61595000Y-37021500D03*
X62865000Y-37021500D03*
X62865000Y-27621500D03*
X61595000Y-27621500D03*
X60325000Y-27621500D03*
X59055000Y-27621500D03*
X57785000Y-27621500D03*
X56515000Y-27621500D03*
X55245000Y-27621500D03*
X53975000Y-27621500D03*
X52705000Y-27621500D03*
X51435000Y-27621500D03*
X50165000Y-27621500D03*
X48895000Y-27621500D03*
X47625000Y-27621500D03*
X46355000Y-27621500D03*
D24*
X54165500Y-16010500D03*
X54165500Y-20510500D03*
X47665500Y-16010500D03*
X47665500Y-20510500D03*
X63055500Y-16010500D03*
X63055500Y-20510500D03*
X56555500Y-16010500D03*
X56555500Y-20510500D03*
X45275500Y-16010500D03*
X45275500Y-20510500D03*
X38775500Y-16010500D03*
X38775500Y-20510500D03*
M02*
